<?xml version="1.0" encoding="utf-8"?>
<!-- Generator: Adobe Illustrator 16.0.0, SVG Export Plug-In . SVG Version: 6.00 Build 0)  -->
<!DOCTYPE svg PUBLIC "-//W3C//DTD SVG 1.0//EN" "http://www.w3.org/TR/2001/REC-SVG-20010904/DTD/svg10.dtd">
<svg version="1.0" id="Layer_1" xmlns="http://www.w3.org/2000/svg" xmlns:xlink="http://www.w3.org/1999/xlink" x="0px" y="0px"
	 width="26px" height="26px" viewBox="0 0 26 26" enable-background="new 0 0 26 26" xml:space="preserve">
<path fill="#808086" d="M19.363,6.636c-0.391-0.391-1.023-0.391-1.414,0L16.435,8.15c-1.533-0.902-3.532-0.71-4.849,0.606
	l-2.829,2.829c-1.316,1.316-1.509,3.316-0.606,4.85L6.636,17.95c-0.391,0.391-0.391,1.023,0,1.414s1.023,0.391,1.414,0l1.515-1.515
	c1.533,0.902,3.533,0.71,4.85-0.606l2.828-2.828c1.316-1.317,1.51-3.317,0.607-4.851l1.514-1.515
	C19.754,7.659,19.754,7.026,19.363,6.636z M15.828,13L13,15.829c-0.521,0.521-1.259,0.686-1.925,0.51l1.218-1.217
	c0.391-0.392,0.391-1.023,0-1.414s-1.023-0.392-1.414,0l-1.218,1.217c-0.175-0.666-0.01-1.403,0.511-1.924L13,10.172
	c0.521-0.521,1.259-0.687,1.925-0.511l-1.218,1.218c-0.391,0.392-0.391,1.023,0,1.414s1.023,0.392,1.414,0l1.217-1.218
	C16.514,11.741,16.349,12.479,15.828,13z"/>
<path fill="#808086" d="M13,1C6.373,1,1,6.373,1,13s5.373,12,12,12s12-5.373,12-12S19.627,1,13,1z M13,24C6.935,24,2,19.065,2,13
	S6.935,2,13,2s11,4.935,11,11S19.065,24,13,24z"/>
</svg>
