<?xml version="1.0" encoding="utf-8"?>
<!-- Generator: Adobe Illustrator 16.0.0, SVG Export Plug-In . SVG Version: 6.00 Build 0)  -->
<!DOCTYPE svg PUBLIC "-//W3C//DTD SVG 1.0//EN" "http://www.w3.org/TR/2001/REC-SVG-20010904/DTD/svg10.dtd">
<svg version="1.0" id="Layer_1" xmlns="http://www.w3.org/2000/svg" xmlns:xlink="http://www.w3.org/1999/xlink" x="0px" y="0px"
	 width="24px" height="24px" viewBox="0 0 24 24" enable-background="new 0 0 24 24" xml:space="preserve">
<path d="M982,230c-6.627,0-12,5.373-12,12s5.373,12,12,12s12-5.373,12-12S988.627,230,982,230z M987.657,246.242l-1.414,1.414
	L982,243.414l-4.242,4.242l-1.414-1.414l4.242-4.242l-4.242-4.242l1.414-1.414l4.242,4.242l4.243-4.242l1.414,1.414L983.414,242
	L987.657,246.242z"/>
<path fill="#909599" d="M12,0C5.373,0,0,5.373,0,12s5.373,12,12,12s12-5.373,12-12S18.627,0,12,0z M17.657,16.242l-1.414,1.414
	L12,13.414l-4.242,4.242l-1.414-1.414L10.586,12L6.344,7.758l1.414-1.414L12,10.586l4.243-4.242l1.414,1.414L13.414,12
	L17.657,16.242z"/>
</svg>
