<?xml version="1.0" encoding="utf-8"?>
<!-- Generator: Adobe Illustrator 16.0.0, SVG Export Plug-In . SVG Version: 6.00 Build 0)  -->
<!DOCTYPE svg PUBLIC "-//W3C//DTD SVG 1.0//EN" "http://www.w3.org/TR/2001/REC-SVG-20010904/DTD/svg10.dtd">
<svg version="1.0" id="Layer_1" xmlns="http://www.w3.org/2000/svg" xmlns:xlink="http://www.w3.org/1999/xlink" x="0px" y="0px"
	 width="162px" height="64px" viewBox="0 0 162 64" enable-background="new 0 0 162 64" xml:space="preserve">
<g>
	<path fill-rule="evenodd" clip-rule="evenodd" fill="#FFFFFF" d="M43.734,52.314c0,0.93,0.753,1.679,1.678,1.679
		c0.927,0,1.682-0.749,1.682-1.679v-5.372h-1.682v0.943h0.737v4.429c0,0.407-0.333,0.736-0.737,0.736
		c-0.404,0-0.736-0.329-0.736-0.736H43.734z"/>
	<path fill-rule="evenodd" clip-rule="evenodd" fill="#FFFFFF" d="M50.999,46.942v5.372c0,0.407-0.333,0.736-0.74,0.736
		c-0.404,0-0.734-0.329-0.734-0.736v-5.372H47.84v0.943h0.742v4.429c0,0.93,0.751,1.679,1.677,1.679
		c0.927,0,1.684-0.749,1.684-1.679v-5.372H50.999z"/>
	<polygon fill-rule="evenodd" clip-rule="evenodd" fill="#FFFFFF" points="55.839,50.272 54.366,48.452 54.366,53.999 
		53.422,53.999 53.422,47.886 52.679,47.886 52.679,46.942 54.366,46.942 55.839,48.776 55.839,46.942 56.781,46.942 56.781,53.999 
		55.839,53.999 	"/>
	<polygon fill-rule="evenodd" clip-rule="evenodd" fill="#FFFFFF" points="59.409,53.999 59.409,47.886 60.351,47.886 
		60.351,46.942 57.521,46.942 57.521,47.886 58.464,47.886 58.464,53.999 	"/>
	<path fill-rule="evenodd" clip-rule="evenodd" fill="#FFFFFF" d="M61.093,47.886v-0.943h2.198c0.548,0,0.984,0.396,1.067,0.918
		l0.953,6.136l-0.953,0.003l-0.464-2.965h-1.378l-0.467,2.962h-0.957l0.948-6.11H61.093z M62.998,47.886l-0.343,2.205h1.091
		l-0.321-2.079l-0.141-0.126H62.998z"/>
	<polygon fill-rule="evenodd" clip-rule="evenodd" fill="#FFFFFF" points="73.547,46.942 73.547,47.886 74.295,47.886 
		74.295,53.992 77.317,53.992 77.125,53.047 75.241,53.047 75.241,51.034 76.18,51.034 76.18,50.091 75.241,50.091 75.241,47.886 
		77.125,47.886 77.125,46.942 	"/>
	<path fill-rule="evenodd" clip-rule="evenodd" fill="#FFFFFF" d="M70.891,53.047v-5.161h0.75c0.406,0,0.722,0.33,0.722,0.735v3.69
		c0,0.407-0.332,0.739-0.738,0.739L70.891,53.047z M71.641,53.993c0.928,0,1.668-0.755,1.668-1.682l-0.002-3.69
		c0-0.929-0.752-1.679-1.679-1.679h-2.424v0.943h0.743v6.106L71.641,53.993z"/>
	<path fill-rule="evenodd" clip-rule="evenodd" fill="#FFFFFF" d="M114.049,47.886v-0.943h2.2c0.546,0,0.982,0.396,1.064,0.918
		l0.952,6.136l-0.952,0.003l-0.461-2.965h-1.381l-0.465,2.962h-0.958l0.95-6.11H114.049z M115.955,47.886l-0.343,2.205h1.09
		l-0.321-2.079l-0.142-0.126H115.955z"/>
	<polygon fill-rule="evenodd" clip-rule="evenodd" fill="#FFFFFF" points="88.839,50.272 87.364,48.452 87.364,53.999 
		86.421,53.999 86.421,47.886 85.68,47.886 85.68,46.942 87.364,46.942 88.839,48.776 88.839,46.942 89.78,46.942 89.78,53.999 
		88.839,53.999 	"/>
	<path fill-rule="evenodd" clip-rule="evenodd" fill="#FFFFFF" d="M81.21,47.886v-0.943h2.199c0.547,0,0.982,0.396,1.064,0.918
		l0.956,6.136l-0.956,0.003l-0.461-2.965h-1.379l-0.466,2.962H81.21l0.95-6.11H81.21z M83.114,47.886l-0.34,2.205h1.09l-0.322-2.079
		l-0.141-0.126H83.114z"/>
	<path fill-rule="evenodd" clip-rule="evenodd" fill="#FFFFFF" d="M92.964,53.993c0.926,0,1.668-0.755,1.668-1.682l-0.004-3.69
		c0-0.929-0.752-1.679-1.678-1.679h-2.425v0.943h0.743v6.106L92.964,53.993z M92.212,53.047v-5.161h0.75
		c0.408,0,0.723,0.33,0.723,0.735v3.69c0,0.407-0.334,0.739-0.74,0.739L92.212,53.047z"/>
	<path fill-rule="evenodd" clip-rule="evenodd" fill="#FFFFFF" d="M95.644,47.886v-0.943h2.199c0.543,0,0.98,0.396,1.062,0.922
		L99.858,54h-0.953l-0.461-2.965h-1.381L96.599,54h-0.955l0.946-6.114H95.644z M97.548,47.886l-0.344,2.209h1.092l-0.322-2.08
		l-0.139-0.129H97.548z"/>
	<path fill-rule="evenodd" clip-rule="evenodd" fill="#FFFFFF" d="M106.437,46.942v5.372c0,0.407-0.332,0.736-0.738,0.736
		s-0.733-0.329-0.733-0.736v-5.372h-1.688v0.943h0.744v4.429c0,0.93,0.75,1.679,1.677,1.679c0.928,0,1.682-0.749,1.682-1.679v-5.372
		H106.437z"/>
	<path fill-rule="evenodd" clip-rule="evenodd" fill="#FFFFFF" d="M110.614,47.886h-0.75c-0.407,0-0.723,0.33-0.723,0.735v3.69
		c0,0.407,0.331,0.739,0.74,0.739l0.732-0.004l0.2,0.946h-0.95c-0.926,0-1.669-0.755-1.669-1.682l0.005-3.69
		c0-0.929,0.75-1.679,1.678-1.679h0.732L110.614,47.886z"/>
	<polygon fill-rule="evenodd" clip-rule="evenodd" fill="#FFFFFF" points="113.057,53.992 113.057,46.942 111.365,46.942 
		111.36,47.886 112.104,47.886 112.104,53.992 	"/>
	<polygon fill-rule="evenodd" clip-rule="evenodd" fill="#FFFFFF" points="100.076,46.942 100.076,47.886 100.824,47.886 
		100.824,53.992 103.845,53.992 103.653,53.047 101.767,53.047 101.767,47.886 101.765,47.886 101.765,46.942 	"/>
	<path fill-rule="evenodd" clip-rule="evenodd" fill="#FFFFFF" d="M80.976,8.555c11.33,0.02,22.646,4.354,31.29,12.996
		c2.015,2.017,3.795,4.179,5.343,6.449c-1.924-4.904-4.865-9.502-8.83-13.467C101.096,6.852,91.034,3.002,80.97,2.979
		C70.9,3.002,60.842,6.852,53.162,14.533c-3.967,3.965-6.907,8.559-8.83,13.467c1.546-2.271,3.329-4.433,5.344-6.449
		C58.319,12.909,69.645,8.574,80.976,8.555"/>
	<polygon fill="#FFFFFF" points="86.181,42 75.762,42 80.971,25 	"/>
	<path fill-rule="evenodd" clip-rule="evenodd" fill="#FFFFFF" d="M80.979,19.575c8.805,0.021,17.594,3.394,24.312,10.11
		c1.269,1.268,2.42,2.611,3.447,4.016c-1.424-4.021-3.715-7.816-6.934-11.035C96.048,16.911,88.512,14.023,80.97,14
		c-7.543,0.023-15.079,2.911-20.835,8.666c-3.218,3.219-5.51,7.014-6.934,11.035c1.029-1.404,2.178-2.748,3.448-4.016
		C63.367,22.969,72.173,19.597,80.979,19.575"/>
	<g>
		<path fill="#FFFFFF" d="M2.781,59.688c-0.246-0.091-0.504-0.17-0.767-0.17c-0.738,0-1.28,0.59-1.28,1.538
			c0,0.882,0.46,1.373,1.149,1.373c0.286,0,0.572-0.078,0.845-0.177l-0.087,0.711c-0.282,0.062-0.568,0.109-0.875,0.109
			C0.816,63.072,0,62.423,0,61.104c0-1.451,0.807-2.229,1.918-2.229c0.276,0,0.559,0.049,0.835,0.115L2.781,59.688z"/>
		<path fill="#FFFFFF" d="M6.835,60.892c0,1.44-0.787,2.181-1.884,2.181c-0.98,0-1.795-0.649-1.795-1.969
			c0-1.451,0.805-2.229,1.916-2.229C6.066,58.874,6.835,59.572,6.835,60.892z M3.889,61.056c0,0.832,0.432,1.373,1.097,1.373
			c0.718,0,1.115-0.657,1.115-1.519c0-0.81-0.387-1.393-1.053-1.393C4.32,59.518,3.889,60.174,3.889,61.056z"/>
		<path fill="#FFFFFF" d="M8.047,59.985H8.028C8.009,60.801,7.966,61.938,7.956,63h-0.68c0.093-1.35,0.136-2.698,0.155-4.053h0.888
			c0.472,1.045,1.01,2.035,1.484,3.068h0.01c0.034-0.947,0.079-2.055,0.089-3.068h0.67c-0.089,1.317-0.142,2.703-0.161,4.053H9.552
			L8.047,59.985z"/>
		<path fill="#FFFFFF" d="M13.1,59.694c-0.214-0.098-0.442-0.177-0.674-0.177c-0.307,0-0.53,0.188-0.53,0.456
			c0,0.626,1.252,1.045,1.252,2.005c0,0.45-0.252,1.094-1.149,1.094c-0.311,0-0.611-0.072-0.912-0.157l-0.054-0.747
			c0.267,0.151,0.559,0.261,0.854,0.261c0.229,0,0.528-0.109,0.528-0.456c0-0.638-1.252-1.07-1.252-2.065
			c0-0.711,0.549-1.033,1.121-1.033c0.257,0,0.515,0.043,0.767,0.108L13.1,59.694z"/>
		<path fill="#FFFFFF" d="M16.188,58.947l-0.024,0.668c-0.276-0.019-0.553-0.024-0.829-0.024h-0.791l-0.04,1.057h0.776
			c0.186,0,0.379-0.019,0.646-0.023l-0.028,0.619h-1.422l-0.038,1.113h0.95c0.127,0,0.271,0,0.685-0.037L16.043,63h-2.368
			c0.093-0.826,0.149-3.232,0.149-4.053H16.188z"/>
		<path fill="#FFFFFF" d="M16.204,62.24c0.228,0.098,0.451,0.188,0.742,0.188c0.252,0,0.445-0.121,0.524-0.475
			c0.106-0.473,0.11-2.595,0.11-3.007h0.748c-0.054,0.923-0.088,1.848-0.116,2.935c-0.021,0.754-0.335,1.19-1.136,1.19
			c-0.276,0-0.559-0.066-0.831-0.139L16.204,62.24z"/>
		<path fill="#FFFFFF" d="M21.36,58.947l-0.024,0.668c-0.276-0.019-0.553-0.024-0.829-0.024h-0.791l-0.04,1.057h0.776
			c0.186,0,0.379-0.019,0.646-0.023l-0.028,0.619h-1.422l-0.038,1.113h0.95c0.126,0,0.271,0,0.685-0.037L21.215,63h-2.368
			c0.093-0.826,0.149-3.232,0.149-4.053H21.36z"/>
		<path fill="#FFFFFF" d="M24.407,63h-0.782c-0.232-0.772-0.543-1.502-0.829-2.242c0.097,0.019,0.194,0.037,0.291,0.037
			c0.369,0,0.718-0.207,0.718-0.725c0-0.474-0.344-0.528-0.636-0.528c-0.174,0-0.345,0.012-0.519,0.03
			c-0.016,0.528-0.072,2.819-0.078,3.428H21.84c0.107-1.344,0.142-2.698,0.146-4.053h1.46c0.563,0,1.054,0.249,1.054,1.008
			c0,0.711-0.378,1.063-0.893,1.191L24.407,63z"/>
		<path fill="#FFFFFF" d="M24.9,63c0.062-1.229,0.131-2.431,0.131-4.053h0.763c-0.068,1.153-0.107,2.29-0.127,4.053H24.9z
			 M25.342,57.847h0.757l-0.466,0.778h-0.528L25.342,57.847z"/>
		<path fill="#FFFFFF" d="M27.135,61.584c-0.185,0.45-0.363,0.936-0.539,1.416h-0.801c0.583-1.33,1.151-2.692,1.69-4.053h0.877
			c0.365,1.349,0.776,2.709,1.18,4.053h-0.776c-0.111-0.485-0.248-0.966-0.383-1.416H27.135z M28.251,60.939l-0.373-1.354
			l-0.53,1.354H28.251z"/>
		<path fill="#FFFFFF" d="M32.984,58.947c0.825,0,1.484,0.504,1.484,1.848c0,1.258-0.562,2.205-1.819,2.205h-1.397
			c0.049-0.633,0.146-2.431,0.146-4.053H32.984z M31.99,62.356h0.519c0.97,0,1.267-0.791,1.267-1.575c0-0.553-0.189-1.19-0.869-1.19
			h-0.825L31.99,62.356z"/>
		<path fill="#FFFFFF" d="M37.42,58.947l-0.024,0.668c-0.276-0.019-0.553-0.024-0.829-0.024h-0.791l-0.04,1.057h0.776
			c0.186,0,0.379-0.019,0.646-0.023l-0.028,0.619h-1.422l-0.038,1.113h0.95c0.127,0,0.271,0,0.685-0.037L37.274,63h-2.368
			c0.093-0.826,0.149-3.232,0.149-4.053H37.42z"/>
		<path fill="#FFFFFF" d="M41.556,63h-0.654l-0.461-2.073c-0.083-0.382-0.2-0.819-0.263-1.13h-0.01
			c-0.072,1.052-0.131,2.128-0.159,3.203h-0.622c0.126-1.245,0.257-3.785,0.276-4.053h0.956c0.053,0.412,0.166,0.808,0.267,1.202
			c0.155,0.59,0.276,1.19,0.399,1.757h0.008c0.166-0.566,0.341-1.167,0.54-1.75c0.136-0.396,0.271-0.791,0.368-1.209h0.976
			c-0.038,1.153-0.068,2.229-0.068,4.053h-0.646c0.03-0.954,0.068-1.915,0.068-2.875v-0.328h-0.01L41.556,63z"/>
		<path fill="#FFFFFF" d="M46.225,58.947L46.2,59.615c-0.276-0.019-0.553-0.024-0.829-0.024H44.58l-0.04,1.057h0.777
			c0.185,0,0.379-0.019,0.645-0.023l-0.028,0.619h-1.422l-0.038,1.113h0.95c0.127,0,0.272,0,0.686-0.037L46.079,63h-2.368
			c0.093-0.826,0.149-3.232,0.149-4.053H46.225z"/>
		<path fill="#FFFFFF" d="M48.438,58.947c0.824,0,1.484,0.504,1.484,1.848c0,1.258-0.562,2.205-1.819,2.205h-1.397
			c0.048-0.633,0.145-2.431,0.145-4.053H48.438z M47.442,62.356h0.519c0.971,0,1.267-0.791,1.267-1.575
			c0-0.553-0.189-1.19-0.869-1.19h-0.824L47.442,62.356z"/>
		<path fill="#FFFFFF" d="M50.359,63c0.062-1.229,0.131-2.431,0.131-4.053h0.762c-0.068,1.153-0.106,2.29-0.126,4.053H50.359z"/>
		<path fill="#FFFFFF" d="M55.413,60.892c0,1.44-0.785,2.181-1.883,2.181c-0.979,0-1.795-0.649-1.795-1.969
			c0-1.451,0.805-2.229,1.916-2.229C54.646,58.874,55.413,59.572,55.413,60.892z M52.468,61.056c0,0.832,0.432,1.373,1.097,1.373
			c0.719,0,1.116-0.657,1.116-1.519c0-0.81-0.388-1.393-1.054-1.393C52.899,59.518,52.468,60.174,52.468,61.056z"/>
		<path fill="#FFFFFF" d="M58.187,61.584c-0.184,0.45-0.363,0.936-0.538,1.416h-0.801c0.582-1.33,1.15-2.692,1.689-4.053h0.878
			c0.364,1.349,0.776,2.709,1.18,4.053h-0.776c-0.111-0.485-0.248-0.966-0.384-1.416H58.187z M59.304,60.939l-0.373-1.354
			l-0.53,1.354H59.304z"/>
		<path fill="#FFFFFF" d="M62.889,63h-0.654l-0.462-2.073c-0.082-0.382-0.199-0.819-0.262-1.13h-0.01
			c-0.073,1.052-0.132,2.128-0.16,3.203H60.72c0.125-1.245,0.257-3.785,0.276-4.053h0.956c0.053,0.412,0.165,0.808,0.267,1.202
			c0.155,0.59,0.276,1.19,0.398,1.757h0.009c0.165-0.566,0.341-1.167,0.54-1.75c0.136-0.396,0.271-0.791,0.367-1.209h0.977
			c-0.039,1.153-0.068,2.229-0.068,4.053h-0.646c0.03-0.954,0.068-1.915,0.068-2.875v-0.328h-0.01L62.889,63z"/>
		<path fill="#FFFFFF" d="M66.873,58.947c0.379,0,0.811,0.2,0.811,0.936c0,0.516-0.228,0.881-0.597,1.009v0.011
			c0.388,0.092,0.636,0.438,0.636,0.968c0,0.754-0.462,1.13-1.219,1.13h-1.46c0.049-0.608,0.131-2.431,0.131-4.053H66.873z
			 M65.806,61.219l-0.039,1.186h0.578c0.515,0,0.684-0.268,0.684-0.633c0-0.479-0.311-0.553-0.625-0.553H65.806z M65.824,60.624
			h0.569c0.432,0,0.597-0.279,0.597-0.596c0-0.443-0.276-0.486-0.562-0.486h-0.569L65.824,60.624z"/>
		<path fill="#FFFFFF" d="M68.208,63c0.062-1.229,0.131-2.431,0.131-4.053h0.763c-0.068,1.153-0.106,2.29-0.127,4.053H68.208z"/>
		<path fill="#FFFFFF" d="M72.159,58.947l-0.024,0.668c-0.276-0.019-0.553-0.024-0.829-0.024h-0.791l-0.04,1.057h0.776
			c0.186,0,0.38-0.019,0.646-0.023l-0.028,0.619h-1.422l-0.038,1.113h0.95c0.127,0,0.272,0,0.686-0.037L72.014,63h-2.368
			c0.093-0.826,0.149-3.232,0.149-4.053H72.159z"/>
		<path fill="#FFFFFF" d="M73.41,59.985h-0.019c-0.021,0.815-0.062,1.952-0.073,3.015h-0.68c0.093-1.35,0.136-2.698,0.156-4.053
			h0.887c0.472,1.045,1.011,2.035,1.486,3.068h0.009c0.034-0.947,0.078-2.055,0.088-3.068h0.67
			c-0.088,1.317-0.141,2.703-0.161,4.053h-0.859L73.41,59.985z"/>
		<path fill="#FFFFFF" d="M79.002,58.947l-0.019,0.674c-0.302-0.024-0.597-0.03-1.01-0.03c-0.049,1.027-0.097,2.084-0.102,3.409
			h-0.758c0.068-1.015,0.112-2.248,0.141-3.409c-0.708,0-0.79,0.019-1.014,0.024l0.02-0.668H79.002z"/>
		<path fill="#FFFFFF" d="M81.699,58.947l-0.024,0.668c-0.276-0.019-0.553-0.024-0.829-0.024h-0.791l-0.04,1.057h0.776
			c0.186,0,0.38-0.019,0.646-0.023l-0.028,0.619h-1.422l-0.038,1.113h0.95c0.127,0,0.272,0,0.686-0.037L81.554,63h-2.368
			c0.093-0.826,0.149-3.232,0.149-4.053H81.699z"/>
		<path fill="#FFFFFF" d="M85.121,63h-0.743c0.044-0.565,0.078-1.137,0.092-1.701l-1.062-2.352h0.801l0.661,1.646l0.805-1.646h0.797
			l-1.297,2.411L85.121,63z"/>
		<path fill="#FFFFFF" d="M91.703,60.893c0,1.44-0.786,2.182-1.883,2.182c-0.98-0.002-1.795-0.651-1.795-1.971
			c0-1.451,0.805-2.229,1.916-2.229C90.936,58.875,91.703,59.573,91.703,60.893z M88.757,61.056c0,0.832,0.432,1.373,1.098,1.374
			c0.718,0,1.115-0.656,1.115-1.519c0-0.809-0.388-1.392-1.053-1.392C89.188,59.518,88.757,60.174,88.757,61.056z"/>
		<path fill="#FFFFFF" d="M94.713,63.002h-0.782c-0.232-0.772-0.543-1.502-0.829-2.243c0.097,0.019,0.193,0.037,0.29,0.037
			c0.369,0,0.719-0.206,0.719-0.724c0-0.475-0.344-0.528-0.636-0.528c-0.174,0-0.345,0.011-0.519,0.029
			c-0.016,0.529-0.073,2.82-0.078,3.429h-0.732c0.106-1.344,0.141-2.699,0.146-4.054h1.46c0.562,0,1.053,0.249,1.053,1.009
			c0,0.711-0.378,1.062-0.892,1.191L94.713,63.002z"/>
		<path fill="#FFFFFF" d="M96.939,58.948c0.825,0,1.484,0.504,1.484,1.848c0,1.258-0.562,2.206-1.819,2.206h-1.397
			c0.049-0.633,0.146-2.431,0.146-4.054H96.939z M95.945,62.357h0.519c0.97,0,1.267-0.791,1.267-1.574
			c0-0.553-0.189-1.191-0.869-1.191h-0.825L95.945,62.357z"/>
		<path fill="#FFFFFF" d="M101.375,58.948l-0.024,0.668c-0.276-0.019-0.553-0.024-0.829-0.024H99.73l-0.04,1.058h0.776
			c0.186,0,0.379-0.019,0.646-0.024l-0.028,0.62h-1.422l-0.038,1.112h0.95c0.127,0,0.271,0,0.686-0.037l-0.03,0.682h-2.368
			c0.093-0.827,0.149-3.233,0.149-4.054H101.375z"/>
		<path fill="#FFFFFF" d="M102.626,59.986h-0.019c-0.021,0.815-0.063,1.952-0.073,3.016h-0.68c0.093-1.35,0.136-2.699,0.155-4.054
			h0.888c0.472,1.046,1.011,2.036,1.486,3.069h0.009c0.034-0.948,0.078-2.055,0.088-3.069h0.67
			c-0.089,1.317-0.142,2.704-0.161,4.054h-0.859L102.626,59.986z"/>
		<path fill="#FFFFFF" d="M106.498,61.585c-0.184,0.45-0.363,0.937-0.538,1.417h-0.801c0.582-1.331,1.15-2.693,1.689-4.054h0.878
			c0.364,1.349,0.776,2.71,1.18,4.054h-0.776c-0.111-0.486-0.248-0.967-0.384-1.417H106.498z M107.615,60.941l-0.373-1.355
			l-0.53,1.355H107.615z"/>
		<path fill="#FFFFFF" d="M111.798,59.689c-0.246-0.092-0.504-0.17-0.767-0.17c-0.737,0-1.28,0.59-1.28,1.537
			c0,0.882,0.46,1.373,1.149,1.373c0.286,0,0.573-0.078,0.845-0.176l-0.087,0.711c-0.282,0.061-0.568,0.109-0.874,0.109
			c-0.951,0-1.766-0.649-1.766-1.969c0-1.452,0.805-2.23,1.916-2.23c0.276,0,0.559,0.049,0.835,0.116L111.798,59.689z"/>
		<path fill="#FFFFFF" d="M112.234,63.002c0.062-1.229,0.131-2.431,0.131-4.054h0.762c-0.068,1.154-0.106,2.291-0.126,4.054H112.234
			z"/>
		<path fill="#FFFFFF" d="M117.289,60.893c0,1.44-0.786,2.182-1.884,2.182c-0.979,0-1.795-0.649-1.795-1.969
			c0-1.452,0.805-2.23,1.916-2.23C116.521,58.875,117.289,59.573,117.289,60.893z M114.343,61.057c0,0.832,0.432,1.373,1.097,1.373
			c0.719,0,1.116-0.656,1.116-1.519c0-0.809-0.388-1.392-1.054-1.392C114.774,59.52,114.343,60.175,114.343,61.057z"/>
		<path fill="#FFFFFF" d="M118.502,59.986h-0.019c-0.021,0.815-0.063,1.952-0.073,3.016h-0.68c0.093-1.35,0.136-2.699,0.155-4.054
			h0.888c0.472,1.046,1.011,2.036,1.484,3.069h0.011c0.034-0.948,0.078-2.055,0.088-3.069h0.67
			c-0.089,1.317-0.142,2.704-0.161,4.054h-0.859L118.502,59.986z"/>
		<path fill="#FFFFFF" d="M124.848,58.948c0.824,0,1.484,0.504,1.484,1.848c0,1.258-0.562,2.206-1.819,2.206h-1.397
			c0.048-0.633,0.145-2.431,0.145-4.054H124.848z M123.853,62.357h0.519c0.971,0,1.267-0.791,1.267-1.574
			c0-0.553-0.189-1.191-0.869-1.191h-0.824L123.853,62.357z"/>
		<path fill="#FFFFFF" d="M129.282,58.948l-0.024,0.668c-0.276-0.019-0.553-0.024-0.829-0.024h-0.79l-0.04,1.058h0.776
			c0.186,0,0.379-0.019,0.646-0.024l-0.028,0.62h-1.422l-0.039,1.112h0.95c0.127,0,0.272,0,0.686-0.037l-0.03,0.682h-2.367
			c0.093-0.827,0.149-3.233,0.149-4.054H129.282z"/>
		<path fill="#FFFFFF" d="M132.029,63.002h-2.267c0.106-1.35,0.149-2.699,0.165-4.054h0.757c-0.021,0.357-0.117,2.632-0.136,3.409
			h0.587c0.311,0,0.621,0,0.927-0.019L132.029,63.002z"/>
		<path fill="#FFFFFF" d="M136.392,58.948l-0.019,0.674c-0.302-0.024-0.597-0.03-1.01-0.03c-0.049,1.027-0.097,2.085-0.102,3.41
			h-0.758c0.068-1.015,0.113-2.249,0.142-3.41c-0.708,0-0.791,0.019-1.015,0.024l0.02-0.668H136.392z"/>
		<path fill="#FFFFFF" d="M139.089,58.948l-0.024,0.668c-0.276-0.019-0.553-0.024-0.829-0.024h-0.79l-0.04,1.058h0.776
			c0.185,0,0.379-0.019,0.646-0.024l-0.028,0.62h-1.423l-0.038,1.112h0.95c0.127,0,0.272,0,0.686-0.037l-0.03,0.682h-2.367
			c0.092-0.827,0.149-3.233,0.149-4.054H139.089z"/>
		<path fill="#FFFFFF" d="M142.137,63.002h-0.782c-0.232-0.772-0.543-1.502-0.829-2.243c0.097,0.019,0.193,0.037,0.29,0.037
			c0.369,0,0.719-0.206,0.719-0.724c0-0.475-0.344-0.528-0.636-0.528c-0.174,0-0.345,0.011-0.519,0.029
			c-0.016,0.529-0.072,2.82-0.078,3.429h-0.732c0.106-1.344,0.141-2.699,0.146-4.054h1.46c0.562,0,1.053,0.249,1.053,1.009
			c0,0.711-0.377,1.062-0.892,1.191L142.137,63.002z"/>
		<path fill="#FFFFFF" d="M145.197,63.002h-0.782c-0.232-0.772-0.543-1.502-0.829-2.243c0.097,0.019,0.193,0.037,0.29,0.037
			c0.369,0,0.718-0.206,0.718-0.724c0-0.475-0.343-0.528-0.635-0.528c-0.174,0-0.345,0.011-0.519,0.029
			c-0.016,0.529-0.073,2.82-0.079,3.429h-0.731c0.106-1.344,0.141-2.699,0.145-4.054h1.461c0.562,0,1.053,0.249,1.053,1.009
			c0,0.711-0.378,1.062-0.892,1.191L145.197,63.002z"/>
		<path fill="#FFFFFF" d="M145.691,63.002c0.062-1.229,0.131-2.431,0.131-4.054h0.763c-0.068,1.154-0.107,2.291-0.127,4.054H145.691
			z"/>
		<path fill="#FFFFFF" d="M149.644,58.948l-0.019,0.674c-0.302-0.024-0.597-0.03-1.01-0.03c-0.049,1.027-0.098,2.085-0.102,3.41
			h-0.758c0.068-1.015,0.112-2.249,0.141-3.41c-0.708,0-0.79,0.019-1.015,0.024l0.021-0.668H149.644z"/>
		<path fill="#FFFFFF" d="M153.443,60.893c0,1.44-0.786,2.182-1.884,2.182c-0.98,0-1.795-0.649-1.795-1.969
			c0-1.452,0.805-2.23,1.916-2.23C152.676,58.875,153.443,59.573,153.443,60.893z M150.497,61.057c0,0.832,0.432,1.373,1.097,1.373
			c0.718,0,1.116-0.656,1.116-1.519c0-0.809-0.388-1.392-1.054-1.392C150.929,59.52,150.497,60.175,150.497,61.057z"/>
		<path fill="#FFFFFF" d="M156.452,63.002h-0.782c-0.232-0.772-0.543-1.502-0.829-2.243c0.097,0.019,0.194,0.037,0.291,0.037
			c0.369,0,0.718-0.206,0.718-0.724c0-0.475-0.344-0.528-0.636-0.528c-0.174,0-0.345,0.011-0.519,0.029
			c-0.016,0.529-0.072,2.82-0.078,3.429h-0.732c0.107-1.344,0.142-2.699,0.146-4.054h1.46c0.563,0,1.054,0.249,1.054,1.009
			c0,0.711-0.378,1.062-0.893,1.191L156.452,63.002z"/>
		<path fill="#FFFFFF" d="M156.945,63.002c0.062-1.229,0.131-2.431,0.131-4.054h0.763c-0.068,1.154-0.107,2.291-0.127,4.054H156.945
			z"/>
		<path fill="#FFFFFF" d="M162,60.893c0,1.44-0.786,2.182-1.883,2.182c-0.98,0-1.796-0.649-1.796-1.969
			c0-1.452,0.806-2.23,1.917-2.23C161.232,58.875,162,59.573,162,60.893z M159.054,61.057c0,0.832,0.432,1.373,1.098,1.373
			c0.718,0,1.115-0.656,1.115-1.519c0-0.809-0.388-1.392-1.053-1.392C159.485,59.52,159.054,60.175,159.054,61.057z"/>
	</g>
</g>
</svg>
