<?xml version="1.0" encoding="utf-8"?>
<!-- Generator: Adobe Illustrator 16.0.0, SVG Export Plug-In . SVG Version: 6.00 Build 0)  -->
<!DOCTYPE svg PUBLIC "-//W3C//DTD SVG 1.0//EN" "http://www.w3.org/TR/2001/REC-SVG-20010904/DTD/svg10.dtd">
<svg version="1.0" id="Layer_1" xmlns="http://www.w3.org/2000/svg" xmlns:xlink="http://www.w3.org/1999/xlink" x="0px" y="0px"
	 width="87px" height="50px" viewBox="0 0 87 50" enable-background="new 0 0 87 50" xml:space="preserve">
<g>
	<polygon fill="#FFFFFF" points="11.47,48.864 11.883,48.864 11.883,47.148 13.304,47.148 13.304,46.765 11.883,46.765 
		11.883,45.767 13.304,45.767 13.304,45.387 11.47,45.387 	"/>
	<path fill="#FFFFFF" d="M15.754,45.311c-0.491,0-0.963,0.189-1.312,0.53c-0.354,0.345-0.546,0.797-0.546,1.293
		c0,0.495,0.191,0.943,0.546,1.289c0.35,0.339,0.821,0.535,1.312,0.535c0.486,0,0.963-0.191,1.318-0.535
		c0.349-0.342,0.54-0.794,0.54-1.289c0-0.496-0.186-0.948-0.54-1.293C16.723,45.5,16.246,45.311,15.754,45.311z M16.761,48.145
		c-0.278,0.278-0.628,0.424-1.007,0.424c-0.385,0-0.729-0.146-1.007-0.424c-0.272-0.276-0.417-0.622-0.417-1.011
		s0.146-0.743,0.417-1.021c0.267-0.272,0.622-0.419,1.007-0.419c0.384,0,0.734,0.146,1.007,0.419
		c0.272,0.272,0.418,0.632,0.418,1.021S17.033,47.873,16.761,48.145z"/>
	<polygon fill="#FFFFFF" points="20.952,48.029 18.408,45.251 18.408,48.864 18.803,48.864 18.803,46.254 21.347,49 21.347,45.387 
		20.952,45.387 	"/>
	<path fill="#FFFFFF" d="M24.542,45.714c-0.423-0.325-0.924-0.325-1.576-0.325h-0.667v3.476h0.667h0.15
		c0.564,0,1.022-0.014,1.426-0.325c0.398-0.306,0.607-0.788,0.607-1.41C25.149,46.508,24.94,46.02,24.542,45.714z M24.278,48.228
		c-0.292,0.243-0.705,0.248-1.299,0.248h-0.261v-2.704h0.261c0.598,0,1.012,0.011,1.299,0.254c0.288,0.238,0.438,0.608,0.438,1.098
		C24.716,47.614,24.56,47.994,24.278,48.228z"/>
	<path fill="#FFFFFF" d="M25.38,48.864h0.447l0.453-1.065h1.355l0.453,1.065h0.447l-1.581-3.613L25.38,48.864z M26.401,47.445
		l0.553-1.279l0.554,1.279H26.401z"/>
	<polygon fill="#FFFFFF" points="28.371,45.782 29.354,45.782 29.354,48.866 29.772,48.866 29.772,45.782 30.749,45.782 
		30.749,45.389 28.371,45.389 	"/>
	<rect x="31.338" y="45.387" fill="#FFFFFF" width="0.413" height="3.478"/>
	<path fill="#FFFFFF" d="M34.411,45.311c-0.491,0-0.963,0.189-1.312,0.53c-0.355,0.345-0.544,0.797-0.544,1.293
		c0,0.495,0.188,0.943,0.544,1.289c0.35,0.339,0.821,0.535,1.312,0.535c0.487,0,0.963-0.191,1.318-0.535
		c0.351-0.342,0.539-0.794,0.539-1.289c0-0.496-0.185-0.948-0.539-1.293C35.378,45.5,34.902,45.311,34.411,45.311z M35.417,48.145
		c-0.278,0.278-0.628,0.424-1.007,0.424c-0.385,0-0.729-0.146-1.008-0.424c-0.271-0.276-0.417-0.622-0.417-1.011
		s0.146-0.743,0.417-1.021c0.269-0.272,0.623-0.419,1.008-0.419c0.384,0,0.734,0.146,1.007,0.419
		c0.271,0.272,0.418,0.632,0.418,1.021S35.688,47.873,35.417,48.145z"/>
	<polygon fill="#FFFFFF" points="39.608,48.029 37.065,45.251 37.065,48.864 37.459,48.864 37.459,46.254 40.003,49 40.003,45.387 
		39.608,45.387 	"/>
	<path fill="#FFFFFF" d="M44.117,45.563c-0.234-0.166-0.521-0.175-0.876-0.175h-0.115h-0.613v3.478h0.403v-1.562h0.21h0.115
		c0.361,0,0.642-0.009,0.876-0.175c0.219-0.155,0.355-0.442,0.355-0.783C44.472,46.006,44.336,45.719,44.117,45.563z M43.125,46.93
		h-0.21v-1.163h0.21c0.602,0,0.9,0.099,0.9,0.604C44.025,46.852,43.723,46.93,43.125,46.93z"/>
	<path fill="#FFFFFF" d="M46.801,45.311c-0.49,0-0.963,0.189-1.312,0.53c-0.356,0.345-0.546,0.797-0.546,1.293
		c0,0.495,0.189,0.943,0.546,1.289c0.349,0.339,0.821,0.535,1.312,0.535c0.486,0,0.962-0.191,1.318-0.535
		c0.35-0.342,0.54-0.794,0.54-1.289c0-0.496-0.187-0.948-0.54-1.293C47.768,45.5,47.292,45.311,46.801,45.311z M47.807,48.145
		c-0.275,0.278-0.628,0.424-1.006,0.424c-0.384,0-0.729-0.146-1.007-0.424c-0.272-0.276-0.418-0.622-0.418-1.011
		s0.146-0.743,0.418-1.021c0.268-0.272,0.623-0.419,1.007-0.419c0.383,0,0.734,0.146,1.006,0.419
		c0.273,0.272,0.419,0.632,0.419,1.021S48.08,47.873,47.807,48.145z"/>
	<path fill="#FFFFFF" d="M51.717,47.552c0,0.696-0.282,1.021-0.928,1.021c-0.648,0-0.929-0.325-0.929-1.021v-2.165h-0.419v2.165
		c0,0.938,0.442,1.406,1.348,1.406c0.903,0,1.345-0.468,1.345-1.406v-2.165h-0.417V47.552z"/>
	<path fill="#FFFFFF" d="M54.08,47.207c0.613,0,0.938-0.302,0.938-0.871c0-0.34-0.126-0.618-0.325-0.773
		c-0.214-0.165-0.467-0.176-0.799-0.176h-0.106h-0.71v3.478h0.403v-1.657h0.059l1.269,1.657h0.524l-1.327-1.657H54.08z
		 M53.481,46.899v-1.161h0.315c0.551,0,0.813,0.096,0.813,0.603c0,0.481-0.267,0.559-0.813,0.559H53.481z"/>
	<polygon fill="#FFFFFF" points="57.771,45.387 57.357,45.387 57.357,48.864 59.084,48.864 59.084,48.472 57.771,48.472 	"/>
	<path fill="#FFFFFF" d="M59.22,48.864h0.447l0.452-1.065h1.356l0.453,1.065h0.447l-1.581-3.613L59.22,48.864z M60.242,47.445
		l0.553-1.279l0.554,1.279H60.242z"/>
	<polygon fill="#FFFFFF" points="66.957,48.029 64.413,45.251 64.413,48.864 64.808,48.864 64.808,46.254 67.35,49 67.35,45.387 
		66.957,45.387 	"/>
	<path fill="#FFFFFF" d="M67.827,48.864h0.446l0.453-1.065h1.356l0.452,1.065h0.447l-1.58-3.613L67.827,48.864z M68.847,47.445
		l0.555-1.279l0.554,1.279H68.847z"/>
	<polygon fill="#FFFFFF" points="70.82,45.782 71.802,45.782 71.802,48.866 72.219,48.866 72.219,45.782 73.196,45.782 
		73.196,45.389 70.82,45.389 	"/>
	<path fill="#FFFFFF" d="M76.042,47.552c0,0.696-0.281,1.021-0.929,1.021c-0.646,0-0.93-0.325-0.93-1.021v-2.165h-0.417v2.165
		c0,0.938,0.441,1.406,1.347,1.406c0.904,0,1.347-0.468,1.347-1.406v-2.165h-0.418V47.552z"/>
	<path fill="#FFFFFF" d="M78.403,47.207c0.614,0,0.94-0.302,0.94-0.871c0-0.34-0.127-0.618-0.326-0.773
		c-0.215-0.165-0.467-0.176-0.799-0.176h-0.106h-0.71v3.478h0.403v-1.657h0.058l1.271,1.657h0.524l-1.328-1.657H78.403z
		 M77.806,46.899v-1.161h0.315c0.551,0,0.814,0.096,0.814,0.603c0,0.481-0.269,0.559-0.814,0.559H77.806z"/>
	<polygon fill="#FFFFFF" points="80.125,48.864 81.958,48.864 81.958,48.479 80.539,48.479 80.539,47.148 81.958,47.148 
		81.958,46.765 80.539,46.765 80.539,45.767 81.958,45.767 81.958,45.387 80.125,45.387 	"/>
	<path fill="#FFFFFF" d="M33.448,15.909c-3.138-0.469-5.878-0.691-8.451-0.691c-4.697,0-8.856,0.763-12.672,2.322
		c1.875,3.75,5.753,6.326,10.23,6.326C27.656,23.866,31.977,20.523,33.448,15.909z"/>
	<path fill="#FFFFFF" d="M86.302,11.156c-16.078,11.172-31.938,2.375-48.261-0.629c-9.178-1.69-18.502-1.548-28.095,5.005
		c-2.919,1.995-5.866,4.585-8.84,7.899c-0.198,0.22-0.095,0.327,0.121,0.132c3.295-2.972,6.134-5.197,9.366-6.687
		c8.504-3.922,17.494-3.344,26.465-1.675c17.844,3.321,35.61,10.955,49.335-3.96C86.518,11.104,86.457,11.048,86.302,11.156z"/>
	<path fill="#FFFFFF" d="M72.325,24.077l-9.113,19.573h3.338l2.271-5.036h7.748l2.216,5.036h3.369L73.04,24.077H72.325z
		 M75.447,35.958H70l1.998-4.463c0.218-0.521,0.465-1.231,0.714-2.217c0.271,0.985,0.517,1.696,0.737,2.217L75.447,35.958z"/>
	<path fill="#FFFFFF" d="M29.449,24.077h-0.53l-5.287,11.525c-0.302,0.685-0.74,1.561-1.123,2.655
		c-0.548-1.424-0.904-2.299-1.068-2.655l-5.416-11.525h-0.535L11.04,43.649h2.929l2.108-9.636c0.191-0.876,0.329-1.78,0.355-2.71
		c0.247,0.876,0.576,1.697,0.958,2.492l4.736,9.854h0.772l4.73-9.636c0.438-0.902,0.739-1.78,0.903-2.71
		c0.19,1.451,0.273,2.327,0.355,2.683l2.163,9.663h2.957L29.449,24.077z"/>
	<path fill="#FFFFFF" d="M58.772,43.649l8.404-19.573h-3.287l-4.378,10.43c-0.466,1.095-0.822,2.135-1.068,3.147
		c-0.219-1.04-0.577-2.053-1.042-3.147l-4.38-10.43H49.71l8.402,19.573H58.772z"/>
	<path fill="#FFFFFF" d="M50.307,43.649h3.367l-9.116-19.573h-0.712l-9.114,19.573h3.339l2.271-5.036h7.748L50.307,43.649z
		 M41.52,35.958l1.999-4.463c0.217-0.521,0.464-1.231,0.711-2.217c0.274,0.985,0.52,1.696,0.739,2.217l1.998,4.463H41.52z"/>
	<path fill="#FFFFFF" d="M33.633,9.653C32.39,4.685,27.908,1,22.554,1c-6.313,0-11.431,5.119-11.431,11.433
		c0,0.671,0.063,1.326,0.176,1.965C19.328,9.452,27.096,8.953,33.633,9.653z"/>
</g>
</svg>
