<?xml version="1.0" encoding="utf-8"?>
<!-- Generator: Adobe Illustrator 16.0.0, SVG Export Plug-In . SVG Version: 6.00 Build 0)  -->
<!DOCTYPE svg PUBLIC "-//W3C//DTD SVG 1.0//EN" "http://www.w3.org/TR/2001/REC-SVG-20010904/DTD/svg10.dtd">
<svg version="1.0" id="Layer_1" xmlns="http://www.w3.org/2000/svg" xmlns:xlink="http://www.w3.org/1999/xlink" x="0px" y="0px"
	 width="136px" height="50px" viewBox="0 0 136 50" enable-background="new 0 0 136 50" xml:space="preserve">
<g>
	<path fill-rule="evenodd" clip-rule="evenodd" fill="#FFFFFF" d="M70.244,8.722V5.951h0.897c0.341,0,0.562,0.014,0.666,0.042
		c0.158,0.042,0.292,0.132,0.399,0.271c0.106,0.139,0.16,0.319,0.16,0.539c0,0.17-0.031,0.312-0.092,0.43
		c-0.062,0.114-0.141,0.206-0.237,0.272c-0.094,0.065-0.19,0.109-0.289,0.131c-0.133,0.026-0.327,0.039-0.58,0.039h-0.365v1.046
		H70.244L70.244,8.722z M70.804,6.421v0.784h0.307c0.22,0,0.367-0.014,0.441-0.042c0.075-0.029,0.133-0.074,0.175-0.136
		c0.042-0.062,0.063-0.135,0.063-0.216c0-0.101-0.029-0.184-0.089-0.25c-0.059-0.065-0.134-0.106-0.225-0.122
		c-0.066-0.013-0.201-0.019-0.402-0.019H70.804L70.804,6.421z"/>
	<path fill-rule="evenodd" clip-rule="evenodd" fill="#FFFFFF" d="M76.363,8.722V5.951h1.179c0.295,0,0.511,0.026,0.644,0.076
		c0.135,0.049,0.243,0.137,0.324,0.265c0.081,0.127,0.12,0.272,0.12,0.437c0,0.207-0.06,0.379-0.184,0.515
		c-0.122,0.136-0.305,0.22-0.548,0.256c0.121,0.071,0.221,0.148,0.298,0.232c0.08,0.084,0.187,0.234,0.32,0.45l0.339,0.54h-0.67
		L77.78,8.119c-0.144-0.216-0.241-0.352-0.294-0.406c-0.053-0.058-0.109-0.095-0.168-0.115c-0.06-0.021-0.154-0.033-0.282-0.033
		h-0.113v1.157H76.363L76.363,8.722z M76.923,7.123h0.414c0.269,0,0.436-0.012,0.503-0.034c0.066-0.022,0.119-0.062,0.156-0.117
		c0.039-0.055,0.058-0.125,0.058-0.208c0-0.093-0.025-0.168-0.076-0.225c-0.049-0.059-0.118-0.095-0.209-0.11
		c-0.047-0.005-0.183-0.008-0.409-0.008h-0.437V7.123L76.923,7.123z"/>
	<path fill-rule="evenodd" clip-rule="evenodd" fill="#FFFFFF" d="M82.579,7.354c0-0.282,0.042-0.519,0.126-0.711
		c0.063-0.141,0.148-0.267,0.258-0.379c0.109-0.113,0.229-0.195,0.358-0.25c0.173-0.072,0.373-0.109,0.598-0.109
		c0.408,0,0.735,0.126,0.98,0.38c0.245,0.253,0.368,0.605,0.368,1.057c0,0.447-0.122,0.797-0.364,1.05
		c-0.244,0.252-0.569,0.378-0.977,0.378c-0.413,0-0.74-0.125-0.982-0.376C82.7,8.141,82.579,7.795,82.579,7.354L82.579,7.354z
		 M83.156,7.334c0,0.314,0.071,0.552,0.216,0.715c0.146,0.162,0.33,0.241,0.553,0.241s0.406-0.079,0.549-0.239
		c0.144-0.161,0.215-0.402,0.215-0.724c0-0.317-0.069-0.555-0.21-0.711c-0.138-0.156-0.323-0.233-0.554-0.233
		s-0.417,0.079-0.558,0.237C83.227,6.777,83.156,7.017,83.156,7.334L83.156,7.334z"/>
	<path fill="#FFFFFF" d="M90.528,7.703V7.236h1.206V8.34c-0.117,0.113-0.287,0.214-0.51,0.3s-0.447,0.129-0.676,0.129
		c-0.29,0-0.543-0.061-0.758-0.182c-0.216-0.122-0.378-0.296-0.486-0.521c-0.108-0.227-0.162-0.474-0.162-0.739
		c0-0.288,0.061-0.545,0.181-0.77c0.122-0.224,0.299-0.396,0.532-0.515c0.178-0.093,0.398-0.139,0.663-0.139
		c0.345,0,0.612,0.073,0.807,0.217c0.193,0.144,0.318,0.344,0.373,0.598l-0.556,0.104c-0.039-0.136-0.112-0.243-0.221-0.321
		c-0.107-0.079-0.241-0.118-0.403-0.118c-0.244,0-0.438,0.077-0.584,0.231c-0.144,0.155-0.216,0.385-0.216,0.69
		c0,0.329,0.074,0.576,0.221,0.741c0.146,0.163,0.336,0.244,0.573,0.244c0.117,0,0.235-0.022,0.353-0.067
		c0.118-0.047,0.22-0.104,0.304-0.168V7.703H90.528L90.528,7.703z"/>
	<path fill-rule="evenodd" clip-rule="evenodd" fill="#FFFFFF" d="M95.788,8.722V5.951h1.178c0.296,0,0.51,0.026,0.645,0.076
		c0.135,0.049,0.242,0.137,0.323,0.265c0.08,0.127,0.121,0.272,0.121,0.437c0,0.207-0.062,0.379-0.184,0.515
		s-0.305,0.22-0.548,0.256c0.12,0.071,0.22,0.148,0.299,0.232c0.078,0.084,0.186,0.234,0.318,0.45l0.34,0.54h-0.67l-0.405-0.603
		c-0.144-0.216-0.241-0.352-0.295-0.406c-0.054-0.058-0.109-0.095-0.169-0.115c-0.058-0.021-0.152-0.033-0.281-0.033h-0.113v1.157
		H95.788L95.788,8.722z M96.347,7.123h0.414c0.27,0,0.437-0.012,0.504-0.034c0.066-0.022,0.118-0.062,0.156-0.117
		c0.038-0.055,0.057-0.125,0.057-0.208c0-0.093-0.025-0.168-0.075-0.225c-0.05-0.059-0.119-0.095-0.21-0.11
		c-0.046-0.005-0.182-0.008-0.408-0.008h-0.438V7.123L96.347,7.123z"/>
	<path fill-rule="evenodd" clip-rule="evenodd" fill="#FFFFFF" d="M104.617,8.722h-0.609l-0.243-0.63h-1.106l-0.229,0.63h-0.595
		l1.081-2.771h0.591L104.617,8.722L104.617,8.722z M103.586,7.626l-0.382-1.028l-0.374,1.028H103.586L103.586,7.626z"/>
	<polygon fill="#FFFFFF" points="108.439,8.722 108.439,5.951 109.277,5.951 109.78,7.841 110.278,5.951 111.118,5.951 
		111.118,8.722 110.597,8.722 110.597,6.541 110.047,8.722 109.509,8.722 108.96,6.541 108.96,8.722 108.439,8.722 	"/>
	<path fill-rule="evenodd" clip-rule="evenodd" fill="#FFFFFF" d="M117.707,8.722h-0.608l-0.242-0.63h-1.108l-0.229,0.63h-0.594
		l1.08-2.771h0.591L117.707,8.722L117.707,8.722z M116.677,7.626l-0.383-1.028l-0.374,1.028H116.677L116.677,7.626z"/>
	<polygon fill="#FFFFFF" points="53.146,37.71 56.31,37.71 56.31,38.681 54.329,38.681 54.329,39.404 56.167,39.404 56.167,40.332 
		54.329,40.332 54.329,41.227 56.368,41.227 56.368,42.258 53.146,42.258 53.146,37.71 	"/>
	<path fill="#FFFFFF" d="M56.746,41.346l1.052-0.119c0.044,0.149,0.105,0.256,0.184,0.319c0.078,0.065,0.183,0.097,0.312,0.097
		c0.143,0,0.253-0.036,0.331-0.108c0.061-0.054,0.091-0.12,0.091-0.201c0-0.091-0.039-0.161-0.12-0.211
		c-0.057-0.034-0.209-0.079-0.455-0.131c-0.369-0.075-0.625-0.146-0.769-0.211c-0.143-0.065-0.264-0.176-0.362-0.332
		c-0.099-0.154-0.146-0.331-0.146-0.53c0-0.217,0.053-0.404,0.159-0.561c0.105-0.158,0.251-0.274,0.437-0.351
		c0.187-0.079,0.437-0.118,0.75-0.118c0.329,0,0.572,0.029,0.729,0.089c0.158,0.061,0.288,0.153,0.394,0.28
		c0.105,0.126,0.193,0.297,0.263,0.512l-1.006,0.117c-0.026-0.104-0.07-0.182-0.131-0.232c-0.083-0.066-0.184-0.1-0.303-0.1
		c-0.12,0-0.207,0.026-0.263,0.078c-0.054,0.05-0.08,0.111-0.08,0.184c0,0.08,0.034,0.141,0.104,0.182
		c0.069,0.043,0.221,0.079,0.454,0.112c0.352,0.048,0.614,0.114,0.786,0.199c0.172,0.084,0.305,0.206,0.395,0.362
		c0.092,0.158,0.138,0.33,0.138,0.519c0,0.19-0.049,0.375-0.146,0.555c-0.096,0.181-0.247,0.323-0.457,0.432
		c-0.206,0.104-0.489,0.158-0.847,0.158c-0.505,0-0.866-0.086-1.082-0.258C56.944,41.905,56.806,41.661,56.746,41.346L56.746,41.346
		z"/>
	<path fill-rule="evenodd" clip-rule="evenodd" fill="#FFFFFF" d="M60.2,43.51v-4.547h0.993v0.487
		c0.137-0.204,0.264-0.344,0.378-0.415c0.154-0.099,0.325-0.146,0.513-0.146c0.371,0,0.657,0.168,0.858,0.505
		c0.202,0.339,0.305,0.754,0.305,1.251c0,0.548-0.11,0.967-0.331,1.256c-0.221,0.288-0.5,0.431-0.837,0.431
		c-0.163,0-0.312-0.032-0.448-0.1c-0.134-0.065-0.253-0.163-0.36-0.294v1.572H60.2L60.2,43.51z M61.264,40.62
		c0,0.26,0.046,0.454,0.139,0.579c0.092,0.127,0.207,0.188,0.349,0.188c0.123,0,0.227-0.058,0.311-0.179
		c0.083-0.121,0.124-0.328,0.124-0.618c0-0.266-0.043-0.462-0.13-0.586c-0.087-0.125-0.193-0.188-0.317-0.188
		c-0.136,0-0.249,0.063-0.339,0.188C61.309,40.131,61.264,40.337,61.264,40.62L61.264,40.62z"/>
	<path fill-rule="evenodd" clip-rule="evenodd" fill="#FFFFFF" d="M64.724,40.031l-1.015-0.129c0.038-0.21,0.093-0.376,0.164-0.495
		c0.073-0.122,0.178-0.229,0.312-0.317c0.098-0.063,0.231-0.113,0.402-0.148c0.17-0.035,0.354-0.053,0.552-0.053
		c0.318,0,0.573,0.022,0.767,0.065c0.193,0.041,0.354,0.129,0.482,0.263c0.09,0.095,0.161,0.227,0.214,0.398
		c0.052,0.168,0.078,0.332,0.078,0.486v1.455c0,0.154,0.008,0.276,0.023,0.365c0.017,0.088,0.054,0.198,0.109,0.336h-0.996
		c-0.04-0.085-0.066-0.15-0.078-0.193c-0.012-0.044-0.024-0.114-0.036-0.211c-0.14,0.16-0.277,0.273-0.414,0.342
		c-0.188,0.092-0.406,0.136-0.655,0.136c-0.33,0-0.581-0.091-0.753-0.272c-0.17-0.183-0.256-0.406-0.256-0.672
		c0-0.251,0.062-0.457,0.186-0.619c0.124-0.161,0.351-0.279,0.683-0.358c0.398-0.097,0.656-0.162,0.775-0.199
		c0.117-0.04,0.242-0.09,0.374-0.151c0-0.156-0.026-0.265-0.08-0.326c-0.055-0.062-0.148-0.093-0.284-0.093
		c-0.174,0-0.304,0.032-0.391,0.1C64.819,39.791,64.765,39.887,64.724,40.031L64.724,40.031z M65.643,40.694
		c-0.146,0.062-0.297,0.116-0.455,0.165c-0.216,0.066-0.353,0.136-0.409,0.201c-0.061,0.068-0.089,0.146-0.089,0.231
		c0,0.1,0.028,0.182,0.085,0.245c0.06,0.062,0.146,0.094,0.258,0.094c0.119,0,0.229-0.035,0.329-0.102
		c0.103-0.069,0.175-0.151,0.217-0.249c0.043-0.1,0.064-0.228,0.064-0.385V40.694L65.643,40.694z"/>
	<path fill-rule="evenodd" clip-rule="evenodd" fill="#FFFFFF" d="M67.317,38.963h0.986V39.5c0.148-0.22,0.298-0.376,0.449-0.469
		c0.151-0.095,0.336-0.143,0.553-0.143c0.294,0,0.522,0.104,0.688,0.312c0.168,0.208,0.251,0.527,0.251,0.962v2.095h-1.066v-1.812
		c0-0.206-0.031-0.353-0.096-0.437c-0.064-0.088-0.155-0.131-0.271-0.131c-0.128,0-0.232,0.059-0.312,0.174
		c-0.08,0.116-0.119,0.324-0.119,0.623v1.583h-1.062V38.963L67.317,38.963z M69.304,37.71h0.411c0.002,0.054,0.003,0.1,0.003,0.14
		c0,0.229-0.048,0.407-0.146,0.534c-0.097,0.125-0.222,0.188-0.375,0.188c-0.111,0-0.28-0.055-0.505-0.165
		c-0.138-0.065-0.233-0.1-0.284-0.1s-0.09,0.02-0.118,0.057c-0.028,0.038-0.042,0.104-0.044,0.198h-0.406
		c-0.002-0.049-0.003-0.093-0.003-0.129c0-0.222,0.051-0.397,0.154-0.527c0.102-0.131,0.223-0.196,0.364-0.196
		c0.061,0,0.118,0.009,0.172,0.024c0.054,0.017,0.152,0.062,0.297,0.134c0.146,0.072,0.252,0.108,0.318,0.108
		c0.047,0,0.084-0.02,0.111-0.055C69.282,37.882,69.3,37.812,69.304,37.71L69.304,37.71z"/>
	<path fill-rule="evenodd" clip-rule="evenodd" fill="#FFFFFF" d="M71.845,40.031l-1.015-0.129c0.04-0.21,0.094-0.376,0.165-0.495
		c0.073-0.122,0.178-0.229,0.313-0.317c0.097-0.063,0.23-0.113,0.401-0.148c0.17-0.035,0.354-0.053,0.552-0.053
		c0.318,0,0.574,0.022,0.768,0.065c0.192,0.041,0.353,0.129,0.481,0.263c0.091,0.095,0.161,0.227,0.214,0.398
		c0.052,0.168,0.078,0.332,0.078,0.486v1.455c0,0.154,0.007,0.276,0.023,0.365c0.018,0.088,0.054,0.198,0.109,0.336h-0.996
		c-0.039-0.085-0.065-0.15-0.077-0.193c-0.013-0.044-0.024-0.114-0.036-0.211c-0.141,0.16-0.278,0.273-0.415,0.342
		c-0.188,0.092-0.406,0.136-0.654,0.136c-0.331,0-0.581-0.091-0.754-0.272c-0.17-0.183-0.256-0.406-0.256-0.672
		c0-0.251,0.062-0.457,0.187-0.619c0.122-0.161,0.35-0.279,0.683-0.358c0.397-0.097,0.655-0.162,0.773-0.199
		c0.118-0.04,0.243-0.09,0.376-0.151c0-0.156-0.027-0.265-0.082-0.326c-0.053-0.062-0.147-0.093-0.283-0.093
		c-0.174,0-0.305,0.032-0.392,0.1C71.941,39.791,71.887,39.887,71.845,40.031L71.845,40.031z M72.766,40.694
		c-0.146,0.062-0.298,0.116-0.456,0.165c-0.216,0.066-0.352,0.136-0.409,0.201c-0.06,0.068-0.089,0.146-0.089,0.231
		c0,0.1,0.028,0.182,0.086,0.245c0.059,0.062,0.145,0.094,0.258,0.094c0.118,0,0.228-0.035,0.328-0.102
		c0.104-0.069,0.175-0.151,0.217-0.249c0.043-0.1,0.065-0.228,0.065-0.385V40.694L72.766,40.694z"/>
	<polygon fill="#FFFFFF" points="74.235,40.11 75.778,40.11 75.778,41.088 74.235,41.088 74.235,40.11 	"/>
	<polygon fill="#FFFFFF" points="76.294,37.71 79.213,37.71 79.213,38.688 77.479,38.688 77.479,39.481 78.959,39.481 
		78.959,40.398 77.479,40.398 77.479,42.258 76.294,42.258 76.294,37.71 	"/>
	<path fill="#FFFFFF" d="M79.607,38.963h0.993v0.541c0.096-0.234,0.193-0.396,0.294-0.481c0.103-0.089,0.229-0.134,0.379-0.134
		c0.156,0,0.327,0.059,0.513,0.174l-0.328,0.899c-0.125-0.062-0.224-0.093-0.297-0.093c-0.139,0-0.246,0.067-0.324,0.205
		c-0.108,0.192-0.163,0.551-0.163,1.078v1.105h-1.066V38.963L79.607,38.963z"/>
	<path fill-rule="evenodd" clip-rule="evenodd" fill="#FFFFFF" d="M81.922,40.62c0-0.503,0.143-0.917,0.428-1.242
		c0.285-0.326,0.67-0.489,1.154-0.489c0.555,0,0.973,0.19,1.257,0.574c0.227,0.307,0.341,0.687,0.341,1.139
		c0,0.507-0.142,0.922-0.425,1.247c-0.281,0.321-0.671,0.482-1.171,0.482c-0.443,0-0.804-0.134-1.078-0.401
		C82.091,41.596,81.922,41.16,81.922,40.62L81.922,40.62z M82.985,40.617c0,0.293,0.05,0.51,0.149,0.65
		c0.101,0.142,0.226,0.212,0.378,0.212c0.153,0,0.277-0.07,0.375-0.208c0.1-0.14,0.148-0.361,0.148-0.667
		c0-0.286-0.049-0.498-0.148-0.637c-0.1-0.14-0.221-0.21-0.368-0.21c-0.155,0-0.282,0.07-0.383,0.213
		C83.036,40.111,82.985,40.326,82.985,40.617L82.985,40.617z"/>
	<path fill="#FFFFFF" d="M85.613,38.963h0.987V39.5c0.148-0.22,0.298-0.376,0.449-0.469c0.151-0.095,0.335-0.143,0.553-0.143
		c0.294,0,0.522,0.104,0.688,0.312c0.167,0.208,0.25,0.527,0.25,0.962v2.095h-1.065v-1.812c0-0.206-0.032-0.353-0.097-0.437
		c-0.064-0.088-0.154-0.131-0.271-0.131c-0.128,0-0.231,0.059-0.312,0.174c-0.081,0.116-0.121,0.324-0.121,0.623v1.583h-1.061
		V38.963L85.613,38.963z"/>
	<path fill="#FFFFFF" d="M90.454,37.71v1.253h0.584v0.922h-0.584v1.168c0,0.142,0.012,0.234,0.034,0.28
		c0.034,0.07,0.096,0.104,0.184,0.104c0.077,0,0.187-0.025,0.328-0.08l0.077,0.872c-0.263,0.067-0.507,0.102-0.734,0.102
		c-0.265,0-0.46-0.039-0.584-0.12c-0.126-0.081-0.219-0.203-0.279-0.366c-0.059-0.165-0.088-0.433-0.088-0.8v-1.16H89v-0.922h0.392
		v-0.605L90.454,37.71L90.454,37.71z"/>
	<path fill-rule="evenodd" clip-rule="evenodd" fill="#FFFFFF" d="M94.618,40.923H92.49c0.02,0.204,0.065,0.354,0.14,0.453
		c0.101,0.143,0.235,0.215,0.4,0.215c0.104,0,0.204-0.031,0.297-0.093c0.057-0.039,0.119-0.11,0.186-0.208l1.045,0.113
		c-0.16,0.332-0.354,0.569-0.578,0.715c-0.227,0.143-0.551,0.213-0.973,0.213c-0.366,0-0.655-0.06-0.865-0.182
		c-0.21-0.124-0.386-0.319-0.524-0.588c-0.137-0.268-0.206-0.584-0.206-0.944c0-0.516,0.139-0.932,0.415-1.251
		c0.278-0.317,0.661-0.478,1.148-0.478c0.397,0,0.71,0.072,0.939,0.215s0.403,0.349,0.524,0.62c0.119,0.27,0.18,0.623,0.18,1.057
		V40.923L94.618,40.923z M93.539,40.318c-0.021-0.244-0.077-0.418-0.167-0.524c-0.089-0.104-0.206-0.158-0.353-0.158
		c-0.168,0-0.303,0.081-0.403,0.239c-0.064,0.1-0.106,0.247-0.123,0.443H93.539L93.539,40.318z"/>
	<path fill="#FFFFFF" d="M95.116,38.963h0.993v0.541c0.095-0.234,0.194-0.396,0.294-0.481c0.103-0.089,0.229-0.134,0.378-0.134
		c0.157,0,0.328,0.059,0.514,0.174l-0.328,0.899c-0.125-0.062-0.225-0.093-0.297-0.093c-0.14,0-0.247,0.067-0.323,0.205
		c-0.11,0.192-0.165,0.551-0.165,1.078v1.105h-1.065V38.963L95.116,38.963z"/>
	<path fill-rule="evenodd" clip-rule="evenodd" fill="#FFFFFF" d="M98.533,40.031l-1.014-0.129c0.038-0.21,0.093-0.376,0.164-0.495
		c0.073-0.122,0.178-0.229,0.313-0.317c0.096-0.063,0.23-0.113,0.4-0.148s0.354-0.053,0.553-0.053c0.318,0,0.573,0.022,0.767,0.065
		c0.192,0.041,0.354,0.129,0.481,0.263c0.091,0.095,0.162,0.227,0.214,0.398c0.053,0.168,0.079,0.332,0.079,0.486v1.455
		c0,0.154,0.007,0.276,0.022,0.365c0.018,0.088,0.054,0.198,0.11,0.336h-0.996c-0.04-0.085-0.065-0.15-0.078-0.193
		c-0.013-0.044-0.024-0.114-0.036-0.211c-0.14,0.16-0.278,0.273-0.415,0.342c-0.188,0.092-0.405,0.136-0.654,0.136
		c-0.331,0-0.582-0.091-0.753-0.272c-0.171-0.183-0.255-0.406-0.255-0.672c0-0.251,0.061-0.457,0.184-0.619
		c0.124-0.161,0.352-0.279,0.684-0.358c0.397-0.097,0.656-0.162,0.774-0.199c0.118-0.04,0.242-0.09,0.375-0.151
		c0-0.156-0.027-0.265-0.081-0.326c-0.054-0.062-0.147-0.093-0.283-0.093c-0.174,0-0.305,0.032-0.392,0.1
		C98.63,39.791,98.574,39.887,98.533,40.031L98.533,40.031z M99.453,40.694c-0.146,0.062-0.299,0.116-0.456,0.165
		c-0.216,0.066-0.353,0.136-0.41,0.201c-0.058,0.068-0.087,0.146-0.087,0.231c0,0.1,0.028,0.182,0.085,0.245
		c0.06,0.062,0.145,0.094,0.259,0.094c0.118,0,0.227-0.035,0.328-0.102c0.103-0.069,0.175-0.151,0.216-0.249
		c0.044-0.1,0.065-0.228,0.065-0.385V40.694L99.453,40.694z"/>
	<path fill="#FFFFFF" d="M100.939,41.346l1.053-0.119c0.044,0.149,0.104,0.256,0.183,0.319c0.079,0.065,0.183,0.097,0.312,0.097
		c0.143,0,0.253-0.036,0.331-0.108c0.062-0.054,0.092-0.12,0.092-0.201c0-0.091-0.04-0.161-0.119-0.211
		c-0.059-0.034-0.211-0.079-0.457-0.131c-0.368-0.075-0.625-0.146-0.769-0.211c-0.143-0.065-0.264-0.176-0.362-0.332
		c-0.098-0.154-0.146-0.331-0.146-0.53c0-0.217,0.054-0.404,0.159-0.561c0.105-0.158,0.252-0.274,0.438-0.351
		c0.186-0.079,0.437-0.118,0.748-0.118c0.33,0,0.574,0.029,0.73,0.089c0.158,0.061,0.289,0.153,0.395,0.28
		c0.105,0.126,0.192,0.297,0.262,0.512l-1.005,0.117c-0.026-0.104-0.07-0.182-0.132-0.232c-0.083-0.066-0.184-0.1-0.302-0.1
		c-0.12,0-0.208,0.026-0.264,0.078c-0.053,0.05-0.08,0.111-0.08,0.184c0,0.08,0.035,0.141,0.104,0.182
		c0.069,0.043,0.22,0.079,0.453,0.112c0.353,0.048,0.615,0.114,0.787,0.199c0.173,0.084,0.304,0.206,0.394,0.362
		c0.092,0.158,0.139,0.33,0.139,0.519c0,0.19-0.05,0.375-0.146,0.555c-0.096,0.181-0.247,0.323-0.456,0.432
		c-0.207,0.104-0.488,0.158-0.847,0.158c-0.507,0-0.867-0.086-1.083-0.258C101.138,41.905,101,41.661,100.939,41.346L100.939,41.346
		z"/>
	<polygon fill="#FFFFFF" points="106.238,37.71 109.403,37.71 109.403,38.681 107.423,38.681 107.423,39.404 109.261,39.404 
		109.261,40.332 107.423,40.332 107.423,41.227 109.46,41.227 109.46,42.258 106.238,42.258 106.238,37.71 	"/>
	<polygon fill="#FFFFFF" points="109.787,38.963 111.046,38.963 111.486,39.882 111.997,38.963 113.168,38.963 112.225,40.532 
		113.235,42.258 111.997,42.258 111.486,41.195 110.884,42.258 109.735,42.258 110.741,40.532 109.787,38.963 	"/>
	<path fill="#FFFFFF" d="M114.867,37.71v1.253h0.585v0.922h-0.585v1.168c0,0.142,0.013,0.234,0.035,0.28
		c0.034,0.07,0.095,0.104,0.182,0.104c0.078,0,0.188-0.025,0.329-0.08l0.078,0.872c-0.263,0.067-0.508,0.102-0.734,0.102
		c-0.265,0-0.46-0.039-0.585-0.12s-0.219-0.203-0.279-0.366c-0.06-0.165-0.089-0.433-0.089-0.8v-1.16h-0.391v-0.922h0.391v-0.605
		L114.867,37.71L114.867,37.71z"/>
	<path fill-rule="evenodd" clip-rule="evenodd" fill="#FFFFFF" d="M119.031,40.923h-2.127c0.02,0.204,0.064,0.354,0.138,0.453
		c0.103,0.143,0.237,0.215,0.401,0.215c0.104,0,0.204-0.031,0.298-0.093c0.058-0.039,0.118-0.11,0.185-0.208l1.045,0.113
		c-0.159,0.332-0.353,0.569-0.578,0.715c-0.226,0.143-0.55,0.213-0.972,0.213c-0.367,0-0.656-0.06-0.866-0.182
		c-0.21-0.124-0.385-0.319-0.524-0.588c-0.137-0.268-0.205-0.584-0.205-0.944c0-0.516,0.138-0.932,0.414-1.251
		c0.277-0.317,0.662-0.478,1.15-0.478c0.396,0,0.708,0.072,0.938,0.215s0.404,0.349,0.524,0.62c0.119,0.27,0.18,0.623,0.18,1.057
		V40.923L119.031,40.923z M117.952,40.318c-0.021-0.244-0.077-0.418-0.167-0.524c-0.089-0.104-0.206-0.158-0.352-0.158
		c-0.168,0-0.304,0.081-0.404,0.239c-0.064,0.1-0.105,0.247-0.123,0.443H117.952L117.952,40.318z"/>
	<path fill="#FFFFFF" d="M119.529,38.963h0.994v0.541c0.095-0.234,0.192-0.396,0.293-0.481c0.103-0.089,0.229-0.134,0.379-0.134
		c0.156,0,0.328,0.059,0.514,0.174l-0.329,0.899c-0.125-0.062-0.225-0.093-0.297-0.093c-0.14,0-0.247,0.067-0.323,0.205
		c-0.109,0.192-0.164,0.551-0.164,1.078v1.105h-1.066V38.963L119.529,38.963z"/>
	<path fill-rule="evenodd" clip-rule="evenodd" fill="#FFFFFF" d="M121.929,37.71h1.061v0.859h-1.061V37.71L121.929,37.71z
		 M121.929,38.963h1.061v3.295h-1.061V38.963L121.929,38.963z"/>
	<path fill-rule="evenodd" clip-rule="evenodd" fill="#FFFFFF" d="M123.537,40.62c0-0.503,0.143-0.917,0.427-1.242
		c0.285-0.326,0.67-0.489,1.155-0.489c0.555,0,0.973,0.19,1.256,0.574c0.228,0.307,0.341,0.687,0.342,1.139
		c0,0.507-0.142,0.922-0.425,1.247c-0.281,0.321-0.672,0.482-1.17,0.482c-0.445,0-0.805-0.134-1.079-0.401
		C123.705,41.596,123.537,41.16,123.537,40.62L123.537,40.62z M124.6,40.617c0,0.293,0.05,0.51,0.148,0.65
		c0.101,0.142,0.228,0.212,0.379,0.212c0.152,0,0.277-0.07,0.374-0.208c0.101-0.14,0.149-0.361,0.149-0.667
		c0-0.286-0.049-0.498-0.149-0.637c-0.099-0.14-0.221-0.21-0.366-0.21c-0.154,0-0.283,0.07-0.383,0.213
		C124.65,40.111,124.6,40.326,124.6,40.617L124.6,40.617z"/>
	<path fill="#FFFFFF" d="M127.238,38.963h0.993v0.541c0.096-0.234,0.193-0.396,0.295-0.481c0.103-0.089,0.229-0.134,0.378-0.134
		c0.156,0,0.327,0.059,0.514,0.174l-0.328,0.899c-0.126-0.062-0.225-0.093-0.298-0.093c-0.139,0-0.247,0.067-0.323,0.205
		c-0.109,0.192-0.164,0.551-0.164,1.078v1.105h-1.066V38.963L127.238,38.963z"/>
	<path fill-rule="evenodd" clip-rule="evenodd" fill="#FFFFFF" d="M132.757,40.923h-2.128c0.021,0.204,0.065,0.354,0.14,0.453
		c0.102,0.143,0.235,0.215,0.4,0.215c0.105,0,0.204-0.031,0.298-0.093c0.058-0.039,0.118-0.11,0.186-0.208l1.045,0.113
		c-0.16,0.332-0.354,0.569-0.579,0.715c-0.226,0.143-0.551,0.213-0.973,0.213c-0.366,0-0.655-0.06-0.864-0.182
		c-0.212-0.124-0.387-0.319-0.524-0.588c-0.138-0.268-0.205-0.584-0.205-0.944c0-0.516,0.137-0.932,0.413-1.251
		c0.278-0.317,0.661-0.478,1.149-0.478c0.396,0,0.709,0.072,0.938,0.215s0.404,0.349,0.524,0.62c0.12,0.27,0.18,0.623,0.18,1.057
		V40.923L132.757,40.923z M131.677,40.318c-0.021-0.244-0.075-0.418-0.166-0.524c-0.089-0.104-0.206-0.158-0.353-0.158
		c-0.168,0-0.303,0.081-0.403,0.239c-0.064,0.1-0.104,0.247-0.122,0.443H131.677L131.677,40.318z"/>
	<path fill="#FFFFFF" d="M133.057,41.346l1.054-0.119c0.043,0.149,0.104,0.256,0.183,0.319c0.077,0.065,0.183,0.097,0.312,0.097
		c0.143,0,0.252-0.036,0.33-0.108c0.062-0.054,0.091-0.12,0.092-0.201c0-0.091-0.04-0.161-0.12-0.211
		c-0.057-0.034-0.209-0.079-0.456-0.131c-0.368-0.075-0.624-0.146-0.769-0.211c-0.143-0.065-0.263-0.176-0.363-0.332
		c-0.096-0.154-0.145-0.331-0.145-0.53c0-0.217,0.053-0.404,0.159-0.561c0.105-0.158,0.251-0.274,0.437-0.351
		c0.187-0.079,0.436-0.118,0.749-0.118c0.33,0,0.573,0.029,0.729,0.089c0.158,0.061,0.289,0.153,0.394,0.28
		c0.106,0.126,0.193,0.297,0.263,0.512l-1.006,0.117c-0.025-0.104-0.068-0.182-0.131-0.232c-0.082-0.066-0.184-0.1-0.301-0.1
		c-0.12,0-0.209,0.026-0.265,0.078c-0.053,0.05-0.08,0.111-0.08,0.184c0,0.08,0.035,0.141,0.104,0.182
		c0.068,0.043,0.221,0.079,0.453,0.112c0.352,0.048,0.615,0.114,0.788,0.199c0.171,0.084,0.303,0.206,0.393,0.362
		c0.092,0.158,0.139,0.33,0.139,0.519c0,0.19-0.049,0.375-0.146,0.555c-0.095,0.181-0.247,0.323-0.455,0.432
		c-0.207,0.104-0.49,0.158-0.848,0.158c-0.506,0-0.867-0.086-1.081-0.258S133.117,41.661,133.057,41.346L133.057,41.346z"/>
	<polygon fill="#FFFFFF" points="58.281,27.205 55.264,27.205 55.264,34.813 54.05,34.813 54.05,27.205 51.057,27.205 
		51.057,26.182 58.281,26.182 58.281,27.205 	"/>
	<path fill="#FFFFFF" d="M62.975,28.76l-0.386,0.978c-0.278-0.152-0.549-0.23-0.815-0.23c-0.419,0-0.736,0.181-0.952,0.536
		c-0.216,0.354-0.324,0.851-0.324,1.491v3.279h-1.119v-6.248h1.02v0.941h0.025c0.356-0.721,0.824-1.082,1.4-1.082
		C62.205,28.425,62.589,28.537,62.975,28.76L62.975,28.76z"/>
	<path fill-rule="evenodd" clip-rule="evenodd" fill="#FFFFFF" d="M69.386,34.813H68.21c-0.108-0.195-0.186-0.453-0.23-0.771
		c-0.751,0.613-1.563,0.919-2.434,0.919c-0.697,0-1.247-0.165-1.649-0.495s-0.604-0.767-0.604-1.308
		c0-0.519,0.193-0.944,0.579-1.278c0.39-0.338,1.064-0.562,2.022-0.671l1.045-0.146c0.391-0.06,0.711-0.132,0.965-0.218
		c0-0.318-0.011-0.543-0.031-0.672c-0.021-0.134-0.083-0.271-0.187-0.412c-0.1-0.141-0.261-0.256-0.485-0.342
		s-0.524-0.129-0.902-0.129c-0.481,0-0.863,0.084-1.145,0.252c-0.278,0.169-0.469,0.483-0.572,0.943l-1.096-0.136
		c0.119-0.641,0.429-1.122,0.928-1.442c0.496-0.322,1.182-0.483,2.053-0.483c0.792,0,1.374,0.112,1.743,0.335
		c0.373,0.22,0.602,0.488,0.684,0.801c0.089,0.314,0.132,0.72,0.132,1.215v1.424c0,0.867,0.016,1.451,0.05,1.749
		C69.112,34.243,69.216,34.532,69.386,34.813L69.386,34.813z M67.904,32.063v-0.383c-0.585,0.186-1.3,0.333-2.147,0.441
		c-0.847,0.106-1.27,0.444-1.27,1.014c0,0.286,0.115,0.523,0.343,0.713c0.229,0.184,0.556,0.276,0.983,0.276
		c0.552,0,1.037-0.154,1.456-0.466C67.693,33.345,67.904,32.814,67.904,32.063L67.904,32.063z"/>
	<path fill="#FFFFFF" d="M76.146,34.813h-1.127v-3.798c0-0.639-0.123-1.079-0.367-1.319c-0.24-0.239-0.576-0.359-1.008-0.359
		c-0.332,0-0.647,0.077-0.947,0.23c-0.293,0.153-0.503,0.369-0.628,0.647c-0.124,0.278-0.187,0.674-0.187,1.184v3.415h-1.12v-6.248
		h1.009v0.884h0.024c0.236-0.342,0.527-0.597,0.871-0.765c0.349-0.174,0.752-0.26,1.208-0.26c0.348,0,0.692,0.059,1.033,0.177
		c0.339,0.117,0.605,0.294,0.797,0.529c0.193,0.235,0.316,0.488,0.366,0.754c0.05,0.267,0.075,0.629,0.075,1.084V34.813
		L76.146,34.813z"/>
	<path fill="#FFFFFF" d="M81.523,30.314c-0.05-0.342-0.198-0.596-0.442-0.765c-0.24-0.173-0.577-0.259-1.008-0.259
		c-0.428,0-0.774,0.068-1.039,0.206c-0.262,0.138-0.393,0.337-0.393,0.6c0,0.247,0.104,0.424,0.312,0.53
		c0.212,0.106,0.626,0.235,1.244,0.389c0.696,0.168,1.218,0.317,1.562,0.448c0.348,0.129,0.618,0.311,0.809,0.546
		c0.194,0.232,0.292,0.557,0.292,0.973c0,0.559-0.24,1.027-0.721,1.407c-0.482,0.381-1.124,0.572-1.93,0.572
		c-0.838,0-1.494-0.167-1.967-0.502c-0.469-0.337-0.757-0.842-0.864-1.514l1.113-0.158c0.059,0.435,0.229,0.762,0.511,0.978
		c0.285,0.217,0.685,0.323,1.194,0.323c0.49,0,0.864-0.097,1.127-0.289c0.261-0.195,0.392-0.433,0.392-0.711
		c0-0.188-0.061-0.34-0.181-0.453s-0.271-0.199-0.454-0.255c-0.179-0.058-0.582-0.159-1.213-0.306
		c-0.938-0.211-1.559-0.469-1.861-0.771c-0.3-0.302-0.448-0.663-0.448-1.084c0-0.521,0.22-0.951,0.66-1.288
		c0.439-0.338,1.03-0.507,1.772-0.507c0.789,0,1.4,0.146,1.837,0.441c0.439,0.29,0.704,0.727,0.79,1.308L81.523,30.314
		L81.523,30.314z"/>
	<path fill="#FFFFFF" d="M87.324,26.141l-0.169,0.929c-0.223-0.038-0.443-0.059-0.659-0.059c-0.269,0-0.492,0.056-0.666,0.165
		c-0.169,0.106-0.254,0.373-0.254,0.801v0.589h1.275v0.819h-1.275v5.429h-1.12v-5.429H83.46v-0.819h0.996v-0.677
		c0-0.314,0.03-0.6,0.092-0.854c0.062-0.256,0.227-0.484,0.493-0.688c0.269-0.208,0.682-0.313,1.237-0.313
		C86.61,26.033,86.96,26.069,87.324,26.141L87.324,26.141z"/>
	<path fill="#FFFFFF" d="M91.314,28.76l-0.386,0.978c-0.278-0.152-0.551-0.23-0.815-0.23c-0.419,0-0.736,0.181-0.952,0.536
		c-0.216,0.354-0.324,0.851-0.324,1.491v3.279h-1.12v-6.248h1.021v0.941h0.024c0.356-0.721,0.824-1.082,1.399-1.082
		C90.544,28.425,90.929,28.537,91.314,28.76L91.314,28.76z"/>
	<path fill-rule="evenodd" clip-rule="evenodd" fill="#FFFFFF" d="M94.688,28.425c0.892,0,1.631,0.275,2.215,0.825
		c0.59,0.549,0.885,1.329,0.885,2.343c0,1.229-0.317,2.1-0.953,2.609c-0.635,0.505-1.35,0.76-2.146,0.76
		c-0.834,0-1.559-0.262-2.172-0.784c-0.614-0.521-0.921-1.35-0.921-2.485c0-1.1,0.297-1.917,0.891-2.455
		C93.078,28.694,93.812,28.425,94.688,28.425L94.688,28.425z M94.688,34.089c0.639,0,1.124-0.224,1.456-0.67
		c0.333-0.448,0.497-1.038,0.498-1.768c0-0.78-0.189-1.369-0.566-1.767c-0.372-0.396-0.836-0.594-1.388-0.594
		c-0.568,0-1.035,0.201-1.4,0.606c-0.365,0.4-0.548,0.998-0.548,1.795c0,0.794,0.185,1.392,0.554,1.797
		C93.668,33.89,94.132,34.089,94.688,34.089L94.688,34.089z"/>
	<path fill="#FFFFFF" d="M104.485,34.813h-1.127v-3.798c0-0.639-0.123-1.079-0.367-1.319c-0.24-0.239-0.577-0.359-1.009-0.359
		c-0.331,0-0.646,0.077-0.945,0.23c-0.294,0.153-0.505,0.369-0.628,0.647c-0.125,0.278-0.187,0.674-0.187,1.184v3.415h-1.121v-6.248
		h1.009v0.884h0.024c0.236-0.342,0.526-0.597,0.872-0.765c0.348-0.174,0.75-0.26,1.206-0.26c0.349,0,0.693,0.059,1.033,0.177
		c0.34,0.117,0.606,0.294,0.797,0.529c0.194,0.235,0.316,0.488,0.367,0.754c0.049,0.267,0.075,0.629,0.075,1.084V34.813
		L104.485,34.813z"/>
	<path fill="#FFFFFF" d="M108.756,34.802c-0.333,0.063-0.612,0.095-0.841,0.095c-0.49,0-0.847-0.081-1.07-0.24
		c-0.225-0.165-0.36-0.375-0.411-0.626c-0.05-0.251-0.074-0.6-0.074-1.048v-3.598h-0.815v-0.819h0.815v-1.555l1.12-0.642v2.196h1.12
		v0.819h-1.12v3.656c0,0.314,0.032,0.537,0.1,0.672c0.07,0.129,0.245,0.193,0.522,0.193c0.161,0,0.328-0.015,0.498-0.046
		L108.756,34.802L108.756,34.802z"/>
	<path fill-rule="evenodd" clip-rule="evenodd" fill="#FFFFFF" d="M115.459,31.959h-4.948c0.046,0.69,0.254,1.218,0.623,1.584
		c0.373,0.363,0.838,0.546,1.394,0.546c0.427,0,0.786-0.104,1.076-0.317c0.291-0.215,0.513-0.54,0.666-0.971l1.151,0.136
		c-0.187,0.65-0.529,1.15-1.026,1.501c-0.498,0.349-1.121,0.524-1.867,0.524c-0.992,0-1.769-0.287-2.328-0.861
		c-0.556-0.577-0.833-1.364-0.833-2.36c0-0.986,0.27-1.785,0.809-2.396c0.543-0.613,1.307-0.919,2.29-0.919
		c0.481,0,0.943,0.1,1.388,0.301c0.448,0.199,0.827,0.541,1.139,1.023C115.303,30.229,115.459,30.964,115.459,31.959L115.459,31.959
		z M114.307,31.086c-0.045-0.636-0.255-1.093-0.628-1.373c-0.37-0.281-0.773-0.422-1.214-0.422c-0.527,0-0.96,0.166-1.301,0.5
		c-0.341,0.333-0.537,0.766-0.591,1.295H114.307L114.307,31.086z"/>
	<path fill="#FFFFFF" d="M120.369,28.76l-0.385,0.978c-0.279-0.152-0.551-0.23-0.816-0.23c-0.419,0-0.736,0.181-0.951,0.536
		c-0.217,0.354-0.324,0.851-0.324,1.491v3.279h-1.12v-6.248h1.021v0.941h0.024c0.357-0.721,0.824-1.082,1.4-1.082
		C119.6,28.425,119.983,28.537,120.369,28.76L120.369,28.76z"/>
	<path fill-rule="evenodd" clip-rule="evenodd" fill="#FFFFFF" d="M122.176,34.813h-1.121v-6.248h1.121V34.813L122.176,34.813z
		 M122.176,27.382h-1.121v-1.2h1.121V27.382L122.176,27.382z"/>
	<path fill="#FFFFFF" d="M129.141,34.813h-5.851V33.96l4.207-4.564c-0.494,0.029-0.915,0.041-1.263,0.041h-2.701v-0.871h5.401v0.689
		l-3.578,3.958c-0.07,0.082-0.253,0.274-0.548,0.577c-0.07,0.062-0.118,0.115-0.144,0.158c0.429-0.034,0.898-0.054,1.413-0.054
		h3.062V34.813L129.141,34.813z"/>
	<path fill-rule="evenodd" clip-rule="evenodd" fill="#FFFFFF" d="M135.986,34.813h-1.176c-0.107-0.195-0.185-0.453-0.23-0.771
		c-0.75,0.613-1.562,0.919-2.433,0.919c-0.697,0-1.247-0.165-1.649-0.495s-0.604-0.767-0.604-1.308c0-0.519,0.194-0.944,0.579-1.278
		c0.391-0.338,1.064-0.562,2.022-0.671l1.046-0.146c0.39-0.06,0.711-0.132,0.964-0.218c0-0.318-0.01-0.543-0.03-0.672
		c-0.021-0.134-0.083-0.271-0.188-0.412c-0.1-0.141-0.261-0.256-0.485-0.342c-0.224-0.086-0.524-0.129-0.901-0.129
		c-0.481,0-0.863,0.084-1.146,0.252c-0.278,0.169-0.469,0.483-0.573,0.943l-1.094-0.136c0.12-0.641,0.429-1.122,0.927-1.442
		c0.497-0.322,1.183-0.483,2.054-0.483c0.792,0,1.373,0.112,1.742,0.335c0.374,0.22,0.602,0.488,0.685,0.801
		c0.087,0.314,0.131,0.72,0.131,1.215v1.424c0,0.867,0.017,1.451,0.05,1.749C135.713,34.243,135.817,34.532,135.986,34.813
		L135.986,34.813z M134.505,32.063v-0.383c-0.584,0.186-1.3,0.333-2.146,0.441c-0.847,0.106-1.27,0.444-1.27,1.014
		c0,0.286,0.113,0.523,0.343,0.713c0.228,0.184,0.556,0.276,0.982,0.276c0.553,0,1.037-0.154,1.457-0.466
		C134.294,33.345,134.505,32.814,134.505,32.063L134.505,32.063z"/>
	<path fill="#FFFFFF" d="M61.291,18.906c-0.296,1.154-0.814,2.017-1.556,2.587c-0.736,0.565-1.621,0.848-2.653,0.849
		c-1.667,0-2.882-0.526-3.647-1.578c-0.759-1.057-1.138-2.325-1.138-3.808c0-1.641,0.446-2.923,1.34-3.848
		c0.898-0.932,2.052-1.396,3.459-1.396c0.991,0,1.839,0.255,2.543,0.764c0.704,0.51,1.196,1.255,1.479,2.236l-1.32,0.316
		c-0.222-0.715-0.561-1.253-1.014-1.613c-0.454-0.359-1.021-0.54-1.702-0.54c-1.111,0-1.953,0.37-2.528,1.108
		c-0.574,0.733-0.861,1.72-0.861,2.958c0,1.432,0.302,2.494,0.903,3.19c0.606,0.696,1.396,1.044,2.369,1.044
		c0.796,0,1.442-0.216,1.938-0.651c0.5-0.435,0.849-1.089,1.048-1.963L61.291,18.906L61.291,18.906z"/>
	<path fill-rule="evenodd" clip-rule="evenodd" fill="#FFFFFF" d="M66.251,14.559c0.996,0,1.819,0.328,2.473,0.982
		c0.658,0.654,0.987,1.584,0.987,2.79c0,1.463-0.355,2.498-1.062,3.105c-0.708,0.603-1.508,0.905-2.397,0.905
		c-0.93,0-1.739-0.311-2.425-0.933c-0.685-0.622-1.026-1.608-1.026-2.959c0-1.309,0.33-2.283,0.992-2.923
		C64.454,14.881,65.273,14.559,66.251,14.559L66.251,14.559z M66.251,21.304c0.713,0,1.256-0.267,1.625-0.8
		c0.371-0.533,0.556-1.233,0.557-2.103c0-0.93-0.211-1.632-0.632-2.103c-0.417-0.473-0.934-0.709-1.55-0.709
		c-0.634,0-1.155,0.24-1.562,0.723c-0.409,0.476-0.612,1.188-0.612,2.138c0,0.944,0.206,1.657,0.619,2.138
		C65.111,21.065,65.631,21.304,66.251,21.304L66.251,21.304z"/>
	<path fill-rule="evenodd" clip-rule="evenodd" fill="#FFFFFF" d="M74.614,14.559c0.996,0,1.82,0.328,2.474,0.982
		c0.657,0.654,0.986,1.584,0.986,2.79c0,1.463-0.354,2.498-1.063,3.105c-0.709,0.603-1.507,0.905-2.396,0.905
		c-0.931,0-1.738-0.311-2.424-0.933s-1.028-1.608-1.028-2.959c0-1.309,0.331-2.283,0.993-2.923
		C72.817,14.881,73.638,14.559,74.614,14.559L74.614,14.559z M74.614,21.304c0.713,0,1.255-0.267,1.626-0.8s0.556-1.233,0.556-2.103
		c0-0.93-0.211-1.632-0.632-2.103c-0.417-0.473-0.934-0.709-1.55-0.709c-0.634,0-1.155,0.24-1.562,0.723
		c-0.408,0.476-0.612,1.188-0.612,2.138c0,0.944,0.207,1.657,0.618,2.138C73.476,21.065,73.994,21.304,74.614,21.304L74.614,21.304z
		"/>
	<path fill-rule="evenodd" clip-rule="evenodd" fill="#FFFFFF" d="M81.158,15.688c0.467-0.751,1.169-1.128,2.105-1.129
		c0.967,0,1.73,0.356,2.291,1.066c0.561,0.706,0.84,1.627,0.841,2.763c0,1.21-0.312,2.173-0.931,2.888
		c-0.621,0.711-1.383,1.065-2.286,1.066c-0.791,0-1.426-0.317-1.903-0.954h-0.034v3.64h-1.25v-10.3h1.139v0.96H81.158L81.158,15.688
		z M83.096,21.304c0.584,0,1.065-0.243,1.445-0.729c0.384-0.49,0.575-1.22,0.576-2.187c0-0.913-0.186-1.613-0.556-2.104
		c-0.367-0.491-0.836-0.736-1.41-0.736c-0.593,0-1.081,0.272-1.465,0.82c-0.381,0.547-0.57,1.255-0.57,2.124
		c0,0.921,0.183,1.62,0.549,2.096C82.03,21.065,82.508,21.304,83.096,21.304L83.096,21.304z"/>
	<path fill-rule="evenodd" clip-rule="evenodd" fill="#FFFFFF" d="M94.745,18.766h-5.523c0.051,0.822,0.283,1.451,0.695,1.886
		c0.416,0.435,0.936,0.652,1.557,0.652c0.477,0,0.877-0.127,1.2-0.379c0.325-0.256,0.573-0.643,0.744-1.156l1.286,0.161
		c-0.209,0.776-0.592,1.372-1.147,1.788c-0.555,0.415-1.25,0.623-2.083,0.624c-1.107,0-1.973-0.342-2.598-1.023
		c-0.622-0.688-0.933-1.625-0.933-2.812c0-1.173,0.302-2.123,0.904-2.854c0.606-0.729,1.458-1.094,2.556-1.094
		c0.537,0,1.054,0.12,1.549,0.358c0.501,0.237,0.924,0.645,1.271,1.22C94.571,16.707,94.745,17.583,94.745,18.766L94.745,18.766z
		 M93.46,17.728c-0.052-0.757-0.285-1.301-0.702-1.634c-0.412-0.337-0.863-0.504-1.354-0.504c-0.588,0-1.072,0.198-1.451,0.595
		c-0.38,0.399-0.6,0.913-0.661,1.543H93.46L93.46,17.728z"/>
	<path fill="#FFFFFF" d="M100.677,14.958l-0.431,1.165c-0.311-0.183-0.613-0.273-0.91-0.273c-0.467,0-0.821,0.212-1.062,0.638
		c-0.241,0.421-0.361,1.012-0.361,1.773v3.906h-1.25v-7.439h1.139v1.122h0.028c0.397-0.86,0.919-1.29,1.562-1.291
		C99.817,14.559,100.246,14.692,100.677,14.958L100.677,14.958z"/>
	<path fill-rule="evenodd" clip-rule="evenodd" fill="#FFFFFF" d="M108.282,22.167h-1.312c-0.121-0.234-0.206-0.541-0.257-0.919
		c-0.838,0.729-1.743,1.094-2.716,1.094c-0.778,0-1.392-0.196-1.842-0.589c-0.448-0.394-0.673-0.912-0.673-1.557
		c0-0.617,0.216-1.124,0.646-1.522c0.436-0.401,1.188-0.668,2.258-0.799l1.167-0.175c0.436-0.07,0.794-0.156,1.077-0.26
		c0-0.378-0.012-0.645-0.035-0.799c-0.023-0.159-0.093-0.322-0.208-0.491c-0.112-0.168-0.292-0.304-0.541-0.407
		c-0.251-0.102-0.587-0.153-1.008-0.153c-0.538,0-0.963,0.101-1.278,0.302c-0.311,0.2-0.523,0.574-0.64,1.121l-1.222-0.161
		c0.134-0.761,0.479-1.334,1.034-1.718c0.557-0.383,1.32-0.574,2.292-0.575c0.886,0,1.533,0.134,1.945,0.399
		c0.417,0.263,0.672,0.58,0.765,0.954c0.098,0.374,0.146,0.855,0.146,1.444v1.696c0,1.033,0.019,1.728,0.056,2.083
		C107.977,21.486,108.093,21.83,108.282,22.167L108.282,22.167z M106.63,18.893v-0.456c-0.653,0.219-1.452,0.395-2.396,0.525
		c-0.944,0.126-1.418,0.528-1.418,1.206c0,0.341,0.128,0.624,0.383,0.848c0.255,0.22,0.62,0.33,1.098,0.33
		c0.615,0,1.157-0.184,1.625-0.554C106.394,20.418,106.63,19.785,106.63,18.893L106.63,18.893z"/>
	<path fill="#FFFFFF" d="M116.292,19.594c-0.162,0.948-0.532,1.646-1.111,2.089c-0.579,0.439-1.234,0.658-1.967,0.659
		c-1.069,0-1.896-0.354-2.479-1.06c-0.584-0.71-0.875-1.649-0.875-2.817c0-0.969,0.167-1.742,0.5-2.321
		c0.338-0.584,0.76-0.993,1.265-1.227c0.505-0.238,1.034-0.358,1.59-0.358c0.76,0,1.408,0.199,1.945,0.596
		c0.542,0.398,0.876,0.982,1.001,1.754l-1.208,0.189c-0.126-0.5-0.33-0.877-0.612-1.129c-0.278-0.253-0.635-0.379-1.069-0.379
		c-0.7,0-1.23,0.25-1.591,0.75c-0.361,0.5-0.542,1.199-0.542,2.097c0,0.916,0.176,1.624,0.528,2.124
		c0.356,0.495,0.867,0.743,1.534,0.743c0.538,0,0.959-0.154,1.265-0.463c0.311-0.313,0.505-0.78,0.583-1.402L116.292,19.594
		L116.292,19.594z"/>
	<path fill-rule="evenodd" clip-rule="evenodd" fill="#FFFFFF" d="M119.07,22.167h-1.25v-7.439h1.25V22.167L119.07,22.167z
		 M119.07,13.318h-1.25v-1.431h1.25V13.318L119.07,13.318z"/>
	<path fill-rule="evenodd" clip-rule="evenodd" fill="#FFFFFF" d="M124.434,14.559c0.994,0,1.818,0.328,2.472,0.982
		c0.658,0.654,0.986,1.584,0.986,2.79c0,1.463-0.354,2.498-1.062,3.105c-0.709,0.603-1.507,0.905-2.396,0.905
		c-0.932,0-1.74-0.311-2.425-0.933c-0.686-0.622-1.029-1.608-1.029-2.959c0-1.309,0.332-2.283,0.994-2.923
		C122.636,14.881,123.456,14.559,124.434,14.559L124.434,14.559z M124.434,21.304c0.712,0,1.254-0.267,1.624-0.8
		c0.371-0.533,0.557-1.233,0.557-2.103c0-0.93-0.211-1.632-0.632-2.103c-0.417-0.473-0.934-0.709-1.549-0.709
		c-0.636,0-1.156,0.24-1.564,0.723c-0.407,0.476-0.611,1.188-0.611,2.138c0,0.944,0.207,1.657,0.619,2.138
		C123.293,21.065,123.812,21.304,124.434,21.304L124.434,21.304z M126.231,11.713l-1.535,1.97h-1.027l0.923-1.97H126.231
		L126.231,11.713z"/>
	<path fill="#FFFFFF" d="M135.817,22.167h-1.256v-4.523c0-0.761-0.138-1.285-0.411-1.57c-0.269-0.285-0.645-0.428-1.125-0.428
		c-0.371,0-0.723,0.091-1.056,0.273c-0.33,0.183-0.563,0.439-0.701,0.771c-0.14,0.332-0.21,0.802-0.21,1.409v4.067h-1.25v-7.439
		h1.126v1.051h0.028c0.263-0.406,0.588-0.71,0.973-0.911c0.389-0.205,0.838-0.308,1.348-0.309c0.388,0,0.772,0.07,1.152,0.211
		c0.379,0.14,0.676,0.351,0.89,0.631c0.218,0.28,0.354,0.58,0.409,0.898c0.056,0.317,0.083,0.747,0.083,1.289V22.167L135.817,22.167
		z"/>
	<path fill="#FFFFFF" d="M6.443,49.036c-0.188,0-0.374-0.002-0.563-0.007l-0.343-0.007l-3.926-7.128l0.886-0.098
		c0.162-0.019,16.284-1.933,21.71-12.774l0.418-0.836l6.64,8.377l-0.306,0.371C30.859,37.056,20.806,49.036,6.443,49.036z
		 M6.248,47.845c0.065,0.001,0.131,0.001,0.195,0.001c12.417,0,21.506-9.342,23.281-11.309l-4.889-6.168
		c-2.484,4.367-6.987,7.898-13.085,10.249c-3.595,1.387-6.772,2.003-8.251,2.239L6.248,47.845z"/>
	<path fill="#FFFFFF" d="M24.63,30.394l-0.419-0.837C18.786,18.716,2.663,16.8,2.501,16.783l-0.885-0.1l3.926-7.127l0.343-0.008
		C20.534,9.21,30.862,21.522,30.963,21.645l0.307,0.371L24.63,30.394z M3.505,15.722c1.479,0.235,4.656,0.853,8.25,2.239
		c6.099,2.353,10.601,5.883,13.086,10.249l4.888-6.167c-1.776-1.965-10.879-11.31-23.283-11.31c-0.064,0-0.128,0.001-0.192,0.001
		L3.505,15.722z"/>
	<path fill="#FFFFFF" d="M2.726,41.224c-0.141,0-0.283-0.005-0.427-0.013l-0.338-0.019L0,37.453l0.9-0.07
		c0.043-0.003,4.221-0.358,5.685-3.048l0.468-0.857l2.844,4.188l-0.308,0.347C9.473,38.143,6.699,41.224,2.726,41.224z
		 M2.698,40.033c0.009,0,0.018,0,0.027,0c2.717,0,4.863-1.749,5.649-2.488l-1.263-1.86c-1.472,1.847-3.936,2.525-5.245,2.765
		L2.698,40.033z"/>
	<path fill="#FFFFFF" d="M35.62-0.001L35.3,0.121c-7.577,2.872-12.476,8.811-15.355,13.577c0.352,0.188,0.697,0.378,1.035,0.572
		C23.713,9.75,28.323,4.154,35.402,1.357l4.418,3.597c-1.282,0.771-3.998,2.533-6.811,5.164c-2.771,2.593-4.891,5.353-6.314,8.187
		c0.328,0.277,0.637,0.547,0.925,0.807c4.071-8.358,13.412-13.487,13.527-13.55l0.784-0.423L35.62-0.001z"/>
	<path fill="#FFFFFF" d="M22.48,32.708c0.251-0.301,0.493-0.61,0.727-0.93c-7.076-5.931-15.479-8.948-18.13-9.8l3.479-4.478
		c-0.002,0-0.005-0.001-0.008-0.002c-0.415-0.124-0.821-0.239-1.208-0.343c-0.006-0.002-0.013-0.004-0.019-0.006l-4.261,5.483
		l0.859,0.235C4.071,22.91,14.242,25.783,22.48,32.708z"/>
	<path fill="#FFFFFF" d="M47.515,42.761c-0.162-0.019-16.284-1.935-21.711-12.774l-0.419-0.836l-0.378,0.477l5.492,6.929
		c0,0-0.136,0.163-0.388,0.442c2.249,1.812,4.978,3.361,8.148,4.584c3.596,1.387,6.772,2.003,8.251,2.238l-2.749,4.988
		c-0.064,0.001-0.137-0.015-0.192,0.001c-7.933,0-14.51-3.82-18.689-7.09c-0.319,0.24-0.651,0.482-0.994,0.726
		c4.32,3.433,11.259,7.554,19.684,7.555c0.001,0,0.001,0,0.002,0c0.186,0,0.371-0.002,0.559-0.007l0.343-0.007l3.927-7.128
		L47.515,42.761z"/>
	<path fill="#FFFFFF" d="M41.262,36.599l-4.188,3.852c0.407,0.176,0.812,0.345,1.213,0.502l4.499-4.139l-0.244-0.414
		c-0.07-0.119-4.466-7.42-12.554-13.725l-0.734,0.927C36.088,28.929,40.23,34.992,41.262,36.599z"/>
</g>
</svg>
