<?xml version="1.0" encoding="utf-8"?>
<!-- Generator: Adobe Illustrator 16.0.0, SVG Export Plug-In . SVG Version: 6.00 Build 0)  -->
<!DOCTYPE svg PUBLIC "-//W3C//DTD SVG 1.0//EN" "http://www.w3.org/TR/2001/REC-SVG-20010904/DTD/svg10.dtd">
<svg version="1.0" id="Layer_1" xmlns="http://www.w3.org/2000/svg" xmlns:xlink="http://www.w3.org/1999/xlink" x="0px" y="0px"
	 width="184px" height="64px" viewBox="0 0 184 64" enable-background="new 0 0 184 64" xml:space="preserve">
<g>
	<path fill="#FFFFFF" d="M73.108,43h2.47c0.485,0,0.872-0.043,1.168-0.137c0.387-0.121,0.693-0.301,0.922-0.521
		c0.3-0.295,0.535-0.675,0.695-1.149c0.135-0.386,0.204-0.845,0.204-1.38c0-0.615-0.077-1.125-0.217-1.545
		c-0.142-0.41-0.352-0.761-0.622-1.051c-0.27-0.286-0.6-0.489-0.975-0.595c-0.29-0.085-0.703-0.13-1.243-0.13h-2.402V43
		 M75.013,37.592c0.535,0,0.89,0.025,1.075,0.07c0.245,0.049,0.45,0.151,0.61,0.3c0.159,0.155,0.289,0.362,0.372,0.632
		c0.088,0.27,0.137,0.658,0.137,1.156c0,0.502-0.048,0.902-0.137,1.192c-0.083,0.295-0.202,0.505-0.341,0.625
		c-0.142,0.13-0.32,0.223-0.53,0.276c-0.165,0.038-0.43,0.063-0.798,0.063h-0.977v-4.315H75.013z M83.153,43v-0.848h-2.795v-1.358
		h2.508v-0.847h-2.508v-1.113h2.698v-0.847h-3.71V43H83.153z M84.827,43v-1.893h0.657c0.46,0,0.805-0.025,1.05-0.067
		c0.177-0.038,0.35-0.118,0.523-0.239c0.172-0.119,0.312-0.283,0.422-0.494c0.111-0.206,0.168-0.47,0.168-0.779
		c0-0.396-0.093-0.726-0.29-0.976c-0.197-0.251-0.437-0.411-0.719-0.491c-0.19-0.049-0.59-0.073-1.205-0.073h-1.615V43H84.827z
		 M85.31,38.834c0.363,0,0.608,0.014,0.727,0.038c0.164,0.03,0.3,0.105,0.403,0.22c0.107,0.115,0.16,0.271,0.16,0.455
		c0,0.146-0.037,0.275-0.11,0.387c-0.08,0.118-0.184,0.198-0.312,0.254c-0.135,0.046-0.408,0.073-0.8,0.073h-0.552v-1.427H85.31z
		 M90.277,37.987H89.2L87.253,43h1.075l0.41-1.138h2.005L91.178,43h1.1L90.277,37.987z M89.047,41.014l0.682-1.861l0.695,1.861
		H89.047z M93.63,43v-2.096h0.204c0.232,0,0.404,0.018,0.51,0.062c0.109,0.03,0.207,0.105,0.307,0.207
		c0.09,0.099,0.27,0.347,0.533,0.733L95.916,43h1.211l-0.617-0.978c-0.243-0.386-0.43-0.662-0.57-0.815
		c-0.146-0.155-0.326-0.29-0.546-0.42c0.443-0.064,0.774-0.22,0.995-0.465c0.221-0.248,0.332-0.555,0.332-0.93
		c0-0.295-0.074-0.559-0.223-0.79c-0.148-0.23-0.338-0.396-0.582-0.48c-0.239-0.085-0.633-0.135-1.168-0.135h-2.131V43H93.63z
		 M93.63,38.834h0.786c0.412,0,0.657,0.008,0.742,0.019c0.16,0.024,0.29,0.091,0.375,0.198c0.094,0.102,0.144,0.236,0.144,0.403
		c0,0.153-0.038,0.278-0.106,0.383c-0.066,0.097-0.16,0.165-0.281,0.207c-0.123,0.043-0.422,0.063-0.91,0.063H93.63V38.834z
		 M99.613,43v-4.166h1.486v-0.847h-3.986v0.847h1.494V43H99.613z M105.354,43v-0.848h-2.795v-1.358h2.512v-0.847h-2.512v-1.113
		h2.695v-0.847h-3.711V43H105.354z M106.938,43v-3.943L107.927,43h0.972l0.995-3.943V43h0.94v-5.013h-1.518l-0.898,3.42l-0.901-3.42
		h-1.519V43H106.938z M115.453,43v-0.848h-2.803v-1.358h2.514v-0.847h-2.514v-1.113h2.707v-0.847h-3.714V43H115.453z M117.057,43
		v-3.288L119.084,43h1.015v-5.013h-0.94v3.36l-2.059-3.36h-0.982V43H117.057z M123.108,43v-4.166h1.488v-0.847h-3.983v0.847h1.486
		V43H123.108z M127.613,43h1.91c0.367,0,0.67-0.038,0.891-0.103c0.303-0.101,0.534-0.235,0.713-0.4
		c0.232-0.229,0.412-0.524,0.533-0.885c0.106-0.302,0.156-0.66,0.156-1.07c0-0.472-0.059-0.865-0.16-1.185
		c-0.113-0.32-0.27-0.59-0.479-0.811c-0.21-0.223-0.46-0.375-0.757-0.47c-0.222-0.06-0.533-0.09-0.951-0.09h-1.855V43z
		 M129.08,38.834c0.413,0,0.697,0.019,0.836,0.048c0.191,0.045,0.344,0.118,0.467,0.24c0.124,0.11,0.221,0.278,0.287,0.48
		c0.068,0.21,0.1,0.505,0.1,0.89c0,0.389-0.031,0.695-0.1,0.922c-0.066,0.223-0.156,0.383-0.27,0.479
		c-0.102,0.1-0.244,0.168-0.404,0.21c-0.128,0.029-0.332,0.05-0.616,0.05h-0.753v-3.318H129.08z M136.28,43v-0.848h-2.794v-1.358
		h2.507v-0.847h-2.507v-1.113h2.697v-0.847h-3.71V43H136.28z M143.07,43v-0.848h-2.52V38.03h-1.008V43H143.07z M146.109,37.987
		h-1.079L143.084,43h1.066l0.42-1.138h2.003L147.008,43h1.101L146.109,37.987z M144.883,41.014l0.676-1.861l0.695,1.861H144.883z"/>
	<path fill="#FFFFFF" d="M76.193,19l-1.315-2.09c0.241-0.049,0.448-0.188,0.621-0.424c0.183-0.227,0.266-0.482,0.266-0.769
		c0-0.867-0.547-1.301-1.631-1.301c-0.138,0-0.354,0.011-0.655,0.03c-0.296,0.01-0.453,0.02-0.478,0.02V19h0.616v-1.981
		c0.301,0.021,0.522,0.03,0.656,0.03L75.483,19H76.193 M73.985,14.988c0.389,0,0.68,0.06,0.862,0.168
		c0.177,0.118,0.271,0.295,0.271,0.552c0,0.306-0.088,0.522-0.261,0.641c-0.163,0.118-0.438,0.177-0.803,0.177
		c-0.143,0-0.291-0.01-0.439-0.029v-1.479C73.803,14.998,73.926,14.988,73.985,14.988z M77.79,18.526
		c0.256,0.354,0.616,0.532,1.074,0.532c0.503,0,0.882-0.168,1.158-0.512c0.261-0.326,0.394-0.799,0.394-1.4
		c0-0.581-0.133-1.024-0.394-1.35c-0.271-0.325-0.655-0.492-1.158-0.492c-0.453,0-0.808,0.177-1.069,0.531
		c-0.266,0.355-0.39,0.789-0.39,1.311C77.405,17.709,77.528,18.172,77.79,18.526z M78.159,16.132
		c0.163-0.257,0.395-0.384,0.705-0.384c0.695,0,1.035,0.473,1.035,1.398c0,0.473-0.083,0.828-0.261,1.084
		c-0.178,0.256-0.438,0.385-0.774,0.385c-0.3,0-0.532-0.148-0.695-0.414c-0.167-0.285-0.246-0.631-0.246-1.055
		S78.001,16.379,78.159,16.132z M84.633,15.373h-0.508l-0.901,1.576l-0.907-1.576h-0.502l1.163,2V19h0.493v-1.627L84.633,15.373z
		 M88.26,19l-1.365-3.686h-0.133L85.289,19h0.552l0.266-0.77h1.355L87.713,19H88.26z M87.318,17.866h-1.074l0.557-1.597
		L87.318,17.866z M89.797,17.886c0,0.374,0.108,0.671,0.33,0.878c0.217,0.196,0.532,0.295,0.941,0.295
		c0.395,0,0.705-0.099,0.932-0.315c0.227-0.196,0.345-0.483,0.345-0.857v-2.513h-0.493v2.474c0,0.236-0.074,0.413-0.212,0.562
		c-0.143,0.139-0.335,0.207-0.577,0.207c-0.231,0-0.423-0.079-0.557-0.217c-0.143-0.139-0.217-0.325-0.217-0.542v-2.483h-0.493
		V17.886z M97.439,19l-0.734-3.627h-0.227l-0.793,2.641l-0.863-2.641h-0.227L93.921,19h0.468l0.42-2.326l0.812,2.375h0.123
		l0.799-2.375L96.971,19H97.439z M101.135,15.816v-0.443h-2.139V19h2.139v-0.453h-1.646v-1.301h1.168v-0.424h-1.168v-1.006H101.135z
		 M108.736,17.039c0-0.523-0.143-0.927-0.438-1.232c-0.301-0.306-0.695-0.453-1.203-0.453c-0.133,0-0.428,0-0.896,0.02V19h0.729
		C108.137,19,108.736,18.35,108.736,17.039z M107.066,15.787c0.764,0,1.153,0.434,1.153,1.291c0,0.453-0.099,0.828-0.296,1.084
		c-0.201,0.256-0.468,0.385-0.818,0.385c-0.167,0-0.3-0.011-0.408-0.021v-2.71C106.895,15.797,107.022,15.787,107.066,15.787z
		 M110.461,17.886c0,0.374,0.113,0.671,0.336,0.878c0.217,0.196,0.527,0.295,0.936,0.295c0.395,0,0.705-0.099,0.932-0.315
		c0.231-0.196,0.34-0.483,0.34-0.857v-2.513h-0.492v2.474c0,0.236-0.069,0.413-0.207,0.562c-0.143,0.139-0.33,0.207-0.572,0.207
		c-0.236,0-0.418-0.079-0.561-0.217c-0.139-0.139-0.213-0.325-0.213-0.542v-2.483h-0.498V17.886z M122.342,19l-0.922-4.533h-0.281
		l-0.995,3.301l-1.079-3.301h-0.275L117.936,19h0.587l0.522-2.918l1.025,2.977h0.152l0.99-2.977L121.75,19H122.342z M126.361,19
		l-1.369-3.686h-0.129L123.386,19h0.557l0.267-0.77h1.35l0.252,0.77H126.361z M125.416,17.866h-1.074l0.566-1.597L125.416,17.866z
		 M130.477,19l-1.051-1.666c0.188-0.049,0.36-0.168,0.498-0.345c0.139-0.177,0.207-0.394,0.207-0.61c0-0.7-0.429-1.045-1.306-1.045
		c-0.108,0-0.28,0.01-0.522,0.02c-0.236,0.01-0.364,0.02-0.385,0.02V19h0.494v-1.587c0.24,0.02,0.418,0.029,0.526,0.029L129.914,19
		H130.477z M128.707,15.797c0.315,0,0.547,0.039,0.689,0.128s0.217,0.237,0.217,0.443c0,0.247-0.068,0.414-0.201,0.503
		c-0.133,0.098-0.355,0.147-0.646,0.147c-0.113,0-0.227-0.01-0.354-0.02v-1.183C128.559,15.797,128.662,15.797,128.707,15.797z
		 M132.221,18.526c0.25,0.354,0.61,0.532,1.068,0.532c0.503,0,0.883-0.168,1.153-0.512c0.271-0.326,0.403-0.799,0.403-1.4
		c0-0.581-0.133-1.024-0.403-1.35s-0.65-0.492-1.153-0.492c-0.448,0-0.803,0.177-1.064,0.531c-0.261,0.355-0.398,0.789-0.398,1.311
		C131.826,17.709,131.964,18.172,132.221,18.526z M132.59,16.132c0.162-0.257,0.389-0.384,0.699-0.384
		c0.689,0,1.04,0.473,1.04,1.398c0,0.473-0.084,0.828-0.267,1.084c-0.178,0.256-0.438,0.385-0.773,0.385
		c-0.301,0-0.531-0.148-0.699-0.414c-0.158-0.285-0.242-0.631-0.242-1.055S132.428,16.379,132.59,16.132z M137.965,15.314
		c-0.468,0-0.838,0.177-1.128,0.531c-0.29,0.355-0.434,0.809-0.434,1.351c0,0.562,0.128,1.005,0.409,1.351
		c0.266,0.344,0.641,0.512,1.113,0.512c0.453,0,0.822-0.139,1.109-0.434l-0.271-0.375c-0.183,0.236-0.443,0.365-0.789,0.365
		c-0.311,0-0.557-0.129-0.764-0.385c-0.191-0.256-0.291-0.591-0.291-1.005c0-0.434,0.09-0.788,0.287-1.054
		c0.191-0.276,0.447-0.424,0.768-0.424c0.34,0,0.587,0.068,0.75,0.177l0.162-0.424C138.66,15.373,138.359,15.314,137.965,15.314z"/>
	<path fill="#FFFFFF" d="M77.395,25l-0.912-4.532h-0.281l-0.995,3.301l-1.074-3.301h-0.281L73,25h0.586l0.527-2.917l1.015,2.977
		h0.158l0.986-2.977L76.809,25H77.395 M79.588,21.374H79.09V25h0.498V21.374z M84.278,25.05v-3.676h-0.468v2.492l-1.823-2.492
		h-0.202V25h0.473v-2.611l1.877,2.661H84.278z M86.979,21.374h-0.498V25h0.498V21.374z M89.836,25.06
		c0.37,0,0.665-0.089,0.882-0.286c0.222-0.196,0.33-0.424,0.33-0.69c0-0.256-0.054-0.463-0.148-0.62
		c-0.108-0.167-0.276-0.306-0.522-0.424l-0.301-0.138c-0.187-0.099-0.32-0.168-0.379-0.217s-0.108-0.119-0.148-0.188
		c-0.029-0.068-0.049-0.168-0.049-0.256c0-0.148,0.049-0.266,0.147-0.375c0.099-0.088,0.227-0.138,0.399-0.138
		c0.118,0,0.236,0.02,0.375,0.069c0.133,0.039,0.236,0.088,0.305,0.138l0.143-0.434c-0.158-0.128-0.438-0.197-0.838-0.197
		c-0.295,0-0.547,0.089-0.739,0.276c-0.188,0.178-0.286,0.404-0.286,0.67c0,0.217,0.049,0.414,0.143,0.571
		c0.104,0.157,0.271,0.296,0.522,0.404l0.295,0.138c0.261,0.129,0.424,0.246,0.488,0.346c0.069,0.107,0.099,0.217,0.099,0.334
		c0,0.168-0.054,0.306-0.172,0.414c-0.123,0.108-0.276,0.158-0.468,0.158c-0.113,0-0.236-0.02-0.37-0.069
		c-0.138-0.05-0.256-0.108-0.35-0.177l-0.177,0.463C89.245,24.98,89.521,25.06,89.836,25.06z M95.522,21.817v-0.443h-2.853v0.443
		h1.148V25h0.497v-3.183H95.522z M99.444,21.817v-0.443h-2.138V25h2.138v-0.453h-1.646v-1.301h1.178v-0.424h-1.178v-1.005H99.444z
		 M103.978,25l-1.055-1.675c0.192-0.039,0.36-0.148,0.497-0.336c0.139-0.187,0.213-0.394,0.213-0.62c0-0.69-0.434-1.034-1.307-1.034
		c-0.107,0-0.28,0-0.521,0.02c-0.236,0.01-0.369,0.02-0.385,0.02V25h0.492v-1.587c0.242,0.02,0.42,0.02,0.527,0.02L103.406,25
		H103.978z M102.209,21.788c0.314,0,0.547,0.049,0.685,0.138c0.147,0.099,0.222,0.236,0.222,0.443c0,0.246-0.068,0.413-0.202,0.503
		c-0.144,0.098-0.354,0.147-0.655,0.147c-0.108,0-0.227-0.01-0.346-0.021v-1.182C102.061,21.798,102.159,21.788,102.209,21.788z
		 M107.859,21.817v-0.443h-2.138V25h2.138v-0.453h-1.645v-1.301h1.168v-0.424h-1.168v-1.005H107.859z"/>
	<path fill="#FFFFFF" d="M114.881,23.039c0-0.513-0.143-0.917-0.438-1.231c-0.301-0.306-0.695-0.463-1.203-0.463
		c-0.133,0-0.428,0.01-0.896,0.029V25h0.729C114.28,25,114.881,24.34,114.881,23.039 M113.206,21.788
		c0.769,0,1.157,0.434,1.157,1.291c0,0.463-0.098,0.827-0.3,1.084c-0.197,0.256-0.474,0.384-0.813,0.384
		c-0.167,0-0.301,0-0.408-0.02v-2.71C113.039,21.798,113.162,21.788,113.206,21.788z M118.602,21.817v-0.443h-2.139V25h2.139v-0.453
		h-1.641v-1.301h1.168v-0.424h-1.168v-1.005H118.602z M125.52,25v-0.453h-1.641v-3.173h-0.498V25H125.52z M128.85,20.397
		l-0.596,1.184h0.492l0.803-1.184H128.85z M135.122,25l-1.704-4.603h-0.168L131.412,25h0.689l0.336-0.956h1.68l0.32,0.956H135.122z
		 M133.949,23.591h-1.345l0.7-2L133.949,23.591z M137.975,21.305c-0.537,0-0.965,0.188-1.281,0.532
		c-0.32,0.345-0.477,0.809-0.477,1.359c0,0.572,0.143,1.016,0.438,1.351c0.291,0.345,0.68,0.522,1.184,0.522
		c0.217,0,0.453-0.039,0.689-0.108c0.23-0.069,0.418-0.157,0.551-0.276v-1.566h-1v0.414h0.503v0.848
		c-0.163,0.157-0.38,0.236-0.641,0.236c-0.37,0-0.66-0.129-0.882-0.385c-0.212-0.256-0.325-0.592-0.325-1.016
		c0-0.443,0.113-0.787,0.33-1.054c0.222-0.267,0.522-0.403,0.901-0.403c0.236,0,0.483,0.098,0.729,0.275l0.212-0.404
		C138.665,21.423,138.354,21.305,137.975,21.305z M143.41,25l-1.055-1.665c0.197-0.049,0.359-0.158,0.498-0.346
		c0.143-0.187,0.211-0.384,0.211-0.61c0-0.7-0.438-1.034-1.305-1.034c-0.109,0-0.281,0-0.518,0.01
		c-0.246,0.02-0.375,0.029-0.385,0.029V25h0.492v-1.587c0.242,0.02,0.41,0.03,0.523,0.03L142.844,25H143.41z M141.641,21.798
		c0.316,0,0.543,0.039,0.689,0.138c0.148,0.089,0.213,0.227,0.213,0.434c0,0.246-0.064,0.413-0.203,0.513
		c-0.133,0.088-0.344,0.138-0.65,0.138c-0.107,0-0.221,0-0.34-0.021v-1.172C141.493,21.808,141.592,21.798,141.641,21.798z
		 M145.375,21.374h-0.497V25h0.497V21.374z M148.604,21.305c-0.463,0-0.838,0.188-1.129,0.542c-0.291,0.365-0.438,0.809-0.438,1.35
		c0,0.562,0.144,1.016,0.409,1.351c0.275,0.345,0.65,0.522,1.123,0.522c0.453,0,0.818-0.158,1.104-0.434l-0.271-0.375
		c-0.177,0.236-0.444,0.355-0.778,0.355c-0.32,0-0.572-0.129-0.764-0.385c-0.197-0.256-0.296-0.592-0.296-1.005
		c0-0.434,0.093-0.778,0.28-1.055c0.197-0.276,0.443-0.413,0.77-0.413c0.34,0,0.591,0.059,0.748,0.177l0.168-0.434
		C149.303,21.384,148.997,21.305,148.604,21.305z M151.254,23.887c0,0.384,0.113,0.67,0.335,0.867
		c0.217,0.207,0.522,0.315,0.937,0.315c0.395,0,0.699-0.108,0.932-0.315c0.227-0.207,0.344-0.493,0.344-0.857v-2.522h-0.497v2.463
		c0,0.246-0.069,0.434-0.207,0.572c-0.144,0.138-0.335,0.207-0.581,0.207c-0.227,0-0.414-0.069-0.557-0.217
		c-0.139-0.139-0.207-0.316-0.207-0.543v-2.482h-0.498V23.887z M157.684,25v-0.453h-1.631v-3.173h-0.498V25H157.684z
		 M161.143,21.817v-0.443h-2.853v0.443h1.153V25h0.487v-3.183H161.143z M162.566,23.887c0,0.384,0.113,0.67,0.33,0.867
		c0.223,0.207,0.533,0.315,0.937,0.315c0.399,0,0.704-0.108,0.937-0.315c0.227-0.207,0.345-0.493,0.345-0.857v-2.522h-0.497v2.463
		c0,0.246-0.07,0.434-0.207,0.572c-0.144,0.138-0.34,0.207-0.582,0.207c-0.227,0-0.414-0.069-0.557-0.217
		c-0.139-0.139-0.207-0.316-0.207-0.543v-2.482h-0.498V23.887z M169.445,25l-1.05-1.665c0.188-0.049,0.36-0.158,0.493-0.346
		c0.143-0.187,0.217-0.384,0.217-0.61c0-0.7-0.439-1.034-1.311-1.034c-0.109,0-0.281,0-0.518,0.01
		c-0.242,0.02-0.369,0.029-0.389,0.029V25h0.496v-1.587c0.242,0.02,0.42,0.03,0.527,0.03L168.879,25H169.445z M167.682,21.798
		c0.311,0,0.537,0.039,0.68,0.138c0.147,0.089,0.222,0.227,0.222,0.434c0,0.246-0.074,0.413-0.202,0.513
		c-0.139,0.088-0.355,0.138-0.65,0.138c-0.113,0-0.227,0-0.346-0.021v-1.172C167.533,21.808,167.632,21.798,167.682,21.798z
		 M172.963,21.817v-0.443h-2.133V25h2.133v-0.453h-1.646v-1.301h1.173v-0.424h-1.173v-1.005H172.963z M179.886,21.817v-0.443h-2.144
		V25h2.144v-0.453h-1.641v-1.301h1.167v-0.424h-1.167v-1.005H179.886z M184,21.817v-0.443h-2.854v0.443h1.154V25h0.492v-3.183H184z"
		/>
	<path fill="#FFFFFF" d="M75.542,29.049c0-0.512-0.153-0.926-0.443-1.231c-0.296-0.306-0.7-0.464-1.207-0.464
		c-0.128,0-0.419,0.01-0.892,0.021V31h0.734C74.941,31,75.542,30.35,75.542,29.049z M73.867,27.797c0.773,0,1.153,0.424,1.153,1.281
		c0,0.474-0.098,0.828-0.295,1.094c-0.197,0.257-0.468,0.385-0.818,0.385c-0.163,0-0.291-0.01-0.404-0.029v-2.71
		C73.695,27.808,73.818,27.797,73.867,27.797z M79.263,27.817v-0.443h-2.134V31h2.134v-0.443h-1.646v-1.301h1.168v-0.424h-1.168
		v-1.015H79.263z M86.17,31v-0.443H84.54v-3.183h-0.493V31H86.17z M90.235,31l-1.375-3.676h-0.128L87.259,31h0.547l0.276-0.769h1.35
		L89.679,31H90.235z M89.29,29.877h-1.084l0.566-1.597L89.29,29.877z M95.985,29.285c1.163,0,1.745-0.502,1.745-1.527
		c0-0.877-0.656-1.32-1.977-1.32c-0.099,0-0.385,0.02-0.842,0.039V31h0.615v-1.744C95.769,29.275,95.912,29.285,95.985,29.285z
		 M95.862,27c0.817,0,1.228,0.266,1.228,0.827c0,0.601-0.385,0.907-1.148,0.907c-0.016,0-0.152-0.01-0.414-0.03v-1.675
		C95.665,27.01,95.783,27,95.862,27z M101.371,27.817v-0.443h-2.139V31h2.139v-0.443h-1.646v-1.301h1.168v-0.424h-1.168v-1.015
		H101.371z M104.348,27.314c-0.464,0-0.838,0.188-1.124,0.532c-0.29,0.364-0.438,0.817-0.438,1.36c0,0.552,0.138,1.005,0.408,1.35
		c0.267,0.336,0.646,0.513,1.119,0.513c0.453,0,0.818-0.147,1.108-0.424l-0.271-0.384c-0.188,0.236-0.443,0.364-0.789,0.364
		c-0.305,0-0.561-0.128-0.758-0.395c-0.203-0.246-0.301-0.581-0.301-0.995c0-0.434,0.098-0.789,0.295-1.064
		c0.188-0.275,0.443-0.414,0.764-0.414c0.336,0,0.586,0.06,0.744,0.178l0.168-0.424C105.051,27.384,104.741,27.314,104.348,27.314z
		 M109.57,31v-3.626h-0.493v1.458h-1.587v-1.458h-0.488V31h0.488v-1.744h1.587V31H109.57z M113.463,27.817v-0.443h-2.139V31h2.139
		v-0.443h-1.641v-1.301h1.172v-0.424h-1.172v-1.015H113.463z M122.336,31l-0.916-4.523h-0.281l-0.99,3.302l-1.084-3.302h-0.275
		L117.941,31h0.586l0.527-2.906l1.016,2.966h0.152l0.99-2.966L121.75,31H122.336z M126.233,31l-1.37-3.676h-0.127L123.258,31h0.562
		l0.267-0.769h1.35L125.687,31H126.233z M125.297,29.877h-1.084l0.562-1.597L125.297,29.877z M130.205,31l-1.05-1.665
		c0.192-0.05,0.36-0.157,0.497-0.335c0.144-0.188,0.213-0.385,0.213-0.621c0-0.689-0.434-1.035-1.307-1.035
		c-0.107,0-0.285,0-0.521,0.01c-0.242,0.021-0.369,0.03-0.385,0.03V31h0.492v-1.576c0.242,0.02,0.414,0.029,0.527,0.029L129.643,31
		H130.205z M128.441,27.808c0.311,0,0.537,0.039,0.685,0.128c0.143,0.089,0.222,0.236,0.222,0.434c0,0.246-0.068,0.414-0.202,0.512
		c-0.138,0.1-0.351,0.148-0.65,0.148c-0.113,0-0.227-0.01-0.351-0.029v-1.173C128.293,27.808,128.392,27.808,128.441,27.808z
		 M132.171,27.374h-0.497V31h0.497V27.374z M136.537,27.817v-0.443h-2.854v0.443h1.152V31h0.498v-3.183H136.537z M138.547,27.374
		h-0.498V31h0.498V27.374z M143.588,31l-0.734-3.626h-0.227l-0.799,2.651l-0.857-2.651h-0.231L140.064,31h0.468l0.424-2.325
		l0.813,2.374h0.123l0.793-2.374L143.114,31H143.588z M147.13,27.817v-0.443h-2.134V31h2.134v-0.443h-1.642v-1.301h1.174v-0.424
		h-1.174v-1.015H147.13z"/>
	<g>
		<path fill="#FFFFFF" d="M10.201,39.219l-2.853,2.425c0,0,4.79,2.02,8.667,1.315c4.346-0.793,8.372-3.274,12.126-1.937
			c3.754,1.345,4.595,4.457,7.488,6.008c1.762,0.948,3.02,1.016,3.02,1.016v-9.461l-2.917-2.098v6.417c0,0-1.897-4.715-5.904-4.994
			c-5.981-0.415-8.068,2.575-13.542,2.421C11.383,40.193,10.201,39.219,10.201,39.219"/>
		<path fill="#FFFFFF" d="M3.291,44.265L0,47c0,0,5.649,0.84,9.36,0.686c4.383-0.177,10.831-3.825,15.182-2.662
			c5.422,1.445,8.899,6.775,12.511,7.61c1.809,0.419,1.758,0.173,1.758,0.173v-3.308c0,0-3.481,0.306-7.445-4.07
			c-3.129-3.457-5.606-4.064-9.174-3.074c-4.09,1.138-9.322,2.854-12.376,3.027C5.234,45.647,3.291,44.265,3.291,44.265"/>
		<polyline fill="#FFFFFF" points="35.744,32.041 38.652,34.433 38.652,37.271 38.641,37.273 35.729,34.874 35.729,32.054 
			35.744,32.041 		"/>
		<polyline fill="#FFFFFF" points="35.744,27.121 38.652,29.517 38.652,32.35 38.641,32.354 35.729,29.956 35.729,27.134 
			35.744,27.121 		"/>
		<polyline fill="#FFFFFF" points="38.652,20.851 38.652,27.616 38.641,27.62 35.729,25.221 35.729,23.606 32.078,23.606 
			32.078,20.851 38.652,20.851 		"/>
		<path fill="#FFFFFF" d="M39.215,4v0.649h-1.994c0,0-1.529,1.126-1.987,1.905c-0.162,0.278-0.166,1.139-0.103,2.128
			c-1.598,1.16-2.646,3.032-2.646,5.157h3.153c0-0.302,0.055-0.59,0.133-0.866l2.952,4.071c-1.372-0.063-2.528-0.962-2.931-2.211
			H32.56c0.461,2.982,2.994,5.283,6.081,5.39v-2.787h0.561v2.782c0.005,0,0.008-0.002,0.013-0.002v29.282
			c0.01-0.001,3.353-0.533,6.218-2.928c2.7-2.256,2.672-4.651,2.672-4.651l-2.553-0.196l-0.111-0.276l7.165-7.126l4.324,7.726
			l-0.1,0.179h-3.571c0,0-1.562,6.101-8.149,9.238c-3.093,1.472-5.885,1.395-5.895,1.395V54h26.894V4H39.215z M38.538,14.265
			l-0.163,0.07l-1.857-2.643l-0.018-0.037c0.307-0.333,0.675-0.606,1.098-0.786l0.058-0.004l0.881,1.269V14.265z M37.419,7.586
			l-0.868,0.296l-0.064-0.723l1.712-1.225l0.315,0.078l0.067,0.572L37.419,7.586z M39.202,10.642V7.485
			c3.37,0.178,6.054,2.941,6.054,6.354h-3.158C42.098,12.17,40.826,10.811,39.202,10.642z M45.18,14.834
			c-0.222,1.425-0.923,2.688-1.926,3.639l-1.759-2.753c0.191-0.267,0.346-0.566,0.448-0.886H45.18z M42.781,46.694l-1.177,0.886
			h-1.746v-8.654l2.923,2.11V46.694z M39.788,28.27v-7.677h1.177l1.722,2.424v7.05L39.788,28.27z M42.984,40.351l-0.008,0.01
			l-2.917-2.398v-2.827l0.016-0.01l2.909,2.393V40.351z M42.984,35.433l-0.008,0.008l-2.917-2.399v-2.825l0.016-0.008l2.909,2.392
			V35.433z M44.524,24.301l-1.226,1.264l-0.008-0.006v-3.288l-3.576-5.604v-2.02h0.254l4.555,7.119V24.301z M46.726,23.571h-0.696
			l-0.996-2.721h1.692V23.571z"/>
		<path fill="#FFFFFF" d="M65.108,5.002V53H13V5.002H65.108 M66.108,4.002H12V54h54.108V4.002L66.108,4.002z"/>
	</g>
	<g>
		<path fill="#FFFFFF" d="M77.61,46.232c-0.253-0.329-0.565-0.542-0.94-0.641c-0.24-0.062-0.763-0.1-1.563-0.1H73V52h1.315v-2.453
			h0.855c0.595,0,1.05-0.035,1.365-0.097c0.231-0.048,0.455-0.153,0.68-0.308c0.221-0.152,0.408-0.369,0.555-0.641
			c0.14-0.27,0.215-0.604,0.215-1.005C77.985,46.98,77.86,46.557,77.61,46.232z M76.485,48.018c-0.098,0.149-0.24,0.255-0.412,0.319
			c-0.173,0.07-0.523,0.105-1.038,0.105h-0.72v-1.851h0.635c0.473,0,0.793,0.016,0.945,0.051c0.215,0.038,0.388,0.13,0.528,0.281
			c0.133,0.153,0.21,0.35,0.21,0.59C76.633,47.704,76.583,47.877,76.485,48.018z"/>
		<polygon fill="#FFFFFF" points="82.543,52 82.543,51.152 79.74,51.152 79.74,49.794 82.255,49.794 82.255,48.947 79.74,48.947 
			79.74,47.834 82.445,47.834 82.445,46.987 78.733,46.987 78.733,52 		"/>
		<path fill="#FFFFFF" d="M85.983,50.967c-0.19,0.174-0.418,0.26-0.688,0.26c-0.361,0-0.658-0.135-0.89-0.406
			c-0.229-0.27-0.338-0.719-0.338-1.354c0-0.6,0.117-1.029,0.343-1.3c0.235-0.265,0.535-0.399,0.905-0.399
			c0.27,0,0.499,0.074,0.68,0.225c0.19,0.15,0.315,0.358,0.375,0.615l1.003-0.24c-0.119-0.396-0.29-0.705-0.519-0.92
			c-0.38-0.363-0.878-0.547-1.492-0.547c-0.7,0-1.267,0.231-1.696,0.693c-0.43,0.463-0.644,1.113-0.644,1.948
			c0,0.785,0.213,1.408,0.637,1.86c0.43,0.461,0.977,0.685,1.646,0.685c0.537,0,0.979-0.13,1.329-0.395
			c0.35-0.271,0.602-0.675,0.75-1.222L86.4,50.162C86.323,50.523,86.18,50.797,85.983,50.967z"/>
		<polygon fill="#FFFFFF" points="89.067,52 89.067,49.807 91.053,49.807 91.053,52 92.065,52 92.065,46.987 91.053,46.987 
			91.053,48.957 89.067,48.957 89.067,46.987 88.055,46.987 88.055,52 		"/>
		<polygon fill="#FFFFFF" points="96.717,52 96.717,51.152 93.924,51.152 93.924,49.794 96.427,49.794 96.427,48.947 93.924,48.947 
			93.924,47.834 96.62,47.834 96.62,46.987 92.907,46.987 92.907,52 		"/>
		<polygon fill="#FFFFFF" points="101.307,52 101.307,46.882 102.597,52 103.857,52 105.153,46.882 105.153,52 106.37,52 
			106.37,45.492 104.403,45.492 103.234,49.931 102.051,45.492 100.085,45.492 100.085,52 		"/>
		<path fill="#FFFFFF" d="M109.859,46.987h-1.074L106.83,52h1.075l0.418-1.138h2.002L110.764,52h1.1L109.859,46.987z M108.63,50.014
			l0.684-1.861L110,50.014H108.63z"/>
		<path fill="#FFFFFF" d="M116.09,51.022c-0.24-0.386-0.43-0.662-0.573-0.815c-0.14-0.155-0.319-0.29-0.54-0.42
			c0.438-0.065,0.769-0.22,0.988-0.465c0.223-0.248,0.332-0.555,0.332-0.93c0-0.296-0.072-0.559-0.213-0.791
			c-0.148-0.229-0.344-0.395-0.584-0.479c-0.246-0.085-0.633-0.135-1.166-0.135H112.2V52h1.007v-2.097h0.21
			c0.233,0,0.406,0.019,0.51,0.063c0.104,0.03,0.208,0.105,0.307,0.207c0.092,0.099,0.271,0.347,0.53,0.733L115.5,52h1.203
			L116.09,51.022z M113.957,49.107h-0.75v-1.273H114c0.414,0,0.656,0.008,0.736,0.018c0.167,0.025,0.289,0.092,0.381,0.199
			c0.093,0.102,0.137,0.236,0.137,0.403c0,0.153-0.03,0.278-0.099,0.383c-0.071,0.097-0.165,0.165-0.282,0.207
			C114.75,49.087,114.447,49.107,113.957,49.107z"/>
		<rect x="117.017" y="46.987" fill="#FFFFFF" width="1.014" height="5.013"/>
		<polygon fill="#FFFFFF" points="120.943,52 120.943,47.834 122.424,47.834 122.424,46.987 118.443,46.987 118.443,47.834 
			119.93,47.834 119.93,52 		"/>
		<rect x="122.84" y="46.987" fill="#FFFFFF" width="1.01" height="5.013"/>
		<polygon fill="#FFFFFF" points="125.537,52 125.537,48.057 126.527,52 127.505,52 128.495,48.057 128.5,52 129.436,52 
			129.436,46.987 127.915,46.987 127.02,50.407 126.123,46.987 124.605,46.987 124.605,52 		"/>
		<polygon fill="#FFFFFF" points="134.055,52 134.055,51.152 131.257,51.152 131.257,49.794 133.766,49.794 133.766,48.947 
			131.257,48.947 131.257,47.834 133.955,47.834 133.955,46.987 130.245,46.987 130.245,52 		"/>
	</g>
</g>
</svg>
