<?xml version="1.0" encoding="utf-8"?>
<!-- Generator: Adobe Illustrator 16.0.0, SVG Export Plug-In . SVG Version: 6.00 Build 0)  -->
<!DOCTYPE svg PUBLIC "-//W3C//DTD SVG 1.0//EN" "http://www.w3.org/TR/2001/REC-SVG-20010904/DTD/svg10.dtd">
<svg version="1.0" id="Layer_1" xmlns="http://www.w3.org/2000/svg" xmlns:xlink="http://www.w3.org/1999/xlink" x="0px" y="0px"
	 width="175px" height="50px" viewBox="0 0 175 50" enable-background="new 0 0 175 50" xml:space="preserve">
<g>
	<path fill="#FFFFFF" d="M82,21.006h3.274v0.927h-2.03v1.018h1.675v0.932h-1.675V26H82V21.006z M87.297,22.354
		c0.621,0,1.08,0.239,1.37,0.712c0.196,0.306,0.292,0.682,0.292,1.132c0,0.596-0.148,1.07-0.455,1.406
		c-0.299,0.329-0.721,0.493-1.268,0.493c-0.62,0-1.069-0.21-1.354-0.638c-0.215-0.329-0.322-0.732-0.322-1.225
		c0-0.309,0.051-0.594,0.149-0.854c0.101-0.255,0.234-0.465,0.413-0.622C86.422,22.488,86.809,22.354,87.297,22.354z M87.244,23.164
		c-0.336,0-0.509,0.345-0.509,1.033c0,0.352,0.03,0.611,0.098,0.771c0.089,0.217,0.231,0.32,0.418,0.32
		c0.232,0,0.389-0.152,0.466-0.455c0.049-0.183,0.066-0.42,0.066-0.73C87.783,23.476,87.603,23.164,87.244,23.164z M90.672,22.482
		v0.397c0.397-0.354,0.791-0.526,1.198-0.526c0.142,0,0.282,0.038,0.414,0.123c0.132,0.071,0.229,0.17,0.289,0.297
		c0.098,0.201,0.148,0.521,0.148,0.965V26H91.6v-2.262c0-0.32-0.127-0.479-0.373-0.479c-0.173,0-0.358,0.091-0.555,0.279V26h-1.125
		v-3.518H90.672z M96.639,21.006V26h-0.984l-0.051-0.356c-0.279,0.303-0.592,0.453-0.938,0.453c-0.471,0-0.828-0.219-1.07-0.644
		c-0.186-0.329-0.274-0.734-0.274-1.219c0-0.526,0.104-0.952,0.313-1.275c0.121-0.186,0.27-0.338,0.451-0.448
		c0.187-0.104,0.373-0.157,0.573-0.157c0.316,0,0.6,0.15,0.856,0.456v-1.804H96.639z M95.516,23.581
		c-0.128-0.21-0.292-0.313-0.488-0.313c-0.212,0-0.361,0.128-0.457,0.387c-0.055,0.152-0.075,0.345-0.075,0.587
		c0,0.361,0.058,0.635,0.183,0.831c0.096,0.142,0.217,0.217,0.367,0.217c0.188,0,0.343-0.104,0.471-0.32v-0.135V24.64v-0.131V23.581
		z M98.963,22.354c0.621,0,1.078,0.239,1.369,0.712c0.197,0.306,0.293,0.682,0.293,1.132c0,0.596-0.148,1.07-0.453,1.406
		c-0.301,0.329-0.723,0.493-1.268,0.493c-0.622,0-1.072-0.21-1.356-0.638c-0.216-0.329-0.323-0.732-0.323-1.225
		c0-0.309,0.053-0.594,0.152-0.854c0.099-0.255,0.23-0.465,0.41-0.622C98.088,22.488,98.478,22.354,98.963,22.354z M98.91,23.164
		c-0.336,0-0.508,0.345-0.508,1.033c0,0.352,0.028,0.611,0.097,0.771c0.089,0.217,0.233,0.32,0.418,0.32
		c0.235,0,0.392-0.152,0.466-0.455c0.047-0.183,0.066-0.42,0.066-0.73C99.449,23.476,99.271,23.164,98.91,23.164z M103.186,21.006
		h3.28v0.927h-2.034v1.018h1.686v0.932h-1.686v1.19h2.172V26h-3.418V21.006z M110.447,22.482V26h-1.094v-0.465
		c-0.027,0.108-0.141,0.203-0.326,0.305c-0.324,0.176-0.615,0.257-0.863,0.257c-0.166,0-0.312-0.038-0.441-0.119
		c-0.135-0.073-0.232-0.188-0.302-0.32c-0.073-0.166-0.118-0.337-0.132-0.533c-0.008-0.119-0.008-0.253-0.008-0.405v-2.236h1.121
		v2.097c0,0.186,0.016,0.322,0.042,0.397c0.048,0.141,0.154,0.216,0.32,0.216c0.2,0,0.388-0.092,0.562-0.262v-2.448H110.447z
		 M113.611,22.392v1.063c-0.082-0.022-0.162-0.03-0.244-0.03c-0.27,0-0.512,0.075-0.718,0.229c-0.13,0.1-0.243,0.234-0.33,0.405V26
		h-1.124v-3.518h1.124v0.316c0,0.004,0,0.026,0,0.081c-0.009,0.023-0.009,0.049-0.009,0.079c0,0.036,0,0.123,0.009,0.256
		c0.093-0.201,0.206-0.358,0.335-0.478c0.248-0.24,0.508-0.364,0.783-0.364C113.479,22.373,113.537,22.385,113.611,22.392z
		 M115.645,22.354c0.625,0,1.078,0.239,1.373,0.712c0.195,0.306,0.289,0.682,0.289,1.132c0,0.596-0.147,1.07-0.455,1.406
		c-0.299,0.329-0.719,0.493-1.266,0.493c-0.621,0-1.068-0.21-1.355-0.638c-0.217-0.329-0.322-0.732-0.322-1.225
		c0-0.309,0.054-0.594,0.151-0.854c0.098-0.255,0.232-0.465,0.409-0.622C114.771,22.488,115.16,22.354,115.645,22.354z
		 M115.594,23.164c-0.335,0-0.508,0.345-0.508,1.033c0,0.352,0.029,0.611,0.096,0.771c0.092,0.217,0.232,0.32,0.42,0.32
		c0.23,0,0.39-0.152,0.467-0.455c0.042-0.183,0.064-0.42,0.064-0.73C116.133,23.476,115.955,23.164,115.594,23.164z M119.021,22.482
		v0.367c0.262-0.332,0.576-0.496,0.949-0.496c0.295,0,0.551,0.116,0.762,0.336c0.318,0.332,0.475,0.811,0.475,1.445
		c0,0.486-0.082,0.909-0.238,1.258c-0.098,0.202-0.248,0.374-0.447,0.512c-0.199,0.127-0.416,0.192-0.662,0.192
		c-0.313,0-0.602-0.132-0.838-0.396v1.595h-1.124v-4.813H119.021z M119.021,24.977c0.138,0.209,0.287,0.312,0.457,0.312
		c0.365,0,0.551-0.358,0.551-1.086c0-0.299-0.035-0.53-0.117-0.681c-0.088-0.173-0.211-0.264-0.36-0.264
		c-0.179,0-0.352,0.106-0.53,0.31V24.977z M123.854,24.884l1.044,0.085c-0.174,0.754-0.699,1.128-1.575,1.128
		c-0.584,0-1.018-0.18-1.308-0.539c-0.258-0.312-0.381-0.741-0.381-1.27c0-0.574,0.123-1.021,0.373-1.35
		c0.153-0.201,0.358-0.353,0.605-0.45c0.225-0.089,0.456-0.135,0.704-0.135c0.471,0,0.853,0.15,1.13,0.445
		c0.217,0.223,0.359,0.515,0.414,0.855c0.012,0.093,0.025,0.36,0.049,0.816h-2.089c0,0.204,0.024,0.363,0.053,0.476
		c0.032,0.108,0.098,0.201,0.195,0.262c0.083,0.051,0.181,0.081,0.279,0.081C123.618,25.289,123.788,25.155,123.854,24.884z
		 M122.821,23.86h1.033c0-0.166-0.021-0.298-0.073-0.414c-0.081-0.188-0.232-0.282-0.442-0.282c-0.218,0-0.367,0.11-0.456,0.336
		C122.846,23.598,122.821,23.714,122.821,23.86z M127.131,22.354c0.621,0,1.082,0.239,1.371,0.712
		c0.194,0.306,0.292,0.682,0.292,1.132c0,0.596-0.149,1.07-0.455,1.406c-0.299,0.329-0.72,0.493-1.266,0.493
		c-0.62,0-1.069-0.21-1.354-0.638c-0.217-0.329-0.324-0.732-0.324-1.225c0-0.309,0.057-0.594,0.152-0.854
		c0.096-0.255,0.23-0.465,0.408-0.622C126.258,22.488,126.646,22.354,127.131,22.354z M127.079,23.164
		c-0.336,0-0.506,0.345-0.506,1.033c0,0.352,0.03,0.611,0.095,0.771c0.09,0.217,0.232,0.32,0.418,0.32
		c0.234,0,0.393-0.152,0.468-0.455c0.044-0.183,0.065-0.42,0.065-0.73C127.619,23.476,127.44,23.164,127.079,23.164z"/>
	<path fill="#FFFFFF" d="M84.984,29.002V34H84l-0.051-0.36c-0.278,0.305-0.591,0.457-0.933,0.457c-0.472,0-0.832-0.22-1.072-0.644
		c-0.19-0.331-0.278-0.736-0.278-1.222c0-0.523,0.105-0.95,0.315-1.274c0.119-0.186,0.268-0.338,0.449-0.446
		c0.187-0.105,0.374-0.16,0.575-0.16c0.315,0,0.6,0.151,0.855,0.459v-1.808H84.984z M83.861,31.58
		c-0.128-0.211-0.292-0.314-0.488-0.314c-0.208,0-0.357,0.126-0.459,0.387c-0.051,0.15-0.074,0.345-0.074,0.587
		c0,0.36,0.06,0.635,0.184,0.832c0.092,0.139,0.215,0.217,0.364,0.217c0.187,0,0.344-0.106,0.472-0.32v-0.137v-0.193v-0.13V31.58z
		 M87.787,32.882l1.041,0.086c-0.172,0.753-0.697,1.129-1.572,1.129c-0.584,0-1.017-0.182-1.311-0.539
		c-0.255-0.316-0.381-0.741-0.381-1.272c0-0.57,0.126-1.02,0.373-1.347c0.159-0.204,0.36-0.354,0.608-0.452
		c0.224-0.088,0.455-0.136,0.704-0.136c0.473,0,0.854,0.151,1.133,0.446c0.215,0.223,0.357,0.515,0.41,0.855
		c0.012,0.094,0.029,0.363,0.049,0.818h-2.086c0,0.205,0.021,0.36,0.052,0.472c0.03,0.112,0.098,0.203,0.193,0.261
		c0.083,0.056,0.181,0.085,0.279,0.085C87.549,33.288,87.721,33.152,87.787,32.882z M86.754,31.858h1.033
		c0-0.166-0.023-0.301-0.072-0.412c-0.086-0.19-0.235-0.285-0.443-0.285c-0.219,0-0.367,0.113-0.458,0.336
		C86.775,31.595,86.754,31.715,86.754,31.858z M91.453,29.002h1.506c0.396,0,0.701,0.026,0.922,0.07
		c0.217,0.044,0.41,0.12,0.584,0.233c0.312,0.201,0.545,0.5,0.709,0.882c0.156,0.384,0.241,0.81,0.241,1.288
		c0,0.396-0.06,0.756-0.173,1.092c-0.111,0.338-0.275,0.614-0.486,0.849c-0.255,0.276-0.57,0.446-0.952,0.521
		C93.623,33.976,93.37,34,93.049,34h-1.596V29.002z M92.698,29.933v3.139h0.208c0.24,0,0.448-0.038,0.637-0.104
		c0.399-0.161,0.591-0.623,0.591-1.393c0-0.578-0.073-0.985-0.217-1.225c-0.171-0.278-0.474-0.418-0.904-0.418H92.698z
		 M98.097,32.882l1.044,0.086c-0.172,0.753-0.695,1.129-1.571,1.129c-0.584,0-1.022-0.182-1.313-0.539
		c-0.251-0.316-0.379-0.741-0.379-1.272c0-0.57,0.128-1.02,0.371-1.347c0.159-0.204,0.361-0.354,0.609-0.452
		c0.225-0.088,0.459-0.136,0.705-0.136c0.471,0,0.852,0.151,1.129,0.446c0.216,0.223,0.36,0.515,0.414,0.855
		c0.014,0.094,0.027,0.363,0.05,0.818h-2.091c0,0.205,0.023,0.36,0.057,0.472c0.027,0.112,0.094,0.203,0.195,0.261
		c0.08,0.056,0.176,0.085,0.275,0.085C97.859,33.288,98.033,33.152,98.097,32.882z M97.064,31.858h1.032
		c0-0.166-0.021-0.301-0.073-0.412c-0.082-0.19-0.23-0.285-0.441-0.285c-0.214,0-0.367,0.113-0.455,0.336
		C97.088,31.595,97.064,31.715,97.064,31.858z M102.349,31.332l-1.034,0.084c-0.021-0.21-0.125-0.316-0.322-0.316
		c-0.11,0-0.194,0.039-0.261,0.114c-0.047,0.042-0.066,0.111-0.066,0.186c0,0.151,0.076,0.253,0.217,0.315
		c0.036,0.013,0.239,0.068,0.614,0.144c0.651,0.125,0.98,0.479,0.98,1.055c0,0.352-0.137,0.645-0.397,0.865
		c-0.253,0.222-0.629,0.328-1.125,0.328c-0.796,0-1.235-0.36-1.302-1.08l1.041-0.069c0.029,0.264,0.167,0.397,0.39,0.397
		c0.129,0,0.226-0.043,0.294-0.145c0.036-0.049,0.051-0.11,0.051-0.17c0-0.186-0.145-0.308-0.426-0.353
		c-0.279-0.05-0.471-0.095-0.6-0.136c-0.12-0.037-0.225-0.09-0.312-0.147c-0.302-0.188-0.45-0.479-0.45-0.885
		c0-0.352,0.131-0.642,0.41-0.866c0.231-0.207,0.559-0.303,0.979-0.303c0.271,0,0.504,0.048,0.707,0.136
		c0.209,0.091,0.358,0.21,0.455,0.378C102.268,30.982,102.317,31.139,102.349,31.332z M104.146,31.58l-1.083-0.134
		c0.045-0.285,0.143-0.501,0.285-0.649c0.271-0.295,0.705-0.446,1.305-0.446c0.59,0,1.008,0.136,1.256,0.398
		c0.143,0.149,0.223,0.327,0.247,0.539c0.009,0.128,0.015,0.3,0.015,0.523v0.898c0,0.662,0.016,1.092,0.055,1.29h-1.086
		l-0.047-0.291c-0.322,0.261-0.671,0.388-1.047,0.388c-0.338,0-0.606-0.084-0.808-0.257c-0.218-0.179-0.329-0.424-0.329-0.725
		c0-0.372,0.162-0.686,0.498-0.898c0.271-0.173,0.787-0.345,1.561-0.502l0.083-0.016c0-0.052,0-0.082,0-0.095
		c0-0.174-0.03-0.285-0.093-0.349c-0.077-0.063-0.181-0.095-0.32-0.095C104.358,31.161,104.203,31.304,104.146,31.58z
		 M105.05,32.404c-0.188,0.025-0.384,0.073-0.579,0.147c-0.256,0.101-0.381,0.242-0.381,0.444c0,0.097,0.037,0.176,0.119,0.232
		c0.062,0.036,0.137,0.06,0.216,0.06c0.194,0,0.404-0.085,0.625-0.24V32.404z M109.342,30.392v1.062
		c-0.081-0.022-0.166-0.031-0.246-0.031c-0.27,0-0.511,0.075-0.719,0.23c-0.129,0.101-0.24,0.234-0.326,0.405V34h-1.129v-3.522
		h1.129v0.319c0,0.007,0,0.028,0,0.081c-0.012,0.021-0.012,0.051-0.012,0.079c0,0.04,0,0.119,0.012,0.257
		c0.094-0.2,0.203-0.36,0.332-0.479c0.25-0.239,0.51-0.361,0.779-0.361C109.205,30.373,109.268,30.383,109.342,30.392z
		 M112.213,30.392v1.062c-0.086-0.022-0.167-0.031-0.25-0.031c-0.269,0-0.507,0.075-0.715,0.23
		c-0.129,0.101-0.241,0.234-0.329,0.405V34h-1.125v-3.522h1.125v0.319c0,0.007,0,0.028,0,0.081
		c-0.011,0.021-0.011,0.051-0.011,0.079c0,0.04,0,0.119,0.011,0.257c0.095-0.2,0.207-0.36,0.336-0.479
		c0.245-0.239,0.507-0.361,0.775-0.361C112.076,30.373,112.139,30.383,112.213,30.392z M114.246,30.351
		c0.619,0,1.075,0.239,1.369,0.713c0.192,0.306,0.29,0.683,0.29,1.131c0,0.6-0.149,1.07-0.455,1.407
		c-0.302,0.327-0.72,0.495-1.267,0.495c-0.623,0-1.073-0.21-1.355-0.639c-0.214-0.327-0.32-0.733-0.32-1.227
		c0-0.307,0.053-0.59,0.147-0.853c0.099-0.253,0.235-0.465,0.413-0.623C113.367,30.486,113.756,30.351,114.246,30.351z
		 M114.189,31.161c-0.338,0-0.507,0.344-0.507,1.033c0,0.352,0.03,0.612,0.097,0.773c0.09,0.214,0.234,0.32,0.42,0.32
		c0.232,0,0.388-0.151,0.463-0.457c0.049-0.179,0.068-0.417,0.068-0.729C114.73,31.476,114.551,31.161,114.189,31.161z
		 M117.619,29.002V34h-1.125v-4.998H117.619z M119.488,29.002V34h-1.119v-4.998H119.488z M121.82,30.351
		c0.621,0,1.078,0.239,1.369,0.713c0.197,0.306,0.293,0.683,0.293,1.131c0,0.6-0.148,1.07-0.458,1.407
		c-0.3,0.327-0.718,0.495-1.265,0.495c-0.621,0-1.071-0.21-1.354-0.639c-0.216-0.327-0.323-0.733-0.323-1.227
		c0-0.307,0.057-0.59,0.15-0.853c0.1-0.253,0.23-0.465,0.412-0.623C120.943,30.486,121.332,30.351,121.82,30.351z M121.768,31.161
		c-0.336,0-0.51,0.344-0.51,1.033c0,0.352,0.03,0.612,0.098,0.773c0.088,0.214,0.232,0.32,0.42,0.32
		c0.231,0,0.392-0.151,0.467-0.457c0.044-0.179,0.064-0.417,0.064-0.729C122.307,31.476,122.129,31.161,121.768,31.161z
		 M126.042,29.002h1.692c0.373,0,0.673,0.026,0.896,0.07c0.329,0.066,0.599,0.24,0.787,0.501c0.172,0.232,0.262,0.499,0.262,0.825
		c0,0.364-0.098,0.665-0.285,0.897c-0.134,0.164-0.33,0.292-0.589,0.374L129.89,34h-1.345l-0.947-2.12l-0.045,0.017h-0.117h-0.123
		l-0.027-0.017V34h-1.243V29.002z M127.285,30.95h0.449c0.441,0,0.664-0.172,0.664-0.509c0-0.238-0.098-0.398-0.301-0.457
		c-0.102-0.036-0.244-0.052-0.439-0.052h-0.373V30.95z M132.312,32.882l1.041,0.086c-0.173,0.753-0.697,1.129-1.574,1.129
		c-0.582,0-1.017-0.182-1.309-0.539c-0.255-0.316-0.383-0.741-0.383-1.272c0-0.57,0.128-1.02,0.377-1.347
		c0.154-0.204,0.357-0.354,0.604-0.452c0.225-0.088,0.457-0.136,0.703-0.136c0.473,0,0.855,0.151,1.133,0.446
		c0.217,0.223,0.36,0.515,0.412,0.855c0.014,0.094,0.03,0.363,0.053,0.818h-2.09c0,0.205,0.021,0.36,0.052,0.472
		c0.03,0.112,0.099,0.203,0.194,0.261c0.084,0.056,0.182,0.085,0.276,0.085C132.071,33.288,132.244,33.152,132.312,32.882z
		 M131.279,31.858h1.033c0-0.166-0.023-0.301-0.076-0.412c-0.082-0.19-0.232-0.285-0.441-0.285c-0.216,0-0.365,0.113-0.459,0.336
		C131.301,31.595,131.279,31.715,131.279,31.858z M137.535,30.298v0.76c-0.091-0.044-0.175-0.068-0.263-0.068
		c-0.098,0-0.194,0.024-0.317,0.068c0.16,0.172,0.236,0.373,0.236,0.595c0,0.338-0.139,0.618-0.415,0.825
		c-0.126,0.097-0.298,0.175-0.506,0.232c-0.218,0.054-0.44,0.084-0.687,0.084c-0.146,0-0.29-0.015-0.425-0.037
		c-0.133,0.05-0.202,0.117-0.202,0.192c0,0.077,0.069,0.13,0.211,0.15c0.037,0.009,0.293,0.031,0.762,0.062
		c0.491,0.029,0.781,0.06,0.879,0.075c0.098,0.014,0.201,0.052,0.307,0.111c0.276,0.163,0.411,0.427,0.411,0.794
		c0,0.442-0.217,0.761-0.644,0.975c-0.312,0.153-0.748,0.229-1.289,0.229c-0.517,0-0.91-0.058-1.182-0.169
		c-0.343-0.161-0.518-0.377-0.518-0.66c0-0.171,0.082-0.331,0.248-0.465c0.043-0.038,0.105-0.075,0.174-0.113
		c-0.211-0.142-0.314-0.32-0.314-0.553c0-0.203,0.09-0.381,0.26-0.53c0.082-0.068,0.216-0.145,0.414-0.217
		c-0.49-0.208-0.727-0.549-0.727-1.033c0-0.443,0.188-0.772,0.56-1.005c0.278-0.166,0.608-0.249,0.997-0.249
		c0.471,0,0.84,0.114,1.091,0.339c0.18-0.261,0.449-0.398,0.808-0.398C137.429,30.291,137.474,30.291,137.535,30.298z
		 M134.75,34.075c-0.061,0.066-0.09,0.142-0.09,0.223c0,0.248,0.366,0.375,1.1,0.375c0.607,0,0.913-0.099,0.913-0.287
		c0-0.127-0.118-0.186-0.353-0.186c-0.147,0.007-0.439-0.008-0.859-0.039C135.234,34.148,134.996,34.117,134.75,34.075z
		 M135.562,31.039c-0.162,0-0.283,0.068-0.357,0.198c-0.051,0.095-0.08,0.216-0.08,0.367c0,0.162,0.034,0.292,0.1,0.379
		c0.076,0.105,0.199,0.157,0.338,0.157c0.301,0,0.453-0.185,0.453-0.553c0-0.181-0.049-0.332-0.135-0.427
		C135.807,31.076,135.697,31.039,135.562,31.039z M139.027,29.002v1.003h-1.119v-1.003H139.027z M139.027,30.478V34h-1.119v-3.522
		H139.027z M141.357,30.351c0.623,0,1.078,0.239,1.372,0.713c0.192,0.306,0.292,0.683,0.292,1.131c0,0.6-0.15,1.07-0.455,1.407
		c-0.303,0.327-0.722,0.495-1.27,0.495c-0.619,0-1.07-0.21-1.355-0.639c-0.214-0.327-0.318-0.733-0.318-1.227
		c0-0.307,0.049-0.59,0.148-0.853c0.096-0.253,0.232-0.465,0.41-0.623C140.484,30.486,140.874,30.351,141.357,30.351z
		 M141.305,31.161c-0.336,0-0.506,0.344-0.506,1.033c0,0.352,0.028,0.612,0.092,0.773c0.096,0.214,0.237,0.32,0.423,0.32
		c0.232,0,0.388-0.151,0.462-0.457c0.045-0.179,0.069-0.417,0.069-0.729C141.845,31.476,141.665,31.161,141.305,31.161z
		 M144.732,30.478v0.4c0.399-0.354,0.793-0.527,1.195-0.527c0.144,0,0.287,0.041,0.414,0.121c0.133,0.074,0.232,0.174,0.291,0.3
		c0.098,0.204,0.151,0.524,0.151,0.965V34h-1.124v-2.264c0-0.32-0.126-0.48-0.377-0.48c-0.17,0-0.357,0.092-0.551,0.279V34h-1.125
		v-3.522H144.732z M148.607,31.58l-1.088-0.134c0.045-0.285,0.143-0.501,0.287-0.649c0.268-0.295,0.703-0.446,1.299-0.446
		c0.593,0,1.016,0.136,1.26,0.398c0.144,0.149,0.227,0.327,0.248,0.539c0.006,0.128,0.014,0.3,0.014,0.523v0.898
		c0,0.662,0.018,1.092,0.055,1.29h-1.088l-0.045-0.291c-0.322,0.261-0.673,0.388-1.045,0.388c-0.338,0-0.609-0.084-0.811-0.257
		c-0.217-0.179-0.332-0.424-0.332-0.725c0-0.372,0.166-0.686,0.503-0.898c0.271-0.173,0.788-0.345,1.56-0.502l0.08-0.016
		c0-0.052,0-0.082,0-0.095c0-0.174-0.029-0.285-0.086-0.349c-0.077-0.063-0.184-0.095-0.325-0.095
		C148.815,31.161,148.658,31.304,148.607,31.58z M149.504,32.404c-0.186,0.025-0.383,0.073-0.576,0.147
		c-0.256,0.101-0.381,0.242-0.381,0.444c0,0.097,0.037,0.176,0.118,0.232c0.062,0.036,0.136,0.06,0.218,0.06
		c0.195,0,0.406-0.085,0.621-0.24V32.404z M152.504,29.002V34h-1.123v-4.998H152.504z"/>
</g>
<path fill="#FFFFFF" d="M84.437,0.017v6.542c0,0.434,0.017,0.749,0.045,0.944c0.048,0.298,0.18,0.553,0.391,0.72
	c0.191,0.147,0.435,0.225,0.717,0.225c0.421,0,0.751-0.165,0.974-0.479c0.165-0.241,0.238-0.703,0.238-1.409V0.017h2.486v6.542
	c0,0.556-0.028,0.989-0.104,1.305c-0.06,0.312-0.192,0.614-0.361,0.884c-0.641,0.973-1.735,1.448-3.277,1.448
	c-1.259,0-2.217-0.359-2.86-1.077c-0.36-0.419-0.584-0.896-0.659-1.451c-0.045-0.391-0.075-0.853-0.075-1.392V0.017H84.437z
	 M93.15,2.968v0.793c0.798-0.708,1.587-1.052,2.396-1.052c0.286,0,0.57,0.074,0.826,0.244c0.268,0.145,0.461,0.343,0.581,0.599
	c0.197,0.405,0.3,1.046,0.3,1.93v4.521h-2.242V5.481c0-0.644-0.259-0.961-0.752-0.961c-0.343,0-0.719,0.182-1.109,0.556v4.927
	h-2.246V2.968H93.15z M101.01,0.017v2.007h-2.244V0.017H101.01z M101.01,2.968v7.035h-2.244V2.968H101.01z M105.676,2.709
	c1.242,0,2.154,0.479,2.738,1.424c0.392,0.615,0.584,1.363,0.584,2.262c0,1.199-0.299,2.143-0.914,2.814
	c-0.598,0.658-1.436,0.986-2.528,0.986c-1.243,0-2.14-0.416-2.711-1.27c-0.435-0.657-0.642-1.466-0.642-2.458
	c0-0.614,0.107-1.182,0.299-1.703c0.193-0.513,0.463-0.93,0.823-1.244C103.924,2.981,104.704,2.709,105.676,2.709z M107.892,0
	l-1.812,1.992h-1.573L105.6,0H107.892z M105.568,4.328c-0.672,0-1.015,0.688-1.015,2.066c0,0.703,0.058,1.228,0.192,1.542
	c0.181,0.434,0.465,0.644,0.84,0.644c0.466,0,0.781-0.298,0.931-0.913c0.087-0.359,0.132-0.839,0.132-1.454
	C106.648,4.957,106.289,4.328,105.568,4.328z M112.426,2.968v0.793c0.795-0.708,1.588-1.052,2.395-1.052
	c0.288,0,0.568,0.074,0.824,0.244c0.271,0.145,0.467,0.343,0.585,0.599c0.197,0.405,0.3,1.046,0.3,1.93v4.521h-2.246V5.481
	c0-0.644-0.254-0.961-0.748-0.961c-0.344,0-0.72,0.182-1.109,0.556v4.927h-2.245V2.968H112.426z M121.985,0.017h6.558v1.856h-4.074
	v2.038h3.37v1.856h-3.37v2.382h4.347v1.854h-6.83V0.017z M136.512,2.968v7.035h-2.189V9.076c-0.061,0.21-0.284,0.405-0.656,0.612
	c-0.646,0.346-1.232,0.507-1.725,0.507c-0.328,0-0.629-0.073-0.884-0.234c-0.269-0.15-0.465-0.375-0.597-0.646
	c-0.15-0.332-0.242-0.675-0.271-1.063c-0.015-0.238-0.015-0.507-0.015-0.808V2.968h2.244v4.189c0,0.377,0.031,0.644,0.076,0.796
	c0.105,0.284,0.313,0.432,0.643,0.432c0.404,0,0.777-0.179,1.123-0.521V2.968H136.512z M142.842,2.783v2.129
	c-0.168-0.046-0.33-0.062-0.496-0.062c-0.537,0-1.017,0.15-1.438,0.465c-0.254,0.195-0.479,0.468-0.66,0.811v3.878h-2.244V2.968
	h2.244v0.626c0,0.018,0,0.062,0,0.167c-0.011,0.043-0.011,0.103-0.011,0.162c0,0.076,0,0.241,0.011,0.51
	c0.196-0.402,0.422-0.72,0.676-0.961c0.494-0.473,1.019-0.72,1.557-0.72C142.57,2.752,142.689,2.769,142.842,2.783z M146.912,2.709
	c1.24,0,2.152,0.479,2.738,1.424c0.388,0.615,0.582,1.363,0.582,2.262c0,1.199-0.299,2.143-0.912,2.814
	c-0.599,0.658-1.439,0.986-2.53,0.986c-1.243,0-2.142-0.416-2.71-1.27c-0.437-0.657-0.645-1.466-0.645-2.458
	c0-0.614,0.104-1.182,0.301-1.703c0.191-0.513,0.46-0.93,0.818-1.244C145.158,2.981,145.936,2.709,146.912,2.709z M146.805,4.328
	c-0.674,0-1.02,0.688-1.02,2.066c0,0.703,0.061,1.228,0.195,1.542c0.182,0.434,0.463,0.644,0.836,0.644
	c0.469,0,0.781-0.298,0.93-0.913c0.09-0.359,0.135-0.839,0.135-1.454C147.881,4.957,147.523,4.328,146.805,4.328z M153.66,2.968
	v0.731c0.523-0.661,1.152-0.99,1.902-0.99c0.583,0,1.089,0.228,1.525,0.675c0.628,0.661,0.942,1.616,0.942,2.892
	c0,0.973-0.164,1.812-0.476,2.515c-0.199,0.405-0.496,0.748-0.903,1.021c-0.386,0.252-0.819,0.385-1.316,0.385
	c-0.63,0-1.198-0.266-1.675-0.79v3.188h-2.246V2.968H153.66z M153.66,7.953c0.268,0.417,0.566,0.627,0.912,0.627
	c0.735,0,1.109-0.717,1.109-2.172c0-0.598-0.074-1.062-0.24-1.363c-0.18-0.343-0.42-0.524-0.717-0.524
	c-0.362,0-0.703,0.213-1.064,0.615V7.953z M163.328,7.772l2.084,0.164c-0.346,1.514-1.393,2.259-3.146,2.259
	c-1.168,0-2.035-0.359-2.619-1.077c-0.51-0.629-0.763-1.479-0.763-2.545c0-1.137,0.253-2.035,0.748-2.693
	c0.315-0.408,0.718-0.705,1.21-0.898c0.451-0.179,0.916-0.272,1.41-0.272c0.943,0,1.705,0.298,2.262,0.885
	c0.434,0.451,0.717,1.032,0.822,1.721c0.031,0.182,0.059,0.723,0.107,1.633h-4.182c0,0.405,0.045,0.72,0.105,0.947
	c0.062,0.224,0.195,0.402,0.391,0.521c0.164,0.107,0.357,0.164,0.553,0.164C162.85,8.58,163.195,8.311,163.328,7.772z
	 M161.262,5.723h2.066c0-0.329-0.042-0.598-0.15-0.828c-0.161-0.374-0.461-0.566-0.884-0.566c-0.431,0-0.731,0.224-0.91,0.672
	C161.307,5.195,161.262,5.437,161.262,5.723z M168.865,5.167l-2.17-0.272c0.092-0.566,0.284-1,0.57-1.301
	c0.54-0.587,1.408-0.885,2.605-0.885c1.184,0,2.021,0.272,2.517,0.794c0.282,0.301,0.448,0.661,0.492,1.08
	c0.015,0.255,0.031,0.596,0.031,1.046v1.798c0,1.32,0.029,2.188,0.103,2.576h-2.17l-0.088-0.584
	c-0.646,0.524-1.35,0.776-2.098,0.776c-0.672,0-1.215-0.161-1.619-0.507c-0.434-0.357-0.658-0.856-0.658-1.451
	c0-0.749,0.329-1.364,1.002-1.798c0.542-0.343,1.575-0.688,3.115-1.003l0.165-0.031c0-0.104,0-0.161,0-0.192
	c0-0.347-0.06-0.57-0.181-0.692c-0.149-0.133-0.355-0.192-0.643-0.192C169.287,4.328,168.971,4.614,168.865,5.167z M170.663,6.814
	c-0.374,0.059-0.763,0.145-1.153,0.3c-0.508,0.193-0.764,0.479-0.764,0.882c0,0.195,0.076,0.357,0.242,0.465
	c0.117,0.076,0.268,0.119,0.436,0.119c0.386,0,0.805-0.164,1.239-0.479V6.814z"/>
<path fill="#FFFFFF" d="M74,1v48H1V1H74 M75,0H0v50h75V0L75,0z"/>
<g>
	<polyline fill="#FFFFFF" points="35.917,11.19 37.5,10.031 39.084,11.19 38.483,9.323 40.087,8.166 38.109,8.166 37.5,6.278 
		36.896,8.169 34.913,8.166 36.521,9.323 35.917,11.19 	"/>
	<polyline fill="#FFFFFF" points="27.727,13.391 29.313,12.237 30.892,13.391 30.291,11.522 31.898,10.369 29.915,10.369 
		29.31,8.476 28.704,10.369 26.722,10.369 28.329,11.522 27.727,13.391 	"/>
	<polyline fill="#FFFFFF" points="23.318,14.481 22.714,16.378 20.732,16.373 22.337,17.529 21.736,19.395 23.318,18.243 
		24.898,19.395 24.3,17.529 25.906,16.373 23.926,16.373 23.318,14.481 	"/>
	<polyline fill="#FFFFFF" points="21.121,26.421 22.701,27.575 22.099,25.707 23.706,24.554 21.728,24.554 21.121,22.66 
		20.514,24.559 18.533,24.554 20.139,25.707 19.538,27.575 21.121,26.421 	"/>
	<polyline fill="#FFFFFF" points="23.926,32.757 23.318,30.866 22.714,32.76 20.732,32.757 22.337,33.913 21.736,35.781 
		23.318,34.625 24.898,35.781 24.3,33.913 25.906,32.757 23.926,32.757 	"/>
	<polyline fill="#FFFFFF" points="29.929,38.764 29.321,36.873 28.718,38.764 26.736,38.764 28.341,39.917 27.741,41.785 
		29.324,40.629 30.906,41.785 30.302,39.917 31.909,38.764 29.929,38.764 	"/>
	<polyline fill="#FFFFFF" points="38.109,40.938 37.5,39.044 36.898,40.938 34.916,40.938 36.521,42.091 35.92,43.962 
		37.502,42.806 39.085,43.962 38.483,42.091 40.09,40.938 38.109,40.938 	"/>
	<polyline fill="#FFFFFF" points="46.288,38.764 45.683,36.873 45.075,38.764 43.098,38.764 44.701,39.917 44.1,41.785 
		45.683,40.629 47.265,41.785 46.661,39.917 48.27,38.764 46.288,38.764 	"/>
	<polyline fill="#FFFFFF" points="52.293,32.757 51.687,30.866 51.08,32.76 49.1,32.757 50.706,33.913 50.102,35.781 51.687,34.625 
		53.271,35.781 52.665,33.913 54.272,32.757 52.293,32.757 	"/>
	<polyline fill="#FFFFFF" points="56.449,24.53 54.467,24.53 53.859,22.64 53.254,24.533 51.273,24.53 52.88,25.685 52.279,27.555 
		53.859,26.398 55.445,27.555 54.842,25.685 56.449,24.53 	"/>
	<polyline fill="#FFFFFF" points="50.102,19.372 51.687,18.215 53.271,19.372 52.665,17.504 54.272,16.353 52.293,16.353 
		51.687,14.459 51.08,16.353 49.1,16.353 50.706,17.504 50.102,19.372 	"/>
	<polyline fill="#FFFFFF" points="45.706,8.479 45.101,10.372 43.118,10.369 44.725,11.522 44.123,13.391 45.706,12.237 
		47.289,13.391 46.688,11.522 48.293,10.369 46.312,10.369 45.706,8.479 	"/>
</g>
<g>
	<path fill="#FFFFFF" d="M82.658,48H82l0.612-5.016h0.658L82.658,48z"/>
	<path fill="#FFFFFF" d="M83.778,48l0.423-3.549h0.312c0.14,0,0.21,0.07,0.21,0.21l-0.052,0.686
		c0.189-0.312,0.402-0.548,0.639-0.707c0.237-0.158,0.482-0.237,0.737-0.237c0.264,0,0.468,0.088,0.614,0.266
		c0.146,0.178,0.219,0.437,0.219,0.777c0,0.047-0.001,0.094-0.003,0.144c-0.002,0.049-0.007,0.1-0.014,0.153L86.595,48h-0.623
		l0.266-2.258c0.005-0.046,0.009-0.091,0.012-0.135c0.003-0.043,0.005-0.084,0.005-0.124c0-0.191-0.036-0.333-0.107-0.425
		c-0.071-0.093-0.183-0.139-0.334-0.139c-0.112,0-0.226,0.03-0.341,0.091c-0.116,0.061-0.227,0.146-0.334,0.258
		c-0.107,0.11-0.207,0.245-0.299,0.402c-0.092,0.157-0.171,0.333-0.236,0.526L84.401,48H83.778z"/>
	<path fill="#FFFFFF" d="M87.365,44.454h0.504c0.047,0,0.084,0.014,0.111,0.039c0.029,0.025,0.046,0.056,0.053,0.091l0.529,2.282
		c0.018,0.086,0.031,0.173,0.039,0.259c0.009,0.086,0.016,0.172,0.02,0.256c0.025-0.084,0.053-0.169,0.081-0.254
		s0.063-0.172,0.104-0.261l1.1-2.282c0.019-0.037,0.044-0.068,0.076-0.093c0.033-0.024,0.069-0.037,0.109-0.037h0.486L88.8,48
		h-0.521L87.365,44.454z"/>
	<path fill="#FFFFFF" d="M93.428,45.214c0,0.154-0.032,0.296-0.096,0.426c-0.062,0.129-0.178,0.246-0.346,0.35
		s-0.398,0.194-0.693,0.271c-0.294,0.077-0.672,0.139-1.134,0.186c-0.003,0.025-0.003,0.051-0.003,0.075s0,0.05,0,0.075
		c0,0.312,0.068,0.551,0.204,0.716c0.137,0.164,0.343,0.246,0.618,0.246c0.111,0,0.211-0.012,0.299-0.034
		c0.088-0.023,0.166-0.053,0.234-0.086c0.068-0.034,0.13-0.071,0.182-0.112c0.053-0.041,0.102-0.078,0.146-0.112
		c0.044-0.033,0.084-0.062,0.122-0.085c0.037-0.023,0.075-0.035,0.112-0.035c0.041,0,0.08,0.02,0.115,0.06l0.154,0.192
		c-0.119,0.123-0.236,0.229-0.349,0.316c-0.113,0.088-0.229,0.16-0.349,0.219s-0.243,0.102-0.373,0.128
		c-0.129,0.026-0.269,0.04-0.418,0.04c-0.203,0-0.385-0.033-0.546-0.102c-0.161-0.067-0.298-0.164-0.409-0.288
		c-0.112-0.125-0.199-0.276-0.26-0.454c-0.061-0.177-0.09-0.375-0.09-0.595c0-0.182,0.019-0.363,0.057-0.544
		c0.039-0.181,0.096-0.354,0.168-0.517c0.074-0.163,0.164-0.314,0.27-0.455c0.107-0.14,0.229-0.261,0.365-0.362
		c0.136-0.102,0.286-0.181,0.451-0.239c0.164-0.059,0.341-0.088,0.529-0.088c0.18,0,0.336,0.026,0.467,0.077
		c0.13,0.052,0.237,0.117,0.321,0.196s0.146,0.167,0.188,0.263C93.406,45.037,93.428,45.128,93.428,45.214z M92.356,44.854
		c-0.147,0-0.282,0.03-0.406,0.091s-0.233,0.145-0.329,0.25c-0.096,0.106-0.178,0.231-0.244,0.375
		c-0.068,0.144-0.121,0.298-0.158,0.464c0.359-0.045,0.647-0.096,0.864-0.152c0.218-0.058,0.384-0.119,0.501-0.186
		c0.116-0.066,0.193-0.139,0.23-0.215c0.037-0.077,0.057-0.158,0.057-0.242c0-0.042-0.01-0.086-0.028-0.131
		c-0.019-0.046-0.048-0.087-0.089-0.124c-0.041-0.038-0.094-0.068-0.16-0.093C92.529,44.866,92.449,44.854,92.356,44.854z"/>
	<path fill="#FFFFFF" d="M93.819,48l0.427-3.549h0.312c0.065,0,0.116,0.015,0.154,0.045c0.037,0.03,0.056,0.077,0.056,0.141
		c0,0.009,0,0.022-0.002,0.04c-0.001,0.018-0.002,0.035-0.003,0.055c-0.001,0.019-0.003,0.034-0.003,0.049
		c-0.002,0.014-0.002,0.021-0.002,0.024l-0.049,0.644c0.15-0.326,0.32-0.578,0.509-0.756c0.188-0.177,0.386-0.266,0.593-0.266
		c0.098,0,0.196,0.021,0.295,0.062l-0.113,0.599c-0.109-0.044-0.215-0.066-0.318-0.066c-0.227,0-0.428,0.11-0.605,0.331
		c-0.177,0.22-0.325,0.555-0.443,1.003L94.428,48H93.819z"/>
	<path fill="#FFFFFF" d="M96.584,47.331c0-0.014,0.001-0.031,0.002-0.054c0.002-0.022,0.004-0.055,0.008-0.097
		c0.003-0.042,0.008-0.097,0.016-0.164c0.006-0.067,0.018-0.156,0.031-0.266l0.221-1.775h-0.396c-0.029,0-0.055-0.009-0.074-0.025
		c-0.021-0.018-0.03-0.045-0.03-0.083c0-0.007,0.001-0.021,0.003-0.042c0.003-0.021,0.006-0.045,0.01-0.071
		c0.003-0.027,0.006-0.055,0.01-0.082c0.004-0.028,0.007-0.055,0.009-0.081l0.546-0.073l0.263-1.096
		c0.009-0.035,0.026-0.063,0.053-0.086c0.025-0.021,0.058-0.033,0.095-0.033h0.328l-0.153,1.222h0.931L98.4,44.976h-0.934
		l-0.214,1.743c-0.012,0.096-0.021,0.173-0.026,0.231s-0.01,0.104-0.014,0.14s-0.006,0.06-0.008,0.073
		c0,0.015-0.002,0.025-0.002,0.032c0,0.119,0.028,0.207,0.083,0.264c0.055,0.058,0.13,0.086,0.226,0.086
		c0.061,0,0.114-0.009,0.161-0.026c0.046-0.018,0.087-0.036,0.12-0.058c0.034-0.021,0.062-0.04,0.086-0.058s0.045-0.026,0.063-0.026
		s0.033,0.005,0.044,0.014c0.01,0.01,0.021,0.024,0.033,0.046l0.129,0.298c-0.111,0.1-0.24,0.179-0.387,0.236
		c-0.146,0.057-0.292,0.085-0.439,0.085c-0.226,0-0.404-0.062-0.535-0.186C96.656,47.747,96.589,47.567,96.584,47.331z"/>
	<path fill="#FFFFFF" d="M99.797,44.454L99.37,48h-0.612l0.427-3.546H99.797z M100.031,43.342c0,0.061-0.012,0.117-0.036,0.17
		c-0.024,0.052-0.058,0.099-0.099,0.14s-0.086,0.073-0.138,0.096c-0.052,0.023-0.104,0.035-0.161,0.035
		c-0.054,0-0.105-0.012-0.157-0.035c-0.052-0.022-0.097-0.055-0.135-0.096s-0.069-0.088-0.093-0.14
		c-0.023-0.053-0.035-0.109-0.035-0.17s0.012-0.118,0.035-0.172s0.055-0.101,0.094-0.142c0.041-0.041,0.086-0.073,0.137-0.098
		c0.052-0.025,0.104-0.037,0.158-0.037c0.056,0,0.109,0.012,0.16,0.035c0.052,0.023,0.098,0.056,0.139,0.096
		c0.041,0.041,0.073,0.089,0.096,0.144C100.02,43.223,100.031,43.281,100.031,43.342z"/>
	<path fill="#FFFFFF" d="M100.379,48l0.426-3.549h0.312c0.14,0,0.209,0.07,0.209,0.21l-0.049,0.634
		c0.176-0.294,0.367-0.517,0.574-0.667c0.208-0.15,0.428-0.226,0.658-0.226c0.24,0,0.418,0.082,0.532,0.246
		c0.114,0.165,0.171,0.4,0.171,0.705c0.178-0.324,0.377-0.563,0.598-0.719s0.451-0.232,0.694-0.232c0.261,0,0.456,0.085,0.587,0.255
		c0.129,0.171,0.193,0.416,0.193,0.735c0,0.054-0.002,0.109-0.007,0.168s-0.011,0.119-0.018,0.182L104.995,48h-0.612l0.266-2.258
		c0.014-0.114,0.021-0.218,0.021-0.312c0-0.175-0.029-0.304-0.088-0.387c-0.059-0.082-0.156-0.124-0.294-0.124
		c-0.101,0-0.2,0.025-0.302,0.075c-0.1,0.051-0.197,0.124-0.29,0.221s-0.181,0.217-0.261,0.36s-0.152,0.309-0.215,0.495L102.992,48
		h-0.615l0.27-2.258c0.007-0.062,0.013-0.122,0.018-0.178c0.004-0.057,0.007-0.109,0.007-0.158c0-0.165-0.027-0.288-0.082-0.367
		c-0.056-0.079-0.151-0.119-0.289-0.119c-0.112,0-0.22,0.028-0.323,0.084c-0.104,0.056-0.202,0.137-0.295,0.243
		c-0.092,0.106-0.178,0.236-0.257,0.389c-0.079,0.153-0.151,0.325-0.217,0.517L100.987,48H100.379z"/>
	<path fill="#FFFFFF" d="M107.127,48.049c-0.194,0-0.371-0.033-0.533-0.1c-0.16-0.066-0.299-0.163-0.416-0.289
		s-0.207-0.279-0.273-0.462c-0.064-0.182-0.098-0.39-0.098-0.623c0-0.299,0.047-0.579,0.141-0.843
		c0.093-0.264,0.221-0.495,0.383-0.693s0.354-0.354,0.574-0.469s0.459-0.172,0.715-0.172c0.194,0,0.371,0.033,0.533,0.1
		c0.16,0.066,0.299,0.163,0.416,0.289s0.207,0.28,0.273,0.464c0.064,0.183,0.098,0.39,0.098,0.621c0,0.296-0.047,0.576-0.141,0.84
		c-0.093,0.264-0.221,0.495-0.383,0.693s-0.354,0.354-0.576,0.471C107.619,47.991,107.381,48.049,107.127,48.049z M107.182,47.562
		c0.171,0,0.326-0.047,0.467-0.14c0.139-0.094,0.258-0.218,0.356-0.373c0.098-0.155,0.174-0.334,0.228-0.537s0.08-0.415,0.08-0.637
		c0-0.327-0.064-0.573-0.192-0.739c-0.128-0.165-0.313-0.248-0.556-0.248c-0.174,0-0.329,0.046-0.468,0.138
		c-0.14,0.093-0.257,0.216-0.355,0.371s-0.174,0.335-0.228,0.537c-0.054,0.203-0.08,0.416-0.08,0.638c0,0.326,0.062,0.573,0.19,0.74
		C106.751,47.479,106.938,47.562,107.182,47.562z"/>
	<path fill="#FFFFFF" d="M111.662,45.021c-0.019,0.028-0.037,0.049-0.056,0.062s-0.042,0.019-0.07,0.019
		c-0.032,0-0.067-0.013-0.106-0.038s-0.086-0.055-0.141-0.086s-0.121-0.061-0.201-0.087c-0.079-0.027-0.174-0.041-0.287-0.041
		c-0.104,0-0.2,0.015-0.287,0.044c-0.086,0.029-0.16,0.069-0.223,0.121c-0.063,0.051-0.112,0.111-0.146,0.18
		c-0.033,0.069-0.051,0.143-0.051,0.219c0,0.11,0.037,0.197,0.109,0.263s0.163,0.122,0.273,0.17
		c0.109,0.048,0.228,0.094,0.354,0.139c0.127,0.044,0.245,0.1,0.355,0.168c0.109,0.067,0.2,0.153,0.272,0.259
		c0.072,0.104,0.109,0.241,0.109,0.409c0,0.163-0.033,0.32-0.097,0.469c-0.064,0.149-0.156,0.281-0.276,0.395
		c-0.121,0.113-0.266,0.203-0.434,0.271c-0.17,0.068-0.359,0.102-0.569,0.102c-0.227,0-0.427-0.04-0.601-0.12
		c-0.174-0.081-0.315-0.184-0.425-0.31l0.153-0.238c0.02-0.03,0.041-0.054,0.066-0.07c0.026-0.017,0.059-0.024,0.099-0.024
		c0.037,0,0.075,0.017,0.112,0.049c0.037,0.033,0.084,0.069,0.14,0.11s0.126,0.078,0.212,0.11c0.085,0.032,0.193,0.049,0.324,0.049
		c0.113,0,0.217-0.018,0.309-0.053c0.093-0.034,0.171-0.081,0.234-0.14c0.064-0.059,0.113-0.127,0.147-0.205s0.051-0.161,0.051-0.25
		c0-0.119-0.036-0.213-0.108-0.283s-0.163-0.129-0.273-0.175c-0.109-0.047-0.227-0.091-0.354-0.132
		c-0.125-0.041-0.243-0.093-0.354-0.157c-0.109-0.064-0.2-0.147-0.272-0.25s-0.108-0.239-0.108-0.41c0-0.149,0.029-0.293,0.09-0.432
		c0.059-0.139,0.145-0.262,0.256-0.369c0.113-0.107,0.248-0.193,0.408-0.258c0.16-0.063,0.34-0.096,0.541-0.096
		c0.213,0,0.399,0.035,0.562,0.106c0.163,0.071,0.302,0.167,0.419,0.289L111.662,45.021z"/>
	<path fill="#FFFFFF" d="M116.289,45.214c0,0.154-0.031,0.296-0.095,0.426c-0.063,0.129-0.179,0.246-0.347,0.35
		s-0.398,0.194-0.692,0.271s-0.673,0.139-1.134,0.186c-0.003,0.025-0.004,0.051-0.004,0.075s0,0.05,0,0.075
		c0,0.312,0.068,0.551,0.205,0.716c0.137,0.164,0.342,0.246,0.617,0.246c0.112,0,0.212-0.012,0.299-0.034
		c0.088-0.023,0.166-0.053,0.235-0.086c0.068-0.034,0.13-0.071,0.182-0.112c0.053-0.041,0.101-0.078,0.146-0.112
		c0.045-0.033,0.085-0.062,0.123-0.085c0.037-0.023,0.074-0.035,0.111-0.035c0.042,0,0.08,0.02,0.115,0.06l0.154,0.192
		c-0.119,0.123-0.235,0.229-0.348,0.316c-0.113,0.088-0.23,0.16-0.349,0.219c-0.119,0.059-0.243,0.102-0.373,0.128
		s-0.269,0.04-0.418,0.04c-0.203,0-0.386-0.033-0.546-0.102c-0.161-0.067-0.298-0.164-0.41-0.288
		c-0.111-0.125-0.198-0.276-0.259-0.454c-0.061-0.177-0.091-0.375-0.091-0.595c0-0.182,0.02-0.363,0.058-0.544
		s0.095-0.354,0.168-0.517s0.163-0.314,0.27-0.455c0.106-0.14,0.228-0.261,0.364-0.362s0.287-0.181,0.451-0.239
		s0.342-0.088,0.53-0.088c0.18,0,0.335,0.026,0.466,0.077c0.131,0.052,0.238,0.117,0.322,0.196s0.146,0.167,0.188,0.263
		C116.269,45.037,116.289,45.128,116.289,45.214z M115.219,44.854c-0.147,0-0.283,0.03-0.406,0.091
		c-0.124,0.061-0.234,0.145-0.33,0.25c-0.096,0.106-0.177,0.231-0.244,0.375c-0.068,0.144-0.121,0.298-0.158,0.464
		c0.359-0.045,0.648-0.096,0.865-0.152c0.217-0.058,0.384-0.119,0.5-0.186c0.117-0.066,0.193-0.139,0.231-0.215
		c0.037-0.077,0.056-0.158,0.056-0.242c0-0.042-0.01-0.086-0.027-0.131c-0.02-0.046-0.049-0.087-0.09-0.124
		c-0.041-0.038-0.094-0.068-0.159-0.093S115.312,44.854,115.219,44.854z"/>
	<path fill="#FFFFFF" d="M116.682,48l0.423-3.549h0.312c0.141,0,0.21,0.07,0.21,0.21l-0.052,0.686
		c0.188-0.312,0.401-0.548,0.639-0.707c0.236-0.158,0.482-0.237,0.736-0.237c0.264,0,0.469,0.088,0.614,0.266
		s0.219,0.437,0.219,0.777c0,0.047-0.001,0.094-0.003,0.144c-0.003,0.049-0.008,0.1-0.015,0.153L119.498,48h-0.623l0.267-2.258
		c0.005-0.046,0.009-0.091,0.013-0.135c0.003-0.043,0.005-0.084,0.005-0.124c0-0.191-0.036-0.333-0.106-0.425
		c-0.072-0.093-0.184-0.139-0.334-0.139c-0.113,0-0.227,0.03-0.342,0.091s-0.227,0.146-0.334,0.258
		c-0.107,0.11-0.207,0.245-0.3,0.402c-0.092,0.157-0.171,0.333-0.235,0.526L117.305,48H116.682z"/>
	<path fill="#FFFFFF" d="M123.996,45.021c-0.02,0.028-0.037,0.049-0.057,0.062c-0.019,0.013-0.041,0.019-0.07,0.019
		c-0.032,0-0.067-0.013-0.105-0.038c-0.039-0.025-0.086-0.055-0.141-0.086s-0.122-0.061-0.201-0.087
		c-0.08-0.027-0.175-0.041-0.287-0.041c-0.105,0-0.201,0.015-0.287,0.044s-0.16,0.069-0.224,0.121
		c-0.063,0.051-0.112,0.111-0.146,0.18c-0.033,0.069-0.051,0.143-0.051,0.219c0,0.11,0.036,0.197,0.108,0.263
		s0.163,0.122,0.273,0.17c0.109,0.048,0.228,0.094,0.354,0.139c0.127,0.044,0.246,0.1,0.355,0.168
		c0.109,0.067,0.201,0.153,0.273,0.259c0.072,0.104,0.108,0.241,0.108,0.409c0,0.163-0.032,0.32-0.097,0.469
		c-0.064,0.149-0.156,0.281-0.275,0.395c-0.121,0.113-0.266,0.203-0.435,0.271c-0.169,0.068-0.358,0.102-0.569,0.102
		c-0.227,0-0.426-0.04-0.6-0.12c-0.174-0.081-0.316-0.184-0.426-0.31l0.154-0.238c0.019-0.03,0.041-0.054,0.066-0.07
		s0.059-0.024,0.098-0.024c0.037,0,0.075,0.017,0.112,0.049c0.038,0.033,0.084,0.069,0.14,0.11c0.057,0.041,0.127,0.078,0.213,0.11
		c0.084,0.032,0.192,0.049,0.323,0.049c0.114,0,0.218-0.018,0.31-0.053c0.092-0.034,0.17-0.081,0.234-0.14s0.113-0.127,0.146-0.205
		c0.035-0.078,0.051-0.161,0.051-0.25c0-0.119-0.035-0.213-0.107-0.283s-0.164-0.129-0.273-0.175
		c-0.109-0.047-0.228-0.091-0.354-0.132s-0.244-0.093-0.354-0.157s-0.201-0.147-0.273-0.25s-0.107-0.239-0.107-0.41
		c0-0.149,0.029-0.293,0.089-0.432s0.146-0.262,0.257-0.369c0.112-0.107,0.248-0.193,0.408-0.258c0.16-0.063,0.34-0.096,0.541-0.096
		c0.212,0,0.398,0.035,0.561,0.106c0.163,0.071,0.303,0.167,0.419,0.289L123.996,45.021z"/>
	<path fill="#FFFFFF" d="M125.428,44.454l-0.266,2.255c-0.006,0.046-0.01,0.091-0.013,0.133c-0.004,0.042-0.005,0.083-0.005,0.122
		c0,0.191,0.035,0.334,0.105,0.427c0.072,0.094,0.185,0.141,0.338,0.141c0.107,0,0.219-0.029,0.332-0.088
		c0.112-0.059,0.223-0.141,0.328-0.248c0.106-0.107,0.205-0.237,0.296-0.389s0.171-0.321,0.237-0.508l0.221-1.845h0.62L127.195,48
		h-0.309c-0.072,0-0.128-0.017-0.168-0.049c-0.039-0.033-0.059-0.083-0.059-0.15c0-0.003,0-0.023,0.003-0.063
		c0.002-0.039,0.005-0.083,0.009-0.129c0.004-0.047,0.007-0.09,0.01-0.13c0.004-0.04,0.006-0.061,0.006-0.063l0.024-0.283
		c-0.188,0.301-0.399,0.529-0.634,0.685c-0.232,0.155-0.473,0.232-0.721,0.232c-0.264,0-0.469-0.09-0.614-0.27
		s-0.219-0.438-0.219-0.773c0-0.047,0.001-0.095,0.003-0.144c0.003-0.049,0.008-0.101,0.015-0.153l0.267-2.255H125.428z"/>
	<path fill="#FFFFFF" d="M130.523,44.973l-0.354,2.912l-0.161,0.725c-0.04,0.175-0.147,0.262-0.321,0.262h-0.246l0.473-3.888
		l-0.35-0.046c-0.04-0.012-0.071-0.028-0.095-0.049c-0.023-0.021-0.034-0.052-0.034-0.091l0.027-0.273h0.508l0.041-0.343
		c0.026-0.203,0.077-0.384,0.152-0.541c0.076-0.157,0.172-0.29,0.287-0.398c0.115-0.109,0.248-0.191,0.396-0.247
		c0.147-0.056,0.307-0.084,0.477-0.084c0.146,0,0.277,0.023,0.396,0.071l-0.061,0.321c-0.004,0.032-0.02,0.053-0.047,0.061
		c-0.026,0.008-0.061,0.013-0.104,0.013c-0.021,0-0.043,0-0.068,0c-0.023,0-0.051,0-0.078,0c-0.1,0-0.193,0.014-0.278,0.043
		s-0.16,0.076-0.226,0.142s-0.12,0.15-0.164,0.255c-0.045,0.104-0.076,0.232-0.095,0.384l-0.042,0.324h0.885l-0.059,0.448H130.523z"
		/>
	<path fill="#FFFFFF" d="M132.57,44.454l-0.266,2.255c-0.005,0.046-0.009,0.091-0.012,0.133c-0.004,0.042-0.006,0.083-0.006,0.122
		c0,0.191,0.035,0.334,0.106,0.427c0.071,0.094,0.185,0.141,0.338,0.141c0.107,0,0.218-0.029,0.331-0.088s0.223-0.141,0.328-0.248
		c0.107-0.107,0.205-0.237,0.297-0.389c0.09-0.151,0.17-0.321,0.237-0.508l0.221-1.845h0.62L134.338,48h-0.308
		c-0.073,0-0.128-0.017-0.169-0.049c-0.039-0.033-0.059-0.083-0.059-0.15c0-0.003,0.001-0.023,0.004-0.063
		c0.002-0.039,0.005-0.083,0.008-0.129c0.004-0.047,0.008-0.09,0.011-0.13s0.005-0.061,0.005-0.063l0.025-0.283
		c-0.189,0.301-0.4,0.529-0.634,0.685s-0.474,0.232-0.722,0.232c-0.264,0-0.468-0.09-0.613-0.27
		c-0.146-0.18-0.219-0.438-0.219-0.773c0-0.047,0-0.095,0.003-0.144s0.007-0.101,0.015-0.153l0.266-2.255H132.57z"/>
	<path fill="#FFFFFF" d="M135.563,47.331c0-0.014,0.001-0.031,0.001-0.054c0.002-0.022,0.004-0.055,0.008-0.097
		s0.009-0.097,0.016-0.164s0.018-0.156,0.031-0.266l0.221-1.775h-0.396c-0.03,0-0.056-0.009-0.075-0.025
		c-0.02-0.018-0.029-0.045-0.029-0.083c0-0.007,0-0.021,0.003-0.042c0.003-0.021,0.005-0.045,0.009-0.071
		c0.004-0.027,0.007-0.055,0.011-0.082c0.003-0.028,0.007-0.055,0.009-0.081l0.546-0.073l0.263-1.096
		c0.009-0.035,0.026-0.063,0.053-0.086c0.025-0.021,0.057-0.033,0.094-0.033h0.329l-0.153,1.222h0.93l-0.052,0.451h-0.935
		l-0.213,1.743c-0.012,0.096-0.021,0.173-0.027,0.231s-0.01,0.104-0.014,0.14s-0.006,0.06-0.007,0.073
		c-0.001,0.015-0.002,0.025-0.002,0.032c0,0.119,0.028,0.207,0.083,0.264c0.055,0.058,0.129,0.086,0.225,0.086
		c0.061,0,0.115-0.009,0.162-0.026c0.046-0.018,0.086-0.036,0.12-0.058c0.034-0.021,0.062-0.04,0.086-0.058s0.044-0.026,0.063-0.026
		c0.018,0,0.033,0.005,0.043,0.014c0.011,0.01,0.021,0.024,0.033,0.046l0.13,0.298c-0.112,0.1-0.241,0.179-0.387,0.236
		c-0.146,0.057-0.292,0.085-0.439,0.085c-0.226,0-0.405-0.062-0.536-0.186C135.636,47.747,135.568,47.567,135.563,47.331z"/>
	<path fill="#FFFFFF" d="M138.643,44.454l-0.266,2.255c-0.004,0.046-0.008,0.091-0.012,0.133s-0.006,0.083-0.006,0.122
		c0,0.191,0.036,0.334,0.107,0.427c0.07,0.094,0.184,0.141,0.338,0.141c0.107,0,0.217-0.029,0.33-0.088s0.223-0.141,0.329-0.248
		s0.205-0.237,0.296-0.389s0.17-0.321,0.238-0.508l0.221-1.845h0.619L140.41,48h-0.307c-0.073,0-0.129-0.017-0.169-0.049
		c-0.04-0.033-0.06-0.083-0.06-0.15c0-0.003,0.002-0.023,0.004-0.063c0.002-0.039,0.006-0.083,0.009-0.129
		c0.003-0.047,0.007-0.09,0.011-0.13c0.003-0.04,0.005-0.061,0.005-0.063l0.024-0.283c-0.189,0.301-0.4,0.529-0.633,0.685
		c-0.234,0.155-0.475,0.232-0.722,0.232c-0.264,0-0.468-0.09-0.614-0.27s-0.219-0.438-0.219-0.773c0-0.047,0.001-0.095,0.004-0.144
		c0.002-0.049,0.007-0.101,0.014-0.153l0.266-2.255H138.643z"/>
	<path fill="#FFFFFF" d="M141.328,48l0.426-3.549h0.312c0.064,0,0.116,0.015,0.154,0.045c0.037,0.03,0.055,0.077,0.055,0.141
		c0,0.009,0,0.022-0.001,0.04s-0.003,0.035-0.003,0.055c-0.002,0.019-0.003,0.034-0.004,0.049c-0.002,0.014-0.002,0.021-0.002,0.024
		l-0.049,0.644c0.151-0.326,0.321-0.578,0.51-0.756c0.188-0.177,0.385-0.266,0.593-0.266c0.098,0,0.196,0.021,0.294,0.062
		l-0.112,0.599c-0.109-0.044-0.216-0.066-0.318-0.066c-0.227,0-0.429,0.11-0.605,0.331c-0.177,0.22-0.325,0.555-0.444,1.003
		L141.937,48H141.328z"/>
	<path fill="#FFFFFF" d="M144.908,48.049c-0.193,0-0.371-0.033-0.532-0.1s-0.3-0.163-0.417-0.289
		c-0.116-0.126-0.207-0.279-0.272-0.462c-0.065-0.182-0.099-0.39-0.099-0.623c0-0.299,0.047-0.579,0.141-0.843
		s0.221-0.495,0.383-0.693s0.354-0.354,0.574-0.469s0.459-0.172,0.716-0.172c0.194,0,0.371,0.033,0.532,0.1s0.3,0.163,0.416,0.289
		c0.117,0.126,0.208,0.28,0.273,0.464c0.065,0.183,0.098,0.39,0.098,0.621c0,0.296-0.047,0.576-0.14,0.84s-0.222,0.495-0.384,0.693
		s-0.354,0.354-0.575,0.471C145.4,47.991,145.162,48.049,144.908,48.049z M144.964,47.562c0.171,0,0.325-0.047,0.466-0.14
		c0.14-0.094,0.259-0.218,0.357-0.373c0.098-0.155,0.174-0.334,0.227-0.537c0.055-0.203,0.081-0.415,0.081-0.637
		c0-0.327-0.064-0.573-0.192-0.739c-0.129-0.165-0.314-0.248-0.557-0.248c-0.173,0-0.328,0.046-0.467,0.138
		c-0.14,0.093-0.258,0.216-0.355,0.371c-0.099,0.155-0.174,0.335-0.229,0.537c-0.053,0.203-0.08,0.416-0.08,0.638
		c0,0.326,0.063,0.573,0.191,0.74C144.533,47.479,144.719,47.562,144.964,47.562z"/>
</g>
</svg>
