<?xml version="1.0" encoding="utf-8"?>
<!-- Generator: Adobe Illustrator 16.0.0, SVG Export Plug-In . SVG Version: 6.00 Build 0)  -->
<!DOCTYPE svg PUBLIC "-//W3C//DTD SVG 1.0//EN" "http://www.w3.org/TR/2001/REC-SVG-20010904/DTD/svg10.dtd">
<svg version="1.0" id="Layer_1" xmlns="http://www.w3.org/2000/svg" xmlns:xlink="http://www.w3.org/1999/xlink" x="0px" y="0px"
	 width="64px" height="88px" viewBox="0 0 64 88" enable-background="new 0 0 64 88" xml:space="preserve">
<g>
	<path fill="#FF3300" d="M54.625,54.629C60.418,48.836,64,40.836,64,32s-3.582-16.836-9.375-22.629C48.836,3.582,40.836,0,32,0
		S15.164,3.582,9.375,9.371C3.582,15.164,0,23.164,0,32s3.582,16.836,9.375,22.629C9.375,54.629,27,72,32,88
		C37,72,54.625,54.629,54.625,54.629z M32,48c-8.836,0-16-7.164-16-16s7.164-16,16-16s16,7.164,16,16S40.836,48,32,48z"/>
	<path fill="#FF3300" d="M31.711,25c0.634,0,1.203,0.092,1.71,0.277c0.507,0.186,0.938,0.443,1.297,0.772
		c0.357,0.33,0.631,0.723,0.821,1.179s0.285,0.958,0.285,1.504c0,0.471-0.065,0.906-0.197,1.306c-0.132,0.4-0.312,0.781-0.541,1.143
		c-0.229,0.362-0.493,0.713-0.795,1.051c-0.303,0.338-0.623,0.682-0.962,1.028l-2.506,2.577c0.322-0.094,0.64-0.17,0.954-0.225
		c0.313-0.057,0.607-0.084,0.883-0.084h2.391c0.293,0,0.524,0.08,0.694,0.242S36,36.146,36,36.412V38h-9v-0.883
		c0-0.17,0.035-0.353,0.105-0.547c0.071-0.194,0.194-0.371,0.369-0.529l3.692-3.734c0.315-0.316,0.591-0.619,0.825-0.908
		c0.235-0.288,0.428-0.572,0.58-0.852s0.268-0.559,0.344-0.838c0.075-0.28,0.113-0.575,0.113-0.887c0-0.512-0.121-0.905-0.364-1.178
		s-0.614-0.41-1.112-0.41c-0.205,0-0.393,0.029-0.562,0.088s-0.322,0.139-0.457,0.239c-0.134,0.1-0.251,0.218-0.347,0.353
		c-0.097,0.136-0.175,0.283-0.233,0.441c-0.094,0.265-0.212,0.456-0.355,0.574s-0.339,0.177-0.584,0.177
		c-0.06,0-0.122-0.003-0.189-0.009c-0.067-0.006-0.136-0.015-0.207-0.027l-1.44-0.256c0.093-0.641,0.273-1.2,0.539-1.677
		c0.268-0.476,0.599-0.874,0.994-1.191c0.395-0.318,0.848-0.555,1.358-0.711C30.577,25.078,31.126,25,31.711,25z"/>
</g>
</svg>
