<?xml version="1.0" encoding="utf-8"?>
<!-- Generator: Adobe Illustrator 16.0.0, SVG Export Plug-In . SVG Version: 6.00 Build 0)  -->
<!DOCTYPE svg PUBLIC "-//W3C//DTD SVG 1.0//EN" "http://www.w3.org/TR/2001/REC-SVG-20010904/DTD/svg10.dtd">
<svg version="1.0" id="Layer_1" xmlns="http://www.w3.org/2000/svg" xmlns:xlink="http://www.w3.org/1999/xlink" x="0px" y="0px"
	 width="92px" height="92px" viewBox="0 0 92 92" enable-background="new 0 0 92 92" xml:space="preserve">
<g>
	<g>
		<path fill="#FFFFFF" d="M51.031,3v3.021c0,6.403,5.172,11.612,11.528,11.612c3.095,0,6.012-1.209,8.214-3.405l2.135-2.129
			l6.992,7.006l-2.104,2.105c-2.218,2.199-3.439,5.127-3.439,8.244c0,6.358,5.214,11.53,11.623,11.53l2-0.016H89v10.062h-3.021
			c-6.409,0-11.623,5.183-11.623,11.554c0,3.118,1.22,6.04,3.435,8.227l0.582,0.568l1.53,1.535l-6.993,7.011l-2.136-2.133
			c-2.193-2.19-5.11-3.397-8.215-3.397c-6.356,0-11.528,5.216-11.528,11.627V89H40.969v-2.978c0-6.411-5.171-11.627-11.527-11.627
			c-3.108,0-6.026,1.207-8.221,3.402l-2.112,2.125l-7.003-7.001l2.13-2.109c2.197-2.197,3.407-5.119,3.407-8.228
			c0-6.371-5.214-11.554-11.624-11.554H3V40.975l3.019,0.01c6.41,0,11.624-5.172,11.624-11.53c0-3.102-1.208-6.026-3.413-8.243
			l-2.126-2.109l7.008-7.002l1.527,1.527v0.015l0.587,0.586c2.2,2.196,5.118,3.406,8.216,3.406c6.356,0,11.527-5.209,11.527-11.612
			V3H51.031 M46.001,62.062c8.857,0,16.062-7.206,16.062-16.064c0-8.856-7.205-16.061-16.062-16.061
			c-8.858,0-16.065,7.205-16.065,16.061C29.936,54.856,37.143,62.062,46.001,62.062 M53.031,1H38.969v5.021
			c0,5.3-4.211,9.612-9.527,9.612c-2.653,0-5.064-1.085-6.803-2.821v-0.013l-3.526-3.527l-9.844,9.835l3.552,3.524
			c1.74,1.75,2.821,4.163,2.821,6.823c0,5.3-4.291,9.53-9.624,9.53L1,38.969v14.062h5.019c5.333,0,9.624,4.254,9.624,9.554
			c0,2.663-1.081,5.073-2.821,6.813l-3.552,3.517l9.844,9.841l3.526-3.548c1.739-1.739,4.15-2.812,6.803-2.812
			c5.316,0,9.527,4.308,9.527,9.627V91h14.062v-4.978c0-5.319,4.235-9.627,9.528-9.627c2.652,0,5.061,1.073,6.802,2.812l3.551,3.548
			l9.815-9.841l-3.523-3.534l-0.008,0.008c-1.761-1.738-2.84-4.145-2.84-6.804c0-5.3,4.34-9.554,9.623-9.554H91V38.969h-5.021v0.016
			c-5.283,0-9.623-4.23-9.623-9.53c0-2.66,1.082-5.073,2.848-6.823l3.523-3.524l-9.815-9.835l-3.551,3.541
			c-1.741,1.736-4.149,2.821-6.802,2.821c-5.293,0-9.528-4.312-9.528-9.612V1L53.031,1z M46.001,60.062
			c-7.77,0-14.065-6.296-14.065-14.064c0-7.765,6.296-14.061,14.065-14.061c7.767,0,14.062,6.296,14.062,14.061
			C60.063,53.767,53.769,60.062,46.001,60.062L46.001,60.062z"/>
	</g>
</g>
</svg>
