<?xml version="1.0" encoding="utf-8"?>
<!-- Generator: Adobe Illustrator 16.0.0, SVG Export Plug-In . SVG Version: 6.00 Build 0)  -->
<!DOCTYPE svg PUBLIC "-//W3C//DTD SVG 1.0//EN" "http://www.w3.org/TR/2001/REC-SVG-20010904/DTD/svg10.dtd">
<svg version="1.0" id="Layer_1" xmlns="http://www.w3.org/2000/svg" xmlns:xlink="http://www.w3.org/1999/xlink" x="0px" y="0px"
	 width="90px" height="124px" viewBox="0 0 90 124" enable-background="new 0 0 90 124" xml:space="preserve">
<g>
	<path fill="#E1E1E1" d="M59.041,0H2.44C1.095,0,0,1.094,0,2.438v119.123C0,122.904,1.095,124,2.44,124h85.118
		c1.347,0,2.441-1.096,2.441-2.439v-90.84L59.041,0z M59.67,3.441l27.181,26.971H60.109c-0.242,0-0.439-0.197-0.439-0.439V3.441z
		 M87.559,122H2.44C2.197,122,2,121.803,2,121.561V2.438C2,2.195,2.197,2,2.44,2H57.67v27.973c0,1.344,1.095,2.439,2.439,2.439H88
		v89.148C88,121.803,87.802,122,87.559,122z"/>
	<g id="jepzWy.tif_2_">
		<g>
			<path fill-rule="evenodd" clip-rule="evenodd" fill="#E1E1E1" d="M46.099,82.498c-0.064-0.209-0.184-0.416-0.184-0.625
				c-0.01-7.105-0.004-14.213-0.016-21.318c0-0.373,0.139-0.559,0.467-0.709c6.074-2.768,12.146-5.541,18.217-8.314
				c0.578-0.262,0.758-0.148,0.76,0.488c0.002,7.088-0.002,14.176,0.01,21.264c0.002,0.422-0.174,0.611-0.533,0.777
				c-5.934,2.701-11.861,5.414-17.787,8.129c-0.182,0.082-0.344,0.205-0.516,0.309C46.378,82.498,46.237,82.498,46.099,82.498z"/>
			<path fill-rule="evenodd" clip-rule="evenodd" fill="#E1E1E1" d="M43.487,82.498c-0.537-0.273-1.061-0.564-1.604-0.812
				c-5.533-2.531-11.064-5.062-16.604-7.574c-0.463-0.207-0.633-0.465-0.633-0.98c0.018-6.982,0.012-13.963,0.012-20.947
				c0-0.121-0.006-0.244,0.006-0.365c0.039-0.391,0.242-0.525,0.607-0.357c1.277,0.59,2.561,1.17,3.826,1.785
				c0.143,0.07,0.252,0.355,0.254,0.535c0.012,2.93,0.02,5.854,0,8.779c-0.002,0.443,0.127,0.67,0.543,0.861
				c2.182,1.006,4.34,2.047,6.506,3.074c0.588,0.275,0.691,0.209,0.691-0.445c0.002-2.857,0.002-5.715,0.002-8.568
				c0-0.188,0-0.373,0-0.648c0.371,0.174,0.668,0.309,0.963,0.443c1.828,0.846,3.656,1.703,5.494,2.529
				c0.406,0.18,0.572,0.404,0.572,0.861c-0.014,7.033-0.012,14.068-0.02,21.104c0,0.242-0.131,0.484-0.199,0.727
				C43.765,82.498,43.626,82.498,43.487,82.498z"/>
			<path fill-rule="evenodd" clip-rule="evenodd" fill="#E1E1E1" d="M38.478,55.381c3.227-1.545,6.348-3.041,9.467-4.529
				c2.809-1.342,5.615-2.684,8.432-4.002c0.23-0.107,0.586-0.133,0.816-0.033c1.934,0.826,3.854,1.686,5.768,2.555
				c0.193,0.088,0.33,0.305,0.494,0.459c-0.174,0.156-0.312,0.365-0.512,0.457c-5.83,2.676-11.664,5.334-17.494,8.01
				c-0.311,0.141-0.555,0.154-0.875,0C42.575,57.324,40.563,56.375,38.478,55.381z"/>
			<path fill-rule="evenodd" clip-rule="evenodd" fill="#E1E1E1" d="M30.575,51.883c-0.096-0.037-0.193-0.072-0.289-0.113
				c-1.104-0.506-2.213-1.004-3.311-1.525c-0.168-0.08-0.414-0.291-0.393-0.398c0.027-0.172,0.225-0.375,0.4-0.453
				c5.883-2.623,11.773-5.234,17.672-7.832c0.205-0.09,0.512-0.074,0.725,0.012c0.883,0.357,1.758,0.752,2.619,1.158
				c0.188,0.088,0.322,0.277,0.48,0.422c-0.158,0.162-0.287,0.385-0.475,0.475c-4.707,2.24-9.416,4.467-14.123,6.697
				c-0.973,0.463-1.945,0.924-2.92,1.385C30.837,51.77,30.71,51.82,30.575,51.883z"/>
		</g>
	</g>
</g>
</svg>
