<?xml version="1.0" encoding="utf-8"?>
<!-- Generator: Adobe Illustrator 16.0.0, SVG Export Plug-In . SVG Version: 6.00 Build 0)  -->
<!DOCTYPE svg PUBLIC "-//W3C//DTD SVG 1.0//EN" "http://www.w3.org/TR/2001/REC-SVG-20010904/DTD/svg10.dtd">
<svg version="1.0" id="Layer_1" xmlns="http://www.w3.org/2000/svg" xmlns:xlink="http://www.w3.org/1999/xlink" x="0px" y="0px"
	 width="90px" height="44px" viewBox="0 0 90 44" enable-background="new 0 0 90 44" xml:space="preserve">
<path fill="#D7E7F2" d="M73.115,3.035c0.036,0.06,0.053,0.126,0.053,0.192c0,0.129-0.064,0.257-0.184,0.327
	c-0.717,0.425-1.499,0.646-2.303,0.78c-0.808,0.134-1.635,0.182-2.434,0.261c-0.807,0.075-1.577,0.18-2.284,0.401
	c-0.704,0.222-1.345,0.562-1.888,1.113c-0.565,0.573-1.24,1.422-1.898,2.34c-0.657,0.919-1.299,1.907-1.796,2.758h0.001
	c-0.071,0.12-0.199,0.188-0.33,0.188c-0.063,0-0.131-0.016-0.189-0.053c-0.182-0.106-0.243-0.339-0.138-0.519
	c0.515-0.876,1.163-1.878,1.833-2.815c0.673-0.938,1.366-1.812,1.977-2.432c0.653-0.658,1.406-1.055,2.199-1.305
	c0.791-0.248,1.627-0.354,2.439-0.434c0.82-0.075,1.63-0.131,2.382-0.255c0.75-0.126,1.445-0.322,2.038-0.681
	c0.062-0.037,0.131-0.054,0.196-0.054C72.92,2.85,73.043,2.915,73.115,3.035"/>
<path fill="#D7E7F2" d="M45.467,39.551c0,0.075-0.023,0.153-0.072,0.221c-0.265,0.366-0.547,0.646-0.84,0.833
	c-0.292,0.186-0.595,0.281-0.906,0.281c-0.221-0.003-0.432-0.049-0.63-0.13c-0.197-0.078-0.385-0.19-0.559-0.321
	c-0.352-0.266-0.667-0.613-0.968-0.991c-0.296-0.378-0.578-0.787-0.843-1.179c-0.266-0.392-0.512-0.762-0.74-1.059
	c-0.294-0.402-0.591-0.639-0.674-0.639c-0.001,0-0.001,0-0.001,0c-0.062-0.014-0.116-0.021-0.167-0.021
	c-0.213,0.002-0.402,0.099-0.646,0.333c-0.24,0.229-0.498,0.574-0.805,0.935c-0.601,0.717-1.469,1.528-2.907,1.528
	c-0.006,0-0.012,0-0.02,0c-0.446,0-0.942-0.072-1.495-0.24c-0.553-0.164-1.169-0.422-1.854-0.787
	c-0.307-0.165-0.674-0.237-1.1-0.237c-0.007,0-0.009,0-0.015,0c-0.899,0-2.034,0.342-3.194,0.701
	c-0.585,0.181-1.175,0.362-1.758,0.503c-0.583,0.142-1.155,0.232-1.705,0.235c-0.29,0-0.575-0.026-0.853-0.091
	c-1.105-0.262-2.231-0.655-3.302-1.182c-1.071-0.525-2.087-1.18-2.972-1.965c-0.85-0.745-1.579-1.617-2.115-2.598
	c-0.534-0.983-0.875-2.076-0.943-3.273c-0.788-0.123-1.486-0.18-2.109-0.18c-0.672,0.003-1.253,0.067-1.762,0.19
	c-0.509,0.122-0.945,0.294-1.327,0.519c-0.381,0.225-0.712,0.495-1.013,0.814c-0.297,0.315-0.559,0.678-0.804,1.079
	c-0.491,0.804-0.891,1.771-1.314,2.833c-0.426,1.062-0.878,2.217-1.472,3.396c-0.348,0.689-0.707,1.428-1.075,2.197
	c-0.372,0.766-0.752,1.566-1.146,2.381c-0.064,0.134-0.198,0.212-0.338,0.212c-0.052,0-0.106-0.014-0.162-0.037
	c-0.185-0.091-0.262-0.315-0.173-0.498c0.394-0.813,0.772-1.612,1.143-2.382c0.37-0.77,0.729-1.513,1.083-2.212
	c0.431-0.853,0.788-1.703,1.119-2.522c0.332-0.821,0.638-1.613,0.97-2.354c0.334-0.736,0.697-1.428,1.146-2.032
	c0.448-0.605,0.982-1.124,1.657-1.519c0.894-0.521,2.019-0.812,3.455-0.812c0.003,0,0.009,0,0.011,0c0.75,0,1.589,0.076,2.533,0.238
	c0.176,0.031,0.307,0.182,0.309,0.36c0.023,1.145,0.315,2.188,0.806,3.13c0.491,0.938,1.183,1.778,2.013,2.512
	c0.826,0.732,1.79,1.351,2.807,1.852c1.02,0.501,2.093,0.879,3.146,1.127c0.206,0.047,0.437,0.07,0.68,0.07c0,0,0.005,0,0.007,0
	c0.924,0,2.074-0.344,3.235-0.704c0.583-0.178,1.171-0.362,1.75-0.504c0.574-0.138,1.14-0.231,1.68-0.231c0.004,0,0.009,0,0.012,0
	c0.509,0,0.999,0.088,1.439,0.323c0.654,0.347,1.221,0.587,1.718,0.733c0.496,0.148,0.921,0.211,1.28,0.211
	c0.437-0.006,0.791-0.089,1.097-0.228c0.306-0.138,0.565-0.333,0.807-0.558c0.484-0.451,0.854-1.03,1.309-1.472
	c0.3-0.292,0.679-0.542,1.161-0.542c0.002,0,0.003,0,0.005,0c0.006,0,0.013,0,0.02,0c0.1,0,0.206,0.013,0.311,0.037
	c0.175,0.044,0.327,0.124,0.463,0.229c0.138,0.106,0.263,0.234,0.39,0.378c0.251,0.283,0.5,0.639,0.758,1.017
	c0.256,0.378,0.526,0.78,0.799,1.156c0.27,0.375,0.55,0.72,0.828,0.985c0.369,0.35,0.711,0.535,1.004,0.535c0.002,0,0.008,0,0.011,0
	c0.149,0,0.318-0.042,0.507-0.165c0.189-0.12,0.399-0.322,0.634-0.642c0.075-0.099,0.188-0.153,0.304-0.153
	c0.076,0,0.152,0.025,0.22,0.072C45.414,39.323,45.467,39.436,45.467,39.551"/>
<path fill="#D7E7F2" d="M17.131,16.044c0,0.06-0.014,0.12-0.046,0.174c-0.065,0.11-0.182,0.171-0.302,0.171
	c-0.058,0-0.118-0.014-0.174-0.045c-0.18-0.104-0.33-0.175-0.571-0.175c-0.005,0-0.009,0-0.015,0c-0.375,0-1.046,0.22-2.194,1.119
	c-0.38,0.297-0.665,0.629-0.897,0.976s-0.415,0.71-0.593,1.082c-0.176,0.368-0.348,0.744-0.569,1.097
	c-0.22,0.353-0.491,0.681-0.864,0.956c-0.249,0.181-0.539,0.33-0.876,0.442c-0.341,0.112-0.731,0.188-1.18,0.223
	c-0.098,0.006-0.194,0.01-0.288,0.01c-0.186,0-0.364-0.013-0.542-0.038c-0.463-0.068-0.9-0.215-1.31-0.428
	c-0.565-0.291-1.082-0.702-1.551-1.179c-0.941-0.958-1.722-2.192-2.398-3.382c-0.546-0.961-0.921-2.033-1.264-3.12
	c-0.341-1.083-0.647-2.179-1.052-3.186c-0.017-0.045-0.025-0.087-0.025-0.131c0-0.138,0.084-0.268,0.219-0.32
	c0.043-0.018,0.085-0.025,0.128-0.025c0.137,0,0.269,0.082,0.321,0.218c0.418,1.054,0.732,2.168,1.069,3.237
	c0.337,1.07,0.697,2.1,1.204,2.984c0.332,0.585,0.689,1.176,1.07,1.728c0.381,0.555,0.789,1.073,1.223,1.512
	c0.435,0.44,0.891,0.799,1.374,1.049c0.481,0.249,0.992,0.389,1.534,0.389c0.077,0,0.156-0.003,0.235-0.008
	c0.405-0.031,0.736-0.1,1.013-0.188c0.277-0.092,0.5-0.211,0.688-0.347c0.375-0.272,0.629-0.637,0.867-1.08
	c0.237-0.441,0.447-0.961,0.75-1.487c0.3-0.526,0.692-1.062,1.292-1.53c0.606-0.473,1.106-0.788,1.533-0.986
	c0.428-0.197,0.783-0.276,1.1-0.28c0.001,0,0.005,0,0.005,0c0.398,0,0.705,0.145,0.916,0.271
	C17.069,15.807,17.131,15.924,17.131,16.044"/>
<g>
	<path fill="#FFFFFF" d="M20.541,17.047h2.417c-0.087-0.263-0.175-0.575-0.244-0.818c-0.14-0.451-0.243-0.887-0.365-1.304
		c-0.364-1.131-0.418-1.27-0.574-1.88c-0.244,0.82-0.558,1.828-0.905,2.923l0.016-0.017L20.541,17.047 M24.28,21.289
		c-0.14-0.398-0.261-0.798-0.384-1.199c-0.156-0.506-0.295-0.991-0.503-1.654H20.09c-0.366,1.114-0.731,2.158-0.992,2.906
		c-0.07,0.192-0.191,0.294-0.679,0.294c-0.26,0-0.817-0.067-1.2-0.156c0.036-0.261,0.088-0.519,0.156-0.677
		c0.417-1.253,1.009-2.938,1.602-4.607c0.783-2.142,1.547-4.314,1.982-5.688c0.069-0.245,0.12-0.436,0.33-0.436
		c0.017,0,0.051-0.018,0.085-0.036c0.071-0.017,0.141-0.034,0.244-0.034c0.174-0.017,0.418-0.017,0.541-0.017
		c0.191,0.034,0.347,0.125,0.469,0.263c0.382,1.145,0.818,2.486,1.252,3.842c0.365,1.077,1.008,3.008,1.305,3.86h-0.019
		c0.348,0.958,0.645,1.773,0.852,2.471c0.087,0.294,0.176,0.59,0.262,0.851l0.018,0.033c0,0.07-0.053,0.124-0.104,0.175
		c-0.244,0.089-0.783,0.156-1.097,0.156c-0.259,0-0.468-0.051-0.783-0.313L24.28,21.289z"/>
	<path fill="#FFFFFF" d="M29.531,20.541c-0.017,0.244-0.034,0.662-0.034,0.748c-0.173,0.245-0.557,0.47-1.079,0.487
		c-0.241,0-0.504-0.104-0.694-0.242c-0.331-0.229-0.504-0.573-0.504-0.923v-8.868c0-0.835-0.018-1.428-0.034-1.932
		c0.208-0.487,0.833-0.54,1.721-0.54c0.103,0.399,0.122,0.801,0.122,1.688v8.904C29.028,19.863,28.975,20.645,29.531,20.541"/>
	<path fill="#FFFFFF" d="M32.749,20.332c0.208,0.089,0.521,0.159,0.852,0.159c0.904,0,1.981-0.749,1.981-3.463
		c0-1.861-0.606-2.504-1.633-2.504c-0.365,0-0.853,0.14-1.2,0.4V20.332 M31.114,21.271c-0.139-0.311-0.174-0.608-0.174-1.009v-8.78
		c0-0.75-0.018-1.256-0.035-1.651c0.208-0.471,0.799-0.56,1.668-0.56c0.123,0.299,0.174,0.609,0.174,1.391v2.958
		c0.488-0.278,1.061-0.485,1.827-0.485c1.668,0,2.955,1.041,2.955,3.649c0,2.385-0.817,3.688-1.721,4.349
		c-0.73,0.503-1.634,0.661-2.349,0.661c-0.973,0-1.789-0.173-2.295-0.489L31.114,21.271z"/>
	<path fill="#FFFFFF" d="M41.983,20.524c0.816,0,1.529-0.782,1.529-3.077c0-2.176-0.608-2.991-1.564-2.991
		c-0.818,0-1.547,0.815-1.547,2.973C40.401,19.742,41.079,20.524,41.983,20.524 M41.949,21.812c-2.226,0-3.478-1.271-3.478-4.312
		c0-2.993,1.459-4.364,3.528-4.364c2.279,0,3.426,1.459,3.426,4.259C45.425,20.316,43.949,21.812,41.949,21.812z"/>
	<path fill="#FFFFFF" d="M48.677,15.202v5.477c0,0.282-0.016,0.489-0.174,0.715c-0.278,0.209-0.537,0.228-1.669,0.228
		c0.018-0.921,0.033-2.105,0.033-3.445l0.02-2.904c0-0.556-0.105-0.955-0.227-1.305c0.14-0.138,0.364-0.277,0.748-0.432
		c0.104-0.037,0.174-0.037,0.244-0.037c0.365,0,0.521,0.104,0.627,0.348c0.33-0.226,0.693-0.381,1.024-0.504
		c0.296-0.122,0.679-0.19,1.01-0.139c0.503,0.052,0.816,0.226,0.867,0.486c0,0.263-0.067,0.747-0.31,1.097
		c-0.123,0.034-0.123,0.034-0.281,0.034c-0.189,0-0.365-0.019-0.504-0.034c-0.122-0.036-0.172-0.036-0.227-0.036
		C49.391,14.75,49.008,14.873,48.677,15.202"/>
	<path fill="#FFFFFF" d="M56.782,9.69c-0.071,0.104-0.122,0.141-0.245,0.261c-0.625,0.625-1.58,1.546-2.051,2.017
		c-0.367-0.087-0.799-0.435-0.799-0.747c0-0.018,0-0.052,0.032-0.157c0.574-0.801,1.688-2.279,2.019-2.279
		C56.172,8.784,56.782,9.324,56.782,9.69 M55.598,18.89v-1.148h-0.172c-0.175,0-0.366,0.018-0.54,0.037h0.019
		c-0.748,0.139-1.393,0.47-1.393,1.492c0,0.803,0.312,1.098,0.748,1.132h0.104c0.451,0,0.974-0.228,1.183-0.503l-0.018,0.017
		c0,0.017,0.018-0.105,0.036-0.21C55.598,19.499,55.598,19.238,55.598,18.89z M52.242,14.456c-0.035-0.106-0.035-0.16-0.035-0.229
		c0-0.051,0.018-0.137,0.053-0.226c0.383-0.346,1.479-0.835,2.697-0.866c0.277,0,0.33,0,0.608,0.017
		c1.39,0.085,1.843,0.957,1.843,2.468v0.767c0,0.643,0,1.322-0.021,1.964c0,0.4-0.014,1.184-0.014,1.494
		c0,0-0.053,0.783,0.488,0.681c-0.02,0.243-0.035,0.644-0.035,0.747c-0.158,0.228-0.541,0.471-1.078,0.487
		c-0.401,0-0.818-0.26-1.046-0.505c-0.085,0.068-0.276,0.193-0.382,0.262c-0.416,0.207-0.852,0.243-1.338,0.243
		c-1.184,0-2.312-0.73-2.312-2.348c0-2.104,1.945-2.713,3.041-2.834c0.158-0.02,0.349-0.02,0.504-0.02c0.158,0,0.279,0,0.383,0.02
		v-0.853c0-0.729-0.068-1.113-0.641-1.113c-0.558,0-1.237,0.242-1.743,0.436c-0.188,0.085-0.381,0.138-0.64,0.138
		c-0.244-0.26-0.314-0.555-0.35-0.748L52.242,14.456z"/>
	<path fill="#FFFFFF" d="M61.076,15.255l0.053-0.053v5.356c0,0.383-0.035,0.593-0.209,0.835c-0.244,0.209-0.434,0.209-1.201,0.228
		h-0.451c0.019-0.921,0.035-2.105,0.035-3.427v-2.923c0-0.556-0.068-0.955-0.189-1.305c0.121-0.138,0.346-0.277,0.729-0.432
		c0.104-0.037,0.209-0.037,0.245-0.037c0.312,0,0.522,0.157,0.624,0.367c0.346-0.245,0.715-0.419,1.027-0.523
		c0.365-0.122,0.713-0.19,1.129-0.19c2.174,0,2.592,1.112,2.592,3.097v2.626c0,0.937,0.016,1.789,0.035,2.468
		c-0.227,0.208-0.541,0.279-1.688,0.279c-0.139-0.263-0.19-0.523-0.19-0.783v-4.557c0-1.253-0.298-1.705-1.185-1.705
		C61.876,14.576,61.426,14.873,61.076,15.255"/>
</g>
<path fill="#D7E7F2" d="M76.271,21.114c0.002,0.014,0.002,0.026,0.002,0.038c0,0.265-0.203,0.488-0.474,0.508
	c-0.175,0.013-0.369,0.018-0.584,0.018c-0.757,0-1.792-0.075-3.043-0.222c0.126-0.243,0.197-0.521,0.197-0.814
	c0-0.063-0.004-0.127-0.012-0.19c1.181,0.14,2.147,0.207,2.839,0.207c0.008,0,0.012,0,0.019,0c0.196,0,0.368-0.006,0.511-0.017
	c0.014,0,0.026,0,0.039,0C76.029,20.642,76.252,20.846,76.271,21.114"/>
<path fill="#D7E7F2" d="M70.104,13.059c-0.037,0-0.073,0.004-0.109,0.012c-1.025,0.227-2.037,0.475-3.039,0.745
	c0.033,0.297,0.076,0.638,0.086,1.03c1.049-0.283,2.105-0.544,3.174-0.781c0.238-0.05,0.4-0.263,0.4-0.496
	c0-0.036-0.006-0.073-0.014-0.109C70.549,13.22,70.34,13.059,70.104,13.059"/>
<path fill="#D7E7F2" d="M69.843,25.226c-1.231-0.05-2.487-0.175-3.759-0.368c0.002,0.037,0.004,0.073,0.004,0.115
	c0,0.317-0.085,0.62-0.232,0.879c1.329,0.205,2.648,0.339,3.948,0.394c0.005,0,0.013,0,0.019,0c0.135,0,0.26-0.055,0.353-0.141
	c0.093-0.089,0.153-0.212,0.157-0.35c0-0.006,0-0.011,0-0.019C70.332,25.466,70.116,25.238,69.843,25.226"/>
<path fill="#D7E7F2" d="M68.867,21.12c-1.127,0.72-2.311,1.515-3.543,2.392c0.09,0.057,0.168,0.125,0.24,0.201
	c0.171,0.166,0.306,0.37,0.396,0.594c1.2-0.851,2.35-1.624,3.447-2.326c-0.029-0.023-0.057-0.05-0.085-0.076
	C69.109,21.689,68.95,21.42,68.867,21.12"/>
<path fill="#D7E7F2" d="M62.607,25.517c-1.771,1.354-3.63,2.867-5.577,4.563c0.175,0.083,0.337,0.2,0.472,0.339
	c0.105,0.106,0.201,0.227,0.276,0.354c1.886-1.636,3.69-3.102,5.403-4.416c-0.048-0.037-0.094-0.081-0.139-0.122
	C62.844,26.037,62.693,25.791,62.607,25.517"/>
<path fill="#D7E7F2" d="M58.871,23.139c-0.006,0.359-0.119,0.696-0.312,0.973c1.317,0.417,2.647,0.785,3.976,1.096
	c-0.01-0.078-0.014-0.156-0.014-0.234c0-0.279,0.062-0.54,0.176-0.777C61.421,23.897,60.142,23.54,58.871,23.139"/>
<path fill="#D7E7F2" d="M60.292,32.413c-0.669-0.04-1.437-0.224-2.28-0.526c-0.04,0.355-0.188,0.679-0.404,0.939
	c0.932,0.337,1.807,0.548,2.615,0.605c0.014,0,0.023,0,0.037,0c0.133,0,0.254-0.05,0.346-0.137c0.092-0.082,0.15-0.202,0.161-0.339
	c0-0.01,0.001-0.022,0.001-0.033C60.768,32.656,60.562,32.435,60.292,32.413"/>
<path fill="#D7E7F2" d="M55.369,23.568c-1.469,0.942-2.847,1.892-4.133,2.828c0.084,0.061,0.164,0.125,0.238,0.201
	c0.168,0.17,0.305,0.37,0.394,0.597c1.257-0.916,2.603-1.838,4.036-2.759c-0.025-0.024-0.052-0.048-0.076-0.07
	C55.612,24.147,55.449,23.876,55.369,23.568"/>
<path fill="#D7E7F2" d="M55.156,39.556c-1.087-0.225-2.229-0.767-3.393-1.56c-0.092,0.206-0.219,0.389-0.375,0.548
	c-0.09,0.085-0.185,0.166-0.287,0.232c1.271,0.881,2.555,1.502,3.846,1.775c0.035,0.009,0.072,0.011,0.105,0.011
	c0.117,0,0.229-0.041,0.318-0.111c0.089-0.073,0.154-0.173,0.179-0.293c0.007-0.037,0.012-0.07,0.012-0.104
	C55.562,39.816,55.395,39.608,55.156,39.556"/>
<path fill="#D7E7F2" d="M54.561,32.283c-1.172,1.075-2.373,2.212-3.604,3.417c0.16,0.087,0.306,0.19,0.432,0.318
	c0.117,0.118,0.219,0.25,0.299,0.396c1.189-1.166,2.348-2.27,3.482-3.308c-0.067-0.052-0.131-0.106-0.191-0.166
	C54.795,32.756,54.651,32.533,54.561,32.283"/>
<path fill="#D7E7F2" d="M51.889,28.47c-0.088,0.248-0.232,0.468-0.414,0.65c-0.061,0.06-0.125,0.117-0.193,0.169
	c0.902,0.637,1.787,1.218,2.645,1.729c0.188,0.109,0.376,0.219,0.561,0.323c0.068-0.347,0.235-0.66,0.471-0.902
	c-0.168-0.097-0.338-0.196-0.51-0.298C53.621,29.651,52.763,29.094,51.889,28.47"/>
<path fill="#D7E7F2" d="M48.869,38.544c-0.126-0.125-0.232-0.271-0.317-0.428c-0.218,0.227-0.438,0.451-0.656,0.678
	c-0.197,0.204-0.192,0.524,0.012,0.72c0.098,0.097,0.226,0.144,0.354,0.144c0.133,0,0.267-0.049,0.366-0.156
	c0.213-0.222,0.427-0.441,0.639-0.657C49.119,38.763,48.984,38.661,48.869,38.544"/>
<path fill="#D7E7F2" d="M48.529,28.444c-0.932,0.735-1.804,1.45-2.622,2.139c0.095,0.062,0.183,0.136,0.261,0.217
	c0.163,0.162,0.297,0.356,0.384,0.573c0.804-0.681,1.661-1.385,2.573-2.103c-0.06-0.047-0.117-0.097-0.173-0.15
	C48.764,28.932,48.618,28.702,48.529,28.444"/>
<path fill="#D7E7F2" d="M47.984,34.667c-0.512-0.544-1.023-1.121-1.527-1.724c-0.08,0.139-0.176,0.267-0.289,0.379
	c-0.13,0.132-0.282,0.242-0.448,0.328c0.195,0.234,0.392,0.462,0.589,0.688c0.716,0.814,1.438,1.576,2.168,2.271
	c0.131-0.325,0.355-0.603,0.64-0.798C48.736,35.447,48.361,35.066,47.984,34.667"/>
<path fill="#D7E7F2" d="M42.83,28.134c-0.013,0-0.027,0-0.039,0c-0.03,0-0.057,0-0.088,0h-0.938
	c-0.026,0.005-0.052,0.01-0.087,0.016c-0.019,0.002-0.041,0.005-0.066,0.008c0.629,0.934,1.28,1.853,1.941,2.744
	c0.223-0.261,0.519-0.46,0.858-0.553C43.875,29.626,43.346,28.885,42.83,28.134"/>
<path fill="#D7E7F2" d="M43.305,32.844c-0.362,0.33-0.712,0.642-1.047,0.947c-0.207,0.19-0.222,0.512-0.032,0.72
	c0.1,0.11,0.237,0.167,0.376,0.167c0.122,0,0.244-0.044,0.342-0.133c0.334-0.308,0.687-0.623,1.053-0.95
	c-0.127-0.077-0.245-0.169-0.35-0.272C43.51,33.184,43.393,33.021,43.305,32.844"/>
<path fill="#D7E7F2" d="M89.005,15.678c-0.022-0.269-0.243-0.469-0.509-0.469c-0.012,0-0.027,0-0.04,0.003
	c-1.837,0.146-3.61,0.255-5.327,0.325c-0.072,0.003-0.145,0.007-0.213,0.009c0.131-0.037,0.254-0.07,0.375-0.104
	c0.357-0.097,0.671-0.173,0.938-0.234c0.268-0.063,0.482-0.109,0.656-0.146c0.178-0.036,0.311-0.069,0.412-0.097
	c0.225-0.064,0.371-0.269,0.371-0.49c0-0.048-0.007-0.094-0.021-0.141c-0.063-0.224-0.268-0.371-0.488-0.371
	c-0.047,0-0.096,0.008-0.141,0.021c-0.052,0.016-0.172,0.042-0.345,0.079c-0.175,0.038-0.405,0.088-0.679,0.153
	c-0.662,0.153-1.595,0.396-2.783,0.79c0.143,0.172,0.254,0.369,0.324,0.588c0.037,0.113,0.063,0.232,0.076,0.354
	c0.008,0.063,0.011,0.13,0.011,0.197c0,0.16-0.023,0.316-0.063,0.466c0.53-0.013,1.068-0.032,1.611-0.053
	c1.73-0.074,3.521-0.18,5.367-0.331c0.268-0.021,0.469-0.245,0.469-0.508C89.006,15.705,89.006,15.691,89.005,15.678"/>
<path fill="#D7E7F2" d="M79.087,13.896c-0.058-0.231-0.267-0.386-0.493-0.386c-0.041,0-0.084,0.005-0.124,0.016
	c-1.582,0.397-3.116,0.838-4.602,1.312c0.14,0.218,0.233,0.465,0.268,0.73c0.011,0.078,0.016,0.154,0.016,0.235
	c0,0.005,0,0.008,0,0.014c0,0.274-0.066,0.534-0.177,0.767c0.99,0.036,2.007,0.06,3.047,0.07c-1.539,0.694-3.285,1.573-5.219,2.687
	c0.016,0.01,0.029,0.026,0.043,0.04c0.227,0.226,0.395,0.516,0.473,0.836c0.805-0.464,1.578-0.886,2.314-1.267
	c1.376-0.719,2.625-1.302,3.747-1.78c-0.107-0.153-0.194-0.325-0.248-0.511c-0.047-0.145-0.07-0.299-0.075-0.456
	c-0.003-0.021-0.003-0.042-0.003-0.059c0-0.174,0.024-0.347,0.073-0.503c-1.115,0-2.201-0.018-3.258-0.048
	c1.246-0.387,2.532-0.748,3.848-1.078c0.234-0.059,0.386-0.266,0.386-0.493C79.103,13.98,79.098,13.938,79.087,13.896"/>
<path fill="#D7E7F2" d="M50.982,27.857c0,0.428-0.343,0.77-0.768,0.77c-0.427,0-0.77-0.342-0.77-0.77c0-0.426,0.343-0.77,0.77-0.77
	C50.64,27.088,50.982,27.432,50.982,27.857"/>
<path fill="#D7E7F2" d="M45.667,32.057c0,0.426-0.344,0.77-0.769,0.77c-0.425,0-0.769-0.344-0.769-0.77
	c0-0.425,0.344-0.77,0.769-0.77C45.323,31.287,45.667,31.632,45.667,32.057"/>
<path fill="#D7E7F2" d="M57.011,31.673c0,0.429-0.343,0.772-0.769,0.772s-0.77-0.344-0.77-0.772c0-0.425,0.344-0.77,0.77-0.77
	S57.011,31.248,57.011,31.673"/>
<path fill="#D7E7F2" d="M50.916,37.284c0,0.425-0.344,0.77-0.771,0.77c-0.426,0-0.77-0.345-0.77-0.77c0-0.426,0.344-0.77,0.77-0.77
	C50.572,36.515,50.916,36.858,50.916,37.284"/>
<path fill="#D7E7F2" d="M71.357,20.647c0,0.425-0.342,0.768-0.77,0.768c-0.424,0-0.768-0.343-0.768-0.768
	c0-0.426,0.344-0.772,0.768-0.772C71.016,19.875,71.357,20.222,71.357,20.647"/>
<path fill="#D7E7F2" d="M65.082,24.987c0,0.426-0.342,0.772-0.77,0.772c-0.424,0-0.77-0.347-0.77-0.772
	c0-0.425,0.346-0.77,0.77-0.77C64.74,24.218,65.082,24.562,65.082,24.987"/>
<path fill="#D7E7F2" d="M73.143,15.804c0,0.426-0.348,0.772-0.772,0.772s-0.77-0.347-0.77-0.772s0.345-0.77,0.77-0.77
	S73.143,15.378,73.143,15.804"/>
<path fill="#D7E7F2" d="M80.62,16.127c0,0.426-0.346,0.771-0.77,0.771c-0.425,0-0.769-0.346-0.769-0.771
	c0-0.425,0.344-0.77,0.769-0.77C80.274,15.357,80.62,15.702,80.62,16.127"/>
<path fill="#D7E7F2" d="M67.041,16.089c0.836,0.092,1.693,0.174,2.574,0.243c-0.878,0.337-1.733,0.689-2.574,1.05V18.5
	c1.271-0.552,2.57-1.09,3.928-1.591c-0.118-0.148-0.213-0.318-0.275-0.499c-0.053-0.142-0.089-0.291-0.102-0.446
	c-0.006-0.054-0.008-0.105-0.008-0.16c0-0.146,0.018-0.284,0.051-0.418c-1.242-0.089-2.436-0.193-3.592-0.318
	c0,0.01-0.002,0.021-0.002,0.03V16.089z"/>
<path fill="#D7E7F2" d="M68.936,19.959c-0.604-0.101-1.242-0.216-1.895-0.337v1.031c0.302,0.057,0.623,0.123,0.916,0.174
	c0.297,0.053,0.59,0.104,0.876,0.148c-0.021-0.107-0.031-0.219-0.031-0.334C68.802,20.401,68.85,20.172,68.936,19.959z"/>
</svg>
