<?xml version="1.0" encoding="utf-8"?>
<!-- Generator: Adobe Illustrator 16.0.0, SVG Export Plug-In . SVG Version: 6.00 Build 0)  -->
<!DOCTYPE svg PUBLIC "-//W3C//DTD SVG 1.0//EN" "http://www.w3.org/TR/2001/REC-SVG-20010904/DTD/svg10.dtd">
<svg version="1.0" id="Layer_1" xmlns="http://www.w3.org/2000/svg" xmlns:xlink="http://www.w3.org/1999/xlink" x="0px" y="0px"
	 width="92px" height="92px" viewBox="0 0 92 92" enable-background="new 0 0 92 92" xml:space="preserve">
<path fill="#FFFFFF" d="M55.703,3l20.881,20.722V89H15.281V3H55.703 M56.527,1h-42.2c-0.577,0-1.046,0.467-1.046,1.044v87.91
	c0,0.577,0.469,1.046,1.046,1.046h63.21c0.578,0,1.047-0.469,1.047-1.046V22.889L56.527,1L56.527,1z"/>
<path fill="#FFFFFF" d="M76.904,24.088H57.602c-1.128,0-2.045-0.918-2.045-2.046V2.319h2v19.724l19.348,0.046
	c0.027,0,0.078-0.002,0.111-0.005l0.317,1.974C77.234,24.075,77.013,24.088,76.904,24.088z"/>
<g>
	<path fill="#FFFFFF" d="M67.343,79.149c-1.345,0-2.678-0.539-3.754-1.52c-2.238-2.036-4.152-3.955-5.852-5.867
		c-0.623-0.695-0.932-1.596-1.205-2.391c-0.101-0.292-0.199-0.583-0.314-0.859c-0.244-0.579-0.479-1.165-0.721-1.774
		c-4.159,2.671-8.518,4.023-12.975,4.024c0,0-0.001,0-0.002,0c-6.655,0-13.012-3.119-17.006-8.345
		c-6.521-8.534-5.774-20.726,1.737-28.359c4.085-4.152,9.55-6.439,15.388-6.439c4.688,0,9.158,1.482,12.927,4.286
		c9.383,6.978,10.963,17.672,4.505,30.197c0.633,0.232,1.251,0.461,1.859,0.712c0.255,0.104,0.522,0.199,0.791,0.294
		c0.806,0.285,1.719,0.607,2.429,1.237c1.806,1.6,3.5,3.355,5.139,5.055l0.585,0.605c2.079,2.148,2.218,5.334,0.322,7.409
		C70.172,78.533,68.804,79.149,67.343,79.149z M56.425,63.677l0.85,2.12c0.267,0.67,0.521,1.309,0.788,1.943
		c0.133,0.318,0.247,0.65,0.361,0.982c0.231,0.675,0.451,1.312,0.806,1.709c1.654,1.86,3.52,3.73,5.705,5.72
		c1.465,1.333,3.531,1.285,4.784-0.086c1.191-1.304,1.072-3.268-0.283-4.669l-0.587-0.607c-1.611-1.671-3.278-3.399-5.025-4.947
		c-0.418-0.37-1.074-0.603-1.77-0.848c-0.3-0.106-0.598-0.212-0.885-0.33c-0.625-0.258-1.259-0.49-1.911-0.729l-2.037-0.761
		l0.552-1.01c6.544-11.979,5.336-22.156-3.4-28.654c-3.421-2.545-7.479-3.89-11.733-3.89c-5.297,0-10.255,2.075-13.962,5.841
		c-6.817,6.928-7.493,17.995-1.574,25.742c3.618,4.733,9.382,7.56,15.417,7.56c0,0,0.001,0,0.002,0
		c4.412-0.001,8.742-1.469,12.87-4.362L56.425,63.677z M42.634,66.5C42.634,66.5,42.634,66.5,42.634,66.5
		c-9.681-0.013-17.246-7.618-17.251-17.315c-0.002-4.601,1.79-8.934,5.046-12.201c3.255-3.267,7.573-5.066,12.156-5.066l0.108,0
		c9.64,0.061,17.192,7.677,17.192,17.338c0,4.649-1.782,8.992-5.02,12.228C51.629,64.718,47.284,66.5,42.634,66.5z M42.585,33.917
		c-4.048,0-7.862,1.59-10.739,4.479c-2.88,2.89-4.465,6.721-4.463,10.788c0.004,8.577,6.693,15.306,15.226,15.316c0,0,0,0,0.001,0
		c4.141,0,7.983-1.573,10.841-4.432c2.859-2.857,4.434-6.697,4.434-10.812c0-8.547-6.679-15.285-15.205-15.338L42.585,33.917z"/>
</g>
</svg>
