<?xml version="1.0" encoding="utf-8"?>
<!-- Generator: Adobe Illustrator 16.0.0, SVG Export Plug-In . SVG Version: 6.00 Build 0)  -->
<!DOCTYPE svg PUBLIC "-//W3C//DTD SVG 1.0//EN" "http://www.w3.org/TR/2001/REC-SVG-20010904/DTD/svg10.dtd">
<svg version="1.0" id="Layer_1" xmlns="http://www.w3.org/2000/svg" xmlns:xlink="http://www.w3.org/1999/xlink" x="0px" y="0px"
	 width="17px" height="17px" viewBox="0 0 17 17" enable-background="new 0 0 17 17" xml:space="preserve">
<g>
	<g>
		<path fill-rule="evenodd" clip-rule="evenodd" fill="#FFFFFF" d="M5.283,15.273C2.757,14.064,1,11.475,1,8.49
			C1.002,4.367,4.38,0.992,8.498,1C12.625,1.01,16.002,4.381,16,8.49c0,4.119-3.363,7.494-7.486,7.51
			C7.36,16.004,6.264,15.744,5.283,15.273 M8.016,6.424c-0.826,0-1.617,0.01-2.408-0.004C5.376,6.416,5.314,6.496,5.281,6.717
			c-0.175,1.188-0.16,2.371-0.007,3.561c0.028,0.221,0.114,0.271,0.318,0.27c0.733-0.008,1.467-0.004,2.202-0.006
			c0.072,0,0.145-0.018,0.221-0.029C8.016,9.145,8.016,7.801,8.016,6.424z M8.997,6.424c0,1.395,0,2.748,0,4.117
			c0.854,0,1.679,0.006,2.503-0.008c0.071,0,0.194-0.109,0.204-0.182c0.188-1.232,0.202-2.469-0.003-3.699
			c-0.015-0.088-0.159-0.215-0.242-0.217C10.646,6.418,9.83,6.424,8.997,6.424z M4.31,6.424c-0.606,0-1.251-0.006-1.896,0.01
			C2.341,6.436,2.225,6.539,2.202,6.615c-0.384,1.238-0.375,2.48-0.022,3.721c0.022,0.078,0.112,0.193,0.174,0.195
			c0.662,0.014,1.328,0.01,1.956,0.01C4.31,9.152,4.31,7.811,4.31,6.424z M12.688,6.424c0,1.385,0,2.725,0,4.117
			c0.629,0,1.295,0.004,1.959-0.01c0.061-0.002,0.153-0.117,0.176-0.195c0.352-1.24,0.357-2.482-0.022-3.721
			c-0.022-0.078-0.14-0.18-0.212-0.182C13.943,6.418,13.299,6.424,12.688,6.424z M8.01,14.977c0-1.182,0-2.348,0-3.508
			c-0.834,0-1.641,0-2.45,0C5.9,13.264,7.077,14.811,8.01,14.977z M8.971,14.979c1.062-0.158,2.258-2.104,2.453-3.512
			c-0.809,0-1.618,0-2.436,0c-0.01,0.061-0.017,0.102-0.017,0.145C8.971,12.727,8.971,13.84,8.971,14.979z M8.014,2.025
			C7.029,2.176,5.843,3.959,5.57,5.5c0.814,0,1.619,0,2.443,0C8.014,4.338,8.014,3.191,8.014,2.025z M11.486,5.502
			c-0.482-1.457-0.99-2.818-2.494-3.533c0,1.221,0,2.375,0,3.533C9.816,5.502,10.617,5.502,11.486,5.502z M2.628,11.461
			c0.739,1.432,1.812,2.434,3.255,3.049c-0.641-0.934-1.038-1.961-1.303-3.049C3.932,11.461,3.31,11.461,2.628,11.461z
			 M14.38,11.449c-0.642,0-1.228-0.008-1.813,0.008c-0.064,0-0.156,0.104-0.182,0.176c-0.111,0.314-0.17,0.648-0.303,0.951
			c-0.292,0.652-0.615,1.291-0.927,1.947C12.561,13.887,13.635,12.887,14.38,11.449z M2.623,5.52c0.652,0,1.219,0.01,1.783-0.01
			c0.078-0.002,0.186-0.127,0.221-0.219c0.229-0.578,0.421-1.174,0.667-1.742c0.157-0.365,0.392-0.697,0.632-1.115
			C4.451,3.102,3.396,4.096,2.623,5.52z M14.337,5.52c-0.479-1.209-2.335-2.912-3.246-3c0.626,0.855,1.019,1.807,1.294,2.812
			c0.02,0.076,0.14,0.178,0.215,0.18C13.166,5.527,13.734,5.52,14.337,5.52z"/>
	</g>
</g>
</svg>
