<?xml version="1.0" encoding="utf-8"?>
<!-- Generator: Adobe Illustrator 16.0.0, SVG Export Plug-In . SVG Version: 6.00 Build 0)  -->
<!DOCTYPE svg PUBLIC "-//W3C//DTD SVG 1.0//EN" "http://www.w3.org/TR/2001/REC-SVG-20010904/DTD/svg10.dtd">
<svg version="1.0" id="Layer_1" xmlns="http://www.w3.org/2000/svg" xmlns:xlink="http://www.w3.org/1999/xlink" x="0px" y="0px"
	 width="80px" height="89px" viewBox="0 0 80 89" enable-background="new 0 0 80 89" xml:space="preserve">
<path fill="#909599" d="M68.432,27v0.012c-3.757,0-6.844-3.008-6.844-6.778c0-1.891,0.769-3.607,2.024-4.852l2.507-2.506
	l-6.981-6.993l-2.525,2.516c-1.237,1.235-2.95,2.007-4.837,2.007C48.013,10.406,45,7.34,45,3.57V0H35v3.57
	c0,3.77-2.994,6.836-6.775,6.836c-1.887,0-3.6-0.772-4.837-2.007l-0.001,0l0.001-0.01l-2.507-2.507l-7,6.993l2.525,2.506
	c1.237,1.245,2.006,2.961,2.006,4.852c0,3.77-3.05,6.778-6.844,6.778L8,27v10h3.568c3.794,0,6.844,3.024,6.844,6.794
	c0,1.894-0.769,3.607-2.006,4.845l-2.525,2.501l7,6.997l2.507-2.521c1.237-1.237,2.95-2,4.837-2c3.781,0,6.775,3.063,6.775,6.846V64
	h10v-3.539c0-3.782,3.013-6.846,6.775-6.846c1.887,0,3.6,0.763,4.837,2l2.525,2.521l6.981-6.997l-2.507-2.513l-0.006,0.006
	c-1.252-1.237-2.019-2.948-2.019-4.839c0-3.77,3.087-6.794,6.844-6.794H72V27H68.432z M40,42c-5.523,0-10-4.478-10-10
	s4.477-10,10-10s10,4.478,10,10S45.523,42,40,42z"/>
<path fill="#FC3301" d="M45.142,81.416c1.317-1.316,2.131-3.135,2.131-5.144c0-2.008-0.813-3.826-2.131-5.143
	C43.826,69.814,42.008,69,40,69s-3.826,0.814-5.142,2.13c-1.317,1.316-2.131,3.135-2.131,5.143c0,2.009,0.813,3.827,2.131,5.144
	c0,0,4.005,3.947,5.142,7.584C41.137,85.363,45.142,81.416,45.142,81.416z M40,79.909c-2.008,0-3.637-1.628-3.637-3.637
	c0-2.008,1.629-3.636,3.637-3.636s3.637,1.628,3.637,3.636C43.637,78.281,42.008,79.909,40,79.909z"/>
<path fill="#009766" d="M13.142,69.416c1.317-1.316,2.131-3.135,2.131-5.144c0-2.008-0.813-3.826-2.131-5.143
	C11.826,57.814,10.008,57,8,57s-3.826,0.814-5.142,2.13c-1.317,1.316-2.131,3.135-2.131,5.143c0,2.009,0.813,3.827,2.131,5.144
	c0,0,4.005,3.947,5.142,7.584C9.137,73.363,13.142,69.416,13.142,69.416z M8,67.909c-2.008,0-3.637-1.628-3.637-3.637
	c0-2.008,1.629-3.636,3.637-3.636s3.637,1.628,3.637,3.636C11.637,66.281,10.008,67.909,8,67.909z"/>
<path fill="#018BE2" d="M77.142,69.416c1.317-1.316,2.131-3.135,2.131-5.144c0-2.008-0.813-3.826-2.131-5.143
	C75.826,57.814,74.008,57,72,57s-3.826,0.814-5.142,2.13c-1.317,1.316-2.131,3.135-2.131,5.143c0,2.009,0.813,3.827,2.131,5.144
	c0,0,4.005,3.947,5.142,7.584C73.137,73.363,77.142,69.416,77.142,69.416z M72,67.909c-2.008,0-3.637-1.628-3.637-3.637
	c0-2.008,1.629-3.636,3.637-3.636s3.637,1.628,3.637,3.636C75.637,66.281,74.008,67.909,72,67.909z"/>
</svg>
