<?xml version="1.0" encoding="utf-8"?>
<!-- Generator: Adobe Illustrator 16.0.0, SVG Export Plug-In . SVG Version: 6.00 Build 0)  -->
<!DOCTYPE svg PUBLIC "-//W3C//DTD SVG 1.0//EN" "http://www.w3.org/TR/2001/REC-SVG-20010904/DTD/svg10.dtd">
<svg version="1.0" id="Layer_1" xmlns="http://www.w3.org/2000/svg" xmlns:xlink="http://www.w3.org/1999/xlink" x="0px" y="0px"
	 width="92px" height="92px" viewBox="0 0 92 92" enable-background="new 0 0 92 92" xml:space="preserve">
<g>
	<path fill="#FFFFFF" d="M46,3c23.71,0,43,19.29,43,43c0,23.71-19.29,43-43,43C22.29,89,3,69.71,3,46C3,22.29,22.29,3,46,3 M46,1
		C21.145,1,1,21.146,1,46c0,24.853,20.145,45,45,45c24.854,0,45-20.147,45-45C91,21.146,70.854,1,46,1L46,1z"/>
	<path fill="#FFFFFF" d="M46,22.478c12.992,0,23.522,10.529,23.522,23.522c0,12.991-10.53,23.521-23.522,23.521
		c-12.992,0-23.522-10.529-23.522-23.521C22.478,33.007,33.008,22.478,46,22.478 M46,20.478c-14.073,0-25.522,11.449-25.522,25.522
		c0,14.072,11.449,25.521,25.522,25.521S71.522,60.072,71.522,46C71.522,31.927,60.073,20.478,46,20.478L46,20.478z"/>
	<g>
		<path fill="#FFFFFF" d="M37.893,23.91L21.953,7.973c-5.634,3.567-10.415,8.347-13.983,13.98l15.942,15.94
			C26.286,31.422,31.425,26.286,37.893,23.91z"/>
		<path fill="#FFFFFF" d="M68.087,37.894l15.942-15.94c-3.567-5.634-8.35-10.414-13.982-13.982L54.106,23.91
			C60.575,26.286,65.714,31.422,68.087,37.894z"/>
		<path fill="#FFFFFF" d="M23.912,54.104L7.97,70.047c3.568,5.631,8.35,10.412,13.983,13.98l15.94-15.942
			C31.425,65.714,26.286,60.575,23.912,54.104z"/>
		<path fill="#FFFFFF" d="M84.029,70.046L68.087,54.104c-2.373,6.471-7.512,11.609-13.98,13.98l15.94,15.942
			C75.68,80.459,80.462,75.678,84.029,70.046z"/>
	</g>
</g>
</svg>
