<?xml version="1.0" encoding="utf-8"?>
<!-- Generator: Adobe Illustrator 16.0.0, SVG Export Plug-In . SVG Version: 6.00 Build 0)  -->
<!DOCTYPE svg PUBLIC "-//W3C//DTD SVG 1.1//EN" "http://www.w3.org/Graphics/SVG/1.1/DTD/svg11.dtd">
<svg version="1.1" id="Layer_1" xmlns="http://www.w3.org/2000/svg" xmlns:xlink="http://www.w3.org/1999/xlink" x="0px" y="0px"
	 width="64px" height="88px" viewBox="0 0 64 88" enable-background="new 0 0 64 88" xml:space="preserve">
<path fill="#EA2440" d="M64,32c0-8.836-3.582-16.836-9.375-22.629C48.836,3.582,40.836,0,32,0S15.164,3.582,9.375,9.371
	C3.582,15.164,0,23.164,0,32c0,18.077,31.852,56.235,32,56C31.852,87.936,64,50.673,64,32z M32,47.999c-8.836,0-16-7.164-16-16
	s7.164-16,16-16s16,7.164,16,16S40.836,47.999,32,47.999z"/>
</svg>
