<?xml version="1.0" encoding="utf-8"?>
<!-- Generator: Adobe Illustrator 16.0.0, SVG Export Plug-In . SVG Version: 6.00 Build 0)  -->
<!DOCTYPE svg PUBLIC "-//W3C//DTD SVG 1.1//EN" "http://www.w3.org/Graphics/SVG/1.1/DTD/svg11.dtd">
<svg version="1.1" id="Layer_1" xmlns="http://www.w3.org/2000/svg" xmlns:xlink="http://www.w3.org/1999/xlink" x="0px" y="0px"
	 width="90px" height="90px" viewBox="0 0 90 90" enable-background="new 0 0 90 90" xml:space="preserve">
<g>
	<g>
		<g>
			<path fill="#FFFFFF" d="M44.998,90C20.186,90,0,69.814,0,45.002C0,20.188,20.186,0,44.998,0C69.812,0,90,20.188,90,45.002
				C90,69.814,69.812,90,44.998,90z M44.998,1.915c-23.755,0-43.083,19.329-43.083,43.087c0,23.755,19.327,43.083,43.083,43.083
				c23.759,0,43.087-19.327,43.087-43.083C88.085,21.244,68.756,1.915,44.998,1.915z"/>
		</g>
	</g>
	<g>
		<g>
			<path fill="#FFFFFF" d="M19.956,69.959l5.198-15.24l0.161-0.158c4.599-4.541,9.435-9.462,14.111-14.221
				c3.561-3.624,7.244-7.372,10.746-10.873c0.116-0.117,0.236-0.23,0.344-0.332l0.868-0.862l0.678,0.678
				c3.034,3.032,6.044,6.033,9.099,9.071l0.677,0.674l-1.242,1.274c-8.605,8.612-17.198,17.211-25.809,25.791l-0.179,0.178
				L19.956,69.959z M26.82,55.765l-3.886,11.392l10.679-2.93c8.521-8.49,17.023-16.999,25.529-25.51
				c-2.604-2.591-5.179-5.158-7.768-7.744c-3.453,3.454-7.077,7.142-10.583,10.71C36.164,46.391,31.382,51.258,26.82,55.765z"/>
		</g>
		<g>
			<path fill="#FFFFFF" d="M63.834,36.802l-0.681-0.677c-2.184-2.173-4.307-4.3-6.43-6.426l-3.358-3.361l0.672-0.677
				c0.407-0.409,0.802-0.845,1.199-1.283c0.948-1.044,1.927-2.125,3.141-2.963c1.569-1.102,3.706-1.217,6.171-0.316
				c4.041,1.469,5.889,5.597,4.493,10.039c-0.14,0.426-0.399,0.767-0.593,0.979c-1.197,1.228-2.389,2.435-3.569,3.628L63.834,36.802
				z M56.056,26.321l2.022,2.025c1.9,1.903,3.801,3.806,5.745,5.743c1.077-1.089,2.162-2.188,3.231-3.286
				c0.087-0.096,0.146-0.199,0.163-0.25c1.254-3.993-0.765-6.724-3.326-7.654c-1.859-0.679-3.356-0.659-4.42,0.088
				c-1.038,0.717-1.943,1.714-2.817,2.678C56.456,25.886,56.256,26.105,56.056,26.321z"/>
		</g>
	</g>
	<g>
		
			<rect x="41.017" y="31.369" transform="matrix(0.7084 0.7058 -0.7058 0.7084 44.2458 -16.4036)" fill="#FFFFFF" width="1.916" height="27.95"/>
	</g>
	<g>
		
			<rect x="23.668" y="59.205" transform="matrix(0.6366 0.7712 -0.7712 0.6366 57.3157 -1.3104)" fill="#FFFFFF" width="12.761" height="1.915"/>
	</g>
</g>
</svg>
