<?xml version="1.0" encoding="utf-8"?>
<!-- Generator: Adobe Illustrator 16.0.0, SVG Export Plug-In . SVG Version: 6.00 Build 0)  -->
<!DOCTYPE svg PUBLIC "-//W3C//DTD SVG 1.0//EN" "http://www.w3.org/TR/2001/REC-SVG-20010904/DTD/svg10.dtd">
<svg version="1.0" id="Layer_1" xmlns="http://www.w3.org/2000/svg" xmlns:xlink="http://www.w3.org/1999/xlink" x="0px" y="0px"
	 width="64px" height="64px" viewBox="0 0 64 64" enable-background="new 0 0 64 64" xml:space="preserve">
<g>
	<path fill="#FFFFFF" d="M29.757,13.302c0.024-0.352,0-0.655-0.051-0.655c-0.074,0-0.225,0.151-0.951,1.232L24.568,20h4.747
		L29.757,13.302z"/>
	<path fill="#FFFFFF" d="M40,0H24C10.745,0,0,10.744,0,24c0,10.448,6.68,19.333,16,22.629V64l16-16h8c13.255,0,24-10.746,24-24
		C64,10.744,53.255,0,40,0z M17.049,26.371l0.678-0.075c0.75-0.076,1.304-0.453,1.804-1.057c0.728-0.905,2.182-2.914,4.138-5.655
		l4.41-6.233c0.897-1.257,1.27-1.917,1.428-2.351h2.335c-0.049,0.613-0.123,1.519-0.198,2.827l-0.502,9.503
		c-0.149,2.79-0.124,2.813,1.229,2.966l0.652,0.075c0.149,0.151,0.073,0.528-0.102,0.629h-5.896
		c-0.249-0.101-0.249-0.528-0.025-0.629l0.778-0.075c0.551-0.052,0.878-0.252,0.978-0.403c0.075-0.125,0.2-0.477,0.275-1.559
		L29.25,21h-5.365l-2.023,2.958c-0.876,1.382-1.127,1.759-1.127,1.885c0,0.152,0.101,0.301,0.576,0.377l1.076,0.151
		c0.203,0.151,0.128,0.528-0.048,0.629H17C16.874,26.848,16.9,26.522,17.049,26.371z M47,35H17v-2h30V35z M47,31H17v-2h30V31z
		 M47,27H35v-2h12V27z M47,23H35v-2h12V23z"/>
</g>
</svg>
