<?xml version="1.0" encoding="utf-8"?>
<!-- Generator: Adobe Illustrator 16.0.0, SVG Export Plug-In . SVG Version: 6.00 Build 0)  -->
<!DOCTYPE svg PUBLIC "-//W3C//DTD SVG 1.0//EN" "http://www.w3.org/TR/2001/REC-SVG-20010904/DTD/svg10.dtd">
<svg version="1.0" id="Layer_1" xmlns="http://www.w3.org/2000/svg" xmlns:xlink="http://www.w3.org/1999/xlink" x="0px" y="0px"
	 width="72px" height="72px" viewBox="0 0 72 72" enable-background="new 0 0 72 72" xml:space="preserve">
<circle fill="#CC9900" cx="36" cy="36" r="36"/>
<g>
	<path fill="#E6CC80" d="M36,2c18.748,0,34,15.252,34,34c0,18.748-15.252,34-34,34C17.252,70,2,54.748,2,36C2,17.252,17.252,2,36,2
		 M36,0C16.118,0,0,16.117,0,36c0,19.882,16.118,36,36,36s36-16.118,36-36C72,16.117,55.882,0,36,0L36,0z"/>
</g>
<polygon fill="#FFFFFF" points="25,42 21,50 29,46 29,42 "/>
<polygon fill="#2B3033" points="23,46 21,50 25,48 "/>
<polygon fill="#2B3033" points="53,22 49,18 25,42 27,42 27,44 29,44 29,46 "/>
<polygon fill="#2B3033" points="39,40 37,42 53,42 53,40 "/>
<polygon fill="#2B3033" points="35,44 33,46 53,46 53,44 "/>
<polygon fill="#2B3033" points="31,48 29,50 53,50 53,48 "/>
<path fill="#E6CC80" d="M29.142,27.416c1.317-1.316,2.131-3.135,2.131-5.144c0-2.008-0.813-3.826-2.131-5.143
	C27.826,15.814,26.008,15,24,15s-3.826,0.814-5.142,2.13c-1.317,1.316-2.131,3.135-2.131,5.143c0,2.009,0.813,3.827,2.131,5.144
	c0,0,4.005,3.947,5.142,7.584C25.137,31.363,29.142,27.416,29.142,27.416z M24,25.909c-2.008,0-3.637-1.628-3.637-3.637
	c0-2.008,1.629-3.636,3.637-3.636s3.637,1.628,3.637,3.636C27.637,24.281,26.008,25.909,24,25.909z"/>
</svg>
