<?xml version="1.0" encoding="utf-8"?>
<!-- Generator: Adobe Illustrator 16.0.0, SVG Export Plug-In . SVG Version: 6.00 Build 0)  -->
<!DOCTYPE svg PUBLIC "-//W3C//DTD SVG 1.0//EN" "http://www.w3.org/TR/2001/REC-SVG-20010904/DTD/svg10.dtd">
<svg version="1.0" id="Layer_1" xmlns="http://www.w3.org/2000/svg" xmlns:xlink="http://www.w3.org/1999/xlink" x="0px" y="0px"
	 width="16px" height="16px" viewBox="0 0 16 16" enable-background="new 0 0 16 16" xml:space="preserve">
<g>
	<path fill="#a2c7e0" d="M8,1.179L14.113,5L8,8.82L1.887,5L8,1.179 M8,0L0,5l8,5l8-5L8,0L8,0z"/>
	<polygon fill="#a2c7e0" points="13.457,7.59 14.113,8 8,11.82 1.887,8 2.543,7.59 1.6,7 0,8 8,13 16,8 14.4,7 	"/>
	<polygon fill="#a2c7e0" points="13.457,10.59 14.113,11 8,14.82 1.887,11 2.543,10.59 1.6,10 0,11 8,16 16,11 14.4,10 	"/>
</g>
</svg>
