<?xml version="1.0" encoding="utf-8"?>
<!-- Generator: Adobe Illustrator 16.0.0, SVG Export Plug-In . SVG Version: 6.00 Build 0)  -->
<!DOCTYPE svg PUBLIC "-//W3C//DTD SVG 1.0//EN" "http://www.w3.org/TR/2001/REC-SVG-20010904/DTD/svg10.dtd">
<svg version="1.0" id="Layer_1" xmlns="http://www.w3.org/2000/svg" xmlns:xlink="http://www.w3.org/1999/xlink" x="0px" y="0px"
	 width="92px" height="92px" viewBox="0 0 92 92" enable-background="new 0 0 92 92" xml:space="preserve">
<g>
	<path fill="#FFFFFF" d="M46,3c23.71,0,43,19.29,43,43c0,23.71-19.29,43-43,43C22.29,89,3,69.71,3,46C3,22.29,22.29,3,46,3 M46,1
		C21.145,1,1,21.146,1,46c0,24.853,20.145,45,45,45c24.854,0,45-20.147,45-45C91,21.146,70.854,1,46,1L46,1z"/>
	<path fill="#FFFFFF" d="M46,22.478c12.992,0,23.522,10.529,23.522,23.522c0,12.991-10.53,23.521-23.522,23.521
		c-12.992,0-23.522-10.529-23.522-23.521C22.478,33.007,33.008,22.478,46,22.478 M46,20.478c-14.073,0-25.522,11.449-25.522,25.522
		c0,14.072,11.449,25.521,25.522,25.521S71.522,60.072,71.522,46C71.522,31.927,60.073,20.478,46,20.478L46,20.478z"/>
	<g>
		<path fill="#FFFFFF" d="M37.893,23.91L21.953,7.973c-5.634,3.567-10.415,8.347-13.983,13.98l15.942,15.94
			C26.286,31.422,31.425,26.286,37.893,23.91z"/>
		<path fill="#FFFFFF" d="M68.087,37.894l15.942-15.94c-3.567-5.634-8.35-10.414-13.982-13.982L54.106,23.91
			C60.575,26.286,65.714,31.422,68.087,37.894z"/>
		<path fill="#FFFFFF" d="M23.912,54.104L7.97,70.047c3.568,5.631,8.35,10.412,13.983,13.98l15.94-15.942
			C31.425,65.714,26.286,60.575,23.912,54.104z"/>
		<path fill="#FFFFFF" d="M84.029,70.046L68.087,54.104c-2.373,6.471-7.512,11.609-13.98,13.98l15.94,15.942
			C75.68,80.459,80.462,75.678,84.029,70.046z"/>
	</g>
</g>
<g>
	<path fill="#FFFFFF" d="M45.998,1C21.146,1,1,21.149,1,46.002C1,70.857,21.146,91,45.998,91C70.852,91,91,70.857,91,46.002
		C91,21.149,70.852,1,45.998,1z M45.998,89C22.289,89,3,69.711,3,46.002C3,22.291,22.289,3,45.998,3C69.709,3,89,22.291,89,46.002
		C89,69.711,69.709,89,45.998,89z"/>
	<path fill="#FFFFFF" d="M53.23,29.587l-0.71-0.709l-0.911,0.908c-0.107,0.1-0.226,0.212-0.342,0.328
		c-3.574,3.573-7.332,7.398-10.967,11.097c-4.781,4.867-9.727,9.898-14.43,14.541l-0.168,0.166l-5.326,15.617l15.016-4.121
		l0.188-0.187c8.384-8.353,16.751-16.726,25.121-25.101l1.532-1.546c0.111-0.118,0.213-0.226,0.296-0.309l0.709-0.709l-0.711-0.707
		C59.407,35.752,56.33,32.686,53.23,29.587z M26.941,58.482l6.178,7.482l-9.631,2.643L26.941,58.482z M59.286,40.713
		c-8.11,8.115-16.218,16.226-24.341,24.322l-7.021-8.504c4.52-4.475,9.233-9.269,13.803-13.919
		c3.574-3.637,7.268-7.396,10.785-10.915c2.635,2.632,5.257,5.245,7.906,7.882L59.286,40.713z"/>
	<path fill="#FFFFFF" d="M65.98,21.56c-2.524-0.924-4.715-0.806-6.324,0.325c-1.241,0.858-2.243,1.962-3.212,3.03
		c-0.406,0.447-0.809,0.892-1.225,1.311l-0.703,0.707l3.603,3.606c2.117,2.12,4.235,4.241,6.413,6.409l0.711,0.708l1.148-1.162
		c1.185-1.198,2.381-2.409,3.582-3.642c0.291-0.319,0.496-0.654,0.612-1.008C72.016,27.293,70.121,23.064,65.98,21.56z
		 M68.682,31.231c-0.017,0.05-0.074,0.151-0.162,0.248c-1.089,1.117-2.192,2.234-3.288,3.342c-1.927-1.921-3.812-3.809-5.697-5.696
		l-2.208-2.21c0.2-0.216,0.399-0.436,0.6-0.656c0.893-0.984,1.815-2.001,2.874-2.732c1.081-0.76,2.604-0.779,4.495-0.087
		C67.902,24.386,69.959,27.167,68.682,31.231z"/>
	
		<rect x="41.909" y="32.072" transform="matrix(-0.7081 -0.7061 0.7061 -0.7081 40.5617 109.4706)" fill="#FFFFFF" width="2" height="28.558"/>
</g>
</svg>
