<?xml version="1.0" encoding="utf-8"?>
<!-- Generator: Adobe Illustrator 16.0.0, SVG Export Plug-In . SVG Version: 6.00 Build 0)  -->
<!DOCTYPE svg PUBLIC "-//W3C//DTD SVG 1.0//EN" "http://www.w3.org/TR/2001/REC-SVG-20010904/DTD/svg10.dtd">
<svg version="1.0" id="Layer_1" xmlns="http://www.w3.org/2000/svg" xmlns:xlink="http://www.w3.org/1999/xlink" x="0px" y="0px"
	 width="64px" height="88px" viewBox="0 0 64 88" enable-background="new 0 0 64 88" xml:space="preserve">
<g>
	<g>
		<path fill="#018BE2" d="M31.84,25c0.627,0,1.183,0.088,1.672,0.266c0.486,0.178,0.898,0.418,1.235,0.72
			c0.336,0.303,0.592,0.653,0.766,1.052c0.175,0.398,0.262,0.819,0.262,1.262c0,0.401-0.041,0.755-0.122,1.061
			s-0.202,0.571-0.362,0.794c-0.159,0.224-0.356,0.415-0.591,0.572s-0.504,0.288-0.805,0.393C35.298,31.609,36,32.566,36,33.993
			c0,0.675-0.122,1.263-0.366,1.764c-0.243,0.5-0.568,0.917-0.979,1.249c-0.41,0.332-0.883,0.58-1.422,0.747
			C32.692,37.917,32.13,38,31.544,38c-0.604,0-1.142-0.065-1.61-0.197c-0.471-0.13-0.888-0.334-1.253-0.611
			c-0.366-0.277-0.687-0.63-0.963-1.061c-0.275-0.431-0.515-0.942-0.718-1.537l1.201-0.489c0.104-0.046,0.207-0.079,0.309-0.096
			c0.102-0.017,0.202-0.026,0.301-0.026c0.186,0,0.352,0.036,0.501,0.109c0.147,0.072,0.26,0.178,0.335,0.318
			c0.261,0.483,0.537,0.834,0.831,1.052c0.293,0.218,0.637,0.328,1.031,0.328c0.302,0,0.563-0.051,0.788-0.153
			c0.223-0.102,0.408-0.232,0.558-0.393c0.146-0.16,0.259-0.342,0.335-0.546c0.074-0.204,0.111-0.411,0.111-0.62
			c0-0.273-0.019-0.52-0.056-0.738c-0.038-0.218-0.144-0.406-0.317-0.562c-0.174-0.157-0.437-0.278-0.788-0.362
			c-0.352-0.084-0.839-0.127-1.466-0.127v-1.868c0.527,0,0.954-0.041,1.279-0.123s0.576-0.193,0.752-0.336
			c0.178-0.143,0.295-0.316,0.353-0.52c0.059-0.204,0.087-0.428,0.087-0.672c0-0.5-0.12-0.886-0.36-1.157
			c-0.241-0.271-0.608-0.406-1.102-0.406c-0.203,0-0.389,0.029-0.558,0.087c-0.167,0.058-0.319,0.137-0.451,0.236
			c-0.134,0.099-0.249,0.215-0.344,0.349c-0.096,0.134-0.174,0.279-0.231,0.437c-0.092,0.262-0.211,0.451-0.353,0.568
			c-0.143,0.116-0.334,0.175-0.579,0.175c-0.059,0-0.12-0.003-0.187-0.009c-0.067-0.005-0.135-0.014-0.205-0.026l-1.427-0.253
			c0.093-0.634,0.271-1.187,0.534-1.659c0.265-0.472,0.592-0.865,0.984-1.179c0.392-0.314,0.84-0.548,1.345-0.703
			C30.716,25.077,31.26,25,31.84,25z"/>
	</g>
	<path fill="#018BE2" d="M54.625,54.629C60.418,48.836,64,40.836,64,32s-3.582-16.836-9.375-22.629C48.836,3.582,40.836,0,32,0
		S15.164,3.582,9.375,9.371C3.582,15.164,0,23.164,0,32s3.582,16.836,9.375,22.629C9.375,54.629,27,72,32,88
		C37,72,54.625,54.629,54.625,54.629z M32,48c-8.836,0-16-7.164-16-16s7.164-16,16-16s16,7.164,16,16S40.836,48,32,48z"/>
</g>
</svg>
