<?xml version="1.0" encoding="utf-8"?>
<!-- Generator: Adobe Illustrator 16.0.0, SVG Export Plug-In . SVG Version: 6.00 Build 0)  -->
<!DOCTYPE svg PUBLIC "-//W3C//DTD SVG 1.0//EN" "http://www.w3.org/TR/2001/REC-SVG-20010904/DTD/svg10.dtd">
<svg version="1.0" id="Layer_1" xmlns="http://www.w3.org/2000/svg" xmlns:xlink="http://www.w3.org/1999/xlink" x="0px" y="0px"
	 width="36px" height="26px" viewBox="0 0 36 26" enable-background="new 0 0 36 26" xml:space="preserve">
<path fill="#FF3366" d="M34,2v22H2V2H34 M36,0H0v26h36V0L36,0z"/>
<path fill="#FF3366" d="M10.828,8.171C10.104,7.448,9.104,7,8,7S5.896,7.448,5.172,8.171C4.448,8.896,4,9.896,4,11
	s0.448,2.104,1.172,2.828L8,18l2.828-4.172C11.552,13.104,12,12.104,12,11S11.552,8.896,10.828,8.171z M8,13c-1.104,0-2-0.896-2-2
	s0.896-2,2-2s2,0.896,2,2S9.104,13,8,13z"/>
<path fill="#FF3366" d="M20.828,8.171C20.104,7.448,19.104,7,18,7s-2.104,0.448-2.828,1.171C14.448,8.896,14,9.896,14,11
	s0.448,2.104,1.172,2.828L18,18l2.828-4.172C21.553,13.104,22,12.104,22,11S21.553,8.896,20.828,8.171z M18,13c-1.104,0-2-0.896-2-2
	s0.896-2,2-2s2,0.896,2,2S19.104,13,18,13z"/>
<path fill="#FF3366" d="M30.828,8.171C30.104,7.448,29.104,7,28,7s-2.104,0.448-2.828,1.171C24.447,8.896,24,9.896,24,11
	s0.447,2.104,1.172,2.828L28,18l2.828-4.172C31.553,13.104,32,12.104,32,11S31.553,8.896,30.828,8.171z M28,13c-1.104,0-2-0.896-2-2
	s0.896-2,2-2s2,0.896,2,2S29.104,13,28,13z"/>
<rect x="6" y="20" fill="#FF3366" width="4" height="1"/>
<rect x="16" y="20" fill="#FF3366" width="4" height="1"/>
<rect x="26" y="20" fill="#FF3366" width="4" height="1"/>
</svg>
