<?xml version="1.0" encoding="utf-8"?>
<!-- Generator: Adobe Illustrator 16.0.0, SVG Export Plug-In . SVG Version: 6.00 Build 0)  -->
<!DOCTYPE svg PUBLIC "-//W3C//DTD SVG 1.0//EN" "http://www.w3.org/TR/2001/REC-SVG-20010904/DTD/svg10.dtd">
<svg version="1.0" id="Layer_1" xmlns="http://www.w3.org/2000/svg" xmlns:xlink="http://www.w3.org/1999/xlink" x="0px" y="0px"
	 width="90px" height="124px" viewBox="0 0 90 124" enable-background="new 0 0 90 124" xml:space="preserve">
<g>
	<path fill="#E1E1E1" d="M59.041,0H2.44C1.095,0,0,1.094,0,2.438v119.123C0,122.904,1.095,124,2.44,124h85.118
		c1.347,0,2.441-1.096,2.441-2.439v-90.84L59.041,0z M59.67,3.441l27.181,26.971H60.109c-0.242,0-0.439-0.197-0.439-0.439V3.441z
		 M87.559,122H2.44C2.197,122,2,121.803,2,121.561V2.438C2,2.195,2.197,2,2.44,2H57.67v27.973c0,1.344,1.095,2.439,2.439,2.439H88
		v89.148C88,121.803,87.802,122,87.559,122z"/>
</g>
<rect x="25" y="42" fill="#E1E1E1" width="40" height="3"/>
<rect x="25" y="48" fill="#E1E1E1" width="40" height="3"/>
<rect x="25" y="54" fill="#E1E1E1" width="40" height="3"/>
<rect x="25" y="60" fill="#E1E1E1" width="40" height="3"/>
<rect x="25" y="66" fill="#E1E1E1" width="40" height="3"/>
<rect x="25" y="72" fill="#E1E1E1" width="40" height="3"/>
<rect x="25" y="78" fill="#E1E1E1" width="40" height="3"/>
<rect x="25" y="84" fill="#E1E1E1" width="20" height="3"/>
</svg>
