<?xml version="1.0" encoding="utf-8"?>
<!-- Generator: Adobe Illustrator 16.0.0, SVG Export Plug-In . SVG Version: 6.00 Build 0)  -->
<!DOCTYPE svg PUBLIC "-//W3C//DTD SVG 1.0//EN" "http://www.w3.org/TR/2001/REC-SVG-20010904/DTD/svg10.dtd">
<svg version="1.0" id="Layer_1" xmlns="http://www.w3.org/2000/svg" xmlns:xlink="http://www.w3.org/1999/xlink" x="0px" y="0px"
	 width="34px" height="34px" viewBox="0.395 295.5 34 34" enable-background="new 0.395 295.5 34 34" xml:space="preserve">
<path fill="#2B3033" d="M27.403,311.115c-0.625-5.512-5.838-9.453-11.349-8.58c-6.83,1.084-10.447,8.449-7.135,14.518
	c0.086,0.158,0.111,0.404,0.059,0.576c-0.252,0.814-0.541,1.619-0.814,2.43c-0.277,0.818-0.551,1.641-0.852,2.527
	c0.197-0.057,0.322-0.09,0.445-0.129c1.557-0.492,3.111-0.996,4.674-1.469c0.203-0.062,0.479-0.043,0.67,0.049
	c1.318,0.629,2.695,0.982,4.158,1.037C23.284,322.297,28.085,317.117,27.403,311.115z M23.39,315.5h-12v-1h12V315.5z M23.39,312.5
	h-12v-1h12V312.5z M23.39,309.5h-12v-1h12V309.5z"/>
</svg>
