<?xml version="1.0" encoding="utf-8"?>
<!-- Generator: Adobe Illustrator 16.0.0, SVG Export Plug-In . SVG Version: 6.00 Build 0)  -->
<!DOCTYPE svg PUBLIC "-//W3C//DTD SVG 1.0//EN" "http://www.w3.org/TR/2001/REC-SVG-20010904/DTD/svg10.dtd">
<svg version="1.0" id="Layer_1" xmlns="http://www.w3.org/2000/svg" xmlns:xlink="http://www.w3.org/1999/xlink" x="0px" y="0px"
	 width="15px" height="15px" viewBox="0 0 15 15" enable-background="new 0 0 15 15" xml:space="preserve">
<path fill-rule="evenodd" clip-rule="evenodd" fill="#0179C2" d="M4.282,14.273C1.756,13.062,0,10.473,0,7.489
	C0.001,3.366,3.379-0.009,7.498,0C11.624,0.009,15.001,3.381,15,7.49c-0.001,4.119-3.364,7.492-7.487,7.51
	C6.359,15.004,5.263,14.742,4.282,14.273 M7.016,5.423c-0.827,0-1.618,0.008-2.409-0.005C4.375,5.416,4.313,5.496,4.28,5.716
	C4.105,6.903,4.12,8.088,4.273,9.275c0.028,0.221,0.114,0.271,0.318,0.271c0.733-0.01,1.467-0.004,2.202-0.007
	c0.072,0,0.145-0.019,0.222-0.03C7.016,8.145,7.016,6.801,7.016,5.423z M7.996,5.423c0,1.394,0,2.747,0,4.118
	c0.854,0,1.679,0.006,2.503-0.008c0.071,0,0.194-0.111,0.204-0.184c0.188-1.232,0.202-2.468-0.003-3.699
	c-0.015-0.086-0.159-0.214-0.242-0.217C9.646,5.417,8.83,5.423,7.996,5.423z M3.309,5.423c-0.606,0-1.251-0.005-1.896,0.009
	C1.34,5.435,1.224,5.538,1.201,5.615C0.817,6.852,0.826,8.094,1.179,9.334C1.201,9.413,1.291,9.529,1.353,9.53
	c0.662,0.015,1.328,0.01,1.956,0.01C3.309,8.152,3.309,6.809,3.309,5.423z M11.687,5.423c0,1.383,0,2.725,0,4.117
	c0.629,0,1.296,0.004,1.959-0.01c0.061-0.002,0.153-0.116,0.176-0.196c0.352-1.24,0.357-2.482-0.022-3.72
	c-0.022-0.077-0.14-0.179-0.212-0.182C12.942,5.418,12.298,5.423,11.687,5.423z M7.009,13.977c0-1.183,0-2.348,0-3.51
	c-0.834,0-1.641,0-2.45,0C4.899,12.263,6.076,13.811,7.009,13.977z M7.97,13.977c1.062-0.156,2.258-2.103,2.453-3.512
	c-0.808,0-1.618,0-2.436,0c-0.01,0.061-0.017,0.104-0.017,0.145C7.97,11.725,7.97,12.84,7.97,13.977z M7.013,1.025
	c-0.984,0.15-2.171,1.932-2.443,3.474c0.813,0,1.619,0,2.443,0C7.013,3.336,7.013,2.191,7.013,1.025z M10.485,4.501
	c-0.482-1.458-0.99-2.82-2.494-3.533c0,1.22,0,2.375,0,3.533C8.815,4.501,9.616,4.501,10.485,4.501z M1.627,10.459
	c0.74,1.433,1.812,2.436,3.255,3.051c-0.641-0.934-1.038-1.963-1.303-3.051C2.932,10.459,2.309,10.459,1.627,10.459z M13.379,10.447
	c-0.642,0-1.228-0.006-1.813,0.008c-0.064,0.001-0.156,0.104-0.182,0.177c-0.111,0.313-0.17,0.649-0.303,0.952
	c-0.292,0.651-0.615,1.289-0.927,1.946C11.56,12.886,12.634,11.886,13.379,10.447z M1.622,4.519c0.652,0,1.219,0.009,1.783-0.01
	C3.483,4.507,3.591,4.381,3.626,4.29c0.229-0.578,0.421-1.172,0.667-1.741c0.158-0.366,0.392-0.699,0.632-1.116
	C3.45,2.1,2.396,3.094,1.622,4.519z M13.336,4.519c-0.479-1.209-2.334-2.913-3.246-3.001c0.627,0.856,1.019,1.808,1.295,2.813
	c0.019,0.076,0.139,0.177,0.215,0.179C12.165,4.526,12.734,4.519,13.336,4.519z"/>
</svg>
