<?xml version="1.0" encoding="utf-8"?>
<!-- Generator: Adobe Illustrator 16.0.0, SVG Export Plug-In . SVG Version: 6.00 Build 0)  -->
<!DOCTYPE svg PUBLIC "-//W3C//DTD SVG 1.0//EN" "http://www.w3.org/TR/2001/REC-SVG-20010904/DTD/svg10.dtd">
<svg version="1.0" id="Layer_1" xmlns="http://www.w3.org/2000/svg" xmlns:xlink="http://www.w3.org/1999/xlink" x="0px" y="0px"
	 width="25px" height="25px" viewBox="0 0 25 25" enable-background="new 0 0 25 25" xml:space="preserve">
<g id="Search">
	<path fill="#FFFFFF" d="M22.961,20.361l-4.779-4.779c-0.025-0.025-0.056-0.043-0.081-0.066c0.939-1.427,1.488-3.134,1.488-4.971
		c0-4.995-4.049-9.044-9.044-9.044S1.501,5.55,1.501,10.545s4.049,9.044,9.044,9.044c1.837,0,3.544-0.549,4.97-1.489
		c0.024,0.026,0.042,0.057,0.067,0.082l4.778,4.779c0.719,0.718,1.883,0.718,2.601,0S23.679,21.079,22.961,20.361z M10.545,16.454
		c-3.263,0-5.909-2.646-5.909-5.909s2.646-5.909,5.909-5.909c3.264,0,5.909,2.646,5.909,5.909S13.809,16.454,10.545,16.454z"/>
</g>
</svg>
