<?xml version="1.0" encoding="utf-8"?>
<!-- Generator: Adobe Illustrator 16.0.0, SVG Export Plug-In . SVG Version: 6.00 Build 0)  -->
<!DOCTYPE svg PUBLIC "-//W3C//DTD SVG 1.0//EN" "http://www.w3.org/TR/2001/REC-SVG-20010904/DTD/svg10.dtd">
<svg version="1.0" id="Layer_1" xmlns="http://www.w3.org/2000/svg" xmlns:xlink="http://www.w3.org/1999/xlink" x="0px" y="0px"
	 width="15px" height="15px" viewBox="0 0 15 15" enable-background="new 0 0 15 15" xml:space="preserve">
<path fill="#0179C2" d="M7.5,0C3.358,0,0,3.358,0,7.5S3.358,15,7.5,15S15,11.642,15,7.5S11.642,0,7.5,0z M8.134,11.849
	c-0.053,0.123-0.126,0.229-0.218,0.319c-0.091,0.089-0.199,0.16-0.323,0.211c-0.123,0.051-0.255,0.077-0.399,0.077
	c-0.143,0-0.278-0.026-0.404-0.077c-0.124-0.051-0.231-0.122-0.32-0.211c-0.09-0.09-0.161-0.196-0.213-0.319
	c-0.051-0.124-0.077-0.256-0.077-0.4c0-0.139,0.026-0.271,0.077-0.396c0.052-0.125,0.123-0.232,0.213-0.322
	c0.089-0.09,0.196-0.162,0.32-0.215c0.126-0.054,0.261-0.081,0.404-0.081c0.144,0,0.276,0.027,0.399,0.081
	c0.124,0.053,0.232,0.125,0.323,0.215c0.092,0.09,0.165,0.197,0.218,0.322c0.054,0.125,0.082,0.257,0.082,0.396
	C8.216,11.592,8.188,11.725,8.134,11.849z M9.94,5.717C9.842,5.966,9.719,6.182,9.572,6.365C9.423,6.549,9.262,6.707,9.086,6.842
	C8.908,6.977,8.741,7.103,8.584,7.221C8.427,7.34,8.292,7.457,8.179,7.57C8.064,7.684,7.995,7.813,7.973,7.957L7.819,8.938H6.684
	L6.57,7.842c-0.027-0.21,0.003-0.395,0.09-0.554c0.087-0.159,0.203-0.305,0.349-0.437C7.154,6.72,7.317,6.593,7.496,6.469
	C7.675,6.346,7.844,6.212,8,6.065c0.158-0.145,0.288-0.308,0.393-0.49C8.498,5.395,8.55,5.178,8.55,4.928
	c0-0.161-0.03-0.306-0.09-0.433c-0.061-0.128-0.145-0.237-0.252-0.33C8.101,4.073,7.972,4.003,7.822,3.954
	C7.671,3.904,7.51,3.88,7.335,3.88c-0.255,0-0.472,0.028-0.648,0.083C6.51,4.02,6.359,4.083,6.236,4.152
	C6.113,4.222,6.01,4.284,5.925,4.34C5.84,4.396,5.764,4.424,5.697,4.424c-0.162,0-0.279-0.067-0.35-0.202L4.911,3.531
	c0.152-0.135,0.319-0.263,0.5-0.383c0.182-0.121,0.376-0.226,0.587-0.316c0.21-0.089,0.439-0.159,0.685-0.211
	c0.247-0.052,0.513-0.077,0.8-0.077c0.39,0,0.744,0.054,1.064,0.161c0.32,0.107,0.595,0.261,0.823,0.46
	c0.229,0.199,0.405,0.44,0.53,0.722c0.126,0.282,0.188,0.598,0.188,0.947C10.089,5.174,10.039,5.468,9.94,5.717z"/>
</svg>
