<?xml version="1.0" encoding="utf-8"?>
<!-- Generator: Adobe Illustrator 16.0.0, SVG Export Plug-In . SVG Version: 6.00 Build 0)  -->
<!DOCTYPE svg PUBLIC "-//W3C//DTD SVG 1.0//EN" "http://www.w3.org/TR/2001/REC-SVG-20010904/DTD/svg10.dtd">
<svg version="1.0" id="Layer_1" xmlns="http://www.w3.org/2000/svg" xmlns:xlink="http://www.w3.org/1999/xlink" x="0px" y="0px"
	 width="20px" height="20px" viewBox="0 0 20 20" enable-background="new 0 0 20 20" xml:space="preserve">
<g>
	<path fill="#2C3034" d="M17.609,7.109l0.174,0.125h0.16V6.921l0.514-0.049l0.484,0.362h0.799l0.057-0.052
		c-0.08-0.271-0.168-0.533-0.271-0.792l-0.52,0.008l-0.262-0.287L18.693,5.65l-0.27,0.146L18.281,6.36l-0.385-0.411l-0.016-0.389
		l-0.373-0.321l-0.139-0.138h-0.432l0.135,0.387l0.521,0.29l0.09,0.096l-0.111,0.057l0.004,0.306l-0.254,0.105l-0.217-0.047
		l-0.135-0.191l0.354,0.018l0.094-0.127l-0.779-0.526l-0.062-0.225L16.262,5.53l-0.322-0.067l-0.49,0.638l-0.096,0.248l-0.312,0.028
		l-0.463,0.004l-0.275-0.13l-0.084-0.55l0.1-0.263l0.473-0.104l0.512,0.104l0.064-0.284l-0.219-0.052l0.074-0.443l0.518-0.08
		l0.363-0.512l0.375-0.062l0.334,0.051h0.125l-0.07-0.48l-0.41,0.166l-0.143-0.359l-0.236-0.033l-0.045-0.246l0.193-0.211
		l0.461-0.181l0.117-0.212C15.043,0.945,12.732,0,10.204,0C8.009,0,5.979,0.712,4.327,1.916l0.507-0.004l0.223,0.124l0.423,0.091
		l0.034,0.166l0.672,0.024L6.098,2.103l-0.6-0.017L5.64,1.952l-0.05-0.158H5.048l0.591-0.44h0.565L6.469,1.72l0.442,0.025
		l0.264-0.258l0.2,0.1L7.009,1.944c0,0-0.506,0.009-0.481,0.009c0.024,0,0.041,0.35,0.041,0.35l0.615-0.018l0.068-0.166l0.422-0.025
		l0.051-0.249l-0.25-0.042l0.084-0.224L7.75,1.521l0.663,0.033L8.048,1.888l0.058,0.256l0.382,0.06L8.463,1.737l0.366-0.192
		l0.648-0.074l0.94,0.417v0.355l0.297,0.074l-0.15,0.283H10.14l-0.125,0.323L9.047,2.697L9.81,2.291L9.519,2.045L8.863,2.128
		l-0.056,0.06L8.804,2.187l-0.01,0.015l-0.19,0.195L8.292,2.423l0.023,0.155l0.11,0.046l-0.003,0.05L8.167,2.711L8.15,2.858
		L7.906,2.87L7.862,2.577L7.425,2.71L6.534,3.231L6.633,3.6l0.25,0.162L7.38,3.831v0.565l0.231-0.037l0.211-0.442l0.531-0.168V3.07
		l0.295-0.223l0.711,0.168L9.31,3.465h0.193l0.523-0.258l0.025,0.59l0.381,0.232l-0.016,0.35l-0.365,0.125l0.025,0.115l0.437,0.199
		l-0.007,0.242l-0.128,0.011c0-0.004-0.001-0.007-0.001-0.007L9.824,4.893L9.799,4.715l0,0l0.163-0.111V4.441L9.789,4.396
		L9.745,4.548L9.437,4.594l-0.03-0.009v0.016L9.3,4.615L9.213,4.441l-0.1-0.045H8.895L8.797,4.479v0.181l0.187,0.063l0.184,0.024
		l-0.042,0.02L8.958,4.952L8.885,4.859L8.722,4.817L8.278,5.233L8.336,5.28L7.684,5.643l-0.616,0.64L7.026,6.567L6.408,6.972
		L6.103,7.28l0.035,0.615L5.712,7.697l0.004-0.36L4.536,7.338l-0.61,0.309L3.662,8.136L3.557,8.524L3.728,8.9l0.481,0.059
		l0.766-0.511l0.066,0.253L4.807,9.143l0.583,0.1l0.058,0.898l0.798,0.135l0.506-0.586l0.613,0.126l0.219,0.301l0.589-0.035
		L8.19,9.906l0.324,0.158l0.366,0.572l0.63,0.009l0.234,0.408l0.031,0.498l0.698,0.266l0.883,0.009l0.256,0.424l0.391,0.125
		l-0.076,0.351l-0.426,0.542l-0.125,1.204l-0.386,0.306l-0.572-0.016l-0.192,0.332l0.143,0.622l-0.624,0.798l-0.199,0.367
		l-0.595,0.285l-0.392,0.059l-0.015,0.166l0.275,0.079l-0.034,0.178L8.54,17.884l0.15,0.189l0.294,0.008l-0.016,0.228l-0.08,0.226
		l-0.024,0.183L9.3,19.085l-0.057,0.191l-0.596-0.012l-0.592-0.517l-0.461-0.812l0.064-0.781L7.31,16.689l0.141-0.79l-0.208-0.058
		V14.13c0,0-0.581-0.441-0.614-0.441c-0.034,0-0.308-0.074-0.308-0.074L6.262,13.29l-0.755-0.947l0.074-0.341l0.024-0.556
		l0.523-0.367l-0.074-0.623L5.29,10.398L4.693,9.717L4.268,9.6L3.994,9.549L4.027,9.3L3.679,9.251v0.141L2.806,9.175L2.454,8.636
		l0.144-0.259L2.043,7.57L1.948,6.98H1.725L1.8,7.553l0.382,0.59L2.14,8.376L1.816,8.325L1.417,7.646V6.855l-0.414-0.2V6.087
		c-0.515,1.202-0.8,2.525-0.8,3.913c0,5.515,4.486,10,10,10c3.126,0,5.921-1.442,7.753-3.695h-0.328V15.64l-0.381-0.515v-0.8
		l-0.293-0.289l-0.025-0.333l0.371-0.707l-0.699-1.238l0.082-0.841l-0.633-0.064l-0.232-0.232h-0.424l-0.217,0.198H14.43
		l-0.025,0.067H13.99l-0.955-1.089l0.006-0.848l0.158-0.058l0.059-0.325h-0.223l-0.092-0.341l1.104-0.796V6.863l0.541-0.3
		l0.221,0.021h0.443L15.6,6.397l1.121-0.086v0.573L17.609,7.109z M14.805,3.543l0.09-0.141l0.328-0.066l0.084,0.399l0.176,0.282
		l0.115,0.134l0.211,0.082l-0.199,0.237l-0.387,0.037h-0.289l0.031-0.345l0.242-0.05l-0.021-0.162L14.961,3.81l-0.158-0.107
		L14.805,3.543L14.805,3.543z M14.266,4.166l0.199-0.318l0.27-0.062l0.191,0.082l-0.018,0.216l-0.412,0.291h-0.23V4.166
		L14.266,4.166z M8.831,5.396L8.622,5.414L8.634,5.27l0.093-0.115l0.125,0.097L8.831,5.396z M9.563,5.142L9.419,5.154L9.391,5.291
		L9.282,5.358L9.105,5.374c-0.004-0.042-0.01-0.072-0.01-0.072H9.028V5.154h0.286l0.061-0.153l0.111-0.002L9.62,5.025L9.563,5.142z"
		/>
</g>
</svg>
