<?xml version="1.0" encoding="utf-8"?>
<!-- Generator: Adobe Illustrator 16.0.0, SVG Export Plug-In . SVG Version: 6.00 Build 0)  -->
<!DOCTYPE svg PUBLIC "-//W3C//DTD SVG 1.0//EN" "http://www.w3.org/TR/2001/REC-SVG-20010904/DTD/svg10.dtd">
<svg version="1.0" id="Layer_1" xmlns="http://www.w3.org/2000/svg" xmlns:xlink="http://www.w3.org/1999/xlink" x="0px" y="0px"
	 width="15px" height="15px" viewBox="0 0 15 15" enable-background="new 0 0 15 15" xml:space="preserve">
<g>
	<g>
		<path fill="#FFFFFF" d="M14.163,6.328v0.002c-0.88,0-1.604-0.706-1.604-1.588c0-0.443,0.18-0.844,0.475-1.137l0.588-0.587
			l-1.637-1.639l-0.593,0.591c-0.289,0.288-0.69,0.47-1.134,0.47c-0.881,0-1.587-0.72-1.587-1.603V0H6.328v0.837
			c0,0.883-0.701,1.603-1.588,1.603c-0.441,0-0.843-0.182-1.135-0.47l0,0V1.967L3.019,1.378L1.378,3.018l0.592,0.587
			c0.292,0.293,0.47,0.694,0.47,1.137c0,0.883-0.714,1.588-1.604,1.588L0,6.328v2.344h0.837c0.889,0,1.604,0.708,1.604,1.592
			c0,0.443-0.178,0.847-0.47,1.137l-0.592,0.586l1.641,1.641l0.586-0.593c0.292-0.289,0.694-0.469,1.135-0.469
			c0.888,0,1.588,0.719,1.588,1.604V15h2.344v-0.83c0-0.886,0.706-1.604,1.587-1.604c0.443,0,0.845,0.18,1.134,0.469l0.593,0.593
			l1.637-1.641l-0.588-0.59l-0.002,0.001c-0.293-0.289-0.473-0.69-0.473-1.134c0-0.884,0.724-1.592,1.604-1.592H15V6.328H14.163z
			 M7.5,9.844c-1.295,0-2.344-1.05-2.344-2.344S6.205,5.156,7.5,5.156S9.844,6.206,9.844,7.5S8.795,9.844,7.5,9.844z"/>
	</g>
</g>
</svg>
