<?xml version="1.0" encoding="utf-8"?>
<!-- Generator: Adobe Illustrator 16.0.0, SVG Export Plug-In . SVG Version: 6.00 Build 0)  -->
<!DOCTYPE svg PUBLIC "-//W3C//DTD SVG 1.0//EN" "http://www.w3.org/TR/2001/REC-SVG-20010904/DTD/svg10.dtd">
<svg version="1.0" id="Layer_1" xmlns="http://www.w3.org/2000/svg" xmlns:xlink="http://www.w3.org/1999/xlink" x="0px" y="0px"
	 width="20px" height="20px" viewBox="0 0 20 20" enable-background="new 0 0 20 20" xml:space="preserve">
<g>
	<path fill="#2C3034" d="M18.787,8.787C18.787,3.941,14.846,0,10,0C5.154,0,1.213,3.941,1.213,8.787c0,4.338,3.163,7.942,7.302,8.65
		L10,20l1.484-2.563C15.624,16.729,18.787,13.125,18.787,8.787z M10,16.252c-4.117,0-7.465-3.349-7.465-7.465
		C2.534,4.669,5.883,1.32,10,1.32c4.118,0,7.466,3.349,7.466,7.466C17.466,12.903,14.117,16.252,10,16.252z"/>
	<g>
		<path fill="#2C3034" d="M11.691,13.255c-0.42,0.165-0.751,0.29-1.001,0.376c-0.249,0.087-0.539,0.129-0.868,0.129
			c-0.506,0-0.9-0.124-1.182-0.369c-0.28-0.247-0.418-0.56-0.418-0.941c0-0.147,0.009-0.299,0.03-0.453s0.053-0.326,0.1-0.521
			l0.525-1.85c0.046-0.177,0.084-0.346,0.118-0.503C9.025,8.964,9.041,8.82,9.041,8.687c0-0.235-0.049-0.4-0.147-0.493
			C8.797,8.101,8.612,8.055,8.335,8.055c-0.135,0-0.273,0.02-0.417,0.061C7.78,8.16,7.657,8.201,7.556,8.238l0.137-0.569
			C8.037,7.529,8.365,7.41,8.677,7.31C8.99,7.211,9.285,7.159,9.565,7.159c0.5,0,0.892,0.124,1.164,0.365
			c0.271,0.244,0.408,0.56,0.408,0.947c0,0.082-0.01,0.223-0.027,0.424c-0.018,0.203-0.053,0.388-0.105,0.559l-0.521,1.842
			c-0.042,0.149-0.079,0.318-0.114,0.508s-0.052,0.333-0.052,0.431c0,0.244,0.056,0.411,0.165,0.501
			c0.11,0.089,0.299,0.133,0.57,0.133c0.125,0,0.27-0.021,0.43-0.066c0.16-0.043,0.275-0.082,0.348-0.117L11.691,13.255z"/>
	</g>
	<g>
		<path fill="#2C3034" d="M11.6,5.77c-0.243,0.228-0.535,0.338-0.878,0.338c-0.342,0-0.634-0.11-0.879-0.338
			C9.597,5.545,9.473,5.271,9.473,4.95c0-0.321,0.125-0.596,0.369-0.822c0.245-0.229,0.537-0.342,0.879-0.342
			c0.343,0,0.635,0.113,0.878,0.342c0.24,0.227,0.363,0.501,0.363,0.822C11.963,5.271,11.84,5.545,11.6,5.77z"/>
	</g>
</g>
</svg>
