<?xml version="1.0" encoding="utf-8"?>
<!-- Generator: Adobe Illustrator 16.0.0, SVG Export Plug-In . SVG Version: 6.00 Build 0)  -->
<!DOCTYPE svg PUBLIC "-//W3C//DTD SVG 1.0//EN" "http://www.w3.org/TR/2001/REC-SVG-20010904/DTD/svg10.dtd">
<svg version="1.0" id="Layer_1" xmlns="http://www.w3.org/2000/svg" xmlns:xlink="http://www.w3.org/1999/xlink" x="0px" y="0px"
	 width="25px" height="25px" viewBox="0 0 25 25" enable-background="new 0 0 25 25" xml:space="preserve">
<g>
	<path fill="#2C3034" d="M24.152,11.426c-0.567-0.567-1.245-0.85-2.036-0.85h-0.962V6.73c0-0.4-0.101-0.842-0.301-1.322
		c-0.2-0.481-0.44-0.862-0.721-1.142l-2.284-2.284c-0.279-0.281-0.661-0.521-1.143-0.721c-0.48-0.2-0.921-0.301-1.321-0.301H5.289
		c-0.4,0-0.742,0.141-1.022,0.421c-0.28,0.28-0.42,0.621-0.42,1.021v8.172h-0.96c-0.793,0-1.47,0.284-2.038,0.85
		C0.283,11.991,0,12.671,0,13.462v6.25c0,0.13,0.048,0.243,0.143,0.338c0.095,0.095,0.208,0.143,0.338,0.143h3.365v2.403
		c0,0.4,0.141,0.742,0.42,1.022c0.281,0.279,0.622,0.421,1.022,0.421h14.423c0.399,0,0.741-0.142,1.022-0.421
		c0.279-0.28,0.42-0.622,0.42-1.022v-2.403h3.365c0.13,0,0.242-0.048,0.337-0.143C24.952,19.955,25,19.842,25,19.712v-6.25
		C25,12.671,24.718,11.991,24.152,11.426z M19.23,22.115H5.77V18.27H19.23V22.115z M19.23,12.5H5.77V2.885h9.615v2.404
		c0,0.4,0.141,0.741,0.42,1.021c0.281,0.281,0.621,0.42,1.022,0.42h2.403V12.5L19.23,12.5z M22.792,14.138
		c-0.19,0.189-0.416,0.285-0.676,0.285c-0.261,0-0.486-0.095-0.678-0.285c-0.188-0.19-0.284-0.416-0.284-0.676
		c0-0.261,0.096-0.486,0.284-0.677c0.191-0.189,0.417-0.285,0.678-0.285c0.26,0,0.485,0.096,0.676,0.285
		c0.189,0.19,0.285,0.416,0.285,0.677C23.077,13.722,22.982,13.947,22.792,14.138z"/>
</g>
</svg>
