<?xml version="1.0" encoding="utf-8"?>
<!-- Generator: Adobe Illustrator 16.0.0, SVG Export Plug-In . SVG Version: 6.00 Build 0)  -->
<!DOCTYPE svg PUBLIC "-//W3C//DTD SVG 1.0//EN" "http://www.w3.org/TR/2001/REC-SVG-20010904/DTD/svg10.dtd">
<svg version="1.0" id="Layer_1" xmlns="http://www.w3.org/2000/svg" xmlns:xlink="http://www.w3.org/1999/xlink" x="0px" y="0px"
	 width="25px" height="25px" viewBox="0 0 25 25" enable-background="new 0 0 25 25" xml:space="preserve">
<g>
	<path fill="#FFFFFF" d="M12.5,1.851C6.619,1.851,1.85,6.619,1.85,12.5S6.619,23.149,12.5,23.149c5.881,0,10.65-4.769,10.65-10.649
		S18.381,1.851,12.5,1.851z M14.717,18.356c-0.549,0.215-0.984,0.379-1.312,0.493c-0.326,0.114-0.705,0.169-1.137,0.169
		c-0.664,0-1.18-0.162-1.549-0.484c-0.366-0.324-0.549-0.733-0.549-1.233c0-0.194,0.012-0.392,0.039-0.595
		c0.027-0.201,0.07-0.427,0.132-0.683l0.689-2.425c0.059-0.232,0.109-0.452,0.152-0.658c0.041-0.207,0.062-0.396,0.062-0.57
		c0-0.309-0.064-0.525-0.193-0.646c-0.127-0.121-0.37-0.181-0.733-0.181c-0.176,0-0.358,0.024-0.546,0.079
		c-0.183,0.058-0.343,0.11-0.476,0.16l0.181-0.747c0.45-0.183,0.88-0.34,1.289-0.471c0.412-0.13,0.796-0.196,1.164-0.196
		c0.656,0,1.168,0.162,1.525,0.478c0.355,0.32,0.535,0.733,0.535,1.241c0,0.107-0.012,0.292-0.037,0.557
		c-0.023,0.266-0.068,0.508-0.137,0.731l-0.682,2.415c-0.057,0.194-0.105,0.416-0.15,0.665c-0.045,0.247-0.068,0.437-0.068,0.564
		c0,0.319,0.072,0.539,0.217,0.655c0.145,0.117,0.391,0.176,0.748,0.176c0.164,0,0.352-0.029,0.561-0.089
		c0.211-0.057,0.361-0.107,0.457-0.153L14.717,18.356z M14.596,8.548c-0.318,0.297-0.701,0.442-1.15,0.442
		c-0.447,0-0.832-0.146-1.152-0.442c-0.32-0.295-0.482-0.654-0.482-1.074c0-0.421,0.164-0.781,0.482-1.078
		c0.32-0.3,0.705-0.448,1.152-0.448c0.449,0,0.832,0.148,1.15,0.448c0.316,0.297,0.477,0.657,0.477,1.078
		C15.072,7.894,14.912,8.253,14.596,8.548z"/>
</g>
</svg>
