<?xml version="1.0" encoding="utf-8"?>
<!-- Generator: Adobe Illustrator 16.0.0, SVG Export Plug-In . SVG Version: 6.00 Build 0)  -->
<!DOCTYPE svg PUBLIC "-//W3C//DTD SVG 1.0//EN" "http://www.w3.org/TR/2001/REC-SVG-20010904/DTD/svg10.dtd">
<svg version="1.0" id="Layer_1" xmlns="http://www.w3.org/2000/svg" xmlns:xlink="http://www.w3.org/1999/xlink" x="0px" y="0px"
	 width="15px" height="15px" viewBox="0 0 15 15" enable-background="new 0 0 15 15" xml:space="preserve">
<g>
	<g>
		<path fill="#999999" d="M5.836,11.673c-1.559,0-3.024-0.607-4.126-1.71C0.606,8.861,0,7.396,0,5.837
			c0-1.56,0.607-3.025,1.71-4.128C2.812,0.606,4.277,0,5.835,0c1.56,0,3.025,0.607,4.128,1.709c2.275,2.276,2.275,5.979,0,8.253
			C8.86,11.066,7.395,11.673,5.836,11.673z M5.835,1.155c-1.25,0-2.425,0.486-3.309,1.37C1.642,3.41,1.154,4.586,1.154,5.837
			c0,1.25,0.487,2.425,1.372,3.309c0.885,0.885,2.06,1.372,3.31,1.372c1.25,0,2.426-0.487,3.311-1.372
			c1.825-1.825,1.825-4.794,0-6.62C8.262,1.642,7.086,1.155,5.835,1.155z"/>
	</g>
	<g>
		<path fill="#999999" d="M14.422,15c-0.147,0-0.295-0.057-0.408-0.169L9.146,9.963c-0.226-0.226-0.226-0.591,0-0.817
			s0.591-0.226,0.817,0l4.867,4.868c0.226,0.226,0.226,0.591,0,0.816C14.718,14.943,14.57,15,14.422,15z"/>
	</g>
</g>
</svg>
