<?xml version="1.0" encoding="utf-8"?>
<!-- Generator: Adobe Illustrator 16.0.0, SVG Export Plug-In . SVG Version: 6.00 Build 0)  -->
<!DOCTYPE svg PUBLIC "-//W3C//DTD SVG 1.1//EN" "http://www.w3.org/Graphics/SVG/1.1/DTD/svg11.dtd">
<svg version="1.1" id="Layer_1" xmlns="http://www.w3.org/2000/svg" xmlns:xlink="http://www.w3.org/1999/xlink" x="0px" y="0px"
	 width="181px" height="41.312px" viewBox="0 0 181 41.312" enable-background="new 0 0 181 41.312" xml:space="preserve">
<g>
	<g enable-background="new    ">
		<path fill="#4D4D4D" d="M103.661,8.936l2.448-4.739c0.049-0.098,0.115-0.186,0.2-0.267s0.196-0.121,0.333-0.121h0.461
			c0.089,0,0.166,0.032,0.23,0.097s0.097,0.142,0.097,0.23v7.83c0,0.089-0.032,0.166-0.097,0.23s-0.142,0.097-0.23,0.097h-0.497
			c-0.089,0-0.165-0.032-0.229-0.097c-0.065-0.064-0.098-0.142-0.098-0.23V6.221l-1.891,3.648c-0.064,0.121-0.133,0.216-0.206,0.284
			c-0.073,0.069-0.17,0.104-0.291,0.104h-0.461c-0.121,0-0.218-0.034-0.29-0.104c-0.073-0.068-0.143-0.163-0.207-0.284l-1.891-3.648
			v5.745c0,0.089-0.032,0.166-0.097,0.23c-0.065,0.064-0.142,0.097-0.23,0.097h-0.497c-0.089,0-0.166-0.032-0.23-0.097
			s-0.097-0.142-0.097-0.23v-7.83c0-0.089,0.032-0.166,0.097-0.23s0.142-0.097,0.23-0.097h0.461c0.137,0,0.248,0.04,0.333,0.121
			s0.151,0.169,0.2,0.267L103.661,8.936z"/>
		<path fill="#4D4D4D" d="M109.092,8.535c0.031-0.371,0.121-0.719,0.266-1.042c0.146-0.323,0.336-0.606,0.57-0.849
			s0.516-0.433,0.842-0.569c0.328-0.138,0.693-0.206,1.098-0.206c0.436,0,0.826,0.07,1.17,0.212
			c0.343,0.142,0.637,0.346,0.879,0.612s0.428,0.59,0.557,0.97s0.194,0.804,0.194,1.272v0.327c0,0.089-0.032,0.166-0.097,0.23
			s-0.142,0.097-0.23,0.097h-4.17v0.073c0.016,0.549,0.184,0.972,0.504,1.267c0.318,0.295,0.717,0.442,1.193,0.442
			c0.444,0,0.777-0.062,1-0.188c0.223-0.125,0.402-0.265,0.539-0.418c0.064-0.064,0.121-0.109,0.17-0.133
			c0.049-0.024,0.121-0.037,0.219-0.037h0.363c0.088,0,0.17,0.032,0.242,0.098c0.072,0.064,0.102,0.141,0.085,0.229
			c-0.024,0.146-0.093,0.306-0.206,0.479s-0.277,0.335-0.491,0.484s-0.48,0.275-0.8,0.376s-0.693,0.151-1.121,0.151
			c-0.404,0-0.768-0.07-1.091-0.212s-0.604-0.335-0.843-0.582c-0.238-0.246-0.43-0.537-0.576-0.873
			c-0.145-0.335-0.234-0.7-0.266-1.097C109.051,9.28,109.051,8.907,109.092,8.535z M110.17,8.573h3.406V8.535
			c0-0.492-0.156-0.887-0.467-1.182s-0.725-0.442-1.242-0.442c-0.234,0-0.453,0.038-0.654,0.115
			c-0.203,0.077-0.381,0.186-0.533,0.327c-0.154,0.142-0.275,0.313-0.364,0.516s-0.138,0.424-0.146,0.666V8.573z"/>
		<path fill="#4D4D4D" d="M118.582,5.869c0.501,0,0.9,0.087,1.2,0.26c0.299,0.175,0.524,0.362,0.679,0.564V4.015
			c0-0.089,0.032-0.166,0.098-0.23c0.064-0.064,0.141-0.098,0.229-0.098h0.448c0.09,0,0.166,0.033,0.23,0.098
			s0.098,0.142,0.098,0.23v7.951c0,0.089-0.033,0.166-0.098,0.23s-0.141,0.097-0.23,0.097h-0.448c-0.089,0-0.165-0.032-0.229-0.097
			c-0.065-0.064-0.098-0.142-0.098-0.23V11.59c-0.162,0.219-0.393,0.41-0.691,0.576c-0.299,0.165-0.694,0.248-1.188,0.248
			c-0.38,0-0.733-0.066-1.061-0.2c-0.327-0.133-0.611-0.325-0.854-0.575c-0.242-0.251-0.437-0.554-0.581-0.909
			c-0.146-0.355-0.23-0.756-0.256-1.2c-0.008-0.121-0.012-0.252-0.012-0.394s0.004-0.273,0.012-0.395
			c0.025-0.444,0.109-0.844,0.256-1.2c0.145-0.355,0.339-0.656,0.581-0.902c0.243-0.247,0.527-0.437,0.854-0.57
			C117.849,5.936,118.202,5.869,118.582,5.869z M120.461,9.663c0.008-0.122,0.012-0.281,0.012-0.479
			c0-0.197-0.004-0.357-0.012-0.479c-0.024-0.573-0.195-1.016-0.516-1.327c-0.318-0.312-0.732-0.467-1.242-0.467
			c-0.533,0-0.953,0.17-1.26,0.509c-0.308,0.34-0.478,0.801-0.51,1.382c-0.008,0.227-0.008,0.453,0,0.679
			c0.032,0.582,0.202,1.043,0.51,1.382c0.307,0.34,0.727,0.51,1.26,0.51c0.501,0,0.913-0.153,1.236-0.461
			C120.263,10.605,120.437,10.189,120.461,9.663z"/>
		<path fill="#4D4D4D" d="M124.605,4.705c0,0.089-0.031,0.166-0.097,0.23c-0.064,0.064-0.142,0.097-0.229,0.097h-0.691
			c-0.089,0-0.166-0.032-0.23-0.097s-0.097-0.142-0.097-0.23v-0.69c0-0.089,0.032-0.166,0.097-0.23s0.142-0.098,0.23-0.098h0.691
			c0.088,0,0.165,0.033,0.229,0.098c0.065,0.064,0.097,0.142,0.097,0.23V4.705z M124.484,11.966c0,0.089-0.032,0.166-0.097,0.23
			s-0.142,0.097-0.229,0.097h-0.449c-0.089,0-0.166-0.032-0.23-0.097s-0.097-0.142-0.097-0.23V6.318c0-0.089,0.032-0.166,0.097-0.23
			s0.142-0.097,0.23-0.097h0.449c0.088,0,0.165,0.032,0.229,0.097s0.097,0.142,0.097,0.23V11.966z"/>
		<path fill="#4D4D4D" d="M127.951,10.172c0,0.153,0.015,0.297,0.043,0.431c0.028,0.133,0.078,0.248,0.151,0.345
			c0.073,0.098,0.176,0.172,0.31,0.225c0.133,0.053,0.305,0.079,0.515,0.079h0.643c0.089,0,0.165,0.032,0.229,0.097
			c0.065,0.064,0.098,0.142,0.098,0.23v0.388c0,0.089-0.032,0.166-0.098,0.23c-0.064,0.064-0.141,0.097-0.229,0.097h-0.764
			c-0.703,0-1.212-0.182-1.527-0.546c-0.315-0.363-0.473-0.889-0.473-1.575v-3.14h-0.897c-0.088,0-0.165-0.032-0.23-0.097
			c-0.064-0.064-0.096-0.142-0.096-0.23V6.318c0-0.089,0.031-0.166,0.096-0.23c0.065-0.064,0.143-0.097,0.23-0.097h0.897V4.015
			c0-0.089,0.032-0.166,0.097-0.23s0.142-0.098,0.23-0.098h0.449c0.088,0,0.165,0.033,0.229,0.098
			c0.065,0.064,0.097,0.142,0.097,0.23V5.99h1.54c0.089,0,0.165,0.032,0.229,0.097s0.098,0.142,0.098,0.23v0.388
			c0,0.089-0.033,0.166-0.098,0.23s-0.141,0.097-0.229,0.097h-1.54V10.172z"/>
		<path fill="#4D4D4D" d="M130.86,8.535c0.032-0.371,0.121-0.719,0.267-1.042s0.336-0.606,0.57-0.849s0.515-0.433,0.842-0.569
			c0.327-0.138,0.693-0.206,1.098-0.206c0.436,0,0.826,0.07,1.169,0.212s0.637,0.346,0.879,0.612s0.429,0.59,0.558,0.97
			s0.193,0.804,0.193,1.272v0.327c0,0.089-0.031,0.166-0.097,0.23c-0.064,0.064-0.142,0.097-0.229,0.097h-4.17v0.073
			c0.016,0.549,0.184,0.972,0.503,1.267s0.717,0.442,1.194,0.442c0.443,0,0.777-0.062,1-0.188c0.222-0.125,0.401-0.265,0.539-0.418
			c0.064-0.064,0.121-0.109,0.17-0.133c0.048-0.024,0.121-0.037,0.218-0.037h0.363c0.089,0,0.17,0.032,0.243,0.098
			c0.072,0.064,0.101,0.141,0.084,0.229c-0.023,0.146-0.093,0.306-0.205,0.479c-0.113,0.174-0.277,0.335-0.492,0.484
			c-0.213,0.149-0.48,0.275-0.799,0.376c-0.32,0.101-0.693,0.151-1.121,0.151c-0.404,0-0.769-0.07-1.092-0.212
			s-0.604-0.335-0.842-0.582c-0.238-0.246-0.431-0.537-0.576-0.873c-0.146-0.335-0.234-0.7-0.267-1.097
			C130.82,9.28,130.82,8.907,130.86,8.535z M131.939,8.573h3.406V8.535c0-0.492-0.156-0.887-0.467-1.182
			c-0.312-0.295-0.726-0.442-1.242-0.442c-0.234,0-0.453,0.038-0.655,0.115s-0.38,0.186-0.533,0.327s-0.274,0.313-0.364,0.516
			c-0.088,0.202-0.137,0.424-0.145,0.666V8.573z"/>
		<path fill="#4D4D4D" d="M141.103,5.99c0.089,0,0.165,0.032,0.23,0.097c0.064,0.064,0.097,0.142,0.097,0.23v0.388
			c0,0.089-0.032,0.166-0.097,0.23c-0.065,0.064-0.142,0.097-0.23,0.097H140.4c-0.93,0-1.395,0.465-1.395,1.395v3.539
			c0,0.089-0.033,0.166-0.098,0.23s-0.141,0.097-0.229,0.097h-0.448c-0.09,0-0.166-0.032-0.23-0.097s-0.098-0.142-0.098-0.23V6.318
			c0-0.089,0.033-0.166,0.098-0.23s0.141-0.097,0.23-0.097h0.448c0.089,0,0.165,0.032,0.229,0.097s0.098,0.142,0.098,0.23v0.376
			c0.162-0.243,0.355-0.421,0.582-0.533c0.226-0.113,0.521-0.17,0.885-0.17H141.103z"/>
		<path fill="#4D4D4D" d="M145.684,5.99c0.09,0,0.166,0.032,0.23,0.097s0.098,0.142,0.098,0.23v0.388
			c0,0.089-0.033,0.166-0.098,0.23s-0.141,0.097-0.23,0.097h-0.702c-0.93,0-1.394,0.465-1.394,1.395v3.539
			c0,0.089-0.033,0.166-0.098,0.23s-0.142,0.097-0.23,0.097h-0.448c-0.089,0-0.165-0.032-0.23-0.097
			c-0.064-0.064-0.097-0.142-0.097-0.23V6.318c0-0.089,0.032-0.166,0.097-0.23c0.065-0.064,0.142-0.097,0.23-0.097h0.448
			c0.089,0,0.166,0.032,0.23,0.097s0.098,0.142,0.098,0.23v0.376c0.161-0.243,0.355-0.421,0.581-0.533
			c0.226-0.113,0.521-0.17,0.885-0.17H145.684z"/>
		<path fill="#4D4D4D" d="M146.521,10.705c0-0.323,0.065-0.606,0.194-0.849s0.307-0.448,0.533-0.618s0.49-0.307,0.794-0.412
			c0.303-0.104,0.624-0.186,0.964-0.242l1.709-0.279V8.148c0-0.412-0.136-0.721-0.406-0.927c-0.271-0.206-0.608-0.31-1.012-0.31
			c-0.355,0-0.625,0.064-0.807,0.194c-0.182,0.129-0.338,0.282-0.467,0.46c-0.049,0.065-0.102,0.109-0.157,0.134
			c-0.057,0.024-0.134,0.036-0.23,0.036h-0.364c-0.088,0-0.167-0.032-0.236-0.097c-0.068-0.064-0.099-0.142-0.09-0.23
			c0.016-0.178,0.086-0.359,0.212-0.546c0.125-0.186,0.294-0.352,0.509-0.496c0.214-0.146,0.461-0.265,0.739-0.358
			c0.278-0.093,0.576-0.139,0.892-0.139c0.363,0,0.701,0.053,1.012,0.157c0.311,0.105,0.578,0.259,0.8,0.461
			s0.396,0.452,0.521,0.751c0.125,0.299,0.188,0.643,0.188,1.03v3.697c0,0.089-0.032,0.166-0.097,0.23s-0.142,0.097-0.23,0.097
			h-0.448c-0.089,0-0.166-0.032-0.23-0.097c-0.065-0.064-0.097-0.142-0.097-0.23v-0.497c-0.073,0.153-0.186,0.289-0.34,0.406
			c-0.153,0.117-0.329,0.216-0.527,0.297c-0.197,0.081-0.404,0.142-0.618,0.182s-0.414,0.061-0.6,0.061
			c-0.315,0-0.604-0.044-0.866-0.133c-0.264-0.089-0.485-0.208-0.668-0.358c-0.182-0.149-0.322-0.329-0.424-0.539
			S146.521,10.948,146.521,10.705z M148.751,11.372c0.291,0,0.558-0.045,0.8-0.134s0.451-0.212,0.625-0.369
			c0.173-0.158,0.307-0.346,0.399-0.564c0.093-0.218,0.14-0.46,0.14-0.727V9.275l-1.431,0.23c-0.509,0.081-0.913,0.211-1.212,0.388
			c-0.299,0.179-0.449,0.408-0.449,0.691c0,0.089,0.021,0.178,0.061,0.267c0.041,0.089,0.105,0.174,0.195,0.255
			c0.088,0.08,0.203,0.146,0.345,0.193C148.365,11.348,148.541,11.372,148.751,11.372z"/>
		<path fill="#4D4D4D" d="M159.188,11.966c0,0.089-0.033,0.166-0.098,0.23s-0.141,0.097-0.23,0.097h-0.447
			c-0.09,0-0.166-0.032-0.23-0.097c-0.065-0.064-0.098-0.142-0.098-0.23v-3.2c0-0.622-0.149-1.087-0.448-1.394
			c-0.299-0.308-0.716-0.461-1.249-0.461c-0.508,0-0.919,0.153-1.229,0.461c-0.312,0.307-0.467,0.771-0.467,1.394v3.2
			c0,0.089-0.032,0.166-0.097,0.23s-0.143,0.097-0.23,0.097h-0.449c-0.088,0-0.165-0.032-0.23-0.097
			c-0.064-0.064-0.096-0.142-0.096-0.23V6.318c0-0.089,0.031-0.166,0.096-0.23c0.065-0.064,0.143-0.097,0.23-0.097h0.449
			c0.088,0,0.166,0.032,0.23,0.097s0.097,0.142,0.097,0.23v0.376c0.153-0.202,0.382-0.39,0.685-0.564
			c0.303-0.173,0.701-0.26,1.194-0.26c0.38,0,0.731,0.062,1.054,0.188c0.324,0.125,0.601,0.303,0.831,0.533
			c0.229,0.23,0.409,0.516,0.539,0.854c0.13,0.34,0.194,0.72,0.194,1.14V11.966z"/>
		<path fill="#4D4D4D" d="M160.654,8.535c0.031-0.371,0.121-0.719,0.266-1.042c0.146-0.323,0.336-0.606,0.57-0.849
			s0.516-0.433,0.842-0.569c0.328-0.138,0.693-0.206,1.098-0.206c0.436,0,0.826,0.07,1.17,0.212
			c0.343,0.142,0.637,0.346,0.879,0.612s0.428,0.59,0.557,0.97s0.194,0.804,0.194,1.272v0.327c0,0.089-0.032,0.166-0.097,0.23
			s-0.142,0.097-0.23,0.097h-4.17v0.073c0.016,0.549,0.184,0.972,0.504,1.267c0.318,0.295,0.717,0.442,1.193,0.442
			c0.444,0,0.777-0.062,1-0.188c0.223-0.125,0.402-0.265,0.539-0.418c0.064-0.064,0.121-0.109,0.17-0.133
			c0.049-0.024,0.121-0.037,0.219-0.037h0.363c0.088,0,0.17,0.032,0.242,0.098c0.072,0.064,0.102,0.141,0.085,0.229
			c-0.024,0.146-0.093,0.306-0.206,0.479s-0.277,0.335-0.491,0.484s-0.48,0.275-0.8,0.376s-0.693,0.151-1.121,0.151
			c-0.404,0-0.768-0.07-1.091-0.212s-0.604-0.335-0.843-0.582c-0.238-0.246-0.43-0.537-0.576-0.873
			c-0.145-0.335-0.234-0.7-0.266-1.097C160.613,9.28,160.613,8.907,160.654,8.535z M161.732,8.573h3.406V8.535
			c0-0.492-0.156-0.887-0.467-1.182s-0.725-0.442-1.242-0.442c-0.234,0-0.453,0.038-0.654,0.115
			c-0.203,0.077-0.381,0.186-0.533,0.327c-0.154,0.142-0.275,0.313-0.364,0.516s-0.138,0.424-0.146,0.666V8.573z"/>
		<path fill="#4D4D4D" d="M167.247,10.705c0-0.323,0.065-0.606,0.194-0.849s0.307-0.448,0.533-0.618s0.49-0.307,0.794-0.412
			c0.303-0.104,0.624-0.186,0.964-0.242l1.709-0.279V8.148c0-0.412-0.136-0.721-0.406-0.927c-0.271-0.206-0.608-0.31-1.012-0.31
			c-0.355,0-0.625,0.064-0.807,0.194c-0.182,0.129-0.338,0.282-0.467,0.46c-0.049,0.065-0.102,0.109-0.157,0.134
			c-0.057,0.024-0.134,0.036-0.23,0.036h-0.364c-0.088,0-0.167-0.032-0.236-0.097c-0.068-0.064-0.099-0.142-0.09-0.23
			c0.016-0.178,0.086-0.359,0.212-0.546c0.125-0.186,0.294-0.352,0.509-0.496c0.214-0.146,0.461-0.265,0.739-0.358
			c0.278-0.093,0.576-0.139,0.892-0.139c0.363,0,0.701,0.053,1.012,0.157c0.311,0.105,0.578,0.259,0.8,0.461
			s0.396,0.452,0.521,0.751c0.125,0.299,0.188,0.643,0.188,1.03v3.697c0,0.089-0.032,0.166-0.097,0.23s-0.142,0.097-0.23,0.097
			h-0.448c-0.089,0-0.166-0.032-0.23-0.097c-0.065-0.064-0.097-0.142-0.097-0.23v-0.497c-0.073,0.153-0.186,0.289-0.34,0.406
			c-0.153,0.117-0.329,0.216-0.527,0.297c-0.197,0.081-0.404,0.142-0.618,0.182s-0.414,0.061-0.6,0.061
			c-0.315,0-0.604-0.044-0.866-0.133c-0.264-0.089-0.485-0.208-0.668-0.358c-0.182-0.149-0.322-0.329-0.424-0.539
			S167.247,10.948,167.247,10.705z M169.478,11.372c0.291,0,0.558-0.045,0.8-0.134s0.451-0.212,0.625-0.369
			c0.173-0.158,0.307-0.346,0.399-0.564c0.093-0.218,0.14-0.46,0.14-0.727V9.275l-1.431,0.23c-0.509,0.081-0.913,0.211-1.212,0.388
			c-0.299,0.179-0.449,0.408-0.449,0.691c0,0.089,0.021,0.178,0.061,0.267c0.041,0.089,0.105,0.174,0.195,0.255
			c0.088,0.08,0.203,0.146,0.345,0.193C169.092,11.348,169.268,11.372,169.478,11.372z"/>
		<path fill="#4D4D4D" d="M179.914,11.966c0,0.089-0.033,0.166-0.098,0.23s-0.141,0.097-0.23,0.097h-0.447
			c-0.09,0-0.166-0.032-0.23-0.097c-0.065-0.064-0.098-0.142-0.098-0.23v-3.2c0-0.622-0.149-1.087-0.448-1.394
			c-0.299-0.308-0.716-0.461-1.249-0.461c-0.508,0-0.919,0.153-1.229,0.461c-0.312,0.307-0.467,0.771-0.467,1.394v3.2
			c0,0.089-0.032,0.166-0.097,0.23s-0.143,0.097-0.23,0.097h-0.449c-0.088,0-0.165-0.032-0.23-0.097
			c-0.064-0.064-0.096-0.142-0.096-0.23V6.318c0-0.089,0.031-0.166,0.096-0.23c0.065-0.064,0.143-0.097,0.23-0.097h0.449
			c0.088,0,0.166,0.032,0.23,0.097s0.097,0.142,0.097,0.23v0.376c0.153-0.202,0.382-0.39,0.685-0.564
			c0.303-0.173,0.701-0.26,1.194-0.26c0.38,0,0.731,0.062,1.054,0.188c0.324,0.125,0.601,0.303,0.831,0.533
			c0.229,0.23,0.409,0.516,0.539,0.854c0.13,0.34,0.194,0.72,0.194,1.14V11.966z"/>
	</g>
	<g enable-background="new    ">
		<path fill="#4D4D4D" d="M103.273,15.809c0.396,0,0.77,0.05,1.121,0.151c0.352,0.101,0.66,0.257,0.928,0.467
			c0.266,0.21,0.479,0.477,0.636,0.8s0.236,0.707,0.236,1.151s-0.079,0.83-0.236,1.157s-0.37,0.601-0.636,0.818
			c-0.268,0.219-0.576,0.38-0.928,0.485c-0.352,0.104-0.726,0.157-1.121,0.157h-2.23v2.97c0,0.089-0.032,0.166-0.097,0.23
			c-0.065,0.064-0.142,0.097-0.23,0.097h-0.497c-0.089,0-0.166-0.032-0.23-0.097s-0.097-0.142-0.097-0.23v-7.83
			c0-0.089,0.032-0.166,0.097-0.23s0.142-0.097,0.23-0.097H103.273z M101.043,19.906h2.17c0.582,0,1.032-0.125,1.352-0.376
			c0.318-0.25,0.479-0.634,0.479-1.151s-0.16-0.893-0.479-1.127c-0.319-0.234-0.77-0.352-1.352-0.352h-2.17V19.906z"/>
		<path fill="#4D4D4D" d="M108.619,23.966c0,0.089-0.033,0.166-0.098,0.23s-0.142,0.097-0.23,0.097h-0.448
			c-0.089,0-0.165-0.032-0.23-0.097c-0.064-0.064-0.097-0.142-0.097-0.23v-7.951c0-0.089,0.032-0.166,0.097-0.23
			c0.065-0.064,0.142-0.098,0.23-0.098h0.448c0.089,0,0.166,0.033,0.23,0.098s0.098,0.142,0.098,0.23V23.966z"/>
		<path fill="#4D4D4D" d="M109.988,22.705c0-0.323,0.064-0.606,0.193-0.849c0.13-0.242,0.308-0.448,0.534-0.618
			c0.226-0.17,0.491-0.307,0.794-0.412c0.303-0.104,0.624-0.186,0.963-0.242l1.709-0.279v-0.157c0-0.412-0.135-0.721-0.405-0.927
			s-0.608-0.31-1.013-0.31c-0.355,0-0.623,0.064-0.806,0.194c-0.182,0.129-0.337,0.282-0.467,0.46
			c-0.048,0.065-0.101,0.109-0.157,0.134s-0.133,0.036-0.23,0.036h-0.363c-0.09,0-0.168-0.032-0.236-0.097s-0.1-0.142-0.092-0.23
			c0.017-0.178,0.088-0.359,0.213-0.546c0.125-0.186,0.295-0.352,0.509-0.496c0.214-0.146,0.46-0.265,0.739-0.358
			c0.279-0.093,0.576-0.139,0.891-0.139c0.364,0,0.701,0.053,1.013,0.157c0.312,0.105,0.577,0.259,0.8,0.461
			s0.396,0.452,0.521,0.751s0.188,0.643,0.188,1.03v3.697c0,0.089-0.032,0.166-0.097,0.23c-0.065,0.064-0.142,0.097-0.23,0.097
			h-0.448c-0.09,0-0.166-0.032-0.23-0.097s-0.098-0.142-0.098-0.23v-0.497c-0.072,0.153-0.186,0.289-0.339,0.406
			s-0.329,0.216-0.526,0.297c-0.199,0.081-0.404,0.142-0.619,0.182c-0.214,0.04-0.414,0.061-0.6,0.061
			c-0.315,0-0.604-0.044-0.867-0.133c-0.262-0.089-0.484-0.208-0.666-0.358c-0.182-0.149-0.324-0.329-0.424-0.539
			C110.039,23.174,109.988,22.948,109.988,22.705z M112.219,23.372c0.291,0,0.558-0.045,0.8-0.134
			c0.243-0.089,0.45-0.212,0.624-0.369c0.174-0.158,0.307-0.346,0.4-0.564c0.093-0.218,0.139-0.46,0.139-0.727v-0.304l-1.43,0.23
			c-0.509,0.081-0.913,0.211-1.212,0.388c-0.3,0.179-0.448,0.408-0.448,0.691c0,0.089,0.02,0.178,0.061,0.267
			c0.04,0.089,0.104,0.174,0.193,0.255c0.09,0.08,0.204,0.146,0.346,0.193C111.832,23.348,112.008,23.372,112.219,23.372z"/>
		<path fill="#4D4D4D" d="M118.631,22.172c0,0.153,0.014,0.297,0.043,0.431c0.027,0.133,0.078,0.248,0.15,0.345
			c0.073,0.098,0.176,0.172,0.31,0.225s0.306,0.079,0.515,0.079h0.643c0.09,0,0.166,0.032,0.23,0.097s0.098,0.142,0.098,0.23v0.388
			c0,0.089-0.033,0.166-0.098,0.23s-0.141,0.097-0.23,0.097h-0.764c-0.703,0-1.212-0.182-1.527-0.546
			c-0.314-0.363-0.473-0.889-0.473-1.575v-3.14h-0.896c-0.089,0-0.166-0.032-0.23-0.097s-0.097-0.142-0.097-0.23v-0.388
			c0-0.089,0.032-0.166,0.097-0.23s0.142-0.097,0.23-0.097h0.896v-1.976c0-0.089,0.033-0.166,0.098-0.23s0.141-0.098,0.23-0.098
			h0.448c0.089,0,0.165,0.033,0.229,0.098c0.065,0.064,0.098,0.142,0.098,0.23v1.976h1.539c0.089,0,0.166,0.032,0.23,0.097
			s0.098,0.142,0.098,0.23v0.388c0,0.089-0.033,0.166-0.098,0.23s-0.142,0.097-0.23,0.097h-1.539V22.172z"/>
		<path fill="#4D4D4D" d="M123.6,17.99h1.54c0.089,0,0.165,0.032,0.229,0.097c0.065,0.064,0.098,0.142,0.098,0.23v0.388
			c0,0.089-0.032,0.166-0.098,0.23c-0.064,0.064-0.141,0.097-0.229,0.097h-1.54v4.934c0,0.089-0.031,0.166-0.096,0.23
			c-0.065,0.064-0.143,0.097-0.23,0.097h-0.449c-0.089,0-0.166-0.032-0.23-0.097s-0.097-0.142-0.097-0.23v-4.934h-1.019
			c-0.088,0-0.165-0.032-0.23-0.097c-0.064-0.064-0.096-0.142-0.096-0.23v-0.388c0-0.089,0.031-0.166,0.096-0.23
			c0.065-0.064,0.143-0.097,0.23-0.097h1.019v-0.606c0-0.687,0.157-1.202,0.473-1.545c0.315-0.344,0.824-0.516,1.527-0.516h0.764
			c0.089,0,0.165,0.032,0.23,0.097c0.064,0.065,0.097,0.142,0.097,0.23v0.388c0,0.09-0.032,0.166-0.097,0.23
			c-0.065,0.065-0.142,0.098-0.23,0.098h-0.643c-0.21,0-0.382,0.026-0.515,0.078c-0.134,0.053-0.236,0.128-0.31,0.225
			s-0.123,0.212-0.151,0.346c-0.028,0.133-0.043,0.276-0.043,0.43V17.99z"/>
		<path fill="#4D4D4D" d="M129.018,17.869c0.438,0,0.824,0.066,1.164,0.199c0.34,0.134,0.631,0.317,0.873,0.552
			s0.434,0.52,0.576,0.854c0.141,0.336,0.228,0.701,0.26,1.098c0.008,0.072,0.012,0.159,0.012,0.26c0,0.102,0,0.206,0,0.315
			s0,0.214,0,0.315c0,0.101-0.004,0.184-0.012,0.248c-0.04,0.404-0.129,0.772-0.267,1.104s-0.327,0.614-0.569,0.849
			s-0.533,0.418-0.873,0.551c-0.34,0.134-0.727,0.2-1.164,0.2c-0.436,0-0.824-0.066-1.163-0.2c-0.339-0.133-0.63-0.316-0.872-0.551
			c-0.243-0.234-0.436-0.518-0.576-0.849c-0.142-0.331-0.229-0.699-0.261-1.104c-0.009-0.064-0.015-0.147-0.019-0.248
			c-0.004-0.102-0.006-0.206-0.006-0.315s0.002-0.214,0.006-0.315c0.004-0.101,0.01-0.188,0.019-0.26
			c0.032-0.396,0.119-0.762,0.261-1.098c0.141-0.335,0.333-0.62,0.576-0.854c0.242-0.234,0.533-0.418,0.872-0.552
			C128.193,17.936,128.582,17.869,129.018,17.869z M130.788,21.651c0.017-0.137,0.024-0.305,0.024-0.503s-0.008-0.369-0.024-0.515
			c-0.024-0.243-0.077-0.469-0.157-0.679c-0.082-0.211-0.194-0.393-0.34-0.546s-0.323-0.274-0.533-0.363
			c-0.211-0.089-0.457-0.134-0.74-0.134c-0.282,0-0.529,0.045-0.738,0.134c-0.211,0.089-0.389,0.21-0.533,0.363
			c-0.146,0.153-0.26,0.335-0.34,0.546c-0.081,0.21-0.133,0.436-0.158,0.679c-0.016,0.146-0.023,0.316-0.023,0.515
			s0.008,0.366,0.023,0.503c0.025,0.242,0.077,0.469,0.158,0.679c0.08,0.211,0.193,0.393,0.34,0.546
			c0.145,0.153,0.322,0.274,0.533,0.363c0.209,0.089,0.456,0.134,0.738,0.134c0.283,0,0.529-0.045,0.74-0.134
			c0.21-0.089,0.388-0.21,0.533-0.363s0.258-0.335,0.34-0.546C130.711,22.119,130.764,21.893,130.788,21.651z"/>
		<path fill="#4D4D4D" d="M136.631,17.99c0.088,0,0.165,0.032,0.23,0.097c0.064,0.064,0.097,0.142,0.097,0.23v0.388
			c0,0.089-0.032,0.166-0.097,0.23c-0.065,0.064-0.143,0.097-0.23,0.097h-0.703c-0.93,0-1.395,0.465-1.395,1.395v3.539
			c0,0.089-0.032,0.166-0.097,0.23s-0.142,0.097-0.229,0.097h-0.449c-0.089,0-0.166-0.032-0.23-0.097s-0.097-0.142-0.097-0.23
			v-5.648c0-0.089,0.032-0.166,0.097-0.23s0.142-0.097,0.23-0.097h0.449c0.088,0,0.165,0.032,0.229,0.097s0.097,0.142,0.097,0.23
			v0.376c0.162-0.243,0.355-0.421,0.582-0.533c0.227-0.113,0.521-0.17,0.885-0.17H136.631z"/>
		<path fill="#4D4D4D" d="M139.115,18.694c0.072-0.098,0.157-0.196,0.254-0.297c0.098-0.102,0.209-0.19,0.334-0.268
			c0.125-0.076,0.272-0.139,0.442-0.188c0.169-0.049,0.368-0.072,0.594-0.072c0.493,0,0.901,0.091,1.224,0.272
			c0.324,0.182,0.578,0.442,0.764,0.781c0.105-0.145,0.217-0.282,0.334-0.412c0.117-0.129,0.254-0.242,0.412-0.339
			s0.336-0.172,0.533-0.225c0.198-0.052,0.431-0.078,0.697-0.078c0.816,0,1.41,0.244,1.781,0.733
			c0.372,0.488,0.559,1.157,0.559,2.006v3.357c0,0.089-0.033,0.166-0.098,0.23s-0.142,0.097-0.23,0.097h-0.448
			c-0.089,0-0.165-0.032-0.23-0.097c-0.064-0.064-0.097-0.142-0.097-0.23V20.73c0-0.622-0.121-1.081-0.363-1.376
			s-0.599-0.442-1.067-0.442c-0.429,0-0.773,0.142-1.036,0.424c-0.263,0.283-0.395,0.72-0.395,1.31v3.321
			c0,0.089-0.031,0.166-0.096,0.23c-0.065,0.064-0.143,0.097-0.23,0.097h-0.449c-0.089,0-0.166-0.032-0.23-0.097
			s-0.097-0.142-0.097-0.23V20.73c0-0.622-0.121-1.081-0.363-1.376c-0.243-0.295-0.599-0.442-1.067-0.442
			c-0.428,0-0.773,0.142-1.035,0.424c-0.264,0.283-0.395,0.72-0.395,1.31v3.321c0,0.089-0.033,0.166-0.098,0.23
			s-0.141,0.097-0.229,0.097h-0.448c-0.09,0-0.166-0.032-0.23-0.097s-0.098-0.142-0.098-0.23v-5.648c0-0.089,0.033-0.166,0.098-0.23
			s0.141-0.097,0.23-0.097h0.448c0.089,0,0.165,0.032,0.229,0.097s0.098,0.142,0.098,0.23V18.694z"/>
		<path fill="#4D4D4D" d="M154.339,17.869c0.437,0,0.824,0.066,1.163,0.199c0.34,0.134,0.631,0.317,0.873,0.552
			s0.435,0.52,0.576,0.854c0.141,0.336,0.229,0.701,0.261,1.098c0.008,0.072,0.012,0.159,0.012,0.26c0,0.102,0,0.206,0,0.315
			s0,0.214,0,0.315c0,0.101-0.004,0.184-0.012,0.248c-0.04,0.404-0.13,0.772-0.267,1.104c-0.138,0.331-0.328,0.614-0.57,0.849
			s-0.533,0.418-0.873,0.551c-0.339,0.134-0.727,0.2-1.163,0.2s-0.824-0.066-1.163-0.2c-0.34-0.133-0.631-0.316-0.873-0.551
			s-0.435-0.518-0.576-0.849c-0.141-0.331-0.229-0.699-0.26-1.104c-0.009-0.064-0.015-0.147-0.019-0.248
			c-0.005-0.102-0.007-0.206-0.007-0.315s0.002-0.214,0.007-0.315c0.004-0.101,0.01-0.188,0.019-0.26
			c0.031-0.396,0.119-0.762,0.26-1.098c0.142-0.335,0.334-0.62,0.576-0.854s0.533-0.418,0.873-0.552
			C153.515,17.936,153.902,17.869,154.339,17.869z M156.109,21.651c0.016-0.137,0.023-0.305,0.023-0.503s-0.008-0.369-0.023-0.515
			c-0.025-0.243-0.078-0.469-0.158-0.679c-0.081-0.211-0.193-0.393-0.34-0.546c-0.145-0.153-0.322-0.274-0.533-0.363
			c-0.21-0.089-0.457-0.134-0.739-0.134s-0.529,0.045-0.739,0.134s-0.388,0.21-0.533,0.363s-0.259,0.335-0.34,0.546
			c-0.08,0.21-0.133,0.436-0.157,0.679c-0.017,0.146-0.024,0.316-0.024,0.515s0.008,0.366,0.024,0.503
			c0.024,0.242,0.077,0.469,0.157,0.679c0.081,0.211,0.194,0.393,0.34,0.546s0.323,0.274,0.533,0.363s0.457,0.134,0.739,0.134
			s0.529-0.045,0.739-0.134c0.211-0.089,0.389-0.21,0.533-0.363c0.146-0.153,0.259-0.335,0.34-0.546
			C156.031,22.119,156.084,21.893,156.109,21.651z"/>
		<path fill="#4D4D4D" d="M164.351,23.966c0,0.089-0.032,0.166-0.097,0.23s-0.142,0.097-0.23,0.097h-0.448
			c-0.089,0-0.166-0.032-0.23-0.097c-0.065-0.064-0.097-0.142-0.097-0.23v-3.2c0-0.622-0.15-1.087-0.449-1.394
			c-0.299-0.308-0.715-0.461-1.248-0.461c-0.509,0-0.92,0.153-1.23,0.461c-0.311,0.307-0.467,0.771-0.467,1.394v3.2
			c0,0.089-0.032,0.166-0.097,0.23s-0.142,0.097-0.229,0.097h-0.449c-0.089,0-0.166-0.032-0.23-0.097s-0.097-0.142-0.097-0.23
			v-5.648c0-0.089,0.032-0.166,0.097-0.23s0.142-0.097,0.23-0.097h0.449c0.088,0,0.165,0.032,0.229,0.097s0.097,0.142,0.097,0.23
			v0.376c0.154-0.202,0.383-0.39,0.686-0.564c0.303-0.173,0.701-0.26,1.193-0.26c0.38,0,0.731,0.062,1.055,0.188
			s0.6,0.303,0.83,0.533s0.41,0.516,0.539,0.854c0.13,0.34,0.194,0.72,0.194,1.14V23.966z"/>
	</g>
	<g enable-background="new    ">
		<path fill="#4D4D4D" d="M100.219,36.293c-0.088,0-0.166-0.032-0.23-0.097s-0.097-0.142-0.097-0.23v-7.83
			c0-0.089,0.032-0.166,0.097-0.23s0.142-0.097,0.23-0.097h3.248c0.518,0,0.945,0.078,1.285,0.236
			c0.34,0.157,0.61,0.352,0.812,0.581c0.201,0.23,0.346,0.479,0.43,0.746c0.086,0.267,0.127,0.505,0.127,0.715
			c0,0.267-0.039,0.501-0.119,0.703s-0.174,0.372-0.281,0.509c-0.107,0.138-0.215,0.247-0.323,0.327
			c-0.108,0.081-0.186,0.138-0.233,0.17c0.307,0.21,0.576,0.487,0.807,0.83c0.23,0.344,0.346,0.746,0.346,1.206
			c0,0.308-0.058,0.606-0.171,0.897s-0.281,0.554-0.504,0.788s-0.502,0.422-0.838,0.563s-0.723,0.212-1.159,0.212H100.219z
			 M101.043,28.9v2.448h2.303c0.541,0,0.947-0.105,1.219-0.315c0.271-0.21,0.406-0.513,0.406-0.909c0-0.396-0.136-0.698-0.406-0.909
			c-0.271-0.21-0.678-0.314-1.219-0.314H101.043z M101.043,32.439v2.764h2.48c0.268,0,0.504-0.036,0.711-0.109
			c0.207-0.072,0.379-0.174,0.517-0.303s0.241-0.274,0.31-0.437c0.069-0.161,0.104-0.335,0.104-0.521
			c0-0.178-0.032-0.352-0.098-0.521c-0.064-0.17-0.164-0.319-0.297-0.449c-0.135-0.129-0.305-0.231-0.512-0.309
			c-0.206-0.077-0.451-0.115-0.734-0.115H101.043z"/>
		<path fill="#4D4D4D" d="M109.066,28.705c0,0.089-0.031,0.166-0.097,0.23c-0.064,0.064-0.142,0.097-0.229,0.097h-0.691
			c-0.089,0-0.166-0.032-0.23-0.097s-0.097-0.142-0.097-0.23v-0.69c0-0.089,0.032-0.166,0.097-0.23s0.142-0.098,0.23-0.098h0.691
			c0.088,0,0.165,0.033,0.229,0.098c0.065,0.064,0.097,0.142,0.097,0.23V28.705z M108.945,35.966c0,0.089-0.032,0.166-0.097,0.23
			s-0.142,0.097-0.229,0.097h-0.449c-0.089,0-0.166-0.032-0.23-0.097s-0.097-0.142-0.097-0.23v-5.648
			c0-0.089,0.032-0.166,0.097-0.23s0.142-0.097,0.23-0.097h0.449c0.088,0,0.165,0.032,0.229,0.097s0.097,0.142,0.097,0.23V35.966z"
			/>
		<path fill="#4D4D4D" d="M113.346,29.869c0.437,0,0.824,0.066,1.164,0.199c0.339,0.134,0.63,0.317,0.873,0.552
			c0.242,0.234,0.434,0.52,0.575,0.854c0.142,0.336,0.228,0.701,0.261,1.098c0.008,0.072,0.012,0.159,0.012,0.26
			c0,0.102,0,0.206,0,0.315s0,0.214,0,0.315c0,0.101-0.004,0.184-0.012,0.248c-0.041,0.404-0.129,0.772-0.268,1.104
			c-0.137,0.331-0.326,0.614-0.568,0.849c-0.243,0.234-0.534,0.418-0.873,0.551c-0.34,0.134-0.728,0.2-1.164,0.2
			c-0.436,0-0.824-0.066-1.164-0.2c-0.339-0.133-0.63-0.316-0.872-0.551c-0.243-0.234-0.435-0.518-0.575-0.849
			c-0.143-0.331-0.229-0.699-0.262-1.104c-0.008-0.064-0.014-0.147-0.018-0.248c-0.004-0.102-0.006-0.206-0.006-0.315
			s0.002-0.214,0.006-0.315c0.004-0.101,0.01-0.188,0.018-0.26c0.033-0.396,0.119-0.762,0.262-1.098
			c0.141-0.335,0.332-0.62,0.575-0.854c0.242-0.234,0.533-0.418,0.872-0.552C112.521,29.936,112.91,29.869,113.346,29.869z
			 M115.115,33.651c0.017-0.137,0.024-0.305,0.024-0.503s-0.008-0.369-0.024-0.515c-0.023-0.243-0.076-0.469-0.157-0.679
			c-0.081-0.211-0.194-0.393-0.339-0.546c-0.146-0.153-0.324-0.274-0.533-0.363c-0.211-0.089-0.457-0.134-0.74-0.134
			s-0.529,0.045-0.739,0.134s-0.388,0.21-0.533,0.363s-0.259,0.335-0.339,0.546c-0.082,0.21-0.134,0.436-0.158,0.679
			c-0.016,0.146-0.024,0.316-0.024,0.515s0.009,0.366,0.024,0.503c0.024,0.242,0.076,0.469,0.158,0.679
			c0.08,0.211,0.193,0.393,0.339,0.546s0.323,0.274,0.533,0.363s0.456,0.134,0.739,0.134s0.529-0.045,0.74-0.134
			c0.209-0.089,0.387-0.21,0.533-0.363c0.145-0.153,0.258-0.335,0.339-0.546C115.039,34.119,115.092,33.893,115.115,33.651z"/>
		<path fill="#4D4D4D" d="M120.206,29.869c0.501,0,0.901,0.087,1.2,0.26c0.299,0.175,0.525,0.362,0.679,0.564v-2.679
			c0-0.089,0.032-0.166,0.097-0.23s0.142-0.098,0.23-0.098h0.449c0.088,0,0.165,0.033,0.229,0.098
			c0.065,0.064,0.097,0.142,0.097,0.23v7.951c0,0.089-0.031,0.166-0.097,0.23c-0.064,0.064-0.142,0.097-0.229,0.097h-0.449
			c-0.089,0-0.166-0.032-0.23-0.097s-0.097-0.142-0.097-0.23V35.59c-0.161,0.219-0.392,0.41-0.69,0.576
			c-0.299,0.165-0.695,0.248-1.188,0.248c-0.38,0-0.733-0.066-1.061-0.2c-0.327-0.133-0.612-0.325-0.854-0.575
			c-0.242-0.251-0.437-0.554-0.582-0.909c-0.145-0.355-0.23-0.756-0.254-1.2c-0.008-0.121-0.013-0.252-0.013-0.394
			s0.005-0.273,0.013-0.395c0.023-0.444,0.109-0.844,0.254-1.2c0.146-0.355,0.34-0.656,0.582-0.902
			c0.242-0.247,0.527-0.437,0.854-0.57C119.473,29.936,119.826,29.869,120.206,29.869z M122.085,33.663
			c0.008-0.122,0.013-0.281,0.013-0.479c0-0.197-0.005-0.357-0.013-0.479c-0.024-0.573-0.196-1.016-0.515-1.327
			c-0.32-0.312-0.734-0.467-1.243-0.467c-0.533,0-0.953,0.17-1.261,0.509c-0.307,0.34-0.477,0.801-0.509,1.382
			c-0.008,0.227-0.008,0.453,0,0.679c0.032,0.582,0.202,1.043,0.509,1.382c0.308,0.34,0.728,0.51,1.261,0.51
			c0.501,0,0.913-0.153,1.237-0.461C121.887,34.605,122.061,34.189,122.085,33.663z"/>
		<path fill="#4D4D4D" d="M126.23,28.705c0,0.089-0.032,0.166-0.098,0.23c-0.064,0.064-0.141,0.097-0.229,0.097h-0.69
			c-0.09,0-0.166-0.032-0.23-0.097c-0.065-0.064-0.098-0.142-0.098-0.23v-0.69c0-0.089,0.032-0.166,0.098-0.23
			c0.064-0.064,0.141-0.098,0.23-0.098h0.69c0.089,0,0.165,0.033,0.229,0.098c0.065,0.064,0.098,0.142,0.098,0.23V28.705z
			 M126.109,35.966c0,0.089-0.033,0.166-0.098,0.23s-0.141,0.097-0.229,0.097h-0.448c-0.09,0-0.166-0.032-0.23-0.097
			s-0.098-0.142-0.098-0.23v-5.648c0-0.089,0.033-0.166,0.098-0.23s0.141-0.097,0.23-0.097h0.448c0.089,0,0.165,0.032,0.229,0.097
			s0.098,0.142,0.098,0.23V35.966z"/>
		<path fill="#4D4D4D" d="M130.193,36.293c-0.104,0-0.186-0.032-0.242-0.097s-0.102-0.134-0.133-0.206l-2.412-5.624
			c-0.008-0.024-0.012-0.053-0.012-0.085c0-0.081,0.027-0.149,0.084-0.206s0.125-0.085,0.206-0.085h0.448
			c0.121,0,0.213,0.032,0.273,0.097s0.103,0.13,0.127,0.194l1.879,4.399l1.879-4.399c0.023-0.064,0.064-0.13,0.121-0.194
			s0.133-0.097,0.23-0.097h0.496c0.081,0,0.15,0.028,0.207,0.085s0.084,0.125,0.084,0.206c0,0.032-0.004,0.061-0.012,0.085
			l-2.412,5.624c-0.032,0.072-0.074,0.142-0.127,0.206s-0.132,0.097-0.236,0.097H130.193z"/>
		<path fill="#4D4D4D" d="M134.182,32.535c0.032-0.371,0.121-0.719,0.267-1.042s0.335-0.606,0.569-0.849s0.516-0.433,0.843-0.569
			c0.327-0.138,0.692-0.206,1.097-0.206c0.437,0,0.826,0.07,1.17,0.212s0.637,0.346,0.879,0.612s0.428,0.59,0.558,0.97
			c0.129,0.38,0.194,0.804,0.194,1.272v0.327c0,0.089-0.033,0.166-0.098,0.23s-0.141,0.097-0.23,0.097h-4.17v0.073
			c0.017,0.549,0.185,0.972,0.504,1.267c0.318,0.295,0.717,0.442,1.193,0.442c0.445,0,0.777-0.062,1-0.188
			c0.223-0.125,0.402-0.265,0.539-0.418c0.065-0.064,0.122-0.109,0.17-0.133c0.049-0.024,0.121-0.037,0.219-0.037h0.363
			c0.089,0,0.17,0.032,0.242,0.098c0.073,0.064,0.102,0.141,0.086,0.229c-0.025,0.146-0.094,0.306-0.207,0.479
			s-0.276,0.335-0.49,0.484c-0.215,0.149-0.48,0.275-0.801,0.376c-0.318,0.101-0.692,0.151-1.121,0.151
			c-0.404,0-0.768-0.07-1.09-0.212c-0.324-0.142-0.605-0.335-0.844-0.582c-0.238-0.246-0.43-0.537-0.575-0.873
			c-0.146-0.335-0.234-0.7-0.267-1.097C134.141,33.28,134.141,32.907,134.182,32.535z M135.26,32.573h3.406v-0.037
			c0-0.492-0.155-0.887-0.467-1.182c-0.311-0.295-0.725-0.442-1.242-0.442c-0.234,0-0.452,0.038-0.654,0.115
			s-0.38,0.186-0.533,0.327c-0.154,0.142-0.275,0.313-0.363,0.516c-0.09,0.202-0.138,0.424-0.146,0.666V32.573z"/>
		<path fill="#4D4D4D" d="M144.424,29.99c0.089,0,0.166,0.032,0.23,0.097s0.098,0.142,0.098,0.23v0.388
			c0,0.089-0.033,0.166-0.098,0.23s-0.142,0.097-0.23,0.097h-0.703c-0.93,0-1.394,0.465-1.394,1.395v3.539
			c0,0.089-0.032,0.166-0.097,0.23s-0.143,0.097-0.23,0.097h-0.449c-0.088,0-0.165-0.032-0.23-0.097
			c-0.064-0.064-0.096-0.142-0.096-0.23v-5.648c0-0.089,0.031-0.166,0.096-0.23c0.065-0.064,0.143-0.097,0.23-0.097H142
			c0.088,0,0.166,0.032,0.23,0.097s0.097,0.142,0.097,0.23v0.376c0.161-0.243,0.355-0.421,0.581-0.533
			c0.227-0.113,0.521-0.17,0.885-0.17H144.424z"/>
		<path fill="#4D4D4D" d="M149.394,34.548c0-0.153-0.042-0.281-0.128-0.382c-0.084-0.102-0.211-0.188-0.381-0.261
			c-0.17-0.073-0.387-0.142-0.648-0.206c-0.264-0.064-0.568-0.134-0.916-0.206c-0.654-0.138-1.113-0.365-1.375-0.685
			c-0.264-0.319-0.395-0.693-0.395-1.122c0-0.242,0.049-0.473,0.146-0.69s0.243-0.412,0.437-0.582s0.438-0.303,0.733-0.399
			c0.295-0.098,0.64-0.146,1.036-0.146s0.741,0.044,1.037,0.133c0.295,0.089,0.543,0.202,0.744,0.34
			c0.203,0.138,0.356,0.284,0.461,0.442c0.105,0.157,0.162,0.309,0.17,0.454c0.008,0.089-0.021,0.166-0.091,0.23
			s-0.147,0.097-0.236,0.097h-0.399c-0.049,0-0.107-0.01-0.176-0.03c-0.069-0.02-0.132-0.066-0.188-0.139
			c-0.104-0.138-0.261-0.253-0.467-0.346s-0.491-0.14-0.854-0.14c-0.371,0-0.672,0.068-0.902,0.206s-0.346,0.327-0.346,0.569
			c0,0.154,0.031,0.277,0.097,0.37c0.064,0.093,0.17,0.174,0.315,0.242c0.145,0.069,0.337,0.132,0.576,0.188
			c0.238,0.057,0.535,0.125,0.891,0.206c0.371,0.08,0.682,0.184,0.934,0.309c0.25,0.126,0.451,0.267,0.605,0.425
			c0.153,0.157,0.262,0.331,0.327,0.521c0.064,0.19,0.097,0.391,0.097,0.601c0,0.242-0.059,0.477-0.176,0.703
			c-0.117,0.226-0.285,0.424-0.502,0.594c-0.219,0.17-0.484,0.307-0.795,0.412c-0.311,0.104-0.664,0.157-1.061,0.157
			s-0.747-0.049-1.055-0.146c-0.307-0.097-0.569-0.216-0.787-0.357c-0.219-0.142-0.387-0.295-0.504-0.461
			c-0.117-0.165-0.18-0.321-0.188-0.466c-0.008-0.089,0.02-0.166,0.085-0.23c0.064-0.064,0.146-0.098,0.243-0.098h0.436
			c0.049,0,0.105,0.007,0.17,0.019s0.125,0.059,0.182,0.14c0.129,0.178,0.307,0.314,0.533,0.412
			c0.227,0.097,0.521,0.146,0.885,0.146c0.178,0,0.354-0.021,0.527-0.061c0.174-0.041,0.328-0.098,0.461-0.17
			c0.133-0.073,0.24-0.159,0.32-0.261C149.354,34.781,149.394,34.669,149.394,34.548z"/>
		<path fill="#4D4D4D" d="M153.163,28.705c0,0.089-0.032,0.166-0.097,0.23s-0.142,0.097-0.23,0.097h-0.691
			c-0.088,0-0.166-0.032-0.23-0.097s-0.096-0.142-0.096-0.23v-0.69c0-0.089,0.031-0.166,0.096-0.23s0.143-0.098,0.23-0.098h0.691
			c0.089,0,0.166,0.033,0.23,0.098s0.097,0.142,0.097,0.23V28.705z M153.042,35.966c0,0.089-0.032,0.166-0.097,0.23
			s-0.143,0.097-0.23,0.097h-0.449c-0.088,0-0.165-0.032-0.23-0.097c-0.064-0.064-0.096-0.142-0.096-0.23v-5.648
			c0-0.089,0.031-0.166,0.096-0.23c0.065-0.064,0.143-0.097,0.23-0.097h0.449c0.088,0,0.166,0.032,0.23,0.097
			s0.097,0.142,0.097,0.23V35.966z"/>
		<path fill="#4D4D4D" d="M156.509,34.172c0,0.153,0.015,0.297,0.042,0.431c0.029,0.133,0.079,0.248,0.152,0.345
			c0.072,0.098,0.176,0.172,0.309,0.225s0.305,0.079,0.516,0.079h0.643c0.088,0,0.165,0.032,0.229,0.097
			c0.065,0.064,0.097,0.142,0.097,0.23v0.388c0,0.089-0.031,0.166-0.097,0.23c-0.064,0.064-0.142,0.097-0.229,0.097h-0.764
			c-0.703,0-1.213-0.182-1.527-0.546c-0.315-0.363-0.473-0.889-0.473-1.575v-3.14h-0.897c-0.089,0-0.165-0.032-0.23-0.097
			c-0.064-0.064-0.097-0.142-0.097-0.23v-0.388c0-0.089,0.032-0.166,0.097-0.23c0.065-0.064,0.142-0.097,0.23-0.097h0.897v-1.976
			c0-0.089,0.031-0.166,0.096-0.23c0.065-0.064,0.143-0.098,0.23-0.098h0.449c0.089,0,0.166,0.033,0.23,0.098
			s0.097,0.142,0.097,0.23v1.976h1.54c0.088,0,0.165,0.032,0.229,0.097s0.097,0.142,0.097,0.23v0.388
			c0,0.089-0.032,0.166-0.097,0.23s-0.142,0.097-0.229,0.097h-1.54V34.172z"/>
		<path fill="#4D4D4D" d="M161.562,38.305c-0.023,0.065-0.064,0.13-0.121,0.194s-0.133,0.097-0.23,0.097h-0.496
			c-0.081,0-0.15-0.028-0.207-0.085s-0.084-0.125-0.084-0.206c0-0.032,0.004-0.061,0.012-0.084l1.164-2.534l-2.4-5.32
			c-0.008-0.024-0.012-0.053-0.012-0.085c0-0.081,0.027-0.149,0.084-0.206s0.126-0.085,0.207-0.085h0.496
			c0.098,0,0.174,0.032,0.23,0.097s0.098,0.13,0.121,0.194l1.867,4.121l1.891-4.121c0.024-0.064,0.064-0.13,0.121-0.194
			s0.134-0.097,0.23-0.097h0.497c0.081,0,0.149,0.028,0.206,0.085s0.085,0.125,0.085,0.206c0,0.032-0.005,0.061-0.013,0.085
			L161.562,38.305z"/>
	</g>
	<g>
		<path fill="#064A93" d="M22.112,19.485c-0.091,0-0.181-0.033-0.25-0.104l-1.418-1.418c-0.138-0.138-0.138-0.362,0-0.5l1.418-1.418
			c0.138-0.139,0.362-0.139,0.5,0c0.139,0.138,0.139,0.362,0,0.5l-1.167,1.168l1.167,1.168c0.139,0.138,0.139,0.361,0,0.5
			C22.293,19.451,22.203,19.485,22.112,19.485z"/>
		<path fill="#064A93" d="M30.135,19.485c-0.091,0-0.181-0.033-0.25-0.104l-1.418-1.418c-0.138-0.138-0.138-0.362,0-0.5l1.418-1.418
			c0.138-0.139,0.362-0.139,0.5,0c0.139,0.138,0.139,0.362,0,0.5l-1.167,1.168l1.167,1.168c0.139,0.138,0.139,0.361,0,0.5
			C30.315,19.451,30.226,19.485,30.135,19.485z"/>
		<path fill="#064A93" d="M34.146,19.485c-0.09,0-0.181-0.033-0.25-0.104l-1.417-1.418c-0.139-0.138-0.139-0.362,0-0.5l1.417-1.418
			c0.139-0.139,0.362-0.139,0.501,0c0.138,0.138,0.138,0.362,0,0.5l-1.168,1.168l1.168,1.168c0.138,0.138,0.138,0.361,0,0.5
			C34.327,19.451,34.236,19.485,34.146,19.485z"/>
		<path fill="#064A93" d="M38.157,19.485c-0.091,0-0.181-0.033-0.25-0.104l-1.418-1.418c-0.138-0.138-0.138-0.362,0-0.5l1.418-1.418
			c0.138-0.139,0.362-0.139,0.5,0c0.139,0.138,0.139,0.362,0,0.5l-1.167,1.168l1.167,1.168c0.139,0.138,0.139,0.361,0,0.5
			C38.339,19.451,38.248,19.485,38.157,19.485z"/>
		<path fill="#064A93" d="M42.168,19.485c-0.09,0-0.181-0.033-0.25-0.104l-1.417-1.418c-0.139-0.138-0.139-0.362,0-0.5l1.417-1.418
			c0.139-0.139,0.362-0.139,0.501,0c0.138,0.138,0.138,0.362,0,0.5l-1.168,1.168l1.168,1.168c0.138,0.138,0.138,0.361,0,0.5
			C42.35,19.451,42.259,19.485,42.168,19.485z"/>
		<path fill="#064A93" d="M46.18,19.485c-0.091,0-0.181-0.033-0.25-0.104l-1.418-1.418c-0.138-0.138-0.138-0.362,0-0.5l1.418-1.418
			c0.138-0.139,0.362-0.139,0.5,0c0.139,0.138,0.139,0.362,0,0.5l-1.167,1.168l1.167,1.168c0.139,0.138,0.139,0.361,0,0.5
			C46.361,19.451,46.271,19.485,46.18,19.485z"/>
		<path fill="#064A93" d="M50.19,19.485c-0.09,0-0.181-0.033-0.25-0.104l-1.417-1.418c-0.139-0.138-0.139-0.362,0-0.5l1.417-1.418
			c0.139-0.139,0.362-0.139,0.501,0c0.138,0.138,0.138,0.362,0,0.5l-1.168,1.168l1.168,1.168c0.138,0.138,0.138,0.361,0,0.5
			C50.372,19.451,50.281,19.485,50.19,19.485z"/>
		<path fill="#064A93" d="M54.202,19.485c-0.091,0-0.181-0.033-0.25-0.104l-1.418-1.418c-0.138-0.138-0.138-0.362,0-0.5l1.418-1.418
			c0.138-0.139,0.362-0.139,0.5,0c0.139,0.138,0.139,0.362,0,0.5l-1.167,1.168l1.167,1.168c0.139,0.138,0.139,0.361,0,0.5
			C54.383,19.451,54.292,19.485,54.202,19.485z"/>
		<path fill="#064A93" d="M62.225,19.485c-0.091,0-0.181-0.033-0.25-0.104l-1.418-1.418c-0.138-0.138-0.138-0.362,0-0.5l1.418-1.418
			c0.138-0.139,0.362-0.139,0.5,0c0.139,0.138,0.139,0.362,0,0.5l-1.167,1.168l1.167,1.168c0.139,0.138,0.139,0.361,0,0.5
			C62.405,19.451,62.314,19.485,62.225,19.485z"/>
		<path fill="#064A93" d="M66.235,19.485c-0.09,0-0.181-0.033-0.25-0.104l-1.418-1.418c-0.138-0.138-0.138-0.362,0-0.5l1.418-1.418
			c0.139-0.139,0.362-0.139,0.501,0c0.138,0.138,0.138,0.362,0,0.5l-1.168,1.168l1.168,1.168c0.138,0.138,0.138,0.361,0,0.5
			C66.417,19.451,66.326,19.485,66.235,19.485z"/>
		<path fill="#064A93" d="M22.112,9.3c-0.091,0-0.181-0.034-0.25-0.104l-1.418-1.415c-0.138-0.14-0.138-0.362,0-0.502l1.418-1.418
			c0.138-0.138,0.362-0.138,0.5,0c0.139,0.14,0.139,0.362,0,0.501l-1.167,1.167l1.167,1.169c0.139,0.139,0.139,0.361,0,0.5
			C22.293,9.266,22.203,9.3,22.112,9.3z"/>
		<path fill="#064A93" d="M26.123,9.3c-0.09,0-0.181-0.034-0.25-0.104l-1.418-1.415c-0.138-0.14-0.138-0.362,0-0.502l1.418-1.418
			c0.139-0.138,0.362-0.138,0.501,0c0.138,0.14,0.138,0.362,0,0.501l-1.168,1.167l1.168,1.169c0.138,0.139,0.138,0.361,0,0.5
			C26.305,9.266,26.214,9.3,26.123,9.3z"/>
		<path fill="#064A93" d="M30.135,9.3c-0.091,0-0.181-0.034-0.25-0.104l-1.418-1.415c-0.138-0.14-0.138-0.362,0-0.502l1.418-1.418
			c0.138-0.138,0.362-0.138,0.5,0c0.139,0.14,0.139,0.362,0,0.501l-1.167,1.167l1.167,1.169c0.139,0.139,0.139,0.361,0,0.5
			C30.315,9.266,30.226,9.3,30.135,9.3z"/>
		<path fill="#064A93" d="M34.146,9.3c-0.09,0-0.181-0.034-0.25-0.104l-1.417-1.415c-0.139-0.14-0.139-0.362,0-0.502l1.417-1.418
			c0.139-0.138,0.362-0.138,0.501,0c0.138,0.14,0.138,0.362,0,0.501l-1.168,1.167l1.168,1.169c0.138,0.139,0.138,0.361,0,0.5
			C34.327,9.266,34.236,9.3,34.146,9.3z"/>
		<path fill="#064A93" d="M42.168,9.3c-0.09,0-0.181-0.034-0.25-0.104l-1.417-1.415c-0.139-0.14-0.139-0.362,0-0.502l1.417-1.418
			c0.139-0.138,0.362-0.138,0.501,0c0.138,0.14,0.138,0.362,0,0.501l-1.168,1.167l1.168,1.169c0.138,0.139,0.138,0.361,0,0.5
			C42.35,9.266,42.259,9.3,42.168,9.3z"/>
		<path fill="#064A93" d="M46.18,9.3c-0.091,0-0.181-0.034-0.25-0.104l-1.418-1.415c-0.138-0.14-0.138-0.362,0-0.502l1.418-1.418
			c0.138-0.138,0.362-0.138,0.5,0c0.139,0.14,0.139,0.362,0,0.501l-1.167,1.167l1.167,1.169c0.139,0.139,0.139,0.361,0,0.5
			C46.361,9.266,46.271,9.3,46.18,9.3z"/>
		<path fill="#064A93" d="M34.146,30.066c-0.09,0-0.181-0.033-0.25-0.104l-1.417-1.418c-0.139-0.138-0.139-0.362,0-0.5l1.417-1.418
			c0.139-0.14,0.362-0.14,0.501,0c0.138,0.138,0.138,0.36,0,0.5l-1.168,1.168l1.168,1.167c0.138,0.139,0.138,0.362,0,0.501
			C34.327,30.032,34.236,30.066,34.146,30.066z"/>
		<path fill="#064A93" d="M38.157,30.066c-0.091,0-0.181-0.033-0.25-0.104l-1.418-1.418c-0.138-0.138-0.138-0.362,0-0.5l1.418-1.418
			c0.138-0.14,0.362-0.14,0.5,0c0.139,0.138,0.139,0.36,0,0.5l-1.167,1.168l1.167,1.167c0.139,0.139,0.139,0.362,0,0.501
			C38.339,30.032,38.248,30.066,38.157,30.066z"/>
		<path fill="#064A93" d="M42.168,30.066c-0.09,0-0.181-0.033-0.25-0.104l-1.417-1.418c-0.139-0.138-0.139-0.362,0-0.5l1.417-1.418
			c0.139-0.14,0.362-0.14,0.501,0c0.138,0.138,0.138,0.36,0,0.5l-1.168,1.168l1.168,1.167c0.138,0.139,0.138,0.362,0,0.501
			C42.35,30.032,42.259,30.066,42.168,30.066z"/>
		<path fill="#064A93" d="M46.18,30.066c-0.091,0-0.181-0.033-0.25-0.104l-1.418-1.418c-0.138-0.138-0.138-0.362,0-0.5l1.418-1.418
			c0.138-0.14,0.362-0.14,0.5,0c0.139,0.138,0.139,0.36,0,0.5l-1.167,1.168l1.167,1.167c0.139,0.139,0.139,0.362,0,0.501
			C46.361,30.032,46.271,30.066,46.18,30.066z"/>
		<path fill="#064A93" d="M50.19,30.066c-0.09,0-0.181-0.033-0.25-0.104l-1.417-1.418c-0.139-0.138-0.139-0.362,0-0.5l1.417-1.418
			c0.139-0.14,0.362-0.14,0.501,0c0.138,0.138,0.138,0.36,0,0.5l-1.168,1.168l1.168,1.167c0.138,0.139,0.138,0.362,0,0.501
			C50.372,30.032,50.281,30.066,50.19,30.066z"/>
		<path fill="#064A93" d="M54.202,30.066c-0.091,0-0.181-0.033-0.25-0.104l-1.418-1.418c-0.138-0.138-0.138-0.362,0-0.5l1.418-1.418
			c0.138-0.14,0.362-0.14,0.5,0c0.139,0.138,0.139,0.36,0,0.5l-1.167,1.168l1.167,1.167c0.139,0.139,0.139,0.362,0,0.501
			C54.383,30.032,54.292,30.066,54.202,30.066z"/>
		<path fill="#064A93" d="M58.213,30.066c-0.09,0-0.181-0.033-0.25-0.104l-1.418-1.418c-0.138-0.138-0.138-0.362,0-0.5l1.418-1.418
			c0.139-0.14,0.362-0.14,0.5,0c0.139,0.138,0.139,0.36,0,0.5l-1.167,1.168l1.167,1.167c0.139,0.139,0.139,0.362,0,0.501
			C58.395,30.032,58.304,30.066,58.213,30.066z"/>
		<path fill="#064A93" d="M62.225,30.066c-0.091,0-0.181-0.033-0.25-0.104l-1.418-1.418c-0.138-0.138-0.138-0.362,0-0.5l1.418-1.418
			c0.138-0.14,0.362-0.14,0.5,0c0.139,0.138,0.139,0.36,0,0.5l-1.167,1.168l1.167,1.167c0.139,0.139,0.139,0.362,0,0.501
			C62.405,30.032,62.314,30.066,62.225,30.066z"/>
		<path fill="#064A93" d="M66.235,30.066c-0.09,0-0.181-0.033-0.25-0.104l-1.418-1.418c-0.138-0.138-0.138-0.362,0-0.5l1.418-1.418
			c0.139-0.14,0.362-0.14,0.501,0c0.138,0.138,0.138,0.36,0,0.5l-1.168,1.168l1.168,1.167c0.138,0.139,0.138,0.362,0,0.501
			C66.417,30.032,66.326,30.066,66.235,30.066z"/>
		<path fill="#064A93" d="M70.247,30.066c-0.091,0-0.181-0.033-0.25-0.104l-1.418-1.418c-0.138-0.138-0.138-0.362,0-0.5l1.418-1.418
			c0.138-0.14,0.362-0.14,0.5,0c0.139,0.138,0.139,0.36,0,0.5l-1.167,1.168l1.167,1.167c0.139,0.139,0.139,0.362,0,0.501
			C70.428,30.032,70.338,30.066,70.247,30.066z"/>
		<path fill="#064A93" d="M78.27,30.066c-0.091,0-0.181-0.033-0.25-0.104l-1.418-1.418c-0.139-0.138-0.139-0.362,0-0.5l1.418-1.418
			c0.138-0.14,0.362-0.14,0.5,0c0.139,0.138,0.139,0.36,0,0.5l-1.168,1.168l1.168,1.167c0.139,0.139,0.139,0.362,0,0.501
			C78.45,30.032,78.359,30.066,78.27,30.066z"/>
		<path fill="#064A93" d="M82.28,30.066c-0.09,0-0.181-0.033-0.25-0.104l-1.418-1.418c-0.138-0.138-0.138-0.362,0-0.5l1.418-1.418
			c0.139-0.14,0.362-0.14,0.5,0c0.139,0.138,0.139,0.36,0,0.5l-1.167,1.168l1.167,1.167c0.139,0.139,0.139,0.362,0,0.501
			C82.462,30.032,82.371,30.066,82.28,30.066z"/>
		<path fill="#064A93" d="M86.292,30.066c-0.091,0-0.181-0.033-0.25-0.104l-1.418-1.418c-0.139-0.138-0.139-0.362,0-0.5l1.418-1.418
			c0.138-0.14,0.362-0.14,0.5,0c0.139,0.138,0.139,0.36,0,0.5l-1.168,1.168l1.168,1.167c0.139,0.139,0.139,0.362,0,0.501
			C86.473,30.032,86.383,30.066,86.292,30.066z"/>
		<path fill="#064A93" d="M14.065,19.485c-0.09,0-0.181-0.033-0.25-0.104l-1.417-1.418c-0.139-0.138-0.139-0.362,0-0.5l1.417-1.418
			c0.138-0.139,0.362-0.139,0.501,0c0.138,0.138,0.138,0.362,0,0.5l-1.168,1.168l1.168,1.168c0.138,0.138,0.138,0.361,0,0.5
			C14.247,19.451,14.156,19.485,14.065,19.485z"/>
		<path fill="#064A93" d="M18.077,19.485c-0.091,0-0.182-0.033-0.25-0.104l-1.418-1.418c-0.139-0.138-0.139-0.362,0-0.5l1.418-1.418
			c0.138-0.139,0.361-0.139,0.5,0c0.138,0.138,0.138,0.362,0,0.5l-1.168,1.168l1.168,1.168c0.138,0.138,0.138,0.361,0,0.5
			C18.258,19.451,18.168,19.485,18.077,19.485z"/>
		<path fill="#064A93" d="M18.077,9.3c-0.091,0-0.182-0.034-0.25-0.104l-1.418-1.415c-0.139-0.14-0.139-0.362,0-0.502l1.418-1.418
			c0.138-0.138,0.361-0.138,0.5,0c0.138,0.14,0.138,0.362,0,0.501l-1.168,1.167l1.168,1.169c0.138,0.139,0.138,0.361,0,0.5
			C18.258,9.266,18.168,9.3,18.077,9.3z"/>
		<path fill="#064A93" d="M60.759,10.85c0.091,0,0.182,0.034,0.25,0.104l1.418,1.417c0.139,0.139,0.139,0.361,0,0.501l-1.418,1.418
			c-0.138,0.138-0.361,0.138-0.5,0c-0.138-0.14-0.138-0.362,0-0.5l1.168-1.168l-1.168-1.168c-0.138-0.139-0.138-0.362,0-0.5
			C60.578,10.884,60.668,10.85,60.759,10.85z"/>
		<path fill="#064A93" d="M48.726,10.85c0.091,0,0.181,0.034,0.25,0.104l1.418,1.417c0.138,0.139,0.138,0.361,0,0.501l-1.418,1.418
			c-0.138,0.138-0.362,0.138-0.5,0c-0.139-0.14-0.139-0.362,0-0.5l1.167-1.168l-1.167-1.168c-0.139-0.139-0.139-0.362,0-0.5
			C48.544,10.884,48.635,10.85,48.726,10.85z"/>
		<path fill="#064A93" d="M44.714,10.85c0.091,0,0.182,0.034,0.251,0.104l1.417,1.417c0.139,0.139,0.139,0.361,0,0.501l-1.417,1.418
			c-0.139,0.138-0.362,0.138-0.501,0c-0.138-0.14-0.138-0.362,0-0.5l1.168-1.168l-1.168-1.168c-0.138-0.139-0.138-0.362,0-0.5
			C44.533,10.884,44.624,10.85,44.714,10.85z"/>
		<path fill="#064A93" d="M36.691,10.85c0.091,0,0.182,0.034,0.251,0.104l1.417,1.417c0.139,0.139,0.139,0.361,0,0.501l-1.417,1.418
			c-0.139,0.138-0.362,0.138-0.501,0c-0.138-0.14-0.138-0.362,0-0.5l1.168-1.168l-1.168-1.168c-0.138-0.139-0.138-0.362,0-0.5
			C36.511,10.884,36.601,10.85,36.691,10.85z"/>
		<path fill="#064A93" d="M32.681,10.85c0.091,0,0.181,0.034,0.25,0.104l1.417,1.417c0.139,0.139,0.139,0.361,0,0.501l-1.417,1.418
			c-0.138,0.138-0.362,0.138-0.501,0c-0.138-0.14-0.138-0.362,0-0.5l1.168-1.168l-1.168-1.168c-0.138-0.139-0.138-0.362,0-0.5
			C32.499,10.884,32.59,10.85,32.681,10.85z"/>
		<path fill="#064A93" d="M28.669,10.85c0.091,0,0.182,0.034,0.251,0.104l1.417,1.417c0.139,0.139,0.139,0.361,0,0.501L28.92,14.29
			c-0.139,0.138-0.362,0.138-0.501,0c-0.138-0.14-0.138-0.362,0-0.5l1.168-1.168l-1.168-1.168c-0.138-0.139-0.138-0.362,0-0.5
			C28.488,10.884,28.578,10.85,28.669,10.85z"/>
		<path fill="#064A93" d="M24.658,10.85c0.091,0,0.181,0.034,0.25,0.104l1.417,1.417c0.139,0.139,0.139,0.361,0,0.501l-1.417,1.418
			c-0.138,0.138-0.362,0.138-0.501,0c-0.138-0.14-0.138-0.362,0-0.5l1.168-1.168l-1.168-1.168c-0.138-0.139-0.138-0.362,0-0.5
			C24.477,10.884,24.567,10.85,24.658,10.85z"/>
		<path fill="#064A93" d="M20.646,10.85c0.091,0,0.182,0.034,0.25,0.104l1.418,1.417c0.139,0.139,0.139,0.361,0,0.501l-1.418,1.418
			c-0.138,0.138-0.361,0.138-0.5,0c-0.138-0.14-0.138-0.362,0-0.5l1.168-1.168l-1.168-1.168c-0.138-0.139-0.138-0.362,0-0.5
			C20.466,10.884,20.556,10.85,20.646,10.85z"/>
		<path fill="#064A93" d="M16.636,10.85c0.091,0,0.181,0.034,0.25,0.104l1.417,1.417c0.139,0.139,0.139,0.361,0,0.501l-1.417,1.418
			c-0.138,0.138-0.362,0.138-0.501,0c-0.138-0.14-0.138-0.362,0-0.5l1.168-1.168l-1.168-1.168c-0.138-0.139-0.138-0.362,0-0.5
			C16.454,10.884,16.545,10.85,16.636,10.85z"/>
		<path fill="#064A93" d="M12.624,10.85c0.091,0,0.182,0.034,0.25,0.104l1.418,1.417c0.139,0.139,0.139,0.361,0,0.501l-1.418,1.418
			c-0.138,0.138-0.361,0.138-0.5,0c-0.138-0.14-0.138-0.362,0-0.5l1.168-1.168l-1.168-1.168c-0.138-0.139-0.138-0.362,0-0.5
			C12.443,10.884,12.533,10.85,12.624,10.85z"/>
		<path fill="#064A93" d="M64.794,10.85c0.091,0,0.182,0.034,0.25,0.104l1.418,1.417c0.138,0.139,0.138,0.361,0,0.501l-1.418,1.418
			c-0.138,0.138-0.362,0.138-0.5,0c-0.139-0.14-0.139-0.362,0-0.5l1.167-1.168l-1.167-1.168c-0.139-0.139-0.139-0.362,0-0.5
			C64.613,10.884,64.704,10.85,64.794,10.85z"/>
		<path fill="#064A93" d="M40.703,0.666c0.091,0,0.181,0.034,0.25,0.104l1.418,1.418c0.138,0.139,0.138,0.362,0,0.5l-1.418,1.418
			c-0.138,0.14-0.362,0.14-0.5,0c-0.139-0.138-0.139-0.361,0-0.5l1.167-1.168L40.453,1.27c-0.139-0.138-0.139-0.36,0-0.5
			C40.521,0.7,40.612,0.666,40.703,0.666z"/>
		<path fill="#064A93" d="M36.691,0.666c0.091,0,0.182,0.034,0.251,0.104l1.417,1.418c0.139,0.139,0.139,0.362,0,0.5l-1.417,1.418
			c-0.139,0.14-0.362,0.14-0.501,0c-0.138-0.138-0.138-0.361,0-0.5l1.168-1.168L36.441,1.27c-0.138-0.138-0.138-0.36,0-0.5
			C36.511,0.7,36.601,0.666,36.691,0.666z"/>
		<path fill="#064A93" d="M60.759,21.232c0.091,0,0.182,0.034,0.25,0.104l1.418,1.418c0.139,0.139,0.139,0.362,0,0.501l-1.418,1.417
			c-0.138,0.139-0.361,0.139-0.5,0c-0.138-0.138-0.138-0.361,0-0.5l1.168-1.167l-1.168-1.168c-0.138-0.139-0.138-0.362,0-0.501
			C60.578,21.266,60.668,21.232,60.759,21.232z"/>
		<path fill="#064A93" d="M56.748,21.232c0.09,0,0.181,0.034,0.25,0.104l1.417,1.418c0.139,0.139,0.139,0.362,0,0.501l-1.417,1.417
			c-0.138,0.139-0.362,0.139-0.501,0c-0.138-0.138-0.138-0.361,0-0.5l1.168-1.167l-1.168-1.168c-0.138-0.139-0.138-0.362,0-0.501
			C56.566,21.266,56.657,21.232,56.748,21.232z"/>
		<path fill="#064A93" d="M52.737,21.232c0.09,0,0.181,0.034,0.249,0.104l1.418,1.418c0.139,0.139,0.139,0.362,0,0.501l-1.418,1.417
			c-0.138,0.139-0.361,0.139-0.5,0c-0.138-0.138-0.138-0.361,0-0.5l1.168-1.167l-1.168-1.168c-0.138-0.139-0.138-0.362,0-0.501
			C52.556,21.266,52.646,21.232,52.737,21.232z"/>
		<path fill="#064A93" d="M48.726,21.232c0.091,0,0.181,0.034,0.25,0.104l1.418,1.418c0.138,0.139,0.138,0.362,0,0.501l-1.418,1.417
			c-0.138,0.139-0.362,0.139-0.5,0c-0.139-0.138-0.139-0.361,0-0.5l1.167-1.167l-1.167-1.168c-0.139-0.139-0.139-0.362,0-0.501
			C48.544,21.266,48.635,21.232,48.726,21.232z"/>
		<path fill="#064A93" d="M44.714,21.232c0.091,0,0.182,0.034,0.251,0.104l1.417,1.418c0.139,0.139,0.139,0.362,0,0.501
			l-1.417,1.417c-0.139,0.139-0.362,0.139-0.501,0c-0.138-0.138-0.138-0.361,0-0.5l1.168-1.167l-1.168-1.168
			c-0.138-0.139-0.138-0.362,0-0.501C44.533,21.266,44.624,21.232,44.714,21.232z"/>
		<path fill="#064A93" d="M40.703,21.232c0.091,0,0.181,0.034,0.25,0.104l1.418,1.418c0.138,0.139,0.138,0.362,0,0.501l-1.418,1.417
			c-0.138,0.139-0.362,0.139-0.5,0c-0.139-0.138-0.139-0.361,0-0.5l1.167-1.167l-1.167-1.168c-0.139-0.139-0.139-0.362,0-0.501
			C40.521,21.266,40.612,21.232,40.703,21.232z"/>
		<path fill="#064A93" d="M36.691,21.232c0.091,0,0.182,0.034,0.251,0.104l1.417,1.418c0.139,0.139,0.139,0.362,0,0.501
			l-1.417,1.417c-0.139,0.139-0.362,0.139-0.501,0c-0.138-0.138-0.138-0.361,0-0.5l1.168-1.167l-1.168-1.168
			c-0.138-0.139-0.138-0.362,0-0.501C36.511,21.266,36.601,21.232,36.691,21.232z"/>
		<path fill="#064A93" d="M28.669,21.232c0.091,0,0.182,0.034,0.251,0.104l1.417,1.418c0.139,0.139,0.139,0.362,0,0.501
			l-1.417,1.417c-0.139,0.139-0.362,0.139-0.501,0c-0.138-0.138-0.138-0.361,0-0.5l1.168-1.167l-1.168-1.168
			c-0.138-0.139-0.138-0.362,0-0.501C28.488,21.266,28.578,21.232,28.669,21.232z"/>
		<path fill="#064A93" d="M24.658,21.232c0.091,0,0.181,0.034,0.25,0.104l1.417,1.418c0.139,0.139,0.139,0.362,0,0.501l-1.417,1.417
			c-0.138,0.139-0.362,0.139-0.501,0c-0.138-0.138-0.138-0.361,0-0.5l1.168-1.167l-1.168-1.168c-0.138-0.139-0.138-0.362,0-0.501
			C24.477,21.266,24.567,21.232,24.658,21.232z"/>
		<path fill="#064A93" d="M20.646,21.232c0.091,0,0.182,0.034,0.25,0.104l1.418,1.418c0.139,0.139,0.139,0.362,0,0.501l-1.418,1.417
			c-0.138,0.139-0.361,0.139-0.5,0c-0.138-0.138-0.138-0.361,0-0.5l1.168-1.167l-1.168-1.168c-0.138-0.139-0.138-0.362,0-0.501
			C20.466,21.266,20.556,21.232,20.646,21.232z"/>
		<path fill="#064A93" d="M16.636,21.232c0.091,0,0.181,0.034,0.25,0.104l1.417,1.418c0.139,0.139,0.139,0.362,0,0.501l-1.417,1.417
			c-0.138,0.139-0.362,0.139-0.501,0c-0.138-0.138-0.138-0.361,0-0.5l1.168-1.167l-1.168-1.168c-0.138-0.139-0.138-0.362,0-0.501
			C16.454,21.266,16.545,21.232,16.636,21.232z"/>
		<path fill="#064A93" d="M12.624,21.232c0.091,0,0.182,0.034,0.25,0.104l1.418,1.418c0.139,0.139,0.139,0.362,0,0.501l-1.418,1.417
			c-0.138,0.139-0.361,0.139-0.5,0c-0.138-0.138-0.138-0.361,0-0.5l1.168-1.167l-1.168-1.168c-0.138-0.139-0.138-0.362,0-0.501
			C12.443,21.266,12.533,21.232,12.624,21.232z"/>
		<path fill="#064A93" d="M8.613,21.232c0.09,0,0.181,0.034,0.25,0.104l1.417,1.418c0.139,0.139,0.139,0.362,0,0.501l-1.417,1.417
			c-0.139,0.139-0.362,0.139-0.501,0c-0.138-0.138-0.138-0.361,0-0.5l1.168-1.167l-1.168-1.168c-0.138-0.139-0.138-0.362,0-0.501
			C8.432,21.266,8.522,21.232,8.613,21.232z"/>
		<path fill="#064A93" d="M4.602,21.232c0.091,0,0.181,0.034,0.25,0.104l1.418,1.418c0.139,0.139,0.139,0.362,0,0.501l-1.418,1.417
			c-0.139,0.139-0.362,0.139-0.5,0c-0.139-0.138-0.139-0.361,0-0.5l1.168-1.167l-1.168-1.168c-0.139-0.139-0.139-0.362,0-0.501
			C4.42,21.266,4.511,21.232,4.602,21.232z"/>
		<path fill="#064A93" d="M0.59,21.232c0.091,0,0.182,0.034,0.251,0.104l1.417,1.418c0.139,0.139,0.139,0.362,0,0.501l-1.417,1.417
			c-0.139,0.139-0.362,0.139-0.501,0c-0.138-0.138-0.138-0.361,0-0.5l1.168-1.167L0.34,21.836c-0.138-0.139-0.138-0.362,0-0.501
			C0.409,21.266,0.5,21.232,0.59,21.232z"/>
		<path fill="#064A93" d="M72.816,21.232c0.091,0,0.182,0.034,0.25,0.104l1.418,1.418c0.139,0.139,0.139,0.362,0,0.501l-1.418,1.417
			c-0.138,0.139-0.361,0.139-0.5,0c-0.139-0.138-0.139-0.361,0-0.5l1.167-1.167l-1.167-1.168c-0.139-0.139-0.139-0.362,0-0.501
			C72.636,21.266,72.726,21.232,72.816,21.232z"/>
		<path fill="#064A93" d="M68.806,21.232c0.09,0,0.181,0.034,0.25,0.104l1.418,1.418c0.138,0.139,0.138,0.362,0,0.501l-1.418,1.417
			c-0.138,0.139-0.362,0.139-0.5,0c-0.139-0.138-0.139-0.361,0-0.5l1.167-1.167l-1.167-1.168c-0.139-0.139-0.139-0.362,0-0.501
			C68.624,21.266,68.715,21.232,68.806,21.232z"/>
		<path fill="#064A93" d="M64.794,21.232c0.091,0,0.182,0.034,0.25,0.104l1.418,1.418c0.138,0.139,0.138,0.362,0,0.501l-1.418,1.417
			c-0.138,0.139-0.362,0.139-0.5,0c-0.139-0.138-0.139-0.361,0-0.5l1.167-1.167l-1.167-1.168c-0.139-0.139-0.139-0.362,0-0.501
			C64.613,21.266,64.704,21.232,64.794,21.232z"/>
		<path fill="#064A93" d="M84.874,21.232c0.091,0,0.181,0.034,0.25,0.104l1.418,1.418c0.139,0.139,0.139,0.362,0,0.501l-1.418,1.417
			c-0.138,0.139-0.362,0.139-0.5,0c-0.139-0.138-0.139-0.361,0-0.5l1.168-1.167l-1.168-1.168c-0.139-0.139-0.139-0.362,0-0.501
			C84.693,21.266,84.783,21.232,84.874,21.232z"/>
		<path fill="#064A93" d="M80.863,21.232c0.09,0,0.181,0.034,0.25,0.104l1.417,1.418c0.139,0.139,0.139,0.362,0,0.501l-1.417,1.417
			c-0.139,0.139-0.362,0.139-0.501,0c-0.138-0.138-0.138-0.361,0-0.5l1.168-1.167l-1.168-1.168c-0.138-0.139-0.138-0.362,0-0.501
			C80.682,21.266,80.772,21.232,80.863,21.232z"/>
		<path fill="#064A93" d="M76.852,21.232c0.091,0,0.181,0.034,0.25,0.104l1.418,1.418c0.139,0.139,0.139,0.362,0,0.501l-1.418,1.417
			c-0.138,0.139-0.362,0.139-0.5,0c-0.139-0.138-0.139-0.361,0-0.5l1.168-1.167l-1.168-1.168c-0.139-0.139-0.139-0.362,0-0.501
			C76.671,21.266,76.762,21.232,76.852,21.232z"/>
		<path fill="#064A93" d="M60.759,31.813c0.091,0,0.182,0.034,0.25,0.104l1.418,1.418c0.139,0.139,0.139,0.362,0,0.501l-1.418,1.417
			c-0.138,0.139-0.361,0.139-0.5,0c-0.138-0.138-0.138-0.362,0-0.5l1.168-1.168l-1.168-1.168c-0.138-0.139-0.138-0.361,0-0.5
			C60.578,31.847,60.668,31.813,60.759,31.813z"/>
		<path fill="#064A93" d="M52.737,31.813c0.09,0,0.181,0.034,0.249,0.104l1.418,1.418c0.139,0.139,0.139,0.362,0,0.501l-1.418,1.417
			c-0.138,0.139-0.361,0.139-0.5,0c-0.138-0.138-0.138-0.362,0-0.5l1.168-1.168l-1.168-1.168c-0.138-0.139-0.138-0.361,0-0.5
			C52.556,31.847,52.646,31.813,52.737,31.813z"/>
		<path fill="#064A93" d="M48.726,31.813c0.091,0,0.181,0.034,0.25,0.104l1.418,1.418c0.138,0.139,0.138,0.362,0,0.501l-1.418,1.417
			c-0.138,0.139-0.362,0.139-0.5,0c-0.139-0.138-0.139-0.362,0-0.5l1.167-1.168l-1.167-1.168c-0.139-0.139-0.139-0.361,0-0.5
			C48.544,31.847,48.635,31.813,48.726,31.813z"/>
		<path fill="#064A93" d="M44.714,31.813c0.091,0,0.182,0.034,0.251,0.104l1.417,1.418c0.139,0.139,0.139,0.362,0,0.501
			l-1.417,1.417c-0.139,0.139-0.362,0.139-0.501,0c-0.138-0.138-0.138-0.362,0-0.5l1.168-1.168l-1.168-1.168
			c-0.138-0.139-0.138-0.361,0-0.5C44.533,31.847,44.624,31.813,44.714,31.813z"/>
		<path fill="#064A93" d="M72.816,31.813c0.091,0,0.182,0.034,0.25,0.104l1.418,1.418c0.139,0.139,0.139,0.362,0,0.501l-1.418,1.417
			c-0.138,0.139-0.361,0.139-0.5,0c-0.139-0.138-0.139-0.362,0-0.5l1.167-1.168l-1.167-1.168c-0.139-0.139-0.139-0.361,0-0.5
			C72.636,31.847,72.726,31.813,72.816,31.813z"/>
		<path fill="#064A93" d="M68.806,31.813c0.09,0,0.181,0.034,0.25,0.104l1.418,1.418c0.138,0.139,0.138,0.362,0,0.501l-1.418,1.417
			c-0.138,0.139-0.362,0.139-0.5,0c-0.139-0.138-0.139-0.362,0-0.5l1.167-1.168l-1.167-1.168c-0.139-0.139-0.139-0.361,0-0.5
			C68.624,31.847,68.715,31.813,68.806,31.813z"/>
		<path fill="#064A93" d="M64.794,31.813c0.091,0,0.182,0.034,0.25,0.104l1.418,1.418c0.138,0.139,0.138,0.362,0,0.501l-1.418,1.417
			c-0.138,0.139-0.362,0.139-0.5,0c-0.139-0.138-0.139-0.362,0-0.5l1.167-1.168l-1.167-1.168c-0.139-0.139-0.139-0.361,0-0.5
			C64.613,31.847,64.704,31.813,64.794,31.813z"/>
		<path fill="#064A93" d="M80.863,31.813c0.09,0,0.181,0.034,0.25,0.104l1.417,1.418c0.139,0.139,0.139,0.362,0,0.501l-1.417,1.417
			c-0.139,0.139-0.362,0.139-0.501,0c-0.138-0.138-0.138-0.362,0-0.5l1.168-1.168l-1.168-1.168c-0.138-0.139-0.138-0.361,0-0.5
			C80.682,31.847,80.772,31.813,80.863,31.813z"/>
		<path fill="#064A93" d="M76.852,31.813c0.091,0,0.181,0.034,0.25,0.104l1.418,1.418c0.139,0.139,0.139,0.362,0,0.501l-1.418,1.417
			c-0.138,0.139-0.362,0.139-0.5,0c-0.139-0.138-0.139-0.362,0-0.5l1.168-1.168l-1.168-1.168c-0.139-0.139-0.139-0.361,0-0.5
			C76.671,31.847,76.762,31.813,76.852,31.813z"/>
		<path fill="#064A93" d="M50.19,40.647c-0.09,0-0.181-0.035-0.25-0.104l-1.417-1.418c-0.139-0.14-0.139-0.362,0-0.5l1.417-1.419
			c0.139-0.139,0.362-0.139,0.501,0c0.138,0.139,0.138,0.361,0,0.501l-1.168,1.168l1.168,1.167c0.138,0.139,0.138,0.361,0,0.501
			C50.372,40.612,50.281,40.647,50.19,40.647z"/>
		<path fill="#FB8C3B" d="M33.77,23.004l1.168-1.168c0.138-0.139,0.138-0.362,0-0.501c-0.139-0.138-0.362-0.138-0.5,0l-1.099,1.099
			l-1.099-1.099c-0.069-0.069-0.159-0.104-0.25-0.104c-0.091,0-0.181,0.034-0.25,0.104c-0.139,0.139-0.139,0.362,0,0.501
			l1.168,1.167l-1.168,1.168c-0.139,0.139-0.139,0.362,0,0.5c0.138,0.139,0.362,0.139,0.5,0l1.099-1.098l1.099,1.098
			c0.068,0.069,0.159,0.104,0.25,0.104c0.09,0,0.181-0.034,0.25-0.104c0.138-0.138,0.138-0.361,0-0.5L33.77,23.004z"/>
		<path fill="#FB8C3B" d="M26.162,17.755l1.168-1.168c0.138-0.138,0.138-0.362,0-0.5c-0.139-0.139-0.362-0.139-0.5,0l-1.099,1.098
			l-1.099-1.099c-0.069-0.068-0.159-0.104-0.25-0.104c-0.091,0-0.181,0.035-0.25,0.104c-0.139,0.139-0.139,0.362,0,0.501
			l1.167,1.168l-1.167,1.167c-0.139,0.139-0.139,0.362,0,0.5c0.138,0.139,0.362,0.139,0.5,0l1.099-1.098l1.099,1.099
			c0.068,0.069,0.159,0.104,0.25,0.104c0.09,0,0.181-0.033,0.25-0.104c0.138-0.139,0.138-0.362,0-0.5L26.162,17.755z"/>
		<path fill="#FB8C3B" d="M74.218,28.294l1.167-1.168c0.139-0.14,0.139-0.362,0-0.5c-0.138-0.14-0.362-0.14-0.5,0l-1.099,1.098
			l-1.098-1.098c-0.069-0.069-0.16-0.104-0.251-0.104c-0.09,0-0.181,0.034-0.25,0.104c-0.138,0.138-0.138,0.36,0,0.5l1.168,1.167
			l-1.168,1.168c-0.138,0.139-0.138,0.362,0,0.501c0.139,0.138,0.362,0.138,0.501,0l1.098-1.1l1.099,1.1
			c0.069,0.069,0.159,0.104,0.25,0.104c0.091,0,0.182-0.033,0.25-0.104c0.139-0.139,0.139-0.362,0-0.501L74.218,28.294z"/>
	</g>
	<line fill="none" stroke="#4D4D4D" stroke-miterlimit="10" x1="93.277" y1="41.157" x2="93.277" y2="0.157"/>
</g>
</svg>
