<?xml version="1.0" encoding="utf-8"?>
<!-- Generator: Adobe Illustrator 16.0.0, SVG Export Plug-In . SVG Version: 6.00 Build 0)  -->
<!DOCTYPE svg PUBLIC "-//W3C//DTD SVG 1.0//EN" "http://www.w3.org/TR/2001/REC-SVG-20010904/DTD/svg10.dtd">
<svg version="1.0" id="Layer_1" xmlns="http://www.w3.org/2000/svg" xmlns:xlink="http://www.w3.org/1999/xlink" x="0px" y="0px"
	 width="600px" height="187px" viewBox="0 0 600 187" enable-background="new 0 0 600 187" xml:space="preserve">
<g>
	<g>
		<path fill="#4D4D4D" d="M458.18,60.101c-0.754,0-1.284-0.342-1.593-1.027l-9.814-19.32v27.851c0,0.754-0.377,1.13-1.131,1.13
			h-0.925c-0.788,0-1.182-0.376-1.182-1.13V33.946c0-0.788,0.394-1.183,1.182-1.183h1.285c0.342,0,0.591,0.086,0.745,0.258
			c0.154,0.171,0.265,0.308,0.334,0.41l11.664,22.713l11.716-22.713c0.068-0.103,0.18-0.239,0.334-0.41
			c0.154-0.172,0.402-0.258,0.745-0.258h1.233c0.787,0,1.182,0.395,1.182,1.183v33.657c0,0.754-0.395,1.13-1.182,1.13h-0.925
			c-0.754,0-1.131-0.376-1.131-1.13V39.753l-9.814,19.32c-0.309,0.686-0.84,1.027-1.593,1.027H458.18z"/>
		<path fill="#4D4D4D" d="M481.611,53.318c0.137-1.747,0.488-3.349,1.054-4.805c0.564-1.456,1.318-2.697,2.261-3.726
			c0.941-1.027,2.081-1.832,3.417-2.415c1.336-0.582,2.843-0.873,4.521-0.873c3.598,0,6.389,1.174,8.376,3.52
			c1.986,2.347,2.98,5.593,2.98,9.737v0.771c0,0.343-0.111,0.617-0.334,0.822c-0.224,0.206-0.506,0.309-0.848,0.309h-18.293v0.514
			c0.033,1.165,0.248,2.296,0.642,3.392c0.394,1.097,0.934,2.064,1.619,2.903c0.685,0.84,1.523,1.516,2.518,2.029
			c0.993,0.514,2.107,0.771,3.34,0.771c1.097,0,2.056-0.137,2.878-0.411s1.523-0.591,2.106-0.951
			c0.582-0.359,1.054-0.728,1.413-1.104c0.36-0.377,0.608-0.668,0.745-0.874c0.309-0.444,0.548-0.71,0.72-0.796
			c0.171-0.085,0.444-0.129,0.822-0.129h0.822c0.308,0,0.573,0.095,0.796,0.283s0.316,0.437,0.283,0.745
			c-0.035,0.479-0.301,1.079-0.797,1.798c-0.497,0.72-1.199,1.405-2.106,2.056c-0.908,0.651-2.013,1.208-3.314,1.67
			c-1.303,0.463-2.758,0.693-4.368,0.693c-1.644,0-3.134-0.282-4.47-0.848s-2.484-1.369-3.443-2.415
			c-0.959-1.044-1.722-2.295-2.286-3.751c-0.565-1.456-0.917-3.058-1.054-4.805c-0.034-0.514-0.052-1.198-0.052-2.056
			C481.56,54.518,481.577,53.832,481.611,53.318z M484.746,53.78h16.34v-0.205c0-1.268-0.188-2.458-0.564-3.571
			c-0.378-1.113-0.917-2.081-1.619-2.903s-1.567-1.465-2.595-1.927c-1.028-0.463-2.176-0.694-3.443-0.694
			c-1.302,0-2.449,0.231-3.442,0.694c-0.994,0.462-1.842,1.104-2.544,1.927s-1.232,1.79-1.593,2.903
			c-0.359,1.113-0.539,2.304-0.539,3.571V53.78z"/>
		<path fill="#4D4D4D" d="M520.663,41.5c2.158,0,3.923,0.394,5.293,1.182s2.483,1.747,3.34,2.877V33.381
			c0-0.753,0.377-1.131,1.131-1.131h0.873c0.753,0,1.131,0.378,1.131,1.131v34.223c0,0.754-0.378,1.13-1.131,1.13h-0.873
			c-0.754,0-1.131-0.376-1.131-1.13v-2.415c-0.856,1.165-1.97,2.132-3.34,2.903c-1.37,0.771-3.135,1.155-5.293,1.155
			c-2.021,0-3.717-0.368-5.087-1.104s-2.484-1.695-3.34-2.877c-0.856-1.183-1.49-2.51-1.901-3.982s-0.634-2.963-0.668-4.471
			c-0.034-0.959-0.034-1.918,0-2.878c0.034-1.507,0.257-2.997,0.668-4.471c0.411-1.472,1.045-2.8,1.901-3.982
			c0.855-1.182,1.97-2.14,3.34-2.877C516.946,41.868,518.642,41.5,520.663,41.5z M529.296,57.224
			c0.034-0.514,0.052-1.182,0.052-2.004s-0.018-1.49-0.052-2.004c-0.034-1.028-0.214-2.063-0.539-3.109
			c-0.326-1.045-0.831-1.979-1.517-2.801c-0.686-0.821-1.541-1.498-2.568-2.029c-1.028-0.53-2.262-0.797-3.7-0.797
			c-1.508,0-2.767,0.267-3.776,0.797c-1.012,0.531-1.833,1.233-2.467,2.106c-0.635,0.874-1.104,1.876-1.413,3.007
			c-0.309,1.13-0.48,2.312-0.514,3.545c-0.035,0.96-0.035,1.919,0,2.878c0.033,1.233,0.205,2.424,0.514,3.571
			s0.778,2.158,1.413,3.031c0.634,0.874,1.455,1.567,2.467,2.081c1.01,0.514,2.269,0.771,3.776,0.771
			c1.473,0,2.724-0.274,3.751-0.822c1.028-0.548,1.876-1.259,2.544-2.133c0.668-0.873,1.164-1.841,1.49-2.903
			C529.082,59.348,529.262,58.285,529.296,57.224z"/>
		<path fill="#4D4D4D" d="M444.666,114.034c-0.754,0-1.131-0.377-1.131-1.131V79.247c0-0.788,0.377-1.183,1.131-1.183h13.411
			c1.781,0,3.322,0.249,4.625,0.745c1.301,0.497,2.38,1.174,3.237,2.03c0.855,0.856,1.481,1.833,1.875,2.929
			c0.394,1.097,0.591,2.261,0.591,3.494c0,1.097-0.137,2.073-0.411,2.929c-0.274,0.857-0.634,1.611-1.079,2.262
			s-0.934,1.19-1.464,1.618c-0.531,0.429-1.054,0.763-1.567,1.002c0.685,0.343,1.344,0.788,1.979,1.336
			c0.633,0.549,1.189,1.199,1.67,1.952c0.479,0.754,0.864,1.594,1.156,2.519c0.29,0.925,0.437,1.919,0.437,2.98
			c0,1.302-0.231,2.561-0.693,3.776c-0.463,1.217-1.14,2.305-2.03,3.263c-0.891,0.96-2.004,1.722-3.34,2.287
			s-2.878,0.848-4.625,0.848H444.666z M446.772,81.148v12.537h10.637c2.569,0,4.504-0.556,5.807-1.67
			c1.302-1.112,1.952-2.697,1.952-4.753c0-4.076-2.587-6.114-7.759-6.114H446.772z M446.772,96.769v14.183h11.15
			c2.569,0,4.539-0.668,5.909-2.004s2.056-3.032,2.056-5.087c0-2.09-0.686-3.794-2.056-5.113c-1.37-1.318-3.34-1.979-5.909-1.979
			H446.772z"/>
		<path fill="#4D4D4D" d="M480.122,80.686c0,0.343-0.112,0.616-0.334,0.822c-0.224,0.205-0.506,0.309-0.849,0.309h-1.952
			c-0.754,0-1.131-0.377-1.131-1.131v-1.953c0-0.342,0.104-0.624,0.309-0.848c0.205-0.222,0.479-0.334,0.822-0.334h1.952
			c0.343,0,0.625,0.112,0.849,0.334c0.222,0.224,0.334,0.506,0.334,0.848V80.686z M479.557,112.903c0,0.754-0.378,1.131-1.131,1.131
			h-0.873c-0.754,0-1.131-0.377-1.131-1.131V88.444c0-0.753,0.377-1.13,1.131-1.13h0.873c0.753,0,1.131,0.377,1.131,1.13V112.903z"
			/>
		<path fill="#4D4D4D" d="M498.054,86.801c1.851,0,3.477,0.3,4.882,0.898c1.404,0.601,2.577,1.422,3.521,2.467
			c0.941,1.046,1.661,2.287,2.158,3.726c0.496,1.438,0.778,2.98,0.848,4.624c0,0.274,0.008,0.6,0.025,0.977
			c0.017,0.377,0.025,0.771,0.025,1.182s-0.009,0.814-0.025,1.208c-0.018,0.394-0.025,0.711-0.025,0.95
			c-0.069,1.645-0.352,3.187-0.848,4.625c-0.497,1.438-1.217,2.681-2.158,3.726c-0.943,1.045-2.116,1.867-3.521,2.466
			c-1.405,0.6-3.031,0.899-4.882,0.899c-1.85,0-3.477-0.3-4.881-0.899c-1.405-0.599-2.578-1.421-3.521-2.466
			s-1.67-2.287-2.184-3.726s-0.788-2.98-0.822-4.625c0-0.239-0.009-0.557-0.025-0.95c-0.018-0.394-0.025-0.797-0.025-1.208
			s0.008-0.805,0.025-1.182c0.017-0.377,0.025-0.702,0.025-0.977c0.034-1.644,0.309-3.186,0.822-4.624s1.241-2.68,2.184-3.726
			c0.942-1.045,2.115-1.866,3.521-2.467C494.577,87.101,496.204,86.801,498.054,86.801z M506.327,98.772
			c-0.103-2.945-0.908-5.181-2.415-6.705c-1.508-1.524-3.461-2.287-5.858-2.287s-4.351,0.763-5.857,2.287
			c-1.508,1.524-2.312,3.76-2.415,6.705c-0.034,0.515-0.052,1.148-0.052,1.901c0,0.754,0.018,1.388,0.052,1.901
			c0.103,2.946,0.907,5.182,2.415,6.706c1.507,1.524,3.46,2.286,5.857,2.286s4.351-0.762,5.858-2.286
			c1.507-1.524,2.312-3.76,2.415-6.706c0.034-0.514,0.052-1.147,0.052-1.901C506.379,99.921,506.361,99.287,506.327,98.772z"/>
		<path fill="#4D4D4D" d="M526.213,86.801c2.158,0,3.923,0.394,5.293,1.182s2.483,1.747,3.34,2.877V78.682
			c0-0.753,0.377-1.131,1.131-1.131h0.873c0.753,0,1.131,0.378,1.131,1.131v34.222c0,0.754-0.378,1.131-1.131,1.131h-0.873
			c-0.754,0-1.131-0.377-1.131-1.131v-2.415c-0.856,1.165-1.97,2.133-3.34,2.903c-1.37,0.771-3.135,1.156-5.293,1.156
			c-2.021,0-3.717-0.368-5.087-1.104s-2.484-1.696-3.34-2.878c-0.856-1.182-1.49-2.509-1.901-3.982
			c-0.411-1.472-0.634-2.962-0.668-4.47c-0.034-0.959-0.034-1.919,0-2.878c0.034-1.507,0.257-2.997,0.668-4.471
			c0.411-1.472,1.045-2.8,1.901-3.982c0.855-1.182,1.97-2.14,3.34-2.877C522.496,87.169,524.191,86.801,526.213,86.801z
			 M534.846,102.524c0.034-0.515,0.052-1.183,0.052-2.005c0-0.821-0.018-1.49-0.052-2.004c-0.034-1.027-0.214-2.063-0.539-3.108
			c-0.326-1.045-0.831-1.979-1.517-2.801c-0.686-0.821-1.541-1.498-2.568-2.029c-1.028-0.53-2.262-0.797-3.7-0.797
			c-1.508,0-2.767,0.267-3.776,0.797c-1.012,0.531-1.833,1.233-2.467,2.106c-0.635,0.874-1.104,1.876-1.413,3.007
			c-0.309,1.13-0.48,2.312-0.514,3.545c-0.035,0.959-0.035,1.919,0,2.878c0.033,1.232,0.205,2.424,0.514,3.571
			s0.778,2.157,1.413,3.031c0.634,0.874,1.455,1.567,2.467,2.081c1.01,0.514,2.269,0.771,3.776,0.771
			c1.473,0,2.724-0.273,3.751-0.822c1.028-0.547,1.876-1.259,2.544-2.132c0.668-0.874,1.164-1.841,1.49-2.903
			C534.632,104.648,534.812,103.586,534.846,102.524z"/>
		<path fill="#4D4D4D" d="M550.056,80.686c0,0.343-0.112,0.616-0.334,0.822c-0.224,0.205-0.506,0.309-0.849,0.309h-1.952
			c-0.754,0-1.131-0.377-1.131-1.131v-1.953c0-0.342,0.104-0.624,0.309-0.848c0.205-0.222,0.479-0.334,0.822-0.334h1.952
			c0.343,0,0.625,0.112,0.849,0.334c0.222,0.224,0.334,0.506,0.334,0.848V80.686z M549.49,112.903c0,0.754-0.378,1.131-1.131,1.131
			h-0.873c-0.754,0-1.131-0.377-1.131-1.131V88.444c0-0.753,0.377-1.13,1.131-1.13h0.873c0.753,0,1.131,0.377,1.131,1.13V112.903z"
			/>
		<path fill="#4D4D4D" d="M565.753,113.675c-0.292-0.239-0.523-0.548-0.694-0.925l-9.455-23.843
			c-0.068-0.206-0.103-0.394-0.103-0.565c0-0.273,0.103-0.514,0.309-0.72c0.205-0.205,0.444-0.308,0.72-0.308h1.079
			c0.342,0,0.599,0.095,0.771,0.282c0.171,0.188,0.291,0.352,0.359,0.488l8.685,22.198l8.684-22.198
			c0.068-0.137,0.188-0.3,0.36-0.488c0.171-0.188,0.428-0.282,0.771-0.282h1.079c0.273,0,0.514,0.103,0.719,0.308
			c0.206,0.206,0.309,0.446,0.309,0.72c0,0.172-0.034,0.359-0.103,0.565l-9.455,23.843c-0.172,0.377-0.403,0.686-0.693,0.925
			c-0.292,0.239-0.712,0.359-1.259,0.359h-0.822C566.463,114.034,566.043,113.914,565.753,113.675z"/>
		<path fill="#4D4D4D" d="M454.172,122.851c2.089,0,3.931,0.326,5.524,0.977c1.593,0.651,2.945,1.447,4.059,2.39
			s1.961,1.952,2.544,3.031c0.582,1.079,0.891,2.048,0.925,2.903c0.034,0.309-0.069,0.574-0.309,0.797s-0.514,0.334-0.821,0.334
			h-2.107c-0.377,0-0.677-0.068-0.899-0.206c-0.223-0.137-0.454-0.444-0.693-0.925c-0.172-0.342-0.454-0.779-0.848-1.311
			c-0.395-0.53-0.925-1.044-1.593-1.541c-0.668-0.496-1.482-0.926-2.441-1.285s-2.073-0.539-3.34-0.539
			c-0.959,0-1.875,0.111-2.749,0.334c-0.873,0.223-1.653,0.557-2.338,1.002c-0.686,0.445-1.233,1.002-1.645,1.67
			s-0.616,1.447-0.616,2.338c0,0.892,0.196,1.645,0.591,2.261c0.394,0.617,1.027,1.174,1.901,1.67
			c0.873,0.497,1.978,0.951,3.314,1.362c1.336,0.411,2.962,0.873,4.881,1.387c1.953,0.515,3.605,1.079,4.959,1.696
			c1.353,0.616,2.458,1.311,3.314,2.081c0.855,0.771,1.481,1.662,1.875,2.672c0.394,1.011,0.592,2.15,0.592,3.417
			c0,1.542-0.335,2.955-1.003,4.239c-0.668,1.285-1.602,2.39-2.8,3.314c-1.2,0.925-2.646,1.645-4.342,2.158
			c-1.696,0.514-3.59,0.771-5.679,0.771c-1.987,0-3.82-0.291-5.498-0.873c-1.679-0.582-3.117-1.336-4.316-2.262
			c-1.199-0.925-2.15-1.952-2.852-3.083c-0.703-1.13-1.071-2.243-1.105-3.34c0-0.309,0.111-0.573,0.335-0.796
			c0.222-0.223,0.487-0.334,0.796-0.334h2.106c0.343,0,0.643,0.068,0.899,0.205c0.257,0.138,0.488,0.445,0.694,0.925
			c0.205,0.48,0.521,1.002,0.95,1.567c0.428,0.565,1.002,1.097,1.722,1.593c0.719,0.497,1.593,0.917,2.62,1.259
			c1.028,0.343,2.243,0.515,3.648,0.515c1.199,0,2.338-0.137,3.417-0.411s2.03-0.668,2.853-1.183c0.822-0.514,1.472-1.13,1.952-1.85
			c0.479-0.72,0.72-1.523,0.72-2.415c0-0.891-0.274-1.652-0.822-2.286c-0.549-0.634-1.336-1.208-2.364-1.722
			c-1.027-0.514-2.286-0.984-3.776-1.413c-1.49-0.428-3.178-0.882-5.062-1.362c-1.713-0.444-3.169-0.984-4.367-1.618
			c-1.2-0.634-2.177-1.361-2.93-2.184c-0.754-0.822-1.293-1.729-1.618-2.724c-0.326-0.993-0.488-2.072-0.488-3.237
			c0-1.267,0.257-2.5,0.771-3.7c0.514-1.198,1.276-2.261,2.287-3.186c1.01-0.925,2.277-1.67,3.802-2.235
			S452.116,122.851,454.172,122.851z"/>
		<path fill="#4D4D4D" d="M502.782,137.29c0.033,1.541,0.052,2.895,0.052,4.06s-0.019,2.518-0.052,4.059
			c-0.034,2.158-0.411,4.104-1.131,5.833c-0.719,1.729-1.713,3.194-2.98,4.393c-1.268,1.2-2.774,2.116-4.521,2.75
			s-3.683,0.95-5.807,0.95h-12.075c-0.378,0-0.703-0.137-0.977-0.411c-0.274-0.273-0.411-0.599-0.411-0.977v-33.194
			c0-0.377,0.137-0.702,0.411-0.977c0.273-0.273,0.599-0.411,0.977-0.411h11.767c2.124,0,4.086,0.317,5.884,0.951
			c1.799,0.634,3.349,1.55,4.65,2.749s2.32,2.664,3.058,4.394C502.362,133.188,502.748,135.132,502.782,137.29z M497.9,137.547
			c-0.034-1.233-0.231-2.423-0.591-3.571c-0.359-1.147-0.934-2.166-1.722-3.058c-0.788-0.891-1.815-1.601-3.083-2.133
			c-1.268-0.53-2.826-0.796-4.676-0.796h-8.067v26.72h8.324c1.85,0,3.399-0.265,4.65-0.796c1.25-0.531,2.252-1.241,3.006-2.133
			c0.753-0.891,1.293-1.909,1.619-3.058c0.325-1.147,0.505-2.338,0.539-3.571c0-0.753,0.008-1.43,0.025-2.029
			c0.018-0.599,0.026-1.182,0.026-1.747s-0.009-1.147-0.026-1.747C497.908,139.029,497.9,138.335,497.9,137.547z"/>
		<path fill="#4D4D4D" d="M511.62,159.334c-0.378,0-0.703-0.137-0.977-0.411c-0.274-0.273-0.411-0.599-0.411-0.977v-33.194
			c0-0.377,0.137-0.702,0.411-0.977c0.273-0.273,0.599-0.411,0.977-0.411h2.106c0.377,0,0.702,0.138,0.977,0.411
			c0.273,0.274,0.411,0.6,0.411,0.977v33.194c0,0.378-0.138,0.703-0.411,0.977c-0.274,0.274-0.6,0.411-0.977,0.411H511.62z"/>
	</g>
	<g>
		<g>
			<path fill="#064A93" d="M113.395,90.695c-0.385,0-0.768-0.146-1.061-0.439l-6.01-6.011c-0.586-0.586-0.586-1.535,0-2.121
				l6.01-6.011c0.584-0.586,1.535-0.586,2.121,0s0.586,1.535,0,2.121l-4.949,4.95l4.949,4.95c0.586,0.586,0.586,1.535,0,2.121
				C114.162,90.549,113.777,90.695,113.395,90.695z"/>
		</g>
		<g>
			<path fill="#064A93" d="M147.404,90.695c-0.385,0-0.768-0.146-1.061-0.439l-6.01-6.011c-0.586-0.586-0.586-1.535,0-2.121
				l6.01-6.011c0.584-0.586,1.535-0.586,2.121,0s0.586,1.535,0,2.121l-4.949,4.95l4.949,4.95c0.586,0.586,0.586,1.535,0,2.121
				C148.172,90.549,147.787,90.695,147.404,90.695z"/>
		</g>
		<g>
			<path fill="#064A93" d="M164.408,90.695c-0.383,0-0.768-0.146-1.061-0.439l-6.01-6.011c-0.586-0.586-0.586-1.535,0-2.121
				l6.01-6.011c0.586-0.586,1.535-0.586,2.121,0s0.586,1.535,0,2.121l-4.949,4.95l4.949,4.95c0.586,0.586,0.586,1.535,0,2.121
				C165.176,90.549,164.793,90.695,164.408,90.695z"/>
		</g>
		<g>
			<path fill="#064A93" d="M181.414,90.695c-0.385,0-0.768-0.146-1.061-0.439l-6.01-6.011c-0.586-0.586-0.586-1.535,0-2.121
				l6.01-6.011c0.584-0.586,1.535-0.586,2.121,0s0.586,1.535,0,2.121l-4.949,4.95l4.949,4.95c0.586,0.586,0.586,1.535,0,2.121
				C182.182,90.549,181.797,90.695,181.414,90.695z"/>
		</g>
		<g>
			<path fill="#064A93" d="M198.418,90.695c-0.383,0-0.768-0.146-1.061-0.439l-6.01-6.011c-0.586-0.586-0.586-1.535,0-2.121
				l6.01-6.011c0.586-0.586,1.535-0.586,2.121,0s0.586,1.535,0,2.121l-4.949,4.95l4.949,4.95c0.586,0.586,0.586,1.535,0,2.121
				C199.186,90.549,198.803,90.695,198.418,90.695z"/>
		</g>
		<g>
			<path fill="#064A93" d="M215.424,90.695c-0.385,0-0.768-0.146-1.061-0.439l-6.01-6.011c-0.586-0.586-0.586-1.535,0-2.121
				l6.01-6.011c0.584-0.586,1.535-0.586,2.121,0s0.586,1.535,0,2.121l-4.949,4.95l4.949,4.95c0.586,0.586,0.586,1.535,0,2.121
				C216.191,90.549,215.807,90.695,215.424,90.695z"/>
		</g>
		<g>
			<path fill="#064A93" d="M232.428,90.695c-0.383,0-0.768-0.146-1.061-0.439l-6.01-6.011c-0.586-0.586-0.586-1.535,0-2.121
				l6.01-6.011c0.586-0.586,1.535-0.586,2.121,0s0.586,1.535,0,2.121l-4.949,4.95l4.949,4.95c0.586,0.586,0.586,1.535,0,2.121
				C233.195,90.549,232.812,90.695,232.428,90.695z"/>
		</g>
		<g>
			<path fill="#064A93" d="M249.434,90.695c-0.385,0-0.768-0.146-1.061-0.439l-6.01-6.011c-0.586-0.586-0.586-1.535,0-2.121
				l6.01-6.011c0.584-0.586,1.535-0.586,2.121,0s0.586,1.535,0,2.121l-4.949,4.95l4.949,4.95c0.586,0.586,0.586,1.535,0,2.121
				C250.201,90.549,249.816,90.695,249.434,90.695z"/>
		</g>
		<g>
			<path fill="#064A93" d="M283.443,90.695c-0.385,0-0.768-0.146-1.061-0.439l-6.01-6.011c-0.586-0.586-0.586-1.535,0-2.121
				l6.01-6.011c0.584-0.586,1.535-0.586,2.121,0s0.586,1.535,0,2.121l-4.949,4.95l4.949,4.95c0.586,0.586,0.586,1.535,0,2.121
				C284.211,90.549,283.826,90.695,283.443,90.695z"/>
		</g>
		<g>
			<path fill="#064A93" d="M300.447,90.695c-0.383,0-0.768-0.146-1.061-0.439l-6.01-6.011c-0.586-0.586-0.586-1.535,0-2.121
				l6.01-6.011c0.586-0.586,1.535-0.586,2.121,0s0.586,1.535,0,2.121l-4.949,4.95l4.949,4.95c0.586,0.586,0.586,1.535,0,2.121
				C301.215,90.549,300.832,90.695,300.447,90.695z"/>
		</g>
		<g>
			<path fill="#064A93" d="M113.395,47.521c-0.385,0-0.768-0.146-1.061-0.439l-6.01-6.011c-0.586-0.586-0.586-1.535,0-2.121
				l6.01-6.011c0.584-0.586,1.535-0.586,2.121,0s0.586,1.535,0,2.121l-4.949,4.95l4.949,4.95c0.586,0.586,0.586,1.535,0,2.121
				C114.162,47.375,113.777,47.521,113.395,47.521z"/>
		</g>
		<g>
			<path fill="#064A93" d="M130.398,47.521c-0.383,0-0.768-0.146-1.061-0.439l-6.01-6.011c-0.586-0.586-0.586-1.535,0-2.121
				l6.01-6.011c0.586-0.586,1.535-0.586,2.121,0s0.586,1.535,0,2.121l-4.949,4.95l4.949,4.95c0.586,0.586,0.586,1.535,0,2.121
				C131.166,47.375,130.783,47.521,130.398,47.521z"/>
		</g>
		<g>
			<path fill="#064A93" d="M147.404,47.521c-0.385,0-0.768-0.146-1.061-0.439l-6.01-6.011c-0.586-0.586-0.586-1.535,0-2.121
				l6.01-6.011c0.584-0.586,1.535-0.586,2.121,0s0.586,1.535,0,2.121l-4.949,4.95l4.949,4.95c0.586,0.586,0.586,1.535,0,2.121
				C148.172,47.375,147.787,47.521,147.404,47.521z"/>
		</g>
		<g>
			<path fill="#064A93" d="M164.408,47.521c-0.383,0-0.768-0.146-1.061-0.439l-6.01-6.011c-0.586-0.586-0.586-1.535,0-2.121
				l6.01-6.011c0.586-0.586,1.535-0.586,2.121,0s0.586,1.535,0,2.121l-4.949,4.95l4.949,4.95c0.586,0.586,0.586,1.535,0,2.121
				C165.176,47.375,164.793,47.521,164.408,47.521z"/>
		</g>
		<g>
			<path fill="#064A93" d="M198.418,47.521c-0.383,0-0.768-0.146-1.061-0.439l-6.01-6.011c-0.586-0.586-0.586-1.535,0-2.121
				l6.01-6.011c0.586-0.586,1.535-0.586,2.121,0s0.586,1.535,0,2.121l-4.949,4.95l4.949,4.95c0.586,0.586,0.586,1.535,0,2.121
				C199.186,47.375,198.803,47.521,198.418,47.521z"/>
		</g>
		<g>
			<path fill="#064A93" d="M215.424,47.521c-0.385,0-0.768-0.146-1.061-0.439l-6.01-6.011c-0.586-0.586-0.586-1.535,0-2.121
				l6.01-6.011c0.584-0.586,1.535-0.586,2.121,0s0.586,1.535,0,2.121l-4.949,4.95l4.949,4.95c0.586,0.586,0.586,1.535,0,2.121
				C216.191,47.375,215.807,47.521,215.424,47.521z"/>
		</g>
		<g>
			<path fill="#064A93" d="M164.408,135.55c-0.383,0-0.768-0.146-1.061-0.439l-6.01-6.01c-0.586-0.586-0.586-1.535,0-2.121
				l6.01-6.012c0.586-0.586,1.535-0.586,2.121,0s0.586,1.535,0,2.121l-4.949,4.951l4.949,4.949c0.586,0.586,0.586,1.535,0,2.121
				C165.176,135.403,164.793,135.55,164.408,135.55z"/>
		</g>
		<g>
			<path fill="#064A93" d="M181.414,135.55c-0.385,0-0.768-0.146-1.061-0.439l-6.01-6.01c-0.586-0.586-0.586-1.535,0-2.121
				l6.01-6.012c0.584-0.586,1.535-0.586,2.121,0s0.586,1.535,0,2.121l-4.949,4.951l4.949,4.949c0.586,0.586,0.586,1.535,0,2.121
				C182.182,135.403,181.797,135.55,181.414,135.55z"/>
		</g>
		<g>
			<path fill="#064A93" d="M198.418,135.55c-0.383,0-0.768-0.146-1.061-0.439l-6.01-6.01c-0.586-0.586-0.586-1.535,0-2.121
				l6.01-6.012c0.586-0.586,1.535-0.586,2.121,0s0.586,1.535,0,2.121l-4.949,4.951l4.949,4.949c0.586,0.586,0.586,1.535,0,2.121
				C199.186,135.403,198.803,135.55,198.418,135.55z"/>
		</g>
		<g>
			<path fill="#064A93" d="M215.424,135.55c-0.385,0-0.768-0.146-1.061-0.439l-6.01-6.01c-0.586-0.586-0.586-1.535,0-2.121
				l6.01-6.012c0.584-0.586,1.535-0.586,2.121,0s0.586,1.535,0,2.121l-4.949,4.951l4.949,4.949c0.586,0.586,0.586,1.535,0,2.121
				C216.191,135.403,215.807,135.55,215.424,135.55z"/>
		</g>
		<g>
			<path fill="#064A93" d="M232.428,135.55c-0.383,0-0.768-0.146-1.061-0.439l-6.01-6.01c-0.586-0.586-0.586-1.535,0-2.121
				l6.01-6.012c0.586-0.586,1.535-0.586,2.121,0s0.586,1.535,0,2.121l-4.949,4.951l4.949,4.949c0.586,0.586,0.586,1.535,0,2.121
				C233.195,135.403,232.812,135.55,232.428,135.55z"/>
		</g>
		<g>
			<path fill="#064A93" d="M249.434,135.55c-0.385,0-0.768-0.146-1.061-0.439l-6.01-6.01c-0.586-0.586-0.586-1.535,0-2.121
				l6.01-6.012c0.584-0.586,1.535-0.586,2.121,0s0.586,1.535,0,2.121l-4.949,4.951l4.949,4.949c0.586,0.586,0.586,1.535,0,2.121
				C250.201,135.403,249.816,135.55,249.434,135.55z"/>
		</g>
		<g>
			<path fill="#064A93" d="M266.438,135.55c-0.383,0-0.768-0.146-1.061-0.439l-6.01-6.01c-0.586-0.586-0.586-1.535,0-2.121
				l6.01-6.012c0.586-0.586,1.535-0.586,2.121,0s0.586,1.535,0,2.121l-4.949,4.951l4.949,4.949c0.586,0.586,0.586,1.535,0,2.121
				C267.205,135.403,266.822,135.55,266.438,135.55z"/>
		</g>
		<g>
			<path fill="#064A93" d="M283.443,135.55c-0.385,0-0.768-0.146-1.061-0.439l-6.01-6.01c-0.586-0.586-0.586-1.535,0-2.121
				l6.01-6.012c0.584-0.586,1.535-0.586,2.121,0s0.586,1.535,0,2.121l-4.949,4.951l4.949,4.949c0.586,0.586,0.586,1.535,0,2.121
				C284.211,135.403,283.826,135.55,283.443,135.55z"/>
		</g>
		<g>
			<path fill="#064A93" d="M300.447,135.55c-0.383,0-0.768-0.146-1.061-0.439l-6.01-6.01c-0.586-0.586-0.586-1.535,0-2.121
				l6.01-6.012c0.586-0.586,1.535-0.586,2.121,0s0.586,1.535,0,2.121l-4.949,4.951l4.949,4.949c0.586,0.586,0.586,1.535,0,2.121
				C301.215,135.403,300.832,135.55,300.447,135.55z"/>
		</g>
		<g>
			<path fill="#064A93" d="M317.453,135.55c-0.385,0-0.768-0.146-1.061-0.439l-6.01-6.01c-0.586-0.586-0.586-1.535,0-2.121
				l6.01-6.012c0.584-0.586,1.535-0.586,2.121,0s0.586,1.535,0,2.121l-4.949,4.951l4.949,4.949c0.586,0.586,0.586,1.535,0,2.121
				C318.221,135.403,317.836,135.55,317.453,135.55z"/>
		</g>
		<g>
			<path fill="#064A93" d="M351.463,135.55c-0.385,0-0.768-0.146-1.061-0.439l-6.012-6.01c-0.586-0.586-0.586-1.535,0-2.121
				l6.012-6.012c0.586-0.586,1.535-0.586,2.121,0s0.586,1.535,0,2.121l-4.951,4.951l4.951,4.949c0.586,0.586,0.586,1.535,0,2.121
				C352.23,135.403,351.846,135.55,351.463,135.55z"/>
		</g>
		<g>
			<path fill="#064A93" d="M368.467,135.55c-0.383,0-0.768-0.146-1.061-0.439l-6.01-6.01c-0.586-0.586-0.586-1.535,0-2.121
				l6.01-6.012c0.586-0.586,1.535-0.586,2.121,0s0.586,1.535,0,2.121l-4.949,4.951l4.949,4.949c0.586,0.586,0.586,1.535,0,2.121
				C369.234,135.403,368.852,135.55,368.467,135.55z"/>
		</g>
		<g>
			<path fill="#064A93" d="M385.473,135.55c-0.385,0-0.768-0.146-1.061-0.439l-6.012-6.01c-0.586-0.586-0.586-1.535,0-2.121
				l6.012-6.012c0.586-0.586,1.535-0.586,2.121,0s0.586,1.535,0,2.121l-4.951,4.951l4.951,4.949c0.586,0.586,0.586,1.535,0,2.121
				C386.24,135.403,385.855,135.55,385.473,135.55z"/>
		</g>
		<g>
			<path fill="#064A93" d="M79.283,90.695c-0.385,0-0.768-0.146-1.061-0.439l-6.01-6.011c-0.586-0.586-0.586-1.535,0-2.121
				l6.01-6.011c0.584-0.586,1.535-0.586,2.121,0s0.586,1.535,0,2.121l-4.949,4.95l4.949,4.95c0.586,0.586,0.586,1.535,0,2.121
				C80.051,90.549,79.666,90.695,79.283,90.695z"/>
		</g>
		<g>
			<path fill="#064A93" d="M96.287,90.695c-0.383,0-0.768-0.146-1.061-0.439l-6.01-6.011c-0.586-0.586-0.586-1.535,0-2.121
				l6.01-6.011c0.586-0.586,1.535-0.586,2.121,0s0.586,1.535,0,2.121l-4.949,4.95l4.949,4.95c0.586,0.586,0.586,1.535,0,2.121
				C97.055,90.549,96.672,90.695,96.287,90.695z"/>
		</g>
		<g>
			<path fill="#064A93" d="M96.287,47.521c-0.383,0-0.768-0.146-1.061-0.439l-6.01-6.011c-0.586-0.586-0.586-1.535,0-2.121
				l6.01-6.011c0.586-0.586,1.535-0.586,2.121,0s0.586,1.535,0,2.121l-4.949,4.95l4.949,4.95c0.586,0.586,0.586,1.535,0,2.121
				C97.055,47.375,96.672,47.521,96.287,47.521z"/>
		</g>
		<g>
			<path fill="#064A93" d="M277.23,54.087c0.383,0,0.768,0.146,1.061,0.439l6.01,6.011c0.586,0.586,0.586,1.535,0,2.121l-6.01,6.011
				c-0.586,0.586-1.535,0.586-2.121,0s-0.586-1.535,0-2.121l4.949-4.95l-4.949-4.95c-0.586-0.586-0.586-1.535,0-2.121
				C276.463,54.233,276.846,54.087,277.23,54.087z"/>
		</g>
		<g>
			<path fill="#064A93" d="M226.215,54.087c0.385,0,0.768,0.146,1.061,0.439l6.01,6.011c0.586,0.586,0.586,1.535,0,2.121
				l-6.01,6.011c-0.584,0.586-1.535,0.586-2.121,0s-0.586-1.535,0-2.121l4.949-4.95l-4.949-4.95c-0.586-0.586-0.586-1.535,0-2.121
				C225.447,54.233,225.832,54.087,226.215,54.087z"/>
		</g>
		<g>
			<path fill="#064A93" d="M209.211,54.087c0.383,0,0.768,0.146,1.061,0.439l6.01,6.011c0.586,0.586,0.586,1.535,0,2.121
				l-6.01,6.011c-0.586,0.586-1.535,0.586-2.121,0s-0.586-1.535,0-2.121l4.949-4.95l-4.949-4.95c-0.586-0.586-0.586-1.535,0-2.121
				C208.443,54.233,208.826,54.087,209.211,54.087z"/>
		</g>
		<g>
			<path fill="#064A93" d="M175.201,54.087c0.383,0,0.768,0.146,1.061,0.439l6.01,6.011c0.586,0.586,0.586,1.535,0,2.121
				l-6.01,6.011c-0.586,0.586-1.535,0.586-2.121,0s-0.586-1.535,0-2.121l4.949-4.95l-4.949-4.95c-0.586-0.586-0.586-1.535,0-2.121
				C174.434,54.233,174.816,54.087,175.201,54.087z"/>
		</g>
		<g>
			<path fill="#064A93" d="M158.195,54.087c0.385,0,0.768,0.146,1.061,0.439l6.01,6.011c0.586,0.586,0.586,1.535,0,2.121
				l-6.01,6.011c-0.584,0.586-1.535,0.586-2.121,0s-0.586-1.535,0-2.121l4.949-4.95l-4.949-4.95c-0.586-0.586-0.586-1.535,0-2.121
				C157.428,54.233,157.812,54.087,158.195,54.087z"/>
		</g>
		<g>
			<path fill="#064A93" d="M141.191,54.087c0.383,0,0.768,0.146,1.061,0.439l6.01,6.011c0.586,0.586,0.586,1.535,0,2.121
				l-6.01,6.011c-0.586,0.586-1.535,0.586-2.121,0s-0.586-1.535,0-2.121l4.949-4.95l-4.949-4.95c-0.586-0.586-0.586-1.535,0-2.121
				C140.424,54.233,140.807,54.087,141.191,54.087z"/>
		</g>
		<g>
			<path fill="#064A93" d="M124.186,54.087c0.385,0,0.768,0.146,1.061,0.439l6.01,6.011c0.586,0.586,0.586,1.535,0,2.121
				l-6.01,6.011c-0.584,0.586-1.535,0.586-2.121,0s-0.586-1.535,0-2.121l4.949-4.95l-4.949-4.95c-0.586-0.586-0.586-1.535,0-2.121
				C123.418,54.233,123.803,54.087,124.186,54.087z"/>
		</g>
		<g>
			<path fill="#064A93" d="M107.182,54.087c0.383,0,0.768,0.146,1.061,0.439l6.01,6.011c0.586,0.586,0.586,1.535,0,2.121
				l-6.01,6.011c-0.586,0.586-1.535,0.586-2.121,0s-0.586-1.535,0-2.121l4.949-4.95l-4.949-4.95c-0.586-0.586-0.586-1.535,0-2.121
				C106.414,54.233,106.797,54.087,107.182,54.087z"/>
		</g>
		<g>
			<path fill="#064A93" d="M90.176,54.087c0.385,0,0.768,0.146,1.061,0.439l6.01,6.011c0.586,0.586,0.586,1.535,0,2.121l-6.01,6.011
				c-0.584,0.586-1.535,0.586-2.121,0s-0.586-1.535,0-2.121l4.949-4.95l-4.949-4.95c-0.586-0.586-0.586-1.535,0-2.121
				C89.408,54.233,89.793,54.087,90.176,54.087z"/>
		</g>
		<g>
			<path fill="#064A93" d="M73.172,54.087c0.383,0,0.768,0.146,1.061,0.439l6.01,6.011c0.586,0.586,0.586,1.535,0,2.121l-6.01,6.011
				c-0.586,0.586-1.535,0.586-2.121,0s-0.586-1.535,0-2.121l4.949-4.95l-4.949-4.95c-0.586-0.586-0.586-1.535,0-2.121
				C72.404,54.233,72.787,54.087,73.172,54.087z"/>
		</g>
		<g>
			<path fill="#064A93" d="M294.336,54.087c0.385,0,0.768,0.146,1.061,0.439l6.01,6.011c0.586,0.586,0.586,1.535,0,2.121
				l-6.01,6.011c-0.584,0.586-1.535,0.586-2.121,0s-0.586-1.535,0-2.121l4.949-4.95l-4.949-4.95c-0.586-0.586-0.586-1.535,0-2.121
				C293.568,54.233,293.953,54.087,294.336,54.087z"/>
		</g>
		<g>
			<path fill="#064A93" d="M192.205,10.913c0.385,0,0.768,0.146,1.061,0.439l6.01,6.011c0.586,0.586,0.586,1.535,0,2.121
				l-6.01,6.011c-0.584,0.586-1.535,0.586-2.121,0s-0.586-1.535,0-2.121l4.949-4.95l-4.949-4.95c-0.586-0.586-0.586-1.535,0-2.121
				C191.438,11.06,191.822,10.913,192.205,10.913z"/>
		</g>
		<g>
			<path fill="#064A93" d="M175.201,10.913c0.383,0,0.768,0.146,1.061,0.439l6.01,6.011c0.586,0.586,0.586,1.535,0,2.121
				l-6.01,6.011c-0.586,0.586-1.535,0.586-2.121,0s-0.586-1.535,0-2.121l4.949-4.95l-4.949-4.95c-0.586-0.586-0.586-1.535,0-2.121
				C174.434,11.06,174.816,10.913,175.201,10.913z"/>
		</g>
		<g>
			<path fill="#064A93" d="M277.23,98.101c0.383,0,0.768,0.146,1.061,0.439l6.01,6.012c0.586,0.586,0.586,1.535,0,2.121l-6.01,6.01
				c-0.586,0.586-1.535,0.586-2.121,0s-0.586-1.535,0-2.121l4.949-4.949l-4.949-4.951c-0.586-0.586-0.586-1.535,0-2.121
				C276.463,98.247,276.846,98.101,277.23,98.101z"/>
		</g>
		<g>
			<path fill="#064A93" d="M260.225,98.101c0.385,0,0.768,0.146,1.061,0.439l6.01,6.012c0.586,0.586,0.586,1.535,0,2.121l-6.01,6.01
				c-0.584,0.586-1.535,0.586-2.121,0s-0.586-1.535,0-2.121l4.949-4.949l-4.949-4.951c-0.586-0.586-0.586-1.535,0-2.121
				C259.457,98.247,259.842,98.101,260.225,98.101z"/>
		</g>
		<g>
			<path fill="#064A93" d="M243.221,98.101c0.383,0,0.768,0.146,1.061,0.439l6.01,6.012c0.586,0.586,0.586,1.535,0,2.121l-6.01,6.01
				c-0.586,0.586-1.535,0.586-2.121,0s-0.586-1.535,0-2.121l4.949-4.949l-4.949-4.951c-0.586-0.586-0.586-1.535,0-2.121
				C242.453,98.247,242.836,98.101,243.221,98.101z"/>
		</g>
		<g>
			<path fill="#064A93" d="M226.215,98.101c0.385,0,0.768,0.146,1.061,0.439l6.01,6.012c0.586,0.586,0.586,1.535,0,2.121l-6.01,6.01
				c-0.584,0.586-1.535,0.586-2.121,0s-0.586-1.535,0-2.121l4.949-4.949l-4.949-4.951c-0.586-0.586-0.586-1.535,0-2.121
				C225.447,98.247,225.832,98.101,226.215,98.101z"/>
		</g>
		<g>
			<path fill="#064A93" d="M209.211,98.101c0.383,0,0.768,0.146,1.061,0.439l6.01,6.012c0.586,0.586,0.586,1.535,0,2.121l-6.01,6.01
				c-0.586,0.586-1.535,0.586-2.121,0s-0.586-1.535,0-2.121l4.949-4.949l-4.949-4.951c-0.586-0.586-0.586-1.535,0-2.121
				C208.443,98.247,208.826,98.101,209.211,98.101z"/>
		</g>
		<g>
			<path fill="#064A93" d="M192.205,98.101c0.385,0,0.768,0.146,1.061,0.439l6.01,6.012c0.586,0.586,0.586,1.535,0,2.121l-6.01,6.01
				c-0.584,0.586-1.535,0.586-2.121,0s-0.586-1.535,0-2.121l4.949-4.949l-4.949-4.951c-0.586-0.586-0.586-1.535,0-2.121
				C191.438,98.247,191.822,98.101,192.205,98.101z"/>
		</g>
		<g>
			<path fill="#064A93" d="M175.201,98.101c0.383,0,0.768,0.146,1.061,0.439l6.01,6.012c0.586,0.586,0.586,1.535,0,2.121l-6.01,6.01
				c-0.586,0.586-1.535,0.586-2.121,0s-0.586-1.535,0-2.121l4.949-4.949l-4.949-4.951c-0.586-0.586-0.586-1.535,0-2.121
				C174.434,98.247,174.816,98.101,175.201,98.101z"/>
		</g>
		<g>
			<path fill="#064A93" d="M141.191,98.101c0.383,0,0.768,0.146,1.061,0.439l6.01,6.012c0.586,0.586,0.586,1.535,0,2.121l-6.01,6.01
				c-0.586,0.586-1.535,0.586-2.121,0s-0.586-1.535,0-2.121l4.949-4.949l-4.949-4.951c-0.586-0.586-0.586-1.535,0-2.121
				C140.424,98.247,140.807,98.101,141.191,98.101z"/>
		</g>
		<g>
			<path fill="#064A93" d="M124.186,98.101c0.385,0,0.768,0.146,1.061,0.439l6.01,6.012c0.586,0.586,0.586,1.535,0,2.121l-6.01,6.01
				c-0.584,0.586-1.535,0.586-2.121,0s-0.586-1.535,0-2.121l4.949-4.949l-4.949-4.951c-0.586-0.586-0.586-1.535,0-2.121
				C123.418,98.247,123.803,98.101,124.186,98.101z"/>
		</g>
		<g>
			<path fill="#064A93" d="M107.182,98.101c0.383,0,0.768,0.146,1.061,0.439l6.01,6.012c0.586,0.586,0.586,1.535,0,2.121l-6.01,6.01
				c-0.586,0.586-1.535,0.586-2.121,0s-0.586-1.535,0-2.121l4.949-4.949l-4.949-4.951c-0.586-0.586-0.586-1.535,0-2.121
				C106.414,98.247,106.797,98.101,107.182,98.101z"/>
		</g>
		<g>
			<path fill="#064A93" d="M90.176,98.101c0.385,0,0.768,0.146,1.061,0.439l6.01,6.012c0.586,0.586,0.586,1.535,0,2.121l-6.01,6.01
				c-0.584,0.586-1.535,0.586-2.121,0s-0.586-1.535,0-2.121l4.949-4.949l-4.949-4.951c-0.586-0.586-0.586-1.535,0-2.121
				C89.408,98.247,89.793,98.101,90.176,98.101z"/>
		</g>
		<g>
			<path fill="#064A93" d="M73.172,98.101c0.383,0,0.768,0.146,1.061,0.439l6.01,6.012c0.586,0.586,0.586,1.535,0,2.121l-6.01,6.01
				c-0.586,0.586-1.535,0.586-2.121,0s-0.586-1.535,0-2.121l4.949-4.949l-4.949-4.951c-0.586-0.586-0.586-1.535,0-2.121
				C72.404,98.247,72.787,98.101,73.172,98.101z"/>
		</g>
		<g>
			<path fill="#064A93" d="M56.166,98.101c0.383,0,0.768,0.146,1.061,0.439l6.01,6.012c0.586,0.586,0.586,1.535,0,2.121l-6.01,6.01
				c-0.586,0.586-1.535,0.586-2.121,0s-0.586-1.535,0-2.121l4.949-4.949l-4.949-4.951c-0.586-0.586-0.586-1.535,0-2.121
				C55.398,98.247,55.781,98.101,56.166,98.101z"/>
		</g>
		<g>
			<path fill="#064A93" d="M39.16,98.101c0.385,0,0.768,0.146,1.061,0.439l6.012,6.012c0.586,0.586,0.586,1.535,0,2.121l-6.012,6.01
				c-0.586,0.586-1.535,0.586-2.121,0s-0.586-1.535,0-2.121l4.951-4.949l-4.951-4.951c-0.586-0.586-0.586-1.535,0-2.121
				C38.393,98.247,38.777,98.101,39.16,98.101z"/>
		</g>
		<g>
			<path fill="#064A93" d="M22.156,98.101c0.383,0,0.768,0.146,1.061,0.439l6.01,6.012c0.586,0.586,0.586,1.535,0,2.121l-6.01,6.01
				c-0.586,0.586-1.535,0.586-2.121,0s-0.586-1.535,0-2.121l4.949-4.949l-4.949-4.951c-0.586-0.586-0.586-1.535,0-2.121
				C21.389,98.247,21.771,98.101,22.156,98.101z"/>
		</g>
		<g>
			<path fill="#064A93" d="M328.346,98.101c0.383,0,0.768,0.146,1.061,0.439l6.01,6.012c0.586,0.586,0.586,1.535,0,2.121l-6.01,6.01
				c-0.586,0.586-1.535,0.586-2.121,0s-0.586-1.535,0-2.121l4.949-4.949l-4.949-4.951c-0.586-0.586-0.586-1.535,0-2.121
				C327.578,98.247,327.961,98.101,328.346,98.101z"/>
		</g>
		<g>
			<path fill="#064A93" d="M311.342,98.101c0.383,0,0.768,0.146,1.061,0.439l6.01,6.012c0.586,0.586,0.586,1.535,0,2.121l-6.01,6.01
				c-0.586,0.586-1.535,0.586-2.121,0s-0.586-1.535,0-2.121l4.949-4.949l-4.949-4.951c-0.586-0.586-0.586-1.535,0-2.121
				C310.574,98.247,310.957,98.101,311.342,98.101z"/>
		</g>
		<g>
			<path fill="#064A93" d="M294.336,98.101c0.385,0,0.768,0.146,1.061,0.439l6.01,6.012c0.586,0.586,0.586,1.535,0,2.121l-6.01,6.01
				c-0.584,0.586-1.535,0.586-2.121,0s-0.586-1.535,0-2.121l4.949-4.949l-4.949-4.951c-0.586-0.586-0.586-1.535,0-2.121
				C293.568,98.247,293.953,98.101,294.336,98.101z"/>
		</g>
		<g>
			<path fill="#064A93" d="M379.461,98.101c0.385,0,0.768,0.146,1.061,0.439l6.012,6.012c0.586,0.586,0.586,1.535,0,2.121
				l-6.012,6.01c-0.584,0.586-1.535,0.586-2.121,0s-0.586-1.535,0-2.121l4.951-4.949l-4.951-4.951c-0.586-0.586-0.586-1.535,0-2.121
				C378.693,98.247,379.078,98.101,379.461,98.101z"/>
		</g>
		<g>
			<path fill="#064A93" d="M362.457,98.101c0.383,0,0.768,0.146,1.061,0.439l6.01,6.012c0.586,0.586,0.586,1.535,0,2.121l-6.01,6.01
				c-0.586,0.586-1.535,0.586-2.121,0s-0.586-1.535,0-2.121l4.949-4.949l-4.949-4.951c-0.586-0.586-0.586-1.535,0-2.121
				C361.689,98.247,362.072,98.101,362.457,98.101z"/>
		</g>
		<g>
			<path fill="#064A93" d="M345.451,98.101c0.385,0,0.768,0.146,1.061,0.439l6.012,6.012c0.586,0.586,0.586,1.535,0,2.121
				l-6.012,6.01c-0.584,0.586-1.535,0.586-2.121,0s-0.586-1.535,0-2.121l4.951-4.949l-4.951-4.951c-0.586-0.586-0.586-1.535,0-2.121
				C344.684,98.247,345.068,98.101,345.451,98.101z"/>
		</g>
		<g>
			<path fill="#064A93" d="M277.23,142.956c0.383,0,0.768,0.146,1.061,0.439l6.01,6.012c0.586,0.586,0.586,1.535,0,2.121l-6.01,6.01
				c-0.586,0.586-1.535,0.586-2.121,0s-0.586-1.535,0-2.121l4.949-4.949l-4.949-4.951c-0.586-0.586-0.586-1.535,0-2.121
				C276.463,143.103,276.846,142.956,277.23,142.956z"/>
		</g>
		<g>
			<path fill="#064A93" d="M243.221,142.956c0.383,0,0.768,0.146,1.061,0.439l6.01,6.012c0.586,0.586,0.586,1.535,0,2.121
				l-6.01,6.01c-0.586,0.586-1.535,0.586-2.121,0s-0.586-1.535,0-2.121l4.949-4.949l-4.949-4.951c-0.586-0.586-0.586-1.535,0-2.121
				C242.453,143.103,242.836,142.956,243.221,142.956z"/>
		</g>
		<g>
			<path fill="#064A93" d="M226.215,142.956c0.385,0,0.768,0.146,1.061,0.439l6.01,6.012c0.586,0.586,0.586,1.535,0,2.121
				l-6.01,6.01c-0.584,0.586-1.535,0.586-2.121,0s-0.586-1.535,0-2.121l4.949-4.949l-4.949-4.951c-0.586-0.586-0.586-1.535,0-2.121
				C225.447,143.103,225.832,142.956,226.215,142.956z"/>
		</g>
		<g>
			<path fill="#064A93" d="M209.211,142.956c0.383,0,0.768,0.146,1.061,0.439l6.01,6.012c0.586,0.586,0.586,1.535,0,2.121
				l-6.01,6.01c-0.586,0.586-1.535,0.586-2.121,0s-0.586-1.535,0-2.121l4.949-4.949l-4.949-4.951c-0.586-0.586-0.586-1.535,0-2.121
				C208.443,143.103,208.826,142.956,209.211,142.956z"/>
		</g>
		<g>
			<path fill="#064A93" d="M328.346,142.956c0.383,0,0.768,0.146,1.061,0.439l6.01,6.012c0.586,0.586,0.586,1.535,0,2.121
				l-6.01,6.01c-0.586,0.586-1.535,0.586-2.121,0s-0.586-1.535,0-2.121l4.949-4.949l-4.949-4.951c-0.586-0.586-0.586-1.535,0-2.121
				C327.578,143.103,327.961,142.956,328.346,142.956z"/>
		</g>
		<g>
			<path fill="#064A93" d="M311.342,142.956c0.383,0,0.768,0.146,1.061,0.439l6.01,6.012c0.586,0.586,0.586,1.535,0,2.121
				l-6.01,6.01c-0.586,0.586-1.535,0.586-2.121,0s-0.586-1.535,0-2.121l4.949-4.949l-4.949-4.951c-0.586-0.586-0.586-1.535,0-2.121
				C310.574,143.103,310.957,142.956,311.342,142.956z"/>
		</g>
		<g>
			<path fill="#064A93" d="M294.336,142.956c0.385,0,0.768,0.146,1.061,0.439l6.01,6.012c0.586,0.586,0.586,1.535,0,2.121
				l-6.01,6.01c-0.584,0.586-1.535,0.586-2.121,0s-0.586-1.535,0-2.121l4.949-4.949l-4.949-4.951c-0.586-0.586-0.586-1.535,0-2.121
				C293.568,143.103,293.953,142.956,294.336,142.956z"/>
		</g>
		<g>
			<path fill="#064A93" d="M362.457,142.956c0.383,0,0.768,0.146,1.061,0.439l6.01,6.012c0.586,0.586,0.586,1.535,0,2.121
				l-6.01,6.01c-0.586,0.586-1.535,0.586-2.121,0s-0.586-1.535,0-2.121l4.949-4.949l-4.949-4.951c-0.586-0.586-0.586-1.535,0-2.121
				C361.689,143.103,362.072,142.956,362.457,142.956z"/>
		</g>
		<g>
			<path fill="#064A93" d="M345.451,142.956c0.385,0,0.768,0.146,1.061,0.439l6.012,6.012c0.586,0.586,0.586,1.535,0,2.121
				l-6.012,6.01c-0.584,0.586-1.535,0.586-2.121,0s-0.586-1.535,0-2.121l4.951-4.949l-4.951-4.951c-0.586-0.586-0.586-1.535,0-2.121
				C344.684,143.103,345.068,142.956,345.451,142.956z"/>
		</g>
		<g>
			<path fill="#064A93" d="M232.428,180.405c-0.383,0-0.768-0.146-1.061-0.439l-6.01-6.01c-0.586-0.586-0.586-1.535,0-2.121
				l6.01-6.012c0.586-0.586,1.535-0.586,2.121,0s0.586,1.535,0,2.121l-4.949,4.951l4.949,4.949c0.586,0.586,0.586,1.535,0,2.121
				C233.195,180.259,232.812,180.405,232.428,180.405z"/>
		</g>
		<g>
			<path fill="#FB8C3B" d="M162.814,105.612l4.949-4.951c0.586-0.586,0.586-1.535,0-2.121s-1.537-0.586-2.121,0l-4.656,4.656
				l-4.656-4.656c-0.293-0.293-0.676-0.439-1.061-0.439c-0.383,0-0.768,0.146-1.061,0.439c-0.586,0.586-0.586,1.535,0,2.121
				l4.951,4.949l-4.951,4.951c-0.586,0.586-0.586,1.535,0,2.121s1.537,0.586,2.121,0l4.656-4.656l4.656,4.656
				c0.293,0.293,0.676,0.439,1.061,0.439c0.383,0,0.768-0.146,1.061-0.439c0.586-0.586,0.586-1.535,0-2.121L162.814,105.612z"/>
		</g>
		<g>
			<path fill="#FB8C3B" d="M130.562,83.361l4.951-4.95c0.586-0.586,0.586-1.535,0-2.121s-1.537-0.586-2.121,0l-4.656,4.655
				l-4.656-4.656c-0.293-0.293-0.676-0.439-1.061-0.439c-0.383,0-0.768,0.146-1.061,0.439c-0.586,0.586-0.586,1.535,0,2.121
				l4.949,4.95l-4.949,4.95c-0.586,0.586-0.586,1.535,0,2.121s1.537,0.586,2.121,0l4.656-4.656l4.656,4.657
				c0.293,0.293,0.676,0.439,1.061,0.439c0.383,0,0.768-0.146,1.061-0.439c0.586-0.586,0.586-1.535,0-2.121L130.562,83.361z"/>
		</g>
		<g>
			<path fill="#FB8C3B" d="M334.285,128.04l4.949-4.951c0.586-0.586,0.586-1.535,0-2.121s-1.537-0.586-2.121,0l-4.656,4.656
				l-4.656-4.656c-0.293-0.293-0.676-0.439-1.061-0.439c-0.383,0-0.768,0.146-1.061,0.439c-0.586,0.586-0.586,1.535,0,2.121
				l4.951,4.949l-4.951,4.951c-0.586,0.586-0.586,1.535,0,2.121s1.537,0.586,2.121,0l4.656-4.656l4.656,4.656
				c0.293,0.293,0.676,0.439,1.061,0.439c0.383,0,0.768-0.146,1.061-0.439c0.586-0.586,0.586-1.535,0-2.121L334.285,128.04z"/>
		</g>
	</g>
	<g>
		<rect x="414.588" y="6.595" fill="#4D4D4D" width="1" height="173.811"/>
	</g>
</g>
</svg>
