<?xml version="1.0" encoding="utf-8"?>
<!-- Generator: Adobe Illustrator 16.0.0, SVG Export Plug-In . SVG Version: 6.00 Build 0)  -->
<!DOCTYPE svg PUBLIC "-//W3C//DTD SVG 1.1//EN" "http://www.w3.org/Graphics/SVG/1.1/DTD/svg11.dtd">
<svg version="1.1" id="Layer_1" xmlns="http://www.w3.org/2000/svg" xmlns:xlink="http://www.w3.org/1999/xlink" x="0px" y="0px"
	 width="181px" height="41.313px" viewBox="0 0 181 41.313" enable-background="new 0 0 181 41.313" xml:space="preserve">
<g>
	<text transform="matrix(1 0 0 1 98.8491 12.2925)"><tspan x="0" y="0" fill="#4D4D4D" font-family="'Rubik-Regular'" font-size="12.1211">Mediterranean</tspan><tspan x="0" y="12" fill="#4D4D4D" font-family="'Rubik-Regular'" font-size="12.1211">Platform on</tspan><tspan x="0" y="24" fill="#4D4D4D" font-family="'Rubik-Regular'" font-size="12.1211">Biodiversity</tspan></text>
	<g>
		<path fill="#064A93" d="M22.112,19.485c-0.091,0-0.181-0.034-0.25-0.104l-1.418-1.418c-0.138-0.138-0.138-0.362,0-0.5l1.418-1.418
			c0.138-0.139,0.362-0.139,0.5,0c0.139,0.138,0.139,0.362,0,0.5l-1.167,1.168l1.167,1.168c0.139,0.138,0.139,0.361,0,0.5
			C22.293,19.451,22.203,19.485,22.112,19.485z"/>
		<path fill="#064A93" d="M30.135,19.485c-0.091,0-0.181-0.034-0.25-0.104l-1.418-1.418c-0.138-0.138-0.138-0.362,0-0.5l1.418-1.418
			c0.138-0.139,0.362-0.139,0.5,0c0.139,0.138,0.139,0.362,0,0.5l-1.167,1.168l1.167,1.168c0.139,0.138,0.139,0.361,0,0.5
			C30.315,19.451,30.226,19.485,30.135,19.485z"/>
		<path fill="#064A93" d="M34.146,19.485c-0.09,0-0.181-0.034-0.25-0.104l-1.417-1.418c-0.139-0.138-0.139-0.362,0-0.5l1.417-1.418
			c0.139-0.139,0.362-0.139,0.501,0c0.138,0.138,0.138,0.362,0,0.5l-1.168,1.168l1.168,1.168c0.138,0.138,0.138,0.361,0,0.5
			C34.327,19.451,34.236,19.485,34.146,19.485z"/>
		<path fill="#064A93" d="M38.157,19.485c-0.091,0-0.181-0.034-0.25-0.104l-1.418-1.418c-0.138-0.138-0.138-0.362,0-0.5l1.418-1.418
			c0.138-0.139,0.362-0.139,0.5,0c0.139,0.138,0.139,0.362,0,0.5l-1.167,1.168l1.167,1.168c0.139,0.138,0.139,0.361,0,0.5
			C38.339,19.451,38.248,19.485,38.157,19.485z"/>
		<path fill="#064A93" d="M42.168,19.485c-0.09,0-0.181-0.034-0.25-0.104l-1.417-1.418c-0.139-0.138-0.139-0.362,0-0.5l1.417-1.418
			c0.139-0.139,0.362-0.139,0.501,0c0.138,0.138,0.138,0.362,0,0.5l-1.168,1.168l1.168,1.168c0.138,0.138,0.138,0.361,0,0.5
			C42.35,19.451,42.259,19.485,42.168,19.485z"/>
		<path fill="#064A93" d="M46.18,19.485c-0.091,0-0.181-0.034-0.25-0.104l-1.418-1.418c-0.138-0.138-0.138-0.362,0-0.5l1.418-1.418
			c0.138-0.139,0.362-0.139,0.5,0c0.139,0.138,0.139,0.362,0,0.5l-1.167,1.168l1.167,1.168c0.139,0.138,0.139,0.361,0,0.5
			C46.361,19.451,46.271,19.485,46.18,19.485z"/>
		<path fill="#064A93" d="M50.19,19.485c-0.09,0-0.181-0.034-0.25-0.104l-1.417-1.418c-0.139-0.138-0.139-0.362,0-0.5l1.417-1.418
			c0.139-0.139,0.362-0.139,0.501,0c0.138,0.138,0.138,0.362,0,0.5l-1.168,1.168l1.168,1.168c0.138,0.138,0.138,0.361,0,0.5
			C50.372,19.451,50.281,19.485,50.19,19.485z"/>
		<path fill="#064A93" d="M54.202,19.485c-0.091,0-0.181-0.034-0.25-0.104l-1.418-1.418c-0.138-0.138-0.138-0.362,0-0.5l1.418-1.418
			c0.138-0.139,0.362-0.139,0.5,0c0.139,0.138,0.139,0.362,0,0.5l-1.167,1.168l1.167,1.168c0.139,0.138,0.139,0.361,0,0.5
			C54.383,19.451,54.292,19.485,54.202,19.485z"/>
		<path fill="#064A93" d="M62.225,19.485c-0.091,0-0.181-0.034-0.25-0.104l-1.418-1.418c-0.138-0.138-0.138-0.362,0-0.5l1.418-1.418
			c0.138-0.139,0.362-0.139,0.5,0c0.139,0.138,0.139,0.362,0,0.5l-1.167,1.168l1.167,1.168c0.139,0.138,0.139,0.361,0,0.5
			C62.405,19.451,62.314,19.485,62.225,19.485z"/>
		<path fill="#064A93" d="M66.235,19.485c-0.09,0-0.181-0.034-0.25-0.104l-1.418-1.418c-0.138-0.138-0.138-0.362,0-0.5l1.418-1.418
			c0.139-0.139,0.362-0.139,0.501,0c0.138,0.138,0.138,0.362,0,0.5l-1.168,1.168l1.168,1.168c0.138,0.138,0.138,0.361,0,0.5
			C66.417,19.451,66.326,19.485,66.235,19.485z"/>
		<path fill="#064A93" d="M22.112,9.3c-0.091,0-0.181-0.034-0.25-0.104L20.444,7.78c-0.138-0.139-0.138-0.362,0-0.501l1.418-1.418
			c0.138-0.138,0.362-0.138,0.5,0c0.139,0.139,0.139,0.362,0,0.501l-1.167,1.167l1.167,1.168c0.139,0.139,0.139,0.362,0,0.5
			C22.293,9.266,22.203,9.3,22.112,9.3z"/>
		<path fill="#064A93" d="M26.123,9.3c-0.09,0-0.181-0.034-0.25-0.104L24.455,7.78c-0.138-0.139-0.138-0.362,0-0.501l1.418-1.418
			c0.139-0.138,0.362-0.138,0.501,0c0.138,0.139,0.138,0.362,0,0.501l-1.168,1.167l1.168,1.168c0.138,0.139,0.138,0.362,0,0.5
			C26.305,9.266,26.214,9.3,26.123,9.3z"/>
		<path fill="#064A93" d="M30.135,9.3c-0.091,0-0.181-0.034-0.25-0.104L28.467,7.78c-0.138-0.139-0.138-0.362,0-0.501l1.418-1.418
			c0.138-0.138,0.362-0.138,0.5,0c0.139,0.139,0.139,0.362,0,0.501l-1.167,1.167l1.167,1.168c0.139,0.139,0.139,0.362,0,0.5
			C30.315,9.266,30.226,9.3,30.135,9.3z"/>
		<path fill="#064A93" d="M34.146,9.3c-0.09,0-0.181-0.034-0.25-0.104L32.479,7.78c-0.139-0.139-0.139-0.362,0-0.501l1.417-1.418
			c0.139-0.138,0.362-0.138,0.501,0c0.138,0.139,0.138,0.362,0,0.501l-1.168,1.167l1.168,1.168c0.138,0.139,0.138,0.362,0,0.5
			C34.327,9.266,34.236,9.3,34.146,9.3z"/>
		<path fill="#064A93" d="M42.168,9.3c-0.09,0-0.181-0.034-0.25-0.104L40.501,7.78c-0.139-0.139-0.139-0.362,0-0.501l1.417-1.418
			c0.139-0.138,0.362-0.138,0.501,0c0.138,0.139,0.138,0.362,0,0.501l-1.168,1.167l1.168,1.168c0.138,0.139,0.138,0.362,0,0.5
			C42.35,9.266,42.259,9.3,42.168,9.3z"/>
		<path fill="#064A93" d="M46.18,9.3c-0.091,0-0.181-0.034-0.25-0.104L44.512,7.78c-0.138-0.139-0.138-0.362,0-0.501l1.418-1.418
			c0.138-0.138,0.362-0.138,0.5,0c0.139,0.139,0.139,0.362,0,0.501l-1.167,1.167l1.167,1.168c0.139,0.139,0.139,0.362,0,0.5
			C46.361,9.266,46.271,9.3,46.18,9.3z"/>
		<path fill="#064A93" d="M34.146,30.066c-0.09,0-0.181-0.034-0.25-0.104l-1.417-1.418c-0.139-0.138-0.139-0.362,0-0.5l1.417-1.418
			c0.139-0.139,0.362-0.139,0.501,0c0.138,0.138,0.138,0.361,0,0.5l-1.168,1.168l1.168,1.167c0.138,0.139,0.138,0.362,0,0.501
			C34.327,30.032,34.236,30.066,34.146,30.066z"/>
		<path fill="#064A93" d="M38.157,30.066c-0.091,0-0.181-0.034-0.25-0.104l-1.418-1.418c-0.138-0.138-0.138-0.362,0-0.5l1.418-1.418
			c0.138-0.139,0.362-0.139,0.5,0c0.139,0.138,0.139,0.361,0,0.5l-1.167,1.168l1.167,1.167c0.139,0.139,0.139,0.362,0,0.501
			C38.339,30.032,38.248,30.066,38.157,30.066z"/>
		<path fill="#064A93" d="M42.168,30.066c-0.09,0-0.181-0.034-0.25-0.104l-1.417-1.418c-0.139-0.138-0.139-0.362,0-0.5l1.417-1.418
			c0.139-0.139,0.362-0.139,0.501,0c0.138,0.138,0.138,0.361,0,0.5l-1.168,1.168l1.168,1.167c0.138,0.139,0.138,0.362,0,0.501
			C42.35,30.032,42.259,30.066,42.168,30.066z"/>
		<path fill="#064A93" d="M46.18,30.066c-0.091,0-0.181-0.034-0.25-0.104l-1.418-1.418c-0.138-0.138-0.138-0.362,0-0.5l1.418-1.418
			c0.138-0.139,0.362-0.139,0.5,0c0.139,0.138,0.139,0.361,0,0.5l-1.167,1.168l1.167,1.167c0.139,0.139,0.139,0.362,0,0.501
			C46.361,30.032,46.271,30.066,46.18,30.066z"/>
		<path fill="#064A93" d="M50.19,30.066c-0.09,0-0.181-0.034-0.25-0.104l-1.417-1.418c-0.139-0.138-0.139-0.362,0-0.5l1.417-1.418
			c0.139-0.139,0.362-0.139,0.501,0c0.138,0.138,0.138,0.361,0,0.5l-1.168,1.168l1.168,1.167c0.138,0.139,0.138,0.362,0,0.501
			C50.372,30.032,50.281,30.066,50.19,30.066z"/>
		<path fill="#064A93" d="M54.202,30.066c-0.091,0-0.181-0.034-0.25-0.104l-1.418-1.418c-0.138-0.138-0.138-0.362,0-0.5l1.418-1.418
			c0.138-0.139,0.362-0.139,0.5,0c0.139,0.138,0.139,0.361,0,0.5l-1.167,1.168l1.167,1.167c0.139,0.139,0.139,0.362,0,0.501
			C54.383,30.032,54.292,30.066,54.202,30.066z"/>
		<path fill="#064A93" d="M58.213,30.066c-0.09,0-0.181-0.034-0.25-0.104l-1.418-1.418c-0.138-0.138-0.138-0.362,0-0.5l1.418-1.418
			c0.139-0.139,0.362-0.139,0.5,0c0.139,0.138,0.139,0.361,0,0.5l-1.167,1.168l1.167,1.167c0.139,0.139,0.139,0.362,0,0.501
			C58.395,30.032,58.304,30.066,58.213,30.066z"/>
		<path fill="#064A93" d="M62.225,30.066c-0.091,0-0.181-0.034-0.25-0.104l-1.418-1.418c-0.138-0.138-0.138-0.362,0-0.5l1.418-1.418
			c0.138-0.139,0.362-0.139,0.5,0c0.139,0.138,0.139,0.361,0,0.5l-1.167,1.168l1.167,1.167c0.139,0.139,0.139,0.362,0,0.501
			C62.405,30.032,62.314,30.066,62.225,30.066z"/>
		<path fill="#064A93" d="M66.235,30.066c-0.09,0-0.181-0.034-0.25-0.104l-1.418-1.418c-0.138-0.138-0.138-0.362,0-0.5l1.418-1.418
			c0.139-0.139,0.362-0.139,0.501,0c0.138,0.138,0.138,0.361,0,0.5l-1.168,1.168l1.168,1.167c0.138,0.139,0.138,0.362,0,0.501
			C66.417,30.032,66.326,30.066,66.235,30.066z"/>
		<path fill="#064A93" d="M70.247,30.066c-0.091,0-0.181-0.034-0.25-0.104l-1.418-1.418c-0.138-0.138-0.138-0.362,0-0.5l1.418-1.418
			c0.138-0.139,0.362-0.139,0.5,0c0.139,0.138,0.139,0.361,0,0.5l-1.167,1.168l1.167,1.167c0.139,0.139,0.139,0.362,0,0.501
			C70.428,30.032,70.338,30.066,70.247,30.066z"/>
		<path fill="#064A93" d="M78.27,30.066c-0.091,0-0.181-0.034-0.25-0.104l-1.418-1.418c-0.139-0.138-0.139-0.362,0-0.5l1.418-1.418
			c0.138-0.139,0.362-0.139,0.5,0c0.139,0.138,0.139,0.361,0,0.5l-1.168,1.168l1.168,1.167c0.139,0.139,0.139,0.362,0,0.501
			C78.45,30.032,78.359,30.066,78.27,30.066z"/>
		<path fill="#064A93" d="M82.28,30.066c-0.09,0-0.181-0.034-0.25-0.104l-1.418-1.418c-0.138-0.138-0.138-0.362,0-0.5l1.418-1.418
			c0.139-0.139,0.362-0.139,0.5,0c0.139,0.138,0.139,0.361,0,0.5l-1.167,1.168l1.167,1.167c0.139,0.139,0.139,0.362,0,0.501
			C82.462,30.032,82.371,30.066,82.28,30.066z"/>
		<path fill="#064A93" d="M86.292,30.066c-0.091,0-0.181-0.034-0.25-0.104l-1.418-1.418c-0.139-0.138-0.139-0.362,0-0.5l1.418-1.418
			c0.138-0.139,0.362-0.139,0.5,0c0.139,0.138,0.139,0.361,0,0.5l-1.168,1.168l1.168,1.167c0.139,0.139,0.139,0.362,0,0.501
			C86.473,30.032,86.383,30.066,86.292,30.066z"/>
		<path fill="#064A93" d="M14.065,19.485c-0.09,0-0.181-0.034-0.25-0.104l-1.417-1.418c-0.139-0.138-0.139-0.362,0-0.5l1.417-1.418
			c0.138-0.139,0.362-0.139,0.501,0c0.138,0.138,0.138,0.362,0,0.5l-1.168,1.168l1.168,1.168c0.138,0.138,0.138,0.361,0,0.5
			C14.247,19.451,14.156,19.485,14.065,19.485z"/>
		<path fill="#064A93" d="M18.077,19.485c-0.091,0-0.182-0.034-0.25-0.104l-1.418-1.418c-0.139-0.138-0.139-0.362,0-0.5l1.418-1.418
			c0.138-0.139,0.361-0.139,0.5,0c0.138,0.138,0.138,0.362,0,0.5l-1.168,1.168l1.168,1.168c0.138,0.138,0.138,0.361,0,0.5
			C18.258,19.451,18.168,19.485,18.077,19.485z"/>
		<path fill="#064A93" d="M18.077,9.3c-0.091,0-0.182-0.034-0.25-0.104L16.409,7.78c-0.139-0.139-0.139-0.362,0-0.501l1.418-1.418
			c0.138-0.138,0.361-0.138,0.5,0c0.138,0.139,0.138,0.362,0,0.501l-1.168,1.167l1.168,1.168c0.138,0.139,0.138,0.362,0,0.5
			C18.258,9.266,18.168,9.3,18.077,9.3z"/>
		<path fill="#064A93" d="M60.759,10.85c0.091,0,0.182,0.034,0.25,0.104l1.418,1.417c0.139,0.139,0.139,0.362,0,0.501l-1.418,1.418
			c-0.138,0.138-0.361,0.138-0.5,0c-0.138-0.139-0.138-0.362,0-0.5l1.168-1.168l-1.168-1.168c-0.138-0.138-0.138-0.362,0-0.5
			C60.578,10.884,60.668,10.85,60.759,10.85z"/>
		<path fill="#064A93" d="M48.726,10.85c0.091,0,0.181,0.034,0.25,0.104l1.418,1.417c0.138,0.139,0.138,0.362,0,0.501l-1.418,1.418
			c-0.138,0.138-0.362,0.138-0.5,0c-0.139-0.139-0.139-0.362,0-0.5l1.167-1.168l-1.167-1.168c-0.139-0.138-0.139-0.362,0-0.5
			C48.544,10.884,48.635,10.85,48.726,10.85z"/>
		<path fill="#064A93" d="M44.714,10.85c0.091,0,0.182,0.034,0.251,0.104l1.417,1.417c0.139,0.139,0.139,0.362,0,0.501l-1.417,1.418
			c-0.139,0.138-0.362,0.138-0.501,0c-0.138-0.139-0.138-0.362,0-0.5l1.168-1.168l-1.168-1.168c-0.138-0.138-0.138-0.362,0-0.5
			C44.533,10.884,44.624,10.85,44.714,10.85z"/>
		<path fill="#064A93" d="M36.691,10.85c0.091,0,0.182,0.034,0.251,0.104l1.417,1.417c0.139,0.139,0.139,0.362,0,0.501l-1.417,1.418
			c-0.139,0.138-0.362,0.138-0.501,0c-0.138-0.139-0.138-0.362,0-0.5l1.168-1.168l-1.168-1.168c-0.138-0.138-0.138-0.362,0-0.5
			C36.511,10.884,36.601,10.85,36.691,10.85z"/>
		<path fill="#064A93" d="M32.681,10.85c0.091,0,0.181,0.034,0.25,0.104l1.417,1.417c0.139,0.139,0.139,0.362,0,0.501l-1.417,1.418
			c-0.138,0.138-0.362,0.138-0.501,0c-0.138-0.139-0.138-0.362,0-0.5l1.168-1.168l-1.168-1.168c-0.138-0.138-0.138-0.362,0-0.5
			C32.499,10.884,32.59,10.85,32.681,10.85z"/>
		<path fill="#064A93" d="M28.669,10.85c0.091,0,0.182,0.034,0.251,0.104l1.417,1.417c0.139,0.139,0.139,0.362,0,0.501L28.92,14.29
			c-0.139,0.138-0.362,0.138-0.501,0c-0.138-0.139-0.138-0.362,0-0.5l1.168-1.168l-1.168-1.168c-0.138-0.138-0.138-0.362,0-0.5
			C28.488,10.884,28.578,10.85,28.669,10.85z"/>
		<path fill="#064A93" d="M24.658,10.85c0.091,0,0.181,0.034,0.25,0.104l1.417,1.417c0.139,0.139,0.139,0.362,0,0.501l-1.417,1.418
			c-0.138,0.138-0.362,0.138-0.501,0c-0.138-0.139-0.138-0.362,0-0.5l1.168-1.168l-1.168-1.168c-0.138-0.138-0.138-0.362,0-0.5
			C24.477,10.884,24.567,10.85,24.658,10.85z"/>
		<path fill="#064A93" d="M20.646,10.85c0.091,0,0.182,0.034,0.25,0.104l1.418,1.417c0.139,0.139,0.139,0.362,0,0.501l-1.418,1.418
			c-0.138,0.138-0.361,0.138-0.5,0c-0.138-0.139-0.138-0.362,0-0.5l1.168-1.168l-1.168-1.168c-0.138-0.138-0.138-0.362,0-0.5
			C20.466,10.884,20.556,10.85,20.646,10.85z"/>
		<path fill="#064A93" d="M16.636,10.85c0.091,0,0.181,0.034,0.25,0.104l1.417,1.417c0.139,0.139,0.139,0.362,0,0.501l-1.417,1.418
			c-0.138,0.138-0.362,0.138-0.501,0c-0.138-0.139-0.138-0.362,0-0.5l1.168-1.168l-1.168-1.168c-0.138-0.138-0.138-0.362,0-0.5
			C16.454,10.884,16.545,10.85,16.636,10.85z"/>
		<path fill="#064A93" d="M12.624,10.85c0.091,0,0.182,0.034,0.25,0.104l1.418,1.417c0.139,0.139,0.139,0.362,0,0.501l-1.418,1.418
			c-0.138,0.138-0.361,0.138-0.5,0c-0.138-0.139-0.138-0.362,0-0.5l1.168-1.168l-1.168-1.168c-0.138-0.138-0.138-0.362,0-0.5
			C12.443,10.884,12.533,10.85,12.624,10.85z"/>
		<path fill="#064A93" d="M64.794,10.85c0.091,0,0.182,0.034,0.25,0.104l1.418,1.417c0.138,0.139,0.138,0.362,0,0.501l-1.418,1.418
			c-0.138,0.138-0.362,0.138-0.5,0c-0.139-0.139-0.139-0.362,0-0.5l1.167-1.168l-1.167-1.168c-0.139-0.138-0.139-0.362,0-0.5
			C64.613,10.884,64.704,10.85,64.794,10.85z"/>
		<path fill="#064A93" d="M40.703,0.666c0.091,0,0.181,0.034,0.25,0.104l1.418,1.418c0.138,0.138,0.138,0.362,0,0.5l-1.418,1.418
			c-0.138,0.139-0.362,0.139-0.5,0c-0.139-0.138-0.139-0.362,0-0.5l1.167-1.168l-1.167-1.168c-0.139-0.138-0.139-0.361,0-0.5
			C40.521,0.7,40.612,0.666,40.703,0.666z"/>
		<path fill="#064A93" d="M36.691,0.666c0.091,0,0.182,0.034,0.251,0.104l1.417,1.418c0.139,0.138,0.139,0.362,0,0.5l-1.417,1.418
			c-0.139,0.139-0.362,0.139-0.501,0c-0.138-0.138-0.138-0.362,0-0.5l1.168-1.168l-1.168-1.168c-0.138-0.138-0.138-0.361,0-0.5
			C36.511,0.7,36.601,0.666,36.691,0.666z"/>
		<path fill="#064A93" d="M60.759,21.232c0.091,0,0.182,0.034,0.25,0.104l1.418,1.418c0.139,0.139,0.139,0.362,0,0.501l-1.418,1.417
			c-0.138,0.139-0.361,0.139-0.5,0c-0.138-0.138-0.138-0.361,0-0.5l1.168-1.167l-1.168-1.168c-0.138-0.139-0.138-0.362,0-0.501
			C60.578,21.266,60.668,21.232,60.759,21.232z"/>
		<path fill="#064A93" d="M56.748,21.232c0.09,0,0.181,0.034,0.25,0.104l1.417,1.418c0.139,0.139,0.139,0.362,0,0.501l-1.417,1.417
			c-0.138,0.139-0.362,0.139-0.501,0c-0.138-0.138-0.138-0.361,0-0.5l1.168-1.167l-1.168-1.168c-0.138-0.139-0.138-0.362,0-0.501
			C56.566,21.266,56.657,21.232,56.748,21.232z"/>
		<path fill="#064A93" d="M52.737,21.232c0.09,0,0.181,0.034,0.249,0.104l1.418,1.418c0.139,0.139,0.139,0.362,0,0.501l-1.418,1.417
			c-0.138,0.139-0.361,0.139-0.5,0c-0.138-0.138-0.138-0.361,0-0.5l1.168-1.167l-1.168-1.168c-0.138-0.139-0.138-0.362,0-0.501
			C52.556,21.266,52.646,21.232,52.737,21.232z"/>
		<path fill="#064A93" d="M48.726,21.232c0.091,0,0.181,0.034,0.25,0.104l1.418,1.418c0.138,0.139,0.138,0.362,0,0.501l-1.418,1.417
			c-0.138,0.139-0.362,0.139-0.5,0c-0.139-0.138-0.139-0.361,0-0.5l1.167-1.167l-1.167-1.168c-0.139-0.139-0.139-0.362,0-0.501
			C48.544,21.266,48.635,21.232,48.726,21.232z"/>
		<path fill="#064A93" d="M44.714,21.232c0.091,0,0.182,0.034,0.251,0.104l1.417,1.418c0.139,0.139,0.139,0.362,0,0.501
			l-1.417,1.417c-0.139,0.139-0.362,0.139-0.501,0c-0.138-0.138-0.138-0.361,0-0.5l1.168-1.167l-1.168-1.168
			c-0.138-0.139-0.138-0.362,0-0.501C44.533,21.266,44.624,21.232,44.714,21.232z"/>
		<path fill="#064A93" d="M40.703,21.232c0.091,0,0.181,0.034,0.25,0.104l1.418,1.418c0.138,0.139,0.138,0.362,0,0.501l-1.418,1.417
			c-0.138,0.139-0.362,0.139-0.5,0c-0.139-0.138-0.139-0.361,0-0.5l1.167-1.167l-1.167-1.168c-0.139-0.139-0.139-0.362,0-0.501
			C40.521,21.266,40.612,21.232,40.703,21.232z"/>
		<path fill="#064A93" d="M36.691,21.232c0.091,0,0.182,0.034,0.251,0.104l1.417,1.418c0.139,0.139,0.139,0.362,0,0.501
			l-1.417,1.417c-0.139,0.139-0.362,0.139-0.501,0c-0.138-0.138-0.138-0.361,0-0.5l1.168-1.167l-1.168-1.168
			c-0.138-0.139-0.138-0.362,0-0.501C36.511,21.266,36.601,21.232,36.691,21.232z"/>
		<path fill="#064A93" d="M28.669,21.232c0.091,0,0.182,0.034,0.251,0.104l1.417,1.418c0.139,0.139,0.139,0.362,0,0.501
			l-1.417,1.417c-0.139,0.139-0.362,0.139-0.501,0c-0.138-0.138-0.138-0.361,0-0.5l1.168-1.167l-1.168-1.168
			c-0.138-0.139-0.138-0.362,0-0.501C28.488,21.266,28.578,21.232,28.669,21.232z"/>
		<path fill="#064A93" d="M24.658,21.232c0.091,0,0.181,0.034,0.25,0.104l1.417,1.418c0.139,0.139,0.139,0.362,0,0.501l-1.417,1.417
			c-0.138,0.139-0.362,0.139-0.501,0c-0.138-0.138-0.138-0.361,0-0.5l1.168-1.167l-1.168-1.168c-0.138-0.139-0.138-0.362,0-0.501
			C24.477,21.266,24.567,21.232,24.658,21.232z"/>
		<path fill="#064A93" d="M20.646,21.232c0.091,0,0.182,0.034,0.25,0.104l1.418,1.418c0.139,0.139,0.139,0.362,0,0.501l-1.418,1.417
			c-0.138,0.139-0.361,0.139-0.5,0c-0.138-0.138-0.138-0.361,0-0.5l1.168-1.167l-1.168-1.168c-0.138-0.139-0.138-0.362,0-0.501
			C20.466,21.266,20.556,21.232,20.646,21.232z"/>
		<path fill="#064A93" d="M16.636,21.232c0.091,0,0.181,0.034,0.25,0.104l1.417,1.418c0.139,0.139,0.139,0.362,0,0.501l-1.417,1.417
			c-0.138,0.139-0.362,0.139-0.501,0c-0.138-0.138-0.138-0.361,0-0.5l1.168-1.167l-1.168-1.168c-0.138-0.139-0.138-0.362,0-0.501
			C16.454,21.266,16.545,21.232,16.636,21.232z"/>
		<path fill="#064A93" d="M12.624,21.232c0.091,0,0.182,0.034,0.25,0.104l1.418,1.418c0.139,0.139,0.139,0.362,0,0.501l-1.418,1.417
			c-0.138,0.139-0.361,0.139-0.5,0c-0.138-0.138-0.138-0.361,0-0.5l1.168-1.167l-1.168-1.168c-0.138-0.139-0.138-0.362,0-0.501
			C12.443,21.266,12.533,21.232,12.624,21.232z"/>
		<path fill="#064A93" d="M8.613,21.232c0.09,0,0.181,0.034,0.25,0.104l1.417,1.418c0.139,0.139,0.139,0.362,0,0.501l-1.417,1.417
			c-0.139,0.139-0.362,0.139-0.501,0c-0.138-0.138-0.138-0.361,0-0.5l1.168-1.167l-1.168-1.168c-0.138-0.139-0.138-0.362,0-0.501
			C8.432,21.266,8.522,21.232,8.613,21.232z"/>
		<path fill="#064A93" d="M4.602,21.232c0.091,0,0.181,0.034,0.25,0.104l1.418,1.418c0.139,0.139,0.139,0.362,0,0.501l-1.418,1.417
			c-0.139,0.139-0.362,0.139-0.5,0c-0.139-0.138-0.139-0.361,0-0.5l1.168-1.167l-1.168-1.168c-0.139-0.139-0.139-0.362,0-0.501
			C4.42,21.266,4.511,21.232,4.602,21.232z"/>
		<path fill="#064A93" d="M0.59,21.232c0.091,0,0.182,0.034,0.251,0.104l1.417,1.418c0.139,0.139,0.139,0.362,0,0.501l-1.417,1.417
			c-0.139,0.139-0.362,0.139-0.501,0c-0.138-0.138-0.138-0.361,0-0.5l1.168-1.167L0.34,21.836c-0.138-0.139-0.138-0.362,0-0.501
			C0.409,21.266,0.5,21.232,0.59,21.232z"/>
		<path fill="#064A93" d="M72.816,21.232c0.091,0,0.182,0.034,0.25,0.104l1.418,1.418c0.139,0.139,0.139,0.362,0,0.501l-1.418,1.417
			c-0.138,0.139-0.361,0.139-0.5,0c-0.139-0.138-0.139-0.361,0-0.5l1.167-1.167l-1.167-1.168c-0.139-0.139-0.139-0.362,0-0.501
			C72.636,21.266,72.726,21.232,72.816,21.232z"/>
		<path fill="#064A93" d="M68.806,21.232c0.09,0,0.181,0.034,0.25,0.104l1.418,1.418c0.138,0.139,0.138,0.362,0,0.501l-1.418,1.417
			c-0.138,0.139-0.362,0.139-0.5,0c-0.139-0.138-0.139-0.361,0-0.5l1.167-1.167l-1.167-1.168c-0.139-0.139-0.139-0.362,0-0.501
			C68.624,21.266,68.715,21.232,68.806,21.232z"/>
		<path fill="#064A93" d="M64.794,21.232c0.091,0,0.182,0.034,0.25,0.104l1.418,1.418c0.138,0.139,0.138,0.362,0,0.501l-1.418,1.417
			c-0.138,0.139-0.362,0.139-0.5,0c-0.139-0.138-0.139-0.361,0-0.5l1.167-1.167l-1.167-1.168c-0.139-0.139-0.139-0.362,0-0.501
			C64.613,21.266,64.704,21.232,64.794,21.232z"/>
		<path fill="#064A93" d="M84.874,21.232c0.091,0,0.181,0.034,0.25,0.104l1.418,1.418c0.139,0.139,0.139,0.362,0,0.501l-1.418,1.417
			c-0.138,0.139-0.362,0.139-0.5,0c-0.139-0.138-0.139-0.361,0-0.5l1.168-1.167l-1.168-1.168c-0.139-0.139-0.139-0.362,0-0.501
			C84.693,21.266,84.783,21.232,84.874,21.232z"/>
		<path fill="#064A93" d="M80.863,21.232c0.09,0,0.181,0.034,0.25,0.104l1.417,1.418c0.139,0.139,0.139,0.362,0,0.501l-1.417,1.417
			c-0.139,0.139-0.362,0.139-0.501,0c-0.138-0.138-0.138-0.361,0-0.5l1.168-1.167l-1.168-1.168c-0.138-0.139-0.138-0.362,0-0.501
			C80.682,21.266,80.772,21.232,80.863,21.232z"/>
		<path fill="#064A93" d="M76.852,21.232c0.091,0,0.181,0.034,0.25,0.104l1.418,1.418c0.139,0.139,0.139,0.362,0,0.501l-1.418,1.417
			c-0.138,0.139-0.362,0.139-0.5,0c-0.139-0.138-0.139-0.361,0-0.5l1.168-1.167l-1.168-1.168c-0.139-0.139-0.139-0.362,0-0.501
			C76.671,21.266,76.762,21.232,76.852,21.232z"/>
		<path fill="#064A93" d="M60.759,31.813c0.091,0,0.182,0.034,0.25,0.104l1.418,1.418c0.139,0.139,0.139,0.362,0,0.501l-1.418,1.417
			c-0.138,0.139-0.361,0.139-0.5,0c-0.138-0.138-0.138-0.362,0-0.5l1.168-1.168l-1.168-1.168c-0.138-0.138-0.138-0.361,0-0.5
			C60.578,31.847,60.668,31.813,60.759,31.813z"/>
		<path fill="#064A93" d="M52.737,31.813c0.09,0,0.181,0.034,0.249,0.104l1.418,1.418c0.139,0.139,0.139,0.362,0,0.501l-1.418,1.417
			c-0.138,0.139-0.361,0.139-0.5,0c-0.138-0.138-0.138-0.362,0-0.5l1.168-1.168l-1.168-1.168c-0.138-0.138-0.138-0.361,0-0.5
			C52.556,31.847,52.646,31.813,52.737,31.813z"/>
		<path fill="#064A93" d="M48.726,31.813c0.091,0,0.181,0.034,0.25,0.104l1.418,1.418c0.138,0.139,0.138,0.362,0,0.501l-1.418,1.417
			c-0.138,0.139-0.362,0.139-0.5,0c-0.139-0.138-0.139-0.362,0-0.5l1.167-1.168l-1.167-1.168c-0.139-0.138-0.139-0.361,0-0.5
			C48.544,31.847,48.635,31.813,48.726,31.813z"/>
		<path fill="#064A93" d="M44.714,31.813c0.091,0,0.182,0.034,0.251,0.104l1.417,1.418c0.139,0.139,0.139,0.362,0,0.501
			l-1.417,1.417c-0.139,0.139-0.362,0.139-0.501,0c-0.138-0.138-0.138-0.362,0-0.5l1.168-1.168l-1.168-1.168
			c-0.138-0.138-0.138-0.361,0-0.5C44.533,31.847,44.624,31.813,44.714,31.813z"/>
		<path fill="#064A93" d="M72.816,31.813c0.091,0,0.182,0.034,0.25,0.104l1.418,1.418c0.139,0.139,0.139,0.362,0,0.501l-1.418,1.417
			c-0.138,0.139-0.361,0.139-0.5,0c-0.139-0.138-0.139-0.362,0-0.5l1.167-1.168l-1.167-1.168c-0.139-0.138-0.139-0.361,0-0.5
			C72.636,31.847,72.726,31.813,72.816,31.813z"/>
		<path fill="#064A93" d="M68.806,31.813c0.09,0,0.181,0.034,0.25,0.104l1.418,1.418c0.138,0.139,0.138,0.362,0,0.501l-1.418,1.417
			c-0.138,0.139-0.362,0.139-0.5,0c-0.139-0.138-0.139-0.362,0-0.5l1.167-1.168l-1.167-1.168c-0.139-0.138-0.139-0.361,0-0.5
			C68.624,31.847,68.715,31.813,68.806,31.813z"/>
		<path fill="#064A93" d="M64.794,31.813c0.091,0,0.182,0.034,0.25,0.104l1.418,1.418c0.138,0.139,0.138,0.362,0,0.501l-1.418,1.417
			c-0.138,0.139-0.362,0.139-0.5,0c-0.139-0.138-0.139-0.362,0-0.5l1.167-1.168l-1.167-1.168c-0.139-0.138-0.139-0.361,0-0.5
			C64.613,31.847,64.704,31.813,64.794,31.813z"/>
		<path fill="#064A93" d="M80.863,31.813c0.09,0,0.181,0.034,0.25,0.104l1.417,1.418c0.139,0.139,0.139,0.362,0,0.501l-1.417,1.417
			c-0.139,0.139-0.362,0.139-0.501,0c-0.138-0.138-0.138-0.362,0-0.5l1.168-1.168l-1.168-1.168c-0.138-0.138-0.138-0.361,0-0.5
			C80.682,31.847,80.772,31.813,80.863,31.813z"/>
		<path fill="#064A93" d="M76.852,31.813c0.091,0,0.181,0.034,0.25,0.104l1.418,1.418c0.139,0.139,0.139,0.362,0,0.501l-1.418,1.417
			c-0.138,0.139-0.362,0.139-0.5,0c-0.139-0.138-0.139-0.362,0-0.5l1.168-1.168l-1.168-1.168c-0.139-0.138-0.139-0.361,0-0.5
			C76.671,31.847,76.762,31.813,76.852,31.813z"/>
		<path fill="#064A93" d="M50.19,40.647c-0.09,0-0.181-0.035-0.25-0.104l-1.417-1.418c-0.139-0.139-0.139-0.362,0-0.5l1.417-1.419
			c0.139-0.138,0.362-0.138,0.501,0c0.138,0.139,0.138,0.362,0,0.501l-1.168,1.168l1.168,1.167c0.138,0.139,0.138,0.362,0,0.501
			C50.372,40.612,50.281,40.647,50.19,40.647z"/>
		<path fill="#FB8C3B" d="M33.77,23.004l1.168-1.168c0.138-0.139,0.138-0.362,0-0.501c-0.139-0.138-0.362-0.138-0.5,0l-1.099,1.099
			l-1.099-1.099c-0.069-0.069-0.159-0.104-0.25-0.104s-0.181,0.034-0.25,0.104c-0.139,0.139-0.139,0.362,0,0.501l1.168,1.167
			l-1.168,1.168c-0.139,0.139-0.139,0.362,0,0.5c0.138,0.139,0.362,0.139,0.5,0l1.099-1.098l1.099,1.098
			c0.068,0.069,0.159,0.104,0.25,0.104c0.09,0,0.181-0.035,0.25-0.104c0.138-0.138,0.138-0.361,0-0.5L33.77,23.004z"/>
		<path fill="#FB8C3B" d="M26.162,17.755l1.168-1.168c0.138-0.138,0.138-0.362,0-0.5c-0.139-0.139-0.362-0.139-0.5,0l-1.099,1.098
			l-1.099-1.099c-0.069-0.068-0.159-0.104-0.25-0.104s-0.181,0.035-0.25,0.104c-0.139,0.139-0.139,0.362,0,0.501l1.167,1.168
			l-1.167,1.167c-0.139,0.139-0.139,0.362,0,0.5c0.138,0.139,0.362,0.139,0.5,0l1.099-1.098l1.099,1.099
			c0.068,0.069,0.159,0.104,0.25,0.104c0.09,0,0.181-0.034,0.25-0.104c0.138-0.139,0.138-0.362,0-0.5L26.162,17.755z"/>
		<path fill="#FB8C3B" d="M74.218,28.294l1.167-1.168c0.139-0.139,0.139-0.362,0-0.5c-0.138-0.139-0.362-0.139-0.5,0l-1.099,1.098
			l-1.098-1.098c-0.069-0.069-0.16-0.104-0.251-0.104c-0.09,0-0.181,0.034-0.25,0.104c-0.138,0.138-0.138,0.361,0,0.5l1.168,1.167
			l-1.168,1.168c-0.138,0.139-0.138,0.362,0,0.501c0.139,0.138,0.362,0.138,0.501,0l1.098-1.099l1.099,1.099
			c0.069,0.069,0.159,0.104,0.25,0.104s0.182-0.034,0.25-0.104c0.139-0.139,0.139-0.362,0-0.501L74.218,28.294z"/>
	</g>
	<line fill="none" stroke="#4D4D4D" stroke-miterlimit="10" x1="93.278" y1="41.157" x2="93.278" y2="0.157"/>
</g>
</svg>
