<?xml version="1.0" encoding="utf-8"?>
<!-- Generator: Adobe Illustrator 16.0.0, SVG Export Plug-In . SVG Version: 6.00 Build 0)  -->
<!DOCTYPE svg PUBLIC "-//W3C//DTD SVG 1.0//EN" "http://www.w3.org/TR/2001/REC-SVG-20010904/DTD/svg10.dtd">
<svg version="1.0" id="Layer_1" xmlns="http://www.w3.org/2000/svg" xmlns:xlink="http://www.w3.org/1999/xlink" x="0px" y="0px"
	 width="15px" height="15px" viewBox="0 0 15 15" enable-background="new 0 0 15 15" xml:space="preserve">
<g>
	<path fill="none" stroke="#00BFCD" stroke-linecap="round" stroke-linejoin="round" stroke-miterlimit="10" d="M12.954,5.591
		c0-1.406-0.569-2.678-1.491-3.6C10.542,1.07,9.27,0.5,7.863,0.5c-1.405,0-2.678,0.57-3.598,1.491
		c-0.922,0.922-1.492,2.194-1.492,3.6c0,2.876,5.067,8.947,5.09,8.909C7.84,14.49,12.954,8.562,12.954,5.591z M7.863,8.136
		c-1.405,0-2.545-1.139-2.545-2.545c0-1.406,1.14-2.546,2.545-2.546c1.407,0,2.545,1.14,2.545,2.546
		C10.408,6.997,9.27,8.136,7.863,8.136z"/>
</g>
</svg>
