<?xml version="1.0" encoding="utf-8"?>
<!-- Generator: Adobe Illustrator 16.0.0, SVG Export Plug-In . SVG Version: 6.00 Build 0)  -->
<!DOCTYPE svg PUBLIC "-//W3C//DTD SVG 1.0//EN" "http://www.w3.org/TR/2001/REC-SVG-20010904/DTD/svg10.dtd">
<svg version="1.0" id="Layer_1" xmlns="http://www.w3.org/2000/svg" xmlns:xlink="http://www.w3.org/1999/xlink" x="0px" y="0px"
	 width="15px" height="15px" viewBox="0 0 15 15" enable-background="new 0 0 15 15" xml:space="preserve">
<path fill="#00BFCD" d="M12.955,5.455c0-1.506-0.61-2.87-1.598-3.857C10.371,0.611,9.007,0,7.499,0C5.994,0,4.63,0.611,3.644,1.597
	C2.655,2.585,2.045,3.948,2.045,5.455c0,3.082,5.432,9.585,5.454,9.545C7.477,14.988,12.955,8.637,12.955,5.455z M7.499,8.182
	c-1.505,0-2.727-1.221-2.727-2.727c0-1.506,1.222-2.727,2.727-2.727c1.508,0,2.729,1.221,2.729,2.727
	C10.228,6.96,9.007,8.182,7.499,8.182z"/>
</svg>
