<?xml version="1.0" encoding="utf-8"?>
<!-- Generator: Adobe Illustrator 16.0.0, SVG Export Plug-In . SVG Version: 6.00 Build 0)  -->
<!DOCTYPE svg PUBLIC "-//W3C//DTD SVG 1.0//EN" "http://www.w3.org/TR/2001/REC-SVG-20010904/DTD/svg10.dtd">
<svg version="1.0" id="Layer_1" xmlns="http://www.w3.org/2000/svg" xmlns:xlink="http://www.w3.org/1999/xlink" x="0px" y="0px"
	 width="16px" height="20px" viewBox="0 0 16 20" enable-background="new 0 0 16 20" xml:space="preserve">
<path fill="#00bfcd" d="M13.142,12.416c1.317-1.316,2.131-3.135,2.131-5.144c0-2.008-0.813-3.826-2.131-5.143
	C11.826,0.814,10.008,0,8,0S4.174,0.814,2.858,2.13C1.541,3.446,0.728,5.265,0.728,7.272c0,2.008,0.813,3.827,2.131,5.144
	c0,0,4.005,3.947,5.142,7.584C9.137,16.363,13.142,12.416,13.142,12.416z M8,10.909c-2.008,0-3.637-1.628-3.637-3.637
	c0-2.008,1.629-3.636,3.637-3.636s3.637,1.628,3.637,3.636C11.637,9.281,10.008,10.909,8,10.909z"/>
</svg>
