<?xml version="1.0" encoding="utf-8"?>
<!-- Generator: Adobe Illustrator 16.0.0, SVG Export Plug-In . SVG Version: 6.00 Build 0)  -->
<!DOCTYPE svg PUBLIC "-//W3C//DTD SVG 1.1//EN" "http://www.w3.org/Graphics/SVG/1.1/DTD/svg11.dtd">
<svg version="1.1" id="menú" xmlns="http://www.w3.org/2000/svg" xmlns:xlink="http://www.w3.org/1999/xlink" x="0px" y="0px"
	 width="19.844px" height="19.843px" viewBox="0 0 19.844 19.843" enable-background="new 0 0 19.844 19.843" xml:space="preserve">
<g>
	<g>
		<circle fill="#CC9900" cx="9.922" cy="9.921" r="8.742"/>
	</g>
	<g>
		<path fill-rule="evenodd" clip-rule="evenodd" fill="#FFFFFF" d="M5.246,14.597c0.1-0.414,0.19-0.793,0.281-1.172
			c0.049-0.197,0.121-0.391,0.145-0.59c0.05-0.441,0.289-0.754,0.598-1.061c1.614-1.592,3.211-3.201,4.814-4.803
			c0.039-0.039,0.08-0.076,0.106-0.102c0.603,0.602,1.2,1.197,1.806,1.801c-0.029,0.029-0.07,0.074-0.115,0.119
			c-1.705,1.707-3.41,3.414-5.12,5.117c-0.071,0.07-0.163,0.139-0.257,0.164c-0.69,0.176-1.383,0.342-2.074,0.512
			C5.385,14.593,5.335,14.591,5.246,14.597z M11.279,7.452c-1.602,1.582-3.186,3.148-4.744,4.688c0.121,0.146,0.223,0.27,0.33,0.402
			c1.607-1.588,3.191-3.15,4.781-4.723C11.514,7.688,11.408,7.581,11.279,7.452z M6.098,12.587c-0.07,0.342-0.143,0.664-0.205,0.99
			c-0.061,0.312,0.145,0.506,0.445,0.432c0.223-0.057,0.445-0.109,0.667-0.168c0.089-0.023,0.175-0.055,0.264-0.082
			C6.875,13.366,6.501,12.991,6.098,12.587z"/>
		<path fill-rule="evenodd" clip-rule="evenodd" fill="#FFFFFF" d="M13.66,8.024c-0.615-0.613-1.207-1.207-1.809-1.809
			c0.27-0.271,0.514-0.598,0.835-0.82c0.306-0.215,0.698-0.17,1.051-0.041c0.639,0.232,1.044,0.904,0.776,1.758
			c-0.015,0.045-0.045,0.088-0.077,0.123C14.18,7.499,13.918,7.763,13.66,8.024z M13.064,6.159c0.143-0.125,0.261-0.229,0.379-0.332
			c-0.244-0.197-0.447-0.17-0.613,0.064C12.912,5.985,12.994,6.079,13.064,6.159z"/>
		<path fill-rule="evenodd" clip-rule="evenodd" fill="#FFFFFF" d="M13.064,6.159c-0.07-0.08-0.152-0.174-0.234-0.268
			c0.166-0.234,0.369-0.262,0.613-0.064C13.325,5.931,13.207,6.034,13.064,6.159z"/>
	</g>
</g>
</svg>
