<?xml version="1.0" encoding="utf-8"?>
<!-- Generator: Adobe Illustrator 16.0.0, SVG Export Plug-In . SVG Version: 6.00 Build 0)  -->
<!DOCTYPE svg PUBLIC "-//W3C//DTD SVG 1.1//EN" "http://www.w3.org/Graphics/SVG/1.1/DTD/svg11.dtd">
<svg version="1.1" id="Layer_1" xmlns="http://www.w3.org/2000/svg" xmlns:xlink="http://www.w3.org/1999/xlink" x="0px" y="0px"
	 width="12px" height="12px" viewBox="0 0 12 12" enable-background="new 0 0 12 12" xml:space="preserve">
<path fill="#A4C9E2" d="M11.33,5.062v0.002c-0.704,0-1.283-0.563-1.283-1.271c0-0.354,0.146-0.677,0.381-0.91l0.469-0.47
	l-1.308-1.31L9.114,1.575c-0.231,0.23-0.554,0.376-0.906,0.376c-0.705,0-1.271-0.575-1.271-1.281V0H5.062v0.67
	c0,0.706-0.561,1.281-1.27,1.281c-0.354,0-0.675-0.146-0.907-0.376l0,0V1.573l-0.47-0.471L1.104,2.414l0.472,0.47
	c0.232,0.233,0.377,0.556,0.377,0.91c0,0.707-0.572,1.271-1.283,1.271L0,5.062v1.875h0.67c0.711,0,1.283,0.565,1.283,1.272
	c0,0.354-0.145,0.676-0.377,0.908l-0.472,0.47L2.416,10.9l0.47-0.474c0.232-0.231,0.553-0.375,0.907-0.375
	c0.709,0,1.27,0.574,1.27,1.283V12h1.875v-0.664c0-0.709,0.565-1.283,1.271-1.283c0.354,0,0.675,0.143,0.906,0.375L9.589,10.9
	l1.308-1.312l-0.469-0.471v0.002c-0.236-0.232-0.381-0.555-0.381-0.908c0-0.707,0.579-1.273,1.283-1.273H12V5.062H11.33z M6,7.875
	c-1.035,0-1.875-0.84-1.875-1.875c0-1.036,0.84-1.875,1.875-1.875c1.036,0,1.875,0.839,1.875,1.875C7.875,7.035,7.036,7.875,6,7.875
	z"/>
</svg>
