<?xml version="1.0" encoding="utf-8"?>
<!-- Generator: Adobe Illustrator 16.0.0, SVG Export Plug-In . SVG Version: 6.00 Build 0)  -->
<!DOCTYPE svg PUBLIC "-//W3C//DTD SVG 1.0//EN" "http://www.w3.org/TR/2001/REC-SVG-20010904/DTD/svg10.dtd">
<svg version="1.0" id="Layer_1" xmlns="http://www.w3.org/2000/svg" xmlns:xlink="http://www.w3.org/1999/xlink" x="0px" y="0px"
	 width="32px" height="32px" viewBox="0 0 32 32" enable-background="new 0 0 32 32" xml:space="preserve">
<path fill="#CC9900" d="M20,0h-8C5.373,0,0,5.372,0,12c0,5.225,3.34,9.666,8,11.314V32l8-8h4c6.627,0,12-5.373,12-12
	C32,5.372,26.627,0,20,0z"/>
<g>
	<rect x="8" y="16" fill="#FFFFFF" width="16" height="1"/>
	<rect x="8" y="14" fill="#FFFFFF" width="16" height="1"/>
	<path fill="#FFFFFF" d="M10.669,13c0.088-0.051,0.126-0.238,0.024-0.314l-0.539-0.076c-0.237-0.037-0.287-0.111-0.287-0.188
		C9.867,12.358,11,11,11,11h3.059l-0.044,0.667c-0.038,0.541-0.101,0.717-0.138,0.779c-0.05,0.075-0.213,0.176-0.488,0.202
		l-0.39,0.037c-0.112,0.051-0.112,0.264,0.013,0.314h2.947c0.088-0.051,0.126-0.238,0.051-0.314l-0.326-0.037
		c-0.676-0.076-0.688-0.088-0.613-1.483l0.25-4.751C15.358,5.76,15.396,5.307,15.42,5h-1.168c-0.078,0.217-0.265,0.547-0.713,1.176
		l-2.205,3.116c-0.979,1.37-1.705,2.375-2.069,2.827c-0.25,0.303-0.526,0.49-0.901,0.529l-0.34,0.037
		C7.949,12.762,7.937,12.924,8,13H10.669z M13.877,6.752c0.363-0.541,0.438-0.804,0.476-0.804c0.025,0,0.038,0.276,0.025,0.452
		L14.157,10h-2.374L13.877,6.752z"/>
	<rect x="17" y="12" fill="#FFFFFF" width="7" height="1"/>
	<rect x="17" y="10" fill="#FFFFFF" width="7" height="1"/>
</g>
</svg>
