<?xml version="1.0" encoding="utf-8"?>
<!-- Generator: Adobe Illustrator 16.0.0, SVG Export Plug-In . SVG Version: 6.00 Build 0)  -->
<!DOCTYPE svg PUBLIC "-//W3C//DTD SVG 1.0//EN" "http://www.w3.org/TR/2001/REC-SVG-20010904/DTD/svg10.dtd">
<svg version="1.0" id="Layer_1" xmlns="http://www.w3.org/2000/svg" xmlns:xlink="http://www.w3.org/1999/xlink" x="0px" y="0px"
	 width="32px" height="16px" viewBox="0 0 32 16" enable-background="new 0 0 32 16" xml:space="preserve">
<path fill="#909599" d="M24,2c3.309,0,6,2.691,6,6s-2.691,6-6,6H8c-3.309,0-6-2.691-6-6s2.691-6,6-6H24 M24,0H8C3.582,0,0,3.582,0,8
	s3.582,8,8,8h16c4.418,0,8-3.582,8-8S28.418,0,24,0L24,0z"/>
<path fill="#909599" d="M8,3.999c2.209,0,4,1.791,4,4C12,10.209,10.209,12,8,12s-4-1.791-4-4.001C4,5.79,5.791,3.999,8,3.999z"/>
</svg>
