<?xml version="1.0" encoding="utf-8"?>
<!-- Generator: Adobe Illustrator 16.0.0, SVG Export Plug-In . SVG Version: 6.00 Build 0)  -->
<!DOCTYPE svg PUBLIC "-//W3C//DTD SVG 1.1//EN" "http://www.w3.org/Graphics/SVG/1.1/DTD/svg11.dtd">
<svg version="1.1" id="Layer_1" xmlns="http://www.w3.org/2000/svg" xmlns:xlink="http://www.w3.org/1999/xlink" x="0px" y="0px"
	 width="32px" height="32px" viewBox="0 0 32 32" enable-background="new 0 0 32 32" xml:space="preserve">
<g>
	<g>
		<g>
			<path fill="#FFFFFF" d="M15.999,32C7.177,32,0,24.824,0,16C0,7.178,7.177,0,15.999,0C24.82,0,32,7.178,32,16
				C32,24.824,24.82,32,15.999,32z M15.999,0.681C7.553,0.681,0.681,7.554,0.681,16c0,8.447,6.872,15.318,15.318,15.318
				c8.446,0,15.319-6.871,15.319-15.318C31.318,7.554,24.445,0.681,15.999,0.681z"/>
		</g>
	</g>
	<g>
		<g>
			<path fill="#FFFFFF" d="M7.096,24.875l1.848-5.418L9,19.4c1.635-1.615,3.354-3.365,5.017-5.058
				c1.266-1.288,2.575-2.621,3.821-3.865c0.041-0.042,0.083-0.083,0.121-0.119l0.31-0.306l0.241,0.241
				c1.078,1.078,2.148,2.145,3.234,3.225l0.241,0.24l-0.441,0.453c-3.06,3.062-6.115,6.118-9.176,9.169l-0.064,0.064L7.096,24.875z
				 M9.536,19.828l-1.382,4.049l3.797-1.039c3.029-3.02,6.053-6.045,9.076-9.072c-0.925-0.921-1.841-1.834-2.762-2.753
				c-1.228,1.228-2.516,2.539-3.763,3.808C12.858,16.495,11.158,18.225,9.536,19.828z"/>
		</g>
		<g>
			<path fill="#FFFFFF" d="M22.695,13.085l-0.241-0.24c-0.777-0.773-1.532-1.529-2.287-2.285l-1.193-1.195l0.239-0.24
				c0.145-0.146,0.284-0.3,0.426-0.456c0.338-0.371,0.685-0.756,1.117-1.053c0.558-0.393,1.317-0.434,2.195-0.113
				c1.437,0.522,2.093,1.989,1.597,3.569c-0.05,0.151-0.142,0.272-0.212,0.349c-0.426,0.437-0.85,0.865-1.268,1.289L22.695,13.085z
				 M19.931,9.358l0.719,0.72c0.676,0.677,1.352,1.354,2.042,2.042c0.385-0.387,0.769-0.777,1.15-1.168
				c0.03-0.034,0.053-0.071,0.058-0.089c0.446-1.42-0.272-2.391-1.183-2.722c-0.661-0.24-1.193-0.234-1.572,0.031
				c-0.368,0.256-0.69,0.61-1.002,0.953C20.073,9.204,20.002,9.282,19.931,9.358z"/>
		</g>
	</g>
	<g>
		
			<rect x="14.584" y="11.154" transform="matrix(-0.7085 -0.7057 0.7057 -0.7085 14.1224 38.078)" fill="#FFFFFF" width="0.681" height="9.937"/>
	</g>
	<g>
		
			<rect x="8.415" y="21.051" transform="matrix(-0.6367 -0.7711 0.7711 -0.6367 0.9893 43.2493)" fill="#FFFFFF" width="4.536" height="0.681"/>
	</g>
</g>
</svg>
