<?xml version="1.0" encoding="utf-8"?>
<!-- Generator: Adobe Illustrator 16.0.0, SVG Export Plug-In . SVG Version: 6.00 Build 0)  -->
<!DOCTYPE svg PUBLIC "-//W3C//DTD SVG 1.1//EN" "http://www.w3.org/Graphics/SVG/1.1/DTD/svg11.dtd">
<svg version="1.1" id="Layer_1" xmlns="http://www.w3.org/2000/svg" xmlns:xlink="http://www.w3.org/1999/xlink" x="0px" y="0px"
	 width="18.18px" height="25px" viewBox="3.41 0 18.18 25" enable-background="new 3.41 0 18.18 25" xml:space="preserve">
<path fill="#23A576" d="M19.771,9.772c0-2.008-0.812-3.826-2.129-5.143C16.325,3.312,14.508,2.5,12.5,2.5S8.674,3.315,7.358,4.63
	c-1.317,1.316-2.13,3.135-2.13,5.142c0,4.109,7.238,12.781,7.271,12.728C12.467,22.484,19.771,14.018,19.771,9.772z M12.5,13.41
	c-2.008,0-3.636-1.63-3.636-3.638s1.628-3.636,3.636-3.636s3.636,1.628,3.636,3.636S14.508,13.41,12.5,13.41z"/>
</svg>
