<?xml version="1.0" encoding="utf-8"?>
<!-- Generator: Adobe Illustrator 16.0.0, SVG Export Plug-In . SVG Version: 6.00 Build 0)  -->
<!DOCTYPE svg PUBLIC "-//W3C//DTD SVG 1.0//EN" "http://www.w3.org/TR/2001/REC-SVG-20010904/DTD/svg10.dtd">
<svg version="1.0" id="Layer_1" xmlns="http://www.w3.org/2000/svg" xmlns:xlink="http://www.w3.org/1999/xlink" x="0px" y="0px"
	 width="34px" height="34px" viewBox="0 0 34 34" enable-background="new 0 0 34 34" xml:space="preserve">
<path fill="#2B3033" d="M17,1C8.164,1,1,8.164,1,17c0,8.838,7.164,16,16,16c8.837,0,16-7.162,16-16C33,8.164,25.837,1,17,1z
	 M20.428,17.006h-2.242c0,3.582,0,7.994,0,7.994h-3.322c0,0,0-4.367,0-7.994h-1.58v-2.824h1.58v-1.828
	c0-1.309,0.621-3.354,3.353-3.354l2.461,0.01v2.742c0,0-1.496,0-1.786,0c-0.291,0-0.705,0.145-0.705,0.77v1.66h2.533L20.428,17.006z
	"/>
</svg>
