<?xml version="1.0" encoding="utf-8"?>
<!-- Generator: Adobe Illustrator 16.0.0, SVG Export Plug-In . SVG Version: 6.00 Build 0)  -->
<!DOCTYPE svg PUBLIC "-//W3C//DTD SVG 1.0//EN" "http://www.w3.org/TR/2001/REC-SVG-20010904/DTD/svg10.dtd">
<svg version="1.0" id="Layer_1" xmlns="http://www.w3.org/2000/svg" xmlns:xlink="http://www.w3.org/1999/xlink" x="0px" y="0px"
	 width="42px" height="42px" viewBox="0 0 42 42" enable-background="new 0 0 42 42" xml:space="preserve">
<g>
	<g>
		<path fill="#FFFFFF" d="M41,26c0-1.656-1.343-3-3-3c1.657,0,3-1.344,3-3s-1.343-3-3-3H26.999c0,0,0-8,0-12S21,1,21,1v6
			c0,0,0,2-2,4s-8,8-8,8v20h26c1.104,0,2-0.895,2-2c0-0.762-0.44-1.4-1.065-1.738L38,35c1.657,0,3-1.344,3-3s-1.343-3-3-3
			C39.657,29,41,27.656,41,26z"/>
	</g>
	<rect x="1" y="17" fill="#FFFFFF" width="6" height="24"/>
</g>
</svg>
