<?xml version="1.0" encoding="utf-8"?>
<!-- Generator: Adobe Illustrator 16.0.0, SVG Export Plug-In . SVG Version: 6.00 Build 0)  -->
<!DOCTYPE svg PUBLIC "-//W3C//DTD SVG 1.0//EN" "http://www.w3.org/TR/2001/REC-SVG-20010904/DTD/svg10.dtd">
<svg version="1.0" id="Layer_1" xmlns="http://www.w3.org/2000/svg" xmlns:xlink="http://www.w3.org/1999/xlink" x="0px" y="0px"
	 width="42px" height="42px" viewBox="0 0 42 42" enable-background="new 0 0 42 42" xml:space="preserve">
<g>
	<g>
		<path fill="#E6CC80" d="M15.143,15.416c1.316-1.316,2.131-3.135,2.131-5.144c0-2.008-0.813-3.826-2.131-5.143
			C13.826,3.814,12.008,3,10,3S6.174,3.814,4.857,5.13s-2.13,3.135-2.13,5.143c0,2.009,0.813,3.827,2.131,5.144
			c0,0,4.006,3.947,5.143,7.584C11.137,19.363,15.143,15.416,15.143,15.416z M10,13.909c-2.008,0-3.637-1.628-3.637-3.637
			c0-2.008,1.629-3.636,3.637-3.636s3.637,1.628,3.637,3.636C13.637,12.281,12.008,13.909,10,13.909z"/>
		<rect x="9" y="36" fill="#2B3033" width="30" height="2"/>
		<rect x="27" y="24" fill="#2B3033" width="12" height="2"/>
		<rect x="27" y="28" fill="#2B3033" width="12" height="2"/>
		<rect x="9" y="32" fill="#2B3033" width="30" height="2"/>
		<path fill="#2B3033" d="M25.021,29.371l-0.652-0.075c-1.354-0.151-1.378-0.176-1.229-2.966l0.502-9.503
			c0.073-1.309,0.147-2.214,0.196-2.827h-2.335c-0.157,0.434-0.53,1.094-1.428,2.351l-4.41,6.233
			c-1.956,2.741-3.41,4.75-4.138,5.655c-0.5,0.604-1.055,0.979-1.805,1.057l-0.678,0.075C8.9,29.521,8.874,29.848,9,30h5.339
			c0.177-0.102,0.251-0.479,0.048-0.629l-1.076-0.15c-0.476-0.076-0.576-0.226-0.576-0.378c0-0.126,0.252-0.503,1.127-1.885
			L15.885,24h5.365l-0.221,3.334c-0.074,1.082-0.199,1.434-0.274,1.559c-0.101,0.151-0.427,0.354-0.978,0.403l-0.778,0.075
			c-0.224,0.102-0.224,0.527,0.024,0.629h5.896C25.096,29.898,25.171,29.521,25.021,29.371z M16.568,23l4.187-6.121
			c0.728-1.081,0.877-1.232,0.951-1.232c0.051,0,0.075,0.304,0.051,0.655L21.314,23H16.568z"/>
	</g>
</g>
</svg>
