<?xml version="1.0" encoding="utf-8"?>
<!-- Generator: Adobe Illustrator 16.0.0, SVG Export Plug-In . SVG Version: 6.00 Build 0)  -->
<!DOCTYPE svg PUBLIC "-//W3C//DTD SVG 1.0//EN" "http://www.w3.org/TR/2001/REC-SVG-20010904/DTD/svg10.dtd">
<svg version="1.0" id="Layer_1" xmlns="http://www.w3.org/2000/svg" xmlns:xlink="http://www.w3.org/1999/xlink" x="0px" y="0px"
	 width="34px" height="34px" viewBox="0 0 34 34" enable-background="new 0 0 34 34" xml:space="preserve">
<g>
	<g>
		<path fill="#ff3366" d="M26.025,23.875H7.974c-0.276,0-0.5-0.225-0.5-0.5v-12.75c0-0.276,0.224-0.5,0.5-0.5h18.053
			c0.275,0,0.5,0.224,0.5,0.5v12.75C26.525,23.65,26.303,23.875,26.025,23.875z M8.474,22.875h17.053v-11.75H8.474V22.875z"/>
		<path fill="#ff3366" d="M16.999,19c-0.117,0-0.234-0.041-0.329-0.123l-9.025-7.875c-0.208-0.182-0.229-0.498-0.048-0.705
			c0.182-0.209,0.498-0.23,0.706-0.049l8.696,7.589l8.698-7.589c0.207-0.182,0.523-0.16,0.705,0.049
			c0.183,0.207,0.16,0.523-0.047,0.705l-9.027,7.875C17.233,18.959,17.116,19,16.999,19z"/>
	</g>
</g>
</svg>
