<?xml version="1.0" encoding="utf-8"?>
<!-- Generator: Adobe Illustrator 16.0.0, SVG Export Plug-In . SVG Version: 6.00 Build 0)  -->
<!DOCTYPE svg PUBLIC "-//W3C//DTD SVG 1.0//EN" "http://www.w3.org/TR/2001/REC-SVG-20010904/DTD/svg10.dtd">
<svg version="1.0" id="Layer_1" xmlns="http://www.w3.org/2000/svg" xmlns:xlink="http://www.w3.org/1999/xlink" x="0px" y="0px"
	 width="34px" height="34px" viewBox="0 0 34 34" enable-background="new 0 0 34 34" xml:space="preserve">
<g>
	<g>
		<path fill="#2B3033" d="M26.648,11.015c-0.711,0.315-1.475,0.528-2.274,0.625c0.815-0.491,1.446-1.267,1.742-2.192
			c-0.765,0.455-1.612,0.785-2.515,0.963c-0.724-0.771-1.752-1.252-2.891-1.252c-2.188,0-3.959,1.773-3.959,3.959
			c0,0.311,0.034,0.613,0.102,0.902c-3.29-0.164-6.206-1.74-8.159-4.137c-0.341,0.586-0.538,1.266-0.538,1.992
			c0,1.371,0.7,2.584,1.762,3.293c-0.648-0.02-1.26-0.197-1.793-0.494v0.049c0,1.918,1.365,3.52,3.176,3.882
			c-0.332,0.09-0.683,0.14-1.043,0.14c-0.254,0-0.503-0.024-0.745-0.072c0.504,1.574,1.967,2.72,3.699,2.752
			c-1.355,1.062-3.062,1.693-4.918,1.693c-0.319,0-0.633-0.019-0.943-0.056c1.752,1.123,3.832,1.777,6.069,1.777
			c7.282,0,11.265-6.031,11.265-11.264c0-0.17-0.004-0.342-0.013-0.512C25.445,12.506,26.117,11.809,26.648,11.015z"/>
	</g>
</g>
</svg>
