<?xml version="1.0" encoding="utf-8"?>
<!-- Generator: Adobe Illustrator 16.0.0, SVG Export Plug-In . SVG Version: 6.00 Build 0)  -->
<!DOCTYPE svg PUBLIC "-//W3C//DTD SVG 1.0//EN" "http://www.w3.org/TR/2001/REC-SVG-20010904/DTD/svg10.dtd">
<svg version="1.0" id="Layer_1" xmlns="http://www.w3.org/2000/svg" xmlns:xlink="http://www.w3.org/1999/xlink" x="0px" y="0px"
	 width="74px" height="74px" viewBox="0 0 74 74" enable-background="new 0 0 74 74" xml:space="preserve">
<g>
	<circle fill="#CC9900" cx="37" cy="37" r="36"/>
	<g>
		<path fill="#E6CC80" d="M37,3c18.748,0,34,15.252,34,34c0,18.748-15.252,34-34,34S3,55.748,3,37C3,18.252,18.252,3,37,3 M37,1
			C17.118,1,1,17.117,1,37c0,19.882,16.118,36,36,36s36-16.118,36-36C73,17.117,56.882,1,37,1L37,1z"/>
	</g>
	<polygon fill="#FFFFFF" points="26,43 22,51 30,47 30,43 	"/>
	<polygon fill="#2B3033" points="24,47 22,51 26,49 	"/>
	<polygon fill="#2B3033" points="54,23 50,19 26,43 28,43 28,45 30,45 30,47 	"/>
	<polygon fill="#2B3033" points="40,41 38,43 54,43 54,41 	"/>
	<polygon fill="#2B3033" points="36,45 34,47 54,47 54,45 	"/>
	<polygon fill="#2B3033" points="32,49 30,51 54,51 54,49 	"/>
	<path fill="#E6CC80" d="M30.142,28.416c1.317-1.316,2.131-3.135,2.131-5.144c0-2.008-0.813-3.826-2.131-5.143
		C28.826,16.814,27.008,16,25,16s-3.826,0.814-5.142,2.13c-1.317,1.316-2.131,3.135-2.131,5.143c0,2.009,0.813,3.827,2.131,5.144
		c0,0,4.005,3.947,5.142,7.584C26.137,32.363,30.142,28.416,30.142,28.416z M25,26.909c-2.008,0-3.637-1.628-3.637-3.637
		c0-2.008,1.629-3.636,3.637-3.636s3.637,1.628,3.637,3.636C28.637,25.281,27.008,26.909,25,26.909z"/>
</g>
</svg>
