<?xml version="1.0" encoding="utf-8"?>
<!-- Generator: Adobe Illustrator 16.0.0, SVG Export Plug-In . SVG Version: 6.00 Build 0)  -->
<!DOCTYPE svg PUBLIC "-//W3C//DTD SVG 1.0//EN" "http://www.w3.org/TR/2001/REC-SVG-20010904/DTD/svg10.dtd">
<svg version="1.0" id="Layer_1" xmlns="http://www.w3.org/2000/svg" xmlns:xlink="http://www.w3.org/1999/xlink" x="0px" y="0px"
	 width="34px" height="34px" viewBox="0 0 34 34" enable-background="new 0 0 34 34" xml:space="preserve">
<g>
	<path fill="#2B3033" d="M13.751,9.768c-1.271-0.037-2.124,1.24-1.903,2.908c0.219,1.67,1.427,2.836,2.698,2.875
		c1.271,0.037,2.001-1.037,1.782-2.707C16.109,11.176,15.021,9.807,13.751,9.768z"/>
	<path fill="#2B3033" d="M14.285,18.967c-1.895-0.021-3.499,1.195-3.499,2.607c0,1.439,1.368,2.639,3.262,2.639
		c2.663,0,3.591-1.125,3.591-2.566c0-0.174-0.021-0.344-0.061-0.508c-0.209-0.814-1.037-1.262-2.066-1.977
		C15.139,19.041,14.727,18.971,14.285,18.967z"/>
	<path fill="#2B3033" d="M17,1C8.164,1,1,8.164,1,17c0,8.838,7.164,16,16,16c8.837,0,16-7.162,16-16C33,8.164,25.837,1,17,1z
		 M18.223,12.773c0,1.043-0.577,1.883-1.393,2.52c-0.797,0.623-0.947,0.883-0.947,1.412c0,0.451,0.951,1.123,1.389,1.451
		c1.522,1.143,1.831,1.861,1.831,3.289c0,1.783-1.921,3.555-5.044,3.555c-2.74,0-5.053-1.113-5.053-2.896
		c0-1.809,1.918-3.695,4.658-3.695c0.299,0,0.572-0.008,0.855-0.008c-0.375-0.363-0.678-0.678-0.678-1.229
		c0-0.328,0.104-0.641,0.25-0.92c-0.148,0.01-0.301,0.02-0.457,0.02c-2.251,0-3.562-1.582-3.562-3.564
		c0-1.941,1.995-3.707,4.388-3.707c1.233,0,4.716,0,4.716,0l-1.054,1.107h-1.238C17.759,10.607,18.223,11.637,18.223,12.773z
		 M24.994,12.482h-2.176v2.174H21.73v-2.174h-2.175v-1.088h2.175V9.219h1.088v2.176h2.176V12.482z"/>
</g>
</svg>
