<?xml version="1.0" encoding="utf-8"?>
<!-- Generator: Adobe Illustrator 16.0.0, SVG Export Plug-In . SVG Version: 6.00 Build 0)  -->
<!DOCTYPE svg PUBLIC "-//W3C//DTD SVG 1.0//EN" "http://www.w3.org/TR/2001/REC-SVG-20010904/DTD/svg10.dtd">
<svg version="1.0" id="Layer_1" xmlns="http://www.w3.org/2000/svg" xmlns:xlink="http://www.w3.org/1999/xlink" x="0px" y="0px"
	 width="74px" height="74px" viewBox="0 0 74 74" enable-background="new 0 0 74 74" xml:space="preserve">
<g>
	<circle fill="#CC9900" cx="37" cy="37" r="36"/>
	<g>
		<path fill="#E6CC80" d="M37,3c18.748,0,34,15.252,34,34S55.748,71,37,71S3,55.748,3,37S18.252,3,37,3 M37,1
			C17.118,1,1,17.117,1,37c0,19.882,16.118,36,36,36s36-16.118,36-36C73,17.117,56.882,1,37,1L37,1z"/>
	</g>
	<path fill="#E6CC80" d="M30.142,28.416c1.317-1.316,2.131-3.135,2.131-5.144c0-2.008-0.813-3.826-2.131-5.143
		C28.826,16.814,27.008,16,25,16s-3.826,0.814-5.142,2.13c-1.317,1.316-2.131,3.135-2.131,5.143c0,2.009,0.813,3.827,2.131,5.144
		c0,0,4.005,3.947,5.142,7.584C26.137,32.363,30.142,28.416,30.142,28.416z M25,26.909c-2.008,0-3.637-1.628-3.637-3.637
		c0-2.008,1.629-3.636,3.637-3.636s3.637,1.628,3.637,3.636C28.637,25.281,27.008,26.909,25,26.909z"/>
</g>
<rect x="24" y="49" fill="#2B3033" width="30" height="2"/>
<rect x="42" y="37" fill="#2B3033" width="12" height="2"/>
<rect x="42" y="41" fill="#2B3033" width="12" height="2"/>
<rect x="24" y="45" fill="#2B3033" width="30" height="2"/>
<path fill="#2B3033" d="M40.021,42.371l-0.652-0.075c-1.353-0.152-1.378-0.176-1.229-2.966l0.502-9.503
	c0.075-1.309,0.149-2.214,0.198-2.827h-2.335c-0.158,0.434-0.53,1.094-1.428,2.351l-4.41,6.233c-1.956,2.741-3.41,4.75-4.138,5.655
	c-0.5,0.604-1.054,0.98-1.804,1.057l-0.678,0.075C23.9,42.522,23.874,42.848,24,43h5.339c0.176-0.101,0.251-0.478,0.048-0.629
	l-1.076-0.151c-0.476-0.076-0.576-0.225-0.576-0.377c0-0.126,0.251-0.503,1.127-1.885L30.885,37h5.365l-0.22,3.334
	c-0.075,1.082-0.2,1.434-0.275,1.559c-0.1,0.151-0.427,0.352-0.978,0.403l-0.778,0.075c-0.224,0.101-0.224,0.528,0.025,0.629h5.896
	C40.095,42.899,40.171,42.522,40.021,42.371z M31.568,36l4.187-6.121c0.727-1.081,0.877-1.232,0.951-1.232
	c0.051,0,0.075,0.304,0.051,0.655L36.315,36H31.568z"/>
</svg>
