<?xml version="1.0" encoding="utf-8"?>
<!-- Generator: Adobe Illustrator 16.0.0, SVG Export Plug-In . SVG Version: 6.00 Build 0)  -->
<!DOCTYPE svg PUBLIC "-//W3C//DTD SVG 1.0//EN" "http://www.w3.org/TR/2001/REC-SVG-20010904/DTD/svg10.dtd">
<svg version="1.0" id="Layer_1" xmlns="http://www.w3.org/2000/svg" xmlns:xlink="http://www.w3.org/1999/xlink" x="0px" y="0px"
	 width="34px" height="34px" viewBox="0 0 34 34" enable-background="new 0 0 34 34" xml:space="preserve">
<g>
	<g>
		<g>
			<path fill="#2B3033" d="M20.516,18.555c-1.424,0-2.842,0-4.292,0c0-0.813,0-1.588,0-2.389c2.393,0,4.775,0,7.154,0
				c0.648,4.318-2.342,7.318-5.461,8.25c-3.727,1.113-7.658-0.65-9.299-4.182c-1.6-3.447-0.406-7.617,2.771-9.708
				c3.34-2.193,7.449-1.354,9.678,0.951c-0.564,0.613-1.131,1.23-1.724,1.879c-1.194-1.135-2.605-1.654-4.232-1.494
				c-1.074,0.109-2.029,0.529-2.842,1.244c-1.746,1.535-2.26,3.977-1.285,6.075c0.949,2.049,3.178,3.26,5.395,2.938
				C18.342,21.834,20.287,20.174,20.516,18.555z"/>
		</g>
		<g>
			<path fill="#2B3033" d="M25.355,14.674c0.444,0,0.832,0,1.264,0c0,0.477,0,0.936,0,1.455c0.514,0,0.984,0,1.473,0
				c0,0.449,0,0.832,0,1.264c-0.469,0-0.928,0-1.451,0c0,0.514,0,0.982,0,1.477c-0.442,0-0.828,0-1.274,0c0-0.47,0-0.938,0-1.455
				c-0.521,0-0.976,0-1.466,0c0-0.43,0-0.812,0-1.258c0.461,0,0.929,0,1.455,0C25.355,15.623,25.355,15.15,25.355,14.674z"/>
		</g>
	</g>
</g>
</svg>
