<?xml version="1.0" encoding="utf-8"?>
<!-- Generator: Adobe Illustrator 16.0.0, SVG Export Plug-In . SVG Version: 6.00 Build 0)  -->
<!DOCTYPE svg PUBLIC "-//W3C//DTD SVG 1.0//EN" "http://www.w3.org/TR/2001/REC-SVG-20010904/DTD/svg10.dtd">
<svg version="1.0" id="Layer_1" xmlns="http://www.w3.org/2000/svg" xmlns:xlink="http://www.w3.org/1999/xlink" x="0px" y="0px"
	 width="24px" height="24px" viewBox="0 0 24 24" enable-background="new 0 0 24 24" xml:space="preserve">
<g>
	<g>
		<path fill="#CC9900" d="M22,14.5c0-0.828-0.672-1.5-1.5-1.5c0.828,0,1.5-0.672,1.5-1.5S21.328,10,20.5,10H15c0,0,0-4,0-6s-3-2-3-2
			v3c0,0,0,1-1,2s-4,4-4,4v10h13c0.553,0,1-0.447,1-1c0-0.381-0.221-0.7-0.533-0.869L20.5,19c0.828,0,1.5-0.672,1.5-1.5
			S21.328,16,20.5,16C21.328,16,22,15.328,22,14.5z"/>
	</g>
	<rect x="2" y="10" fill="#CC9900" width="3" height="12"/>
</g>
</svg>
