<?xml version="1.0" encoding="utf-8"?>
<!-- Generator: Adobe Illustrator 16.0.0, SVG Export Plug-In . SVG Version: 6.00 Build 0)  -->
<!DOCTYPE svg PUBLIC "-//W3C//DTD SVG 1.0//EN" "http://www.w3.org/TR/2001/REC-SVG-20010904/DTD/svg10.dtd">
<svg version="1.0" id="Layer_1" xmlns="http://www.w3.org/2000/svg" xmlns:xlink="http://www.w3.org/1999/xlink" x="0px" y="0px"
	 width="34px" height="34px" viewBox="0 0 34 34" enable-background="new 0 0 34 34" xml:space="preserve">
<path fill="#2B3033" d="M17,1C8.164,1,1,8.164,1,17c0,8.838,7.164,16,16,16s16-7.162,16-16C33,8.164,25.836,1,17,1z M23.362,13.738
	c0.007,0.141,0.01,0.281,0.01,0.424c0,4.338-3.302,9.34-9.34,9.34c-1.854,0-3.579-0.543-5.032-1.475
	c0.258,0.029,0.519,0.045,0.783,0.045c1.539,0,2.953-0.523,4.076-1.404c-1.436-0.027-2.648-0.977-3.065-2.279
	c0.2,0.037,0.405,0.059,0.617,0.059c0.3,0,0.59-0.041,0.864-0.115c-1.5-0.303-2.633-1.629-2.633-3.219c0-0.014,0-0.027,0-0.041
	c0.443,0.246,0.949,0.393,1.487,0.41c-0.881-0.588-1.46-1.594-1.46-2.732c0-0.602,0.162-1.166,0.444-1.65
	c1.618,1.986,4.038,3.293,6.766,3.43c-0.056-0.24-0.085-0.49-0.085-0.748c0-1.812,1.47-3.281,3.283-3.281
	c0.943,0,1.797,0.398,2.396,1.035c0.747-0.146,1.45-0.42,2.085-0.797c-0.246,0.768-0.766,1.41-1.443,1.816
	c0.664-0.078,1.297-0.256,1.885-0.516C24.561,12.697,24.004,13.275,23.362,13.738z"/>
</svg>
