<?xml version="1.0" encoding="utf-8"?>
<!-- Generator: Adobe Illustrator 16.0.0, SVG Export Plug-In . SVG Version: 6.00 Build 0)  -->
<!DOCTYPE svg PUBLIC "-//W3C//DTD SVG 1.0//EN" "http://www.w3.org/TR/2001/REC-SVG-20010904/DTD/svg10.dtd">
<svg version="1.0" id="Layer_1" xmlns="http://www.w3.org/2000/svg" xmlns:xlink="http://www.w3.org/1999/xlink" x="0px" y="0px"
	 width="66px" height="66px" viewBox="0 0 66 66" enable-background="new 0 0 66 66" xml:space="preserve">
<g>
	<path fill="#909599" d="M41,1H25C11.745,1,1,11.744,1,25c0,10.448,6.68,19.333,16,22.629V65l16-16h8c13.255,0,24-10.746,24-24
		C65,11.744,54.255,1,41,1z"/>
	<rect x="18" y="34" fill="#FFFFFF" width="30" height="2"/>
	<rect x="36" y="22" fill="#FFFFFF" width="12" height="2"/>
	<rect x="36" y="26" fill="#FFFFFF" width="12" height="2"/>
	<rect x="18" y="30" fill="#FFFFFF" width="30" height="2"/>
	<path fill="#FFFFFF" d="M34.021,27.371l-0.652-0.075c-1.353-0.152-1.378-0.176-1.229-2.966l0.502-9.503
		c0.075-1.309,0.149-2.214,0.198-2.827h-2.335c-0.158,0.434-0.53,1.094-1.428,2.351l-4.41,6.233c-1.956,2.741-3.41,4.75-4.138,5.655
		c-0.5,0.604-1.054,0.98-1.804,1.057l-0.678,0.075C17.9,27.522,17.874,27.848,18,28h5.339c0.176-0.101,0.251-0.478,0.048-0.629
		l-1.076-0.151c-0.476-0.076-0.576-0.225-0.576-0.377c0-0.126,0.251-0.503,1.127-1.885L24.885,22h5.365l-0.22,3.334
		c-0.075,1.082-0.2,1.434-0.275,1.559c-0.1,0.151-0.427,0.352-0.978,0.403l-0.778,0.075c-0.224,0.101-0.224,0.528,0.025,0.629h5.896
		C34.095,27.899,34.171,27.522,34.021,27.371z M25.568,21l4.187-6.121c0.727-1.081,0.877-1.232,0.951-1.232
		c0.051,0,0.075,0.304,0.051,0.655L30.315,21H25.568z"/>
</g>
</svg>
