<?xml version="1.0" encoding="utf-8"?>
<!-- Generator: Adobe Illustrator 16.0.0, SVG Export Plug-In . SVG Version: 6.00 Build 0)  -->
<!DOCTYPE svg PUBLIC "-//W3C//DTD SVG 1.0//EN" "http://www.w3.org/TR/2001/REC-SVG-20010904/DTD/svg10.dtd">
<svg version="1.0" id="Layer_1" xmlns="http://www.w3.org/2000/svg" xmlns:xlink="http://www.w3.org/1999/xlink" x="0px" y="0px"
	 width="42px" height="42px" viewBox="0 0 42 42" enable-background="new 0 0 42 42" xml:space="preserve">
<g>
	<path fill="#FFFFFF" d="M21,15c-3.314,0-6,2.686-6,6s2.686,6,6,6s6-2.686,6-6S24.314,15,21,15z M21,23c-1.105,0-2-0.895-2-2
		s0.895-2,2-2s2,0.895,2,2S22.105,23,21,23z"/>
	<g>
		<path fill="#FFFFFF" d="M21,1C9.955,1,1,9.955,1,21s8.955,20,20,20s20-8.955,20-20S32.045,1,21,1z M21,29
			c-6.857,0-12.781-2.283-16-8c3.219-5.713,9.143-8,16-8c6.859,0,12.781,2.287,16,8C33.781,26.717,27.859,29,21,29z"/>
	</g>
</g>
</svg>
