<?xml version="1.0" encoding="utf-8"?>
<!-- Generator: Adobe Illustrator 16.0.0, SVG Export Plug-In . SVG Version: 6.00 Build 0)  -->
<!DOCTYPE svg PUBLIC "-//W3C//DTD SVG 1.1//EN" "http://www.w3.org/Graphics/SVG/1.1/DTD/svg11.dtd">
<svg version="1.1" id="Layer_1" xmlns="http://www.w3.org/2000/svg" xmlns:xlink="http://www.w3.org/1999/xlink" x="0px" y="0px"
	 width="75px" height="75px" viewBox="68.8 137.599 75 75" enable-background="new 68.8 137.599 75 75" xml:space="preserve">
<g>
	<g>
		<g>
			<path fill="#D1A521" d="M106.298,212.599c-20.676,0-37.498-16.821-37.498-37.498c0-20.679,16.822-37.502,37.498-37.502
				c20.679,0,37.502,16.823,37.502,37.502C143.8,195.778,126.976,212.599,106.298,212.599z M106.298,139.195
				c-19.795,0-35.902,16.108-35.902,35.906c0,19.795,16.105,35.902,35.902,35.902c19.799,0,35.906-16.106,35.906-35.902
				C142.204,155.303,126.096,139.195,106.298,139.195z"/>
		</g>
	</g>
	<g>
		<g>
			<path fill="#D1A521" d="M85.43,195.898l4.331-12.7l0.134-0.132c3.833-3.784,7.863-7.885,11.759-11.851
				c2.968-3.02,6.037-6.144,8.956-9.061c0.096-0.098,0.196-0.191,0.286-0.276l0.724-0.719l0.565,0.565
				c2.527,2.526,5.035,5.027,7.582,7.56l0.564,0.562l-1.036,1.062c-7.17,7.177-14.331,14.343-21.507,21.492l-0.149,0.149
				L85.43,195.898z M91.15,184.071l-3.239,9.492l8.899-2.442c7.101-7.075,14.187-14.165,21.274-21.258
				c-2.17-2.159-4.315-4.298-6.474-6.453c-2.878,2.878-5.897,5.952-8.819,8.925C98.937,176.258,94.951,180.314,91.15,184.071z"/>
		</g>
		<g>
			<path fill="#D1A521" d="M121.994,168.267l-0.567-0.563c-1.819-1.812-3.589-3.583-5.357-5.355l-2.798-2.801l0.56-0.564
				c0.339-0.341,0.668-0.704,0.999-1.069c0.789-0.869,1.605-1.771,2.617-2.469c1.308-0.918,3.089-1.014,5.143-0.263
				c3.367,1.224,4.908,4.664,3.744,8.365c-0.117,0.355-0.332,0.64-0.494,0.815c-0.997,1.023-1.991,2.029-2.975,3.023
				L121.994,168.267z M115.513,159.534l1.685,1.688c1.583,1.586,3.167,3.171,4.786,4.785c0.899-0.907,1.802-1.823,2.694-2.738
				c0.071-0.08,0.121-0.166,0.135-0.209c1.045-3.327-0.637-5.603-2.771-6.378c-1.549-0.565-2.796-0.549-3.683,0.073
				c-0.865,0.598-1.62,1.429-2.348,2.232C115.846,159.171,115.679,159.353,115.513,159.534z"/>
		</g>
	</g>
	<g>
		
			<rect x="102.982" y="163.741" transform="matrix(0.7083 0.7059 -0.7059 0.7083 154.0719 -22.1015)" fill="#D1A521" width="1.597" height="23.291"/>
	</g>
	<g>
		
			<rect x="88.523" y="186.938" transform="matrix(0.6366 0.7712 -0.7712 0.6366 178.8866 -4.1442)" fill="#D1A521" width="10.634" height="1.596"/>
	</g>
</g>
</svg>
