<?xml version="1.0" encoding="utf-8"?>
<!-- Generator: Adobe Illustrator 16.0.0, SVG Export Plug-In . SVG Version: 6.00 Build 0)  -->
<!DOCTYPE svg PUBLIC "-//W3C//DTD SVG 1.0//EN" "http://www.w3.org/TR/2001/REC-SVG-20010904/DTD/svg10.dtd">
<svg version="1.0" id="Layer_1" xmlns="http://www.w3.org/2000/svg" xmlns:xlink="http://www.w3.org/1999/xlink" x="0px" y="0px"
	 width="24px" height="24px" viewBox="0 0 24 24" enable-background="new 0 0 24 24" xml:space="preserve">
<g>
	<path fill="#CC9900" d="M12,9c-1.657,0-3,1.343-3,3s1.343,3,3,3s3-1.343,3-3S13.657,9,12,9z M12,13c-0.553,0-1-0.447-1-1
		s0.447-1,1-1s1,0.447,1,1S12.553,13,12,13z"/>
	<g>
		<path fill="#CC9900" d="M12,2C6.478,2,2,6.478,2,12s4.478,10,10,10s10-4.478,10-10S17.522,2,12,2z M12,16
			c-3.429,0-6.391-1.142-8-4c1.609-2.856,4.571-4,8-4c3.43,0,6.391,1.144,8,4C18.391,14.858,15.43,16,12,16z"/>
	</g>
</g>
</svg>
