<?xml version="1.0" encoding="utf-8"?>
<!-- Generator: Adobe Illustrator 16.0.0, SVG Export Plug-In . SVG Version: 6.00 Build 0)  -->
<!DOCTYPE svg PUBLIC "-//W3C//DTD SVG 1.0//EN" "http://www.w3.org/TR/2001/REC-SVG-20010904/DTD/svg10.dtd">
<svg version="1.0" id="Layer_1" xmlns="http://www.w3.org/2000/svg" xmlns:xlink="http://www.w3.org/1999/xlink" x="0px" y="0px"
	 width="34px" height="34px" viewBox="0 0 34 34" enable-background="new 0 0 34 34" xml:space="preserve">
<g>
	<path fill="#2B3033" d="M27.014,15.615c-0.625-5.512-5.838-9.453-11.35-8.58c-6.83,1.084-10.447,8.449-7.135,14.518
		c0.086,0.158,0.111,0.404,0.059,0.576c-0.252,0.814-0.541,1.619-0.814,2.43c-0.277,0.818-0.551,1.64-0.852,2.527
		c0.197-0.057,0.322-0.09,0.445-0.129c1.557-0.492,3.111-0.996,4.674-1.469c0.203-0.062,0.479-0.043,0.67,0.049
		c1.318,0.629,2.695,0.982,4.158,1.037C22.895,26.797,27.695,21.617,27.014,15.615z M22.219,19.414
		c-0.107,1.309-1.51,2.234-2.918,1.9c-2.127-0.504-3.93-1.551-5.252-3.312c-0.564-0.748-1.098-1.545-1.475-2.396
		c-0.459-1.031-0.264-2.053,0.518-2.922c0.281-0.312,0.605-0.484,1.066-0.396c0.418-0.098,0.623,0.162,0.766,0.537
		c0.172,0.447,0.324,0.908,0.557,1.324c0.287,0.516,0.154,0.916-0.211,1.295c-0.525,0.547-0.553,0.504-0.049,1.24
		c0.74,1.081,1.725,1.861,2.931,2.372c0.291,0.12,0.507,0.112,0.703-0.154c0.174-0.242,0.4-0.451,0.562-0.701
		c0.205-0.322,0.447-0.352,0.765-0.199c0.579,0.281,1.159,0.559,1.743,0.828C22.189,18.951,22.242,19.146,22.219,19.414z"/>
</g>
</svg>
