<?xml version="1.0" encoding="utf-8"?>
<!-- Generator: Adobe Illustrator 16.0.0, SVG Export Plug-In . SVG Version: 6.00 Build 0)  -->
<!DOCTYPE svg PUBLIC "-//W3C//DTD SVG 1.0//EN" "http://www.w3.org/TR/2001/REC-SVG-20010904/DTD/svg10.dtd">
<svg version="1.0" id="Layer_1" xmlns="http://www.w3.org/2000/svg" xmlns:xlink="http://www.w3.org/1999/xlink" x="0px" y="0px"
	 width="26px" height="26px" viewBox="0 0 26 26" enable-background="new 0 0 26 26" xml:space="preserve">
<g>
	<g>
		<path fill="#2B3033" d="M13,1C6.373,1,1,6.373,1,13c0,6.627,5.373,12,12,12c6.627,0,12-5.373,12-12C25,6.373,19.627,1,13,1z
			 M13,24C6.935,24,2,19.065,2,13S6.935,2,13,2s11,4.935,11,11S19.065,24,13,24z"/>
	</g>
	<polygon fill="#2B3033" points="17.243,7.343 13,11.586 8.758,7.343 7.344,8.757 11.586,13 7.344,17.242 8.758,18.656 13,14.414 
		17.243,18.656 18.657,17.242 14.414,13 18.657,8.757 	"/>
</g>
</svg>
